<svg width="24" height="25" viewBox="0 0 24 25" fill="none" xmlns="http://www.w3.org/2000/svg">
  <path d="M10.9566 20.0097H12.9637C13.1017 20.0097 13.2137 19.8977 13.2137 19.7597V18.9221C13.2137 18.876 13.2009 18.8307 13.1768 18.7914L13.0361 18.5621C12.9907 18.488 12.91 18.4428 12.823 18.4428H11.0781C10.9823 18.4428 10.895 18.4975 10.8532 18.5836L10.7317 18.8339C10.7152 18.8679 10.7066 18.9052 10.7066 18.943V19.7597C10.7066 19.8977 10.8186 20.0097 10.9566 20.0097Z" fill="#7F8596"/>
  <path d="M9.85315 15.6981L8.92988 15.5064C8.71433 15.4617 8.65764 15.1804 8.83905 15.0556L9.3965 14.6724C9.51315 14.5922 9.67305 14.6248 9.74905 14.7442L10.1149 15.3191C10.2335 15.5055 10.0696 15.743 9.85315 15.6981Z" fill="#7F8596"/>
  <path d="M14.9521 15.5064L14.0289 15.6981C13.8124 15.743 13.6485 15.5055 13.7671 15.3191L14.133 14.7442C14.209 14.6248 14.3689 14.5922 14.4855 14.6724L15.043 15.0556C15.2244 15.1804 15.1677 15.4617 14.9521 15.5064Z" fill="#7F8596"/>
  <path fill-rule="evenodd" clip-rule="evenodd" d="M2.49712 3.22165C2.3124 3.32859 2.18199 3.50916 2.13856 3.71814L1.51181 6.73441C1.49091 6.835 1.4909 6.93881 1.51177 7.0394L2.76565 13.0808L1.5283 17.1678C1.48703 17.3041 1.48543 17.4494 1.52369 17.5866L2.65968 21.6605C2.76931 22.0537 3.17321 22.287 3.56855 22.1855L7.65217 21.1375L9.83416 22.7307C9.96256 22.8245 10.1174 22.875 10.2764 22.875H13.7236C13.8826 22.875 14.0374 22.8245 14.1659 22.7307L16.3478 21.1375L20.4315 22.1855C20.8268 22.287 21.2307 22.0537 21.3403 21.6605L22.4763 17.5866C22.5146 17.4494 22.513 17.3041 22.4717 17.1678L21.2344 13.0808L22.4882 7.0394C22.5091 6.93881 22.5091 6.835 22.4882 6.73441L21.8614 3.71814C21.818 3.50916 21.6876 3.32859 21.5029 3.22165C21.3182 3.11471 21.0966 3.09155 20.8938 3.15795L14.4266 5.2752H9.57346L3.10623 3.15795C2.90338 3.09155 2.68184 3.11471 2.49712 3.22165ZM13.4789 21.375H10.5211L8.58964 19.9647L8.79122 17.445C8.80791 17.2363 8.73666 17.0302 8.59468 16.8764C8.4527 16.7226 8.25292 16.6351 8.04361 16.6351H3.25681L4.13889 13.7216L8.44947 12.4643C8.60791 12.4181 8.74668 12.321 8.84428 12.1879L10.5679 9.83753C10.8078 9.51035 10.744 9.05169 10.424 8.80235L6.72537 5.92113L9.22046 6.73798C9.29579 6.76264 9.37455 6.7752 9.45381 6.7752H14.5462C14.6255 6.7752 14.7042 6.76264 14.7795 6.73798L17.2746 5.92113L13.5761 8.80235C13.256 9.05169 13.1922 9.51035 13.4322 9.83753L15.1557 12.1879C15.2533 12.321 15.3921 12.4181 15.5505 12.4643L19.8611 13.7216L20.7432 16.6351H15.9564C15.7471 16.6351 15.5473 16.7226 15.4053 16.8764C15.2634 17.0302 15.1921 17.2363 15.2088 17.445L15.4104 19.9647L13.4789 21.375ZM3.36215 5.20259L8.92743 9.53797L7.78516 11.0956L4.10818 12.1681L3.01213 6.88708L3.36215 5.20259ZM3.23387 18.1351H7.23122L7.10365 19.7297L3.90724 20.55L3.23387 18.1351ZM20.6379 5.20259L15.0726 9.53797L16.2148 11.0956L19.8918 12.1681L20.9879 6.88708L20.6379 5.20259ZM20.7661 18.1351H16.7688L16.8964 19.7297L20.0928 20.55L20.7661 18.1351Z" fill="#7F8596"/>
  <path d="M10.9566 20.0097H12.9637C13.1017 20.0097 13.2137 19.8977 13.2137 19.7597V18.9221C13.2137 18.876 13.2009 18.8307 13.1768 18.7914L13.0361 18.5621C12.9907 18.488 12.91 18.4428 12.823 18.4428H11.0781C10.9823 18.4428 10.895 18.4975 10.8532 18.5836L10.7317 18.8339C10.7152 18.8679 10.7066 18.9052 10.7066 18.943V19.7597C10.7066 19.8977 10.8186 20.0097 10.9566 20.0097Z" stroke="#7F8596" stroke-width="0.125"/>
  <path d="M9.85315 15.6981L8.92988 15.5064C8.71433 15.4617 8.65764 15.1804 8.83905 15.0556L9.3965 14.6724C9.51315 14.5922 9.67305 14.6248 9.74905 14.7442L10.1149 15.3191C10.2335 15.5055 10.0696 15.743 9.85315 15.6981Z" stroke="#7F8596" stroke-width="0.125"/>
  <path d="M14.9521 15.5064L14.0289 15.6981C13.8124 15.743 13.6485 15.5055 13.7671 15.3191L14.133 14.7442C14.209 14.6248 14.3689 14.5922 14.4855 14.6724L15.043 15.0556C15.2244 15.1804 15.1677 15.4617 14.9521 15.5064Z" stroke="#7F8596" stroke-width="0.125"/>
  <path fill-rule="evenodd" clip-rule="evenodd" d="M2.49712 3.22165C2.3124 3.32859 2.18199 3.50916 2.13856 3.71814L1.51181 6.73441C1.49091 6.835 1.4909 6.93881 1.51177 7.0394L2.76565 13.0808L1.5283 17.1678C1.48703 17.3041 1.48543 17.4494 1.52369 17.5866L2.65968 21.6605C2.76931 22.0537 3.17321 22.287 3.56855 22.1855L7.65217 21.1375L9.83416 22.7307C9.96256 22.8245 10.1174 22.875 10.2764 22.875H13.7236C13.8826 22.875 14.0374 22.8245 14.1659 22.7307L16.3478 21.1375L20.4315 22.1855C20.8268 22.287 21.2307 22.0537 21.3403 21.6605L22.4763 17.5866C22.5146 17.4494 22.513 17.3041 22.4717 17.1678L21.2344 13.0808L22.4882 7.0394C22.5091 6.93881 22.5091 6.835 22.4882 6.73441L21.8614 3.71814C21.818 3.50916 21.6876 3.32859 21.5029 3.22165C21.3182 3.11471 21.0966 3.09155 20.8938 3.15795L14.4266 5.2752H9.57346L3.10623 3.15795C2.90338 3.09155 2.68184 3.11471 2.49712 3.22165ZM13.4789 21.375H10.5211L8.58964 19.9647L8.79122 17.445C8.80791 17.2363 8.73666 17.0302 8.59468 16.8764C8.4527 16.7226 8.25292 16.6351 8.04361 16.6351H3.25681L4.13889 13.7216L8.44947 12.4643C8.60791 12.4181 8.74668 12.321 8.84428 12.1879L10.5679 9.83753C10.8078 9.51035 10.744 9.05169 10.424 8.80235L6.72537 5.92113L9.22046 6.73798C9.29579 6.76264 9.37455 6.7752 9.45381 6.7752H14.5462C14.6255 6.7752 14.7042 6.76264 14.7795 6.73798L17.2746 5.92113L13.5761 8.80235C13.256 9.05169 13.1922 9.51035 13.4322 9.83753L15.1557 12.1879C15.2533 12.321 15.3921 12.4181 15.5505 12.4643L19.8611 13.7216L20.7432 16.6351H15.9564C15.7471 16.6351 15.5473 16.7226 15.4053 16.8764C15.2634 17.0302 15.1921 17.2363 15.2088 17.445L15.4104 19.9647L13.4789 21.375ZM3.36215 5.20259L8.92743 9.53797L7.78516 11.0956L4.10818 12.1681L3.01213 6.88708L3.36215 5.20259ZM3.23387 18.1351H7.23122L7.10365 19.7297L3.90724 20.55L3.23387 18.1351ZM20.6379 5.20259L15.0726 9.53797L16.2148 11.0956L19.8918 12.1681L20.9879 6.88708L20.6379 5.20259ZM20.7661 18.1351H16.7688L16.8964 19.7297L20.0928 20.55L20.7661 18.1351Z" stroke="#7F8596" stroke-width="0.125"/>
  </svg>
  