<svg width="512" height="513" viewBox="0 0 512 513" fill="none" xmlns="http://www.w3.org/2000/svg" xmlns:xlink="http://www.w3.org/1999/xlink">
	<rect y="0.578613" width="512" height="512" rx="100" fill="url(#pattern0)" />
	<path fill-rule="evenodd" clip-rule="evenodd" d="M187.817 105.476C61.5049 162.28 58.5096 344.781 182.897 405.253C197.433 412.319 197.971 412.144 193.532 401.788C180.154 370.575 169.067 316.436 176.663 319.409C225.959 338.7 283.475 339.265 329.678 320.911C342.838 315.684 337.803 353.433 319.13 400.005C314.145 412.435 314.303 412.537 328.027 405.777C453.129 344.155 451.091 162.638 324.659 105.742C314.805 101.309 314.115 101.821 318.079 110.632C324.768 125.495 332.983 155.154 336.957 178.784C339.913 196.359 339.821 196.638 332.181 193.251C289.162 174.182 226.993 174.193 177.796 193.278C169.234 196.6 177.914 150.137 192.784 113.052C197.478 101.348 197.368 101.181 187.817 105.476ZM281.302 219.396C358.767 229.851 370.116 273.525 299.724 290.288C232.264 306.352 150.542 281.282 165.486 249.107C175.668 227.185 231.977 212.74 281.302 219.396Z" fill="white" />
	<defs>
		<pattern id="pattern0" patternContentUnits="objectBoundingBox" width="1" height="1">
			<use xlink:href="#image0_8_166" transform="translate(-0.0451577) scale(0.000500628 0.000667557)" />
		</pattern>
	</defs>
</svg>
