<?xml version="1.0" standalone="no"?>
<!DOCTYPE svg PUBLIC "-//W3C//DTD SVG 1.1//EN" "http://www.w3.org/Graphics/SVG/1.1/DTD/svg11.dtd" >
<svg xmlns="http://www.w3.org/2000/svg" xmlns:xlink="http://www.w3.org/1999/xlink" version="1.1">
<metadata>
Created by FontForge 20190801 at Mon Jun 22 10:22:01 2020
 By root
Copyright 2020 The Poppins Project Authors (https://github.com/itfoundry/Poppins)
</metadata>
<defs>
<font id="Poppins-BoldItalic" horiz-adv-x="319" >
  <font-face 
    font-family="Poppins"
    font-weight="700"
    font-style="italic"
    font-stretch="normal"
    units-per-em="1000"
    panose-1="0 0 8 0 0 0 0 0 0 0"
    ascent="800"
    descent="-200"
    x-height="558"
    cap-height="702"
    bbox="-578 -606 2542 1108"
    underline-thickness="50"
    underline-position="-100"
    slope="-10"
    unicode-range="U+000D-FB02"
  />
<missing-glyph horiz-adv-x="500" 
d="M0 700h500v-700h-500v700zM420 650h-340l170 -255zM50 95l170 255l-170 255v-510zM450 95v510l-170 -255zM420 50l-170 255l-170 -255h340z" />
    <glyph glyph-name=".notdef" horiz-adv-x="500" 
d="M0 700h500v-700h-500v700zM420 650h-340l170 -255zM50 95l170 255l-170 255v-510zM450 95v510l-170 -255zM420 50l-170 255l-170 -255h340z" />
    <glyph glyph-name="NULL" horiz-adv-x="0" 
 />
    <glyph glyph-name="NULL" horiz-adv-x="0" 
 />
    <glyph glyph-name="CR" unicode="&#xd;" horiz-adv-x="231" 
 />
    <glyph glyph-name="space" unicode=" " horiz-adv-x="231" 
 />
    <glyph glyph-name="dvA" unicode="&#x905;" horiz-adv-x="838" 
d="M920 740l-22 -131h-99l-108 -609h-156l46 263h-98l-1 -9q-16 -89 -82.5 -142t-159.5 -53q-94 0 -148.5 46.5t-54.5 124.5q0 12 4 40h147q-1 -5 -1 -15q0 -27 17.5 -44t48.5 -17q35 0 59 21t30 55q1 5 1 15q0 28 -20 46t-60 18h-45l22 127h46q44 0 71.5 24.5t27.5 60.5
q0 25 -16 40t-43 15q-31 0 -55 -19t-29 -49h-145q10 59 45.5 105t89 71t118.5 25q84 0 132 -39.5t48 -107.5q0 -17 -3 -35q-10 -54 -44.5 -93t-87.5 -56l-1 -4q29 -8 46 -22h165l60 348h255z" />
    <glyph glyph-name="dvAA" unicode="&#x906;" horiz-adv-x="1156" 
d="M1215 609h-98l-107 -609h-157l107 609h-161l-108 -609h-156l46 263h-98l-1 -9q-16 -89 -82.5 -142t-159.5 -53q-94 0 -148.5 46.5t-54.5 124.5q0 12 4 40h147q-1 -5 -1 -15q0 -27 17.5 -44t48.5 -17q35 0 59 21t30 55q1 5 1 15q0 28 -20 46t-60 18h-45l22 127h46
q44 0 71.5 24.5t27.5 60.5q0 25 -16 40t-43 15q-31 0 -55 -19t-29 -49h-145q10 59 45.5 105t89 71t118.5 25q84 0 132 -39.5t48 -107.5q0 -17 -3 -35q-10 -54 -44.5 -93t-87.5 -56l-1 -4q29 -8 46 -22h165l60 348h573z" />
    <glyph glyph-name="dvI" unicode="&#x907;" horiz-adv-x="585" 
d="M519 609l-13 -73l-20 -111h-186q-31 0 -52.5 -13.5t-21.5 -43.5q0 -35 54 -35h43q76 0 127.5 -36t51.5 -112q0 -21 -4 -40q-14 -74 -66.5 -118.5t-132.5 -44.5q-47 0 -77 16t-45 36l-20 -118h-149l45 257h141q-3 -35 16.5 -55t57.5 -20t60.5 21t22.5 52q0 51 -78 51
q-38 0 -62 2q-59 3 -101 35.5t-42 93.5q0 16 3 32q13 78 70.5 114.5t139.5 36.5h73l12 73h-338l23 131h621l-23 -131h-130z" />
    <glyph glyph-name="dvII" unicode="&#x908;" horiz-adv-x="578" 
d="M661 816q3 15 3 28q0 23 -11 35t-31 12q-30 0 -47.5 -21t-24.5 -64l-12 -66h136l-23 -131h-131l-19 -105h-1l-14 -79h-186q-31 0 -52.5 -13.5t-21.5 -43.5q0 -35 54 -35h43q76 0 127.5 -36t51.5 -112q0 -21 -4 -40q-14 -74 -66.5 -118.5t-132.5 -44.5q-47 0 -77 16
t-45 36l-20 -118h-149l45 257h141q-3 -35 16.5 -55t57.5 -20t60.5 20.5t22.5 51.5q0 52 -78 52q-38 0 -62 2q-59 3 -101 36t-42 94q0 15 3 31q13 78 70.5 114.5t139.5 36.5h74l13 73h-338l23 131h340l12 64q17 93 73.5 155t163.5 62q79 0 121 -38t42 -106q0 -30 -7 -61h-137
z" />
    <glyph glyph-name="dvU" unicode="&#x909;" horiz-adv-x="565" 
d="M624 609h-87l-11 -60q-11 -60 -43 -99t-75 -49l-1 -3q42 -13 66 -50t24 -90q0 -17 -3 -37q-18 -98 -89.5 -157.5t-177.5 -59.5q-99 0 -157 49.5t-58 135.5q0 21 5 49h149q-2 -12 -2 -19q0 -33 22 -54t58 -21q40 0 68 25t36 65q2 12 2 19q0 32 -20 53t-61 21h-60l23 137
h38q41 0 69.5 23.5t36.5 68.5l9 53h-360l23 131h599z" />
    <glyph glyph-name="dvUU" unicode="&#x90a;" horiz-adv-x="851" 
d="M483 450q-32 -39 -75 -49l-1 -3h179q95 0 149 -38t54 -115q0 -23 -4 -43q-15 -84 -74.5 -133.5t-148.5 -49.5q-28 0 -58 6l21 118q10 -1 31 -1q31 0 52.5 16.5t27.5 49.5q1 5 1 13q0 26 -19 39.5t-52 13.5h-74q1 -8 1 -25t-3 -37q-11 -59 -46.5 -106.5t-91.5 -74.5
t-125 -27q-99 0 -157 49.5t-58 135.5q0 21 5 49h149q-2 -12 -2 -19q0 -33 22 -54t58 -21q40 0 68 25t36 65q2 12 2 19q0 32 -20 53t-61 21h-60l23 137h38q41 0 69.5 23.5t36.5 68.5l9 53h-360l23 131h885l-23 -131h-373l-11 -60q-11 -60 -43 -99z" />
    <glyph glyph-name="dvvR" unicode="&#x90b;" horiz-adv-x="1052" 
d="M664 609l-28 -158h145q28 0 46 11.5t25 32.5l8 47h135l-62 -350h-26q-46 0 -71.5 -24.5t-25.5 -60.5q0 -28 21.5 -41t58.5 -13q28 0 58 7l-22 -125q-38 -7 -79 -7q-87 0 -139.5 38t-52.5 107q0 16 3 34q11 63 52 106t103 62l11 66q-39 -14 -88 -14h-122l-58 -327h-144
l30 171l-217 -171h-200l1 7l440 315q-7 35 -34 56t-70 21q-64 0 -107 -38.5t-54 -102.5h-158q15 81 55.5 143t102 96.5t138.5 34.5q108 0 154 -70l26 147h-494l23 131h1086l-23 -131h-447z" />
    <glyph glyph-name="dvvRR" unicode="&#x960;" horiz-adv-x="1054" 
d="M663 609l-28 -158h146q28 0 46 11.5t25 33.5l8 46h135l-63 -354h-35q-71 0 -80 -49q-1 -3 -1 -9q0 -38 65 -38h57l-20 -117h-50q-80 0 -90 -51q-1 -3 -1 -9q0 -42 75 -42q51 0 105 16l-20 -116q-25 -10 -61 -15.5t-69 -5.5q-79 0 -132 31.5t-53 95.5q0 56 35.5 97
t88.5 53l1 4q-37 8 -59 30.5t-22 59.5q0 16 2 25q10 54 50.5 84t93.5 38l13 72q-44 -15 -90 -15h-122l-57 -327h-144l30 171l-217 -171h-201l1 7l441 315q-7 35 -34 56t-70 21q-64 0 -107.5 -38.5t-54.5 -102.5h-157q14 81 54.5 143t102.5 96.5t138 34.5q108 0 154 -70
l26 147h-493l23 131h1088l-23 -131h-450z" />
    <glyph glyph-name="dvvL" unicode="&#x90c;" horiz-adv-x="906" 
d="M753 609l-16 -95q47 -19 74 -62t27 -108q0 -23 -5 -56q-9 -53 -34 -100h-7q-104 0 -116 -72q-1 -4 -1 -13q0 -27 23 -40t61 -13q32 0 59 7l-22 -125q-38 -7 -80 -7q-89 0 -141.5 38t-52.5 110q0 17 3 36q10 56 51 98.5t95 59.5l5 22q3 15 3 27q0 34 -18 54.5t-51 20.5
q-47 0 -75 -33.5t-36 -84.5l-6 -29h-130l5 29q3 18 3 35q0 83 -70 83q-44 0 -72.5 -28.5t-37.5 -76.5q-3 -16 -3 -30q0 -43 23.5 -64t65.5 -21q17 0 29 1l-25 -136q-15 -1 -35 -1q-107 0 -163 51.5t-56 142.5q0 33 5 59q14 79 54.5 133t96.5 81t118 27q67 0 104 -31.5
t49 -82.5h3q21 36 53 63t74 40l16 91h-581l23 131h940l-24 -131h-205z" />
    <glyph glyph-name="dvvLL" unicode="&#x961;" horiz-adv-x="916" 
d="M752 609l-16 -94q47 -20 75 -62t28 -105q0 -28 -6 -60q-10 -52 -34 -100h-30q-71 0 -81 -49l-1 -8q0 -39 67 -39h57l-20 -117h-51q-37 0 -60.5 -11t-29.5 -40q-1 -3 -1 -10q0 -41 76 -41q28 0 57.5 5.5t46.5 10.5l-20 -116q-24 -10 -60.5 -15.5t-68.5 -5.5q-80 0 -133 31
t-53 96q0 56 35.5 97t88.5 53l1 4q-81 19 -81 91q0 6 2 24q10 51 46 80t85 40q4 14 5 21q3 15 3 27q0 34 -18 54.5t-51 20.5q-47 0 -76 -33.5t-36 -84.5l-5 -29h-130l5 29q3 18 3 34q0 38 -16.5 61t-53.5 23q-44 0 -73 -28.5t-37 -76.5q-3 -16 -3 -31q0 -42 23.5 -63
t65.5 -21q17 0 28 1l-24 -136q-15 -1 -35 -1q-107 0 -163 51.5t-56 142.5q0 33 5 59q14 79 54 133t96 81t119 27q66 0 104 -31.5t49 -82.5h3q21 36 53.5 63t74.5 41l15 90h-580l23 131h949l-24 -131h-216z" />
    <glyph glyph-name="dvE" unicode="&#x90f;" horiz-adv-x="652" 
d="M710 609h-87l-14 -79q-18 -105 -70.5 -160t-149.5 -55q-28 0 -53 4l24 141q7 -1 20 -1q65 0 78 75l13 75h-191l-61 -346q-3 -15 -3 -29q0 -40 21.5 -60.5t59.5 -20.5q41 0 69 24.5t35 67.5h153q-18 -108 -89 -167t-180 -59q-110 0 -168.5 53t-58.5 143q0 22 5 54l60 340
h-99l23 131h687z" />
    <glyph glyph-name="dvAI" unicode="&#x910;" horiz-adv-x="652" 
d="M711 609h-87l-14 -79q-18 -105 -70.5 -160t-149.5 -55q-28 0 -53 4l24 141q7 -1 20 -1q65 0 78 75l13 75h-191l-61 -346q-3 -15 -3 -29q0 -40 21.5 -60.5t59.5 -20.5q41 0 69 24.5t35 67.5h153q-18 -108 -89 -167t-180 -59q-110 0 -168.5 53t-58.5 143q0 22 5 54l60 340
h-99l23 131h443q-29 61 -49.5 88t-45.5 36.5t-71 9.5h-52l23 126h50q83 -1 128.5 -18t82.5 -71t81 -171h97z" />
    <glyph glyph-name="dvO" unicode="&#x913;" horiz-adv-x="1156" 
d="M1238 740l-23 -131h-98l-107 -609h-157l107 609h-161l-108 -609h-156l46 263h-98l-1 -9q-16 -89 -82.5 -142t-159.5 -53q-94 0 -148.5 46.5t-54.5 124.5q0 12 4 40h147q-1 -5 -1 -15q0 -27 17.5 -44t48.5 -17q35 0 59 21t30 55q1 5 1 15q0 28 -20 46t-60 18h-45l22 127
h46q44 0 71.5 24.5t27.5 60.5q0 25 -16 40t-43 15q-31 0 -55 -19t-29 -49h-145q10 59 45.5 105t89 71t118.5 25q84 0 132 -39.5t48 -107.5q0 -17 -3 -35q-10 -54 -44.5 -93t-87.5 -56l-1 -4q29 -8 46 -22h165l60 348h341q-29 61 -49 88t-45 36.5t-71 9.5h-52l22 126h50
q83 -1 128.5 -18t82 -71t81.5 -171h85z" />
    <glyph glyph-name="dvAU" unicode="&#x914;" horiz-adv-x="1156" 
d="M1238 740l-23 -131h-98l-107 -609h-157l107 609h-161l-108 -609h-156l46 263h-98l-1 -9q-16 -89 -82.5 -142t-159.5 -53q-94 0 -148.5 46.5t-54.5 124.5q0 12 4 40h147q-1 -5 -1 -15q0 -27 17.5 -44t48.5 -17q35 0 59 21t30 55q1 5 1 15q0 28 -20 46t-60 18h-45l22 127
h46q44 0 71.5 24.5t27.5 60.5q0 25 -16 40t-43 15q-31 0 -55 -19t-29 -49h-145q10 59 45.5 105t89 71t118.5 25q84 0 132 -39.5t48 -107.5q0 -17 -3 -35q-10 -54 -44.5 -93t-87.5 -56l-1 -4q29 -8 46 -22h165l60 348h348q-55 39 -74.5 50t-43 14.5t-80.5 3.5h-53l17 98h50
q54 0 79.5 -3t48.5 -14.5t54 -39.5q-24 58 -48 84.5t-48.5 33t-66.5 6.5h-57l17 99h53q84 0 124 -18t75 -84t91 -230h87z" />
    <glyph glyph-name="dvEcandra" unicode="&#x90d;" horiz-adv-x="653" 
d="M224.5 862.5q-51.5 43.5 -51.5 120.5q0 20 5 48h134q-2 -14 -2 -21q0 -34 22 -54.5t68 -20.5q52 0 83 27t39 69h134q-16 -97 -86.5 -154.5t-189.5 -57.5q-104 0 -155.5 43.5zM684 609h-87l-14 -79q-18 -105 -70.5 -160t-149.5 -55q-28 0 -53 4l24 141q7 -1 20 -1
q65 0 78 75l13 75h-191l-61 -346q-3 -15 -3 -29q0 -40 21.5 -60.5t59.5 -20.5q41 0 69 24.5t35 67.5h153q-18 -108 -89 -167t-180 -59q-110 0 -168.5 53t-58.5 143q0 22 5 54l60 340h-99l23 131h687z" />
    <glyph glyph-name="dvAcandra" unicode="&#x972;" horiz-adv-x="838" 
d="M920 740l-22 -131h-99l-108 -609h-156l46 263h-98l-1 -9q-16 -89 -82.5 -142t-159.5 -53q-94 0 -148.5 46.5t-54.5 124.5q0 12 4 40h147q-1 -5 -1 -15q0 -27 17.5 -44t48.5 -17q35 0 59 21t30 55q1 5 1 15q0 28 -20 46t-60 18h-45l22 127h46q44 0 71.5 24.5t27.5 60.5
q0 25 -16 40t-43 15q-31 0 -55 -19t-29 -49h-145q10 59 45.5 105t89 71t118.5 25q84 0 132 -39.5t48 -107.5q0 -17 -3 -35q-10 -54 -44.5 -93t-87.5 -56l-1 -4q29 -8 46 -22h165l60 348h255zM981 881q-67 -57 -185 -57q-106 0 -160 45t-54 122q0 24 4 44h135q-2 -14 -2 -21
q0 -34 22 -54t68 -20q52 0 83 26.5t39 68.5h134q-17 -97 -84 -154z" />
    <glyph glyph-name="dvOcandra" unicode="&#x911;" horiz-adv-x="1156" 
d="M1215 609h-98l-107 -609h-157l107 609h-161l-108 -609h-156l46 263h-98l-1 -9q-16 -89 -82.5 -142t-159.5 -53q-94 0 -148.5 46.5t-54.5 124.5q0 12 4 40h147q-1 -5 -1 -15q0 -27 17.5 -44t48.5 -17q35 0 59 21t30 55q1 5 1 15q0 28 -20 46t-60 18h-45l22 127h46
q44 0 71.5 24.5t27.5 60.5q0 25 -16 40t-43 15q-31 0 -55 -19t-29 -49h-145q10 59 45.5 105t89 71t118.5 25q84 0 132 -39.5t48 -107.5q0 -17 -3 -35q-10 -54 -44.5 -93t-87.5 -56l-1 -4q29 -8 46 -22h165l60 348h573zM1135 876q-67 -57 -185 -57q-106 0 -160 45t-54 122
q0 24 4 44h135q-2 -14 -2 -21q0 -34 22 -54t68 -20q52 0 83 26.5t39 68.5h134q-17 -97 -84 -154z" />
    <glyph glyph-name="dvmAA" unicode="&#x93e;" 
d="M16 0l107 609h-98l23 131h353l-23 -131h-98l-107 -609h-157z" />
    <glyph glyph-name="dvmI" unicode="&#x93f;" 
d="M811.5 998.5q82.5 -32.5 126.5 -91t44 -135.5q0 -26 -4 -49l-3 -18h-157l2 15q2 18 2 27q0 76 -65.5 116t-164.5 40q-106 0 -188 -41t-102 -122h99l-23 -131h-98l-108 -609h-157l108 609h-98l23 131h98q21 88 85 153.5t162.5 101.5t221.5 36q114 0 196.5 -32.5z" />
    <glyph glyph-name="dvmII" unicode="&#x940;" 
d="M402 740l-23 -131h-98l-108 -609h-157l108 609h-99l23 131h103l7 38q4 28 4 44q0 77 -67 77q-51 0 -75 -35t-34 -86l-13 -73h-152l11 65q22 121 91.5 191t194.5 70q198 0 198 -183q0 -40 -7 -78l-5 -30h98z" />
    <glyph glyph-name="dvmU" unicode="&#x941;" horiz-adv-x="0" 
d="M-158.5 -288.5q-67.5 -51.5 -170.5 -51.5q-96 0 -162.5 44.5t-66.5 136.5q0 28 5 52h139q-4 -22 -4 -31q0 -40 27 -59.5t73 -19.5q48 0 76 22.5t28 61.5q0 24 -17 39t-50 15h-36l22 122h36q85 0 133 -42.5t48 -116.5q0 -21 -2 -32q-11 -89 -78.5 -140.5z" />
    <glyph glyph-name="dvmUU" unicode="&#x942;" horiz-adv-x="0" 
d="M-301 -325q-72 0 -122.5 38.5t-50.5 108.5q0 17 3 35q15 86 79.5 133.5t159.5 47.5q116 0 173.5 -65.5t57.5 -168.5q0 -33 -6 -67q-7 -33 -13 -56h-127l11 63q6 28 6 53q0 58 -29 91t-86 33q-38 0 -66.5 -18t-34.5 -51q-1 -4 -1 -11q0 -26 19 -40t48 -14l26 1l-19 -112
q-9 -1 -28 -1z" />
    <glyph glyph-name="dvmvR" unicode="&#x943;" horiz-adv-x="0" 
d="M-260 -336q-47 0 -90.5 18t-71.5 55t-28 91q0 16 3 36q15 83 81 129.5t170 46.5q39 0 57 -2l-18 -105h-45q-44 0 -68.5 -22t-24.5 -60q0 -29 23.5 -45.5t58.5 -16.5q39 0 86 13l-22 -122q-52 -16 -111 -16z" />
    <glyph glyph-name="dvmvRR" unicode="&#x944;" horiz-adv-x="0" 
d="M-194.5 -476q-36.5 -5 -69.5 -5q-79 0 -132.5 31t-53.5 95q0 57 35.5 97.5t89.5 52.5v4q-36 8 -58 30.5t-22 59.5q0 16 2 25q12 65 66 95.5t117 30.5h81l-15 -85h-20q-71 0 -80 -49q-1 -3 -1 -9q0 -20 18 -30t47 -10h58l-20 -115h-50q-81 0 -91 -51q-1 -3 -1 -9
q0 -42 76 -42q29 0 58.5 5t45.5 10l-21 -117q-23 -9 -59.5 -14z" />
    <glyph glyph-name="dvmvL" unicode="&#x962;" horiz-adv-x="0" 
d="M-54.5 -295.5q-21.5 -16.5 -21.5 -44.5q0 -20 17 -30t45 -10q26 0 45 5l-17 -97q-33 -5 -61 -5q-68 0 -107.5 29.5t-39.5 83.5q0 52 31.5 91t79.5 55l3 14q2 16 2 22q0 25 -12.5 39t-36.5 14q-34 0 -54 -24t-27 -62l-4 -22h-101l4 22q2 9 2 26q0 27 -12.5 43.5
t-38.5 16.5q-38 0 -60.5 -27.5t-22.5 -71.5q0 -31 17.5 -46t48.5 -15q13 0 20 2l-20 -107h-25q-81 0 -123.5 39t-42.5 107q0 24 4 44q10 59 41 100t73.5 61.5t89.5 20.5q50 0 78 -23.5t36 -61.5h3q23 38 61.5 61.5t89.5 23.5q60 0 99 -35.5t39 -102.5q0 -23 -4 -44
q-7 -40 -24 -75h-6q-47 0 -68.5 -16.5z" />
    <glyph glyph-name="dvmvLL" unicode="&#x963;" horiz-adv-x="0" 
d="M-64 -314q-7 -35 49 -35h41l-16 -90h-36q-29 0 -47 -8t-22 -30q-5 -36 57 -36q22 0 44 3.5t33 7.5l-16 -90q-18 -7 -44.5 -10.5t-52.5 -3.5q-60 0 -99.5 22.5t-39.5 70.5q0 45 26.5 76t66.5 39v2q-60 16 -60 70q0 47 28.5 74t70.5 36l2 12q2 14 2 21q0 25 -13 39.5
t-37 14.5q-34 0 -53 -24t-27 -62l-4 -22h-102l4 22q3 13 3 27q0 27 -12.5 43t-39.5 16q-37 0 -60 -27.5t-23 -71.5q0 -31 17.5 -46t48.5 -15q14 0 20 2l-19 -107h-25q-81 0 -123.5 38.5t-42.5 106.5q0 24 4 45q16 88 73.5 135t129.5 47q50 0 78 -23.5t37 -61.5h3
q22 38 60 61.5t90 23.5q60 0 99.5 -36t39.5 -103q0 -22 -4 -43q-7 -37 -25 -75h-26q-53 0 -58 -35z" />
    <glyph glyph-name="dvmE" unicode="&#x947;" horiz-adv-x="0" 
d="M-165 735q-30 64 -50 92t-45 37.5t-72 9.5h-52l22 126h50q84 -1 129.5 -18.5t82 -72t82.5 -174.5h-147z" />
    <glyph glyph-name="dvmAI" unicode="&#x948;" horiz-adv-x="0" 
d="M-190 1054q40 -18 75 -84.5t92 -232.5h-135l-16 12q-46 32 -65.5 42.5t-42.5 13.5t-78 3h-53l17 98h50q54 0 79.5 -3t48.5 -14.5t54 -39.5q-24 58 -48 84.5t-48.5 33t-66.5 6.5h-57l17 99h53q84 0 124 -18z" />
    <glyph glyph-name="dvmO" unicode="&#x94b;" horiz-adv-x="320" 
d="M402 740l-23 -131h-98l-107 -609h-157l107 609h-99l24 131h104q-29 61 -49.5 88t-45 36.5t-70.5 9.5h-53l23 126h50q83 -1 128.5 -18t82.5 -71t81 -171h102z" />
    <glyph glyph-name="dvmAU" unicode="&#x94c;" 
d="M372 740l-23 -131h-98l-107 -609h-157l107 609h-99l24 131h110q-56 39 -75.5 50t-43 14.5t-80.5 3.5h-53l17 98h50q54 0 79.5 -3t48.5 -14.5t54 -39.5q-24 58 -47.5 84.5t-48 33t-67.5 6.5h-57l17 99h53q84 0 124 -18t75 -84t91 -230h106z" />
    <glyph glyph-name="dvmEcandra" unicode="&#x945;" horiz-adv-x="0" 
d="M110 868q-67 -57 -185 -57q-106 0 -160 45t-54 122q0 24 4 44h135q-2 -14 -2 -21q0 -34 22 -54t68 -20q52 0 83 26.5t39 68.5h134q-17 -97 -84 -154z" />
    <glyph glyph-name="dvmOcandra" unicode="&#x949;" horiz-adv-x="320" 
d="M430 868q-67 -57 -185 -57q-106 0 -160 45t-54 122q0 24 4 44h135q-2 -14 -2 -21q0 -34 22 -54t68 -20q52 0 83 26.5t39 68.5h134q-17 -97 -84 -154zM16 0l107 609h-98l23 131h353l-23 -131h-98l-107 -609h-157z" />
    <glyph glyph-name="dvKA" unicode="&#x915;" horiz-adv-x="965" 
d="M607 609l-25 -146q26 32 64.5 50t85.5 18q80 0 126 -51.5t46 -132.5q0 -22 -5 -52q-20 -106 -87 -163.5t-159 -57.5q-35 0 -66 8l22 123q9 -3 25 -3q39 0 69 25.5t38 70.5q2 14 2 19q0 35 -21 57.5t-57 22.5q-46 0 -75.5 -31t-38.5 -80l-50 -286h-151l24 135
q-29 -33 -70 -52t-91 -19q-79 0 -128 51.5t-49 135.5q0 21 5 51q18 104 86 166.5t166 62.5q51 0 86 -18.5t52 -51.5l26 148h-432l23 131h999l-23 -131h-417zM402 296l-1 -1q2 14 2 22q0 35 -21.5 58t-62.5 23q-49 0 -85 -34.5t-36 -87.5q0 -36 23.5 -58t62.5 -22
q47 1 78.5 29.5t38.5 66.5z" />
    <glyph glyph-name="dvKHA" unicode="&#x916;" horiz-adv-x="961" 
d="M1043 740l-24 -131h-97l-107 -609h-156l28 158q-50 -47 -127 -47q-16 0 -30 3q-45 -55 -109 -88t-140 -33q-113 0 -175.5 55.5t-62.5 158.5q0 27 7 69l22 127h25q68 0 107 31t51 99l13 76h-243l24 131h994zM765 609h-339l-17 -98q-17 -97 -70.5 -152.5t-129.5 -64.5
l-7 -37q-3 -15 -3 -28q0 -46 28.5 -73t81.5 -27q77 0 122 56q-24 42 -24 101q0 25 4 48q9 56 39.5 99t75.5 66.5t97 23.5q83 0 119 -49zM688 262.5q28 31.5 28 73.5q0 29 -18 48.5t-53 19.5q-37 0 -65.5 -23t-35.5 -62q-1 -6 -1 -18q0 -33 20 -51.5t52 -18.5q45 0 73 31.5z
" />
    <glyph glyph-name="dvGA" unicode="&#x917;" horiz-adv-x="815" 
d="M897 740l-23 -131h-98l-107 -609h-157l106 609h-126l-39 -226q-16 -96 -75.5 -155t-161.5 -59q-85 0 -134 41.5t-49 118.5q0 25 4 46l6 32h153l-6 -31q-2 -9 -2 -25q0 -48 42 -48q29 0 44.5 21.5t19.5 52.5l42 232h-311l23 131h849z" />
    <glyph glyph-name="dvGHA" unicode="&#x918;" horiz-adv-x="699" 
d="M757 609h-96l-107 -609h-158l30 171q-37 -37 -87 -57t-106 -20q-81 0 -134 40.5t-53 110.5q0 16 3 32q10 55 48 93t85 51v3q-74 21 -74 102q0 17 3 36l8 47h-94l23 131h733zM503 609h-226l-7 -40q-2 -16 -2 -22q0 -60 77 -60h40l-22 -126h-52q-49 0 -74.5 -23t-25.5 -59
q0 -28 22.5 -42.5t60.5 -14.5q60 0 107 37t57 97v-1z" />
    <glyph glyph-name="dvNGA" unicode="&#x919;" horiz-adv-x="703" 
d="M785 740l-22 -131h-246l-13 -74l-19 -110h-185q-31 0 -53 -13t-22 -43q0 -19 14.5 -27.5t38.5 -8.5h44q79 0 129 -36t50 -107q0 -17 -3 -37q-15 -82 -78.5 -127.5t-171.5 -45.5q-103 0 -167.5 44.5t-64.5 122.5q0 8 2 26h156l-1 -11q0 -31 23 -47.5t61 -16.5
q42 0 67.5 20.5t25.5 53.5q0 50 -76 50h-35q-65 0 -118.5 30.5t-53.5 99.5q0 16 3 32q13 75 71 113t138 38h73l13 74h-338l23 131h735zM674.5 432q19.5 -19 19.5 -48q0 -39 -30 -68t-69 -29q-30 0 -49 19.5t-19 48.5q0 39 29.5 67.5t68.5 28.5q30 0 49.5 -19z" />
    <glyph glyph-name="dvCA" unicode="&#x91a;" horiz-adv-x="753" 
d="M812 609h-97l-108 -609h-157l28 160q-35 -37 -84 -57t-105 -20q-77 0 -125.5 40t-48.5 110q0 20 4 39q12 72 69 117h-134l21 123h370l-22 -123h-41q-42 0 -73 -24t-38 -64q-2 -12 -2 -17q0 -34 25 -52.5t64 -18.5q61 0 102.5 42t53.5 112l43 242h-532l23 131h787z" />
    <glyph glyph-name="dvCHA" unicode="&#x91b;" horiz-adv-x="822" 
d="M693 609l-14 -81q47 -17 72.5 -56t25.5 -97q0 -20 -5 -50q-16 -92 -73.5 -161t-150 -106.5t-210.5 -37.5q-89 0 -157.5 23t-107 67t-38.5 103q0 21 4 38q11 55 46.5 92t88.5 53v4q-34 9 -53.5 34t-19.5 68q0 17 3 36l13 71h-94l23 131h858l-23 -131h-188zM548 609h-274
l-11 -64q-2 -9 -2 -24q0 -58 67 -58h21l-23 -126h-17q-52 0 -81.5 -28t-29.5 -69q0 -42 40.5 -64t124.5 -22q116 0 186 46t86 133q3 14 3 26q0 30 -14 47.5t-37 17.5q-27 0 -48.5 -21t-27.5 -59q-3 -18 -3 -38q0 -12 2 -38h-129q-2 22 -2 37q0 32 5 57q12 67 52 108.5
t98 58.5z" />
    <glyph glyph-name="dvJA" unicode="&#x91c;" horiz-adv-x="860" 
d="M918 609h-97l-107 -609h-157l62 354h-115l-5 -30q-18 -100 -87 -162t-172 -62q-91 0 -145.5 49t-54.5 132q0 20 5 48l28 159h158l-29 -160q-3 -13 -3 -26q0 -31 15.5 -48t43.5 -17q34 0 57 24.5t31 66.5l28 160h269l21 121h-639l23 131h894z" />
    <glyph glyph-name="dvJHA" unicode="&#x91d;" horiz-adv-x="877" 
d="M936 609h-99l-106 -609h-155l38 215h-127q7 -24 7 -46q0 -15 -3 -32q-12 -67 -63 -109.5t-128 -42.5q-45 0 -74.5 15t-45.5 33l-21 -117h-148l45 253h141q-3 -31 16 -50t57 -19t59.5 19.5t21.5 49.5q0 25 -19.5 39t-57.5 14q-39 0 -63 2q-60 3 -102 35.5t-42 95.5
q0 16 3 34q13 76 71 111.5t140 35.5h73l12 73h-334l24 131h903zM683 609h-164l-13 -73l-20 -111h-186q-30 0 -52 -13.5t-22 -43.5q0 -35 54 -35h43h312z" />
    <glyph glyph-name="dvNYA" unicode="&#x91e;" horiz-adv-x="835" 
d="M894 609h-97l-108 -609h-157l41 234h-81q-32 -84 -101 -132t-160 -48q-92 0 -146.5 46t-54.5 126q0 15 1 23h148q4 -29 24 -46t52 -17q50 0 82 39t32 95q0 36 -19 58.5t-56 22.5q-33 0 -59.5 -17t-39.5 -46h-148q22 90 95.5 143t173.5 53q87 0 139.5 -45t57.5 -123h83
l43 243h-614l23 131h869z" />
    <glyph glyph-name="dvTTA" unicode="&#x91f;" horiz-adv-x="644" 
d="M249 368.5q-46 -32.5 -57 -93.5q-2 -8 -2 -24q0 -43 29 -69t80 -26q59 0 100 35t51 92h149q-13 -79 -56 -138.5t-110 -92t-151 -32.5q-75 0 -132 26.5t-88.5 75t-31.5 113.5q0 25 4 46q21 119 107.5 184.5t220.5 67.5l14 76h-352l23 131h680l-24 -131h-173l-36 -208h-137
q-62 0 -108 -32.5z" />
    <glyph glyph-name="dvTTHA" unicode="&#x920;" horiz-adv-x="669" 
d="M451 609l-14 -79q75 -19 121.5 -71.5t46.5 -130.5q0 -22 -5 -50q-13 -77 -59 -133.5t-114 -85.5t-148 -29q-69 0 -125.5 26t-89 74.5t-32.5 113.5q0 25 4 48q17 101 85 162t162 79l14 76h-274l23 131h705l-23 -131h-277zM447 308q0 45 -28.5 72.5t-79.5 27.5
q-55 0 -96 -34t-51 -88q-2 -9 -2 -26q0 -44 28.5 -71.5t77.5 -27.5q57 0 98 34.5t51 88.5q2 16 2 24z" />
    <glyph glyph-name="dvDDA" unicode="&#x921;" horiz-adv-x="567" 
d="M247 412q-22 -13 -22 -43q0 -19 14.5 -27.5t38.5 -8.5h44q79 0 129 -36t50 -107q0 -17 -3 -37q-15 -82 -78.5 -127.5t-171.5 -45.5q-103 0 -167.5 44.5t-64.5 122.5q0 8 2 26h156l-1 -11q0 -31 23 -47.5t61 -16.5q42 0 67.5 20.5t25.5 53.5q0 50 -76 50h-35
q-65 0 -118.5 30.5t-53.5 99.5q0 16 3 32q13 75 71 113t138 38h71l13 74h-336l23 131h599l-22 -131h-112l-33 -184h-182q-31 0 -53 -13z" />
    <glyph glyph-name="dvDDHA" unicode="&#x922;" horiz-adv-x="656" 
d="M262 389.5q-61 -43.5 -74 -123.5q-4 -26 -4 -36q0 -57 37.5 -91.5t110.5 -34.5q56 0 96 24t48 67q1 4 1 12q0 20 -12.5 32t-32.5 12q-22 0 -38.5 -12.5t-20.5 -33.5l-2 -18h-110q0 22 3 38q11 65 64 101.5t130 36.5q69 0 111.5 -38t42.5 -102q0 -15 -3 -33
q-17 -93 -94 -146t-199 -53q-82 0 -146.5 29t-100.5 83t-36 125q0 22 5 52q15 83 63 142t119 89t154 30h19l12 68h-379l23 131h689l-23 -131h-162l-31 -176h-116q-83 0 -144 -43.5z" />
    <glyph glyph-name="dvNNA" unicode="&#x923;" horiz-adv-x="896" 
d="M955 609h-98l-108 -609h-157l107 609h-133l-44 -244q-17 -99 -79.5 -159.5t-165.5 -60.5q-93 0 -147 47.5t-54 128.5q0 24 4 44l43 244h-98l23 131h930zM411 609h-134l-45 -258q-2 -14 -2 -19q0 -25 15 -40t41 -15q32 0 53 20t27 54z" />
    <glyph glyph-name="dvTA" unicode="&#x924;" horiz-adv-x="708" 
d="M767 609h-99l-106 -609h-157l62 357h-124q-69 0 -113 -37.5t-44 -105.5q0 -42 27.5 -65.5t80.5 -23.5h18l-21 -124h-28q-64 0 -118 22t-86 67.5t-32 111.5q0 24 4 47q21 123 111 183t217 60h132l20 117h-486l23 131h742z" />
    <glyph glyph-name="dvTHA" unicode="&#x925;" horiz-adv-x="793" 
d="M875 740l-22 -131h-98l-108 -609h-157l33 190q-31 -45 -93 -76.5t-140 -31.5q-112 0 -177 59t-65 163q0 30 6 63q7 41 17 72h87q87 0 140.5 25t64.5 85q1 5 1 15q0 23 -13.5 37t-37.5 14q-38 0 -58 -31t-18 -73h-142q2 65 32 119.5t84.5 86.5t127.5 32q80 0 127.5 -43.5
t47.5 -117.5q0 -23 -4 -43q-18 -100 -97.5 -159t-210.5 -59h-2q-4 -49 29.5 -81.5t106.5 -32.5q54 0 101.5 23.5t81 70t44.5 112.5l57 321h255z" />
    <glyph glyph-name="dvDA" unicode="&#x926;" horiz-adv-x="615" 
d="M241 360.5q-40 -34.5 -40 -94.5q0 -35 22 -56t60 -21t68.5 24.5t37.5 67.5h146l-55 -314h-154l26 148q-25 -24 -60 -37t-77 -13q-49 0 -89.5 21t-64 62t-23.5 99q0 21 5 53q20 112 104 170.5t204 58.5h37l14 80h-374l23 131h645l-24 -131h-112l-38 -214h-179
q-62 0 -102 -34.5z" />
    <glyph glyph-name="dvDHA" unicode="&#x927;" horiz-adv-x="738" 
d="M798 609h-95l-108 -609h-157l30 167q-40 -43 -97 -66t-127 -23q-86 0 -141 39t-55 110q0 17 3 33q11 60 52 96t89 47v3q-41 14 -68.5 49t-27.5 87q0 17 3 36q13 80 69.5 125.5t138.5 45.5q76 0 119 -37t43 -102q0 -32 -12 -71h-116q4 13 4 29q0 22 -12 36t-36 14
q-30 0 -50 -24t-20 -58t24.5 -49.5t65.5 -15.5h83l-23 -127h-52q-47 0 -76.5 -17t-34.5 -50q-1 -4 -1 -13q0 -28 25 -43t69 -15q76 0 130 48t68 125l42 238l21 123h252z" />
    <glyph glyph-name="dvNA" unicode="&#x928;" horiz-adv-x="823" 
d="M882 609h-98l-107 -609h-158l64 365h-126q11 -28 11 -63q0 -19 -3 -40q-10 -61 -45 -104.5t-85 -66t-105 -22.5q-58 0 -103.5 23t-71 65t-25.5 95q0 12 4 40q18 101 91.5 152.5t179.5 51.5h302l20 113h-602l23 131h857zM345 299q0 30 -18.5 48t-50.5 18q-42 0 -72 -28.5
t-30 -70.5q0 -29 19.5 -46.5t53.5 -17.5q36 0 63 23t34 58q1 5 1 16z" />
    <glyph glyph-name="dvPA" unicode="&#x92a;" horiz-adv-x="677" 
d="M736 609h-98l-107 -609h-157l38 214q-59 -54 -147 -54q-93 0 -144 53.5t-51 142.5q0 31 6 62l34 191h-85l23 131h711zM481 609h-214l-34 -191q-3 -18 -3 -34q0 -43 23 -67.5t70 -24.5q48 0 79.5 29.5t41.5 77.5z" />
    <glyph glyph-name="dvPHA" unicode="&#x92b;" horiz-adv-x="984" 
d="M621 609l-26 -148q29 33 71.5 51.5t93.5 18.5q79 0 123 -48t44 -126q0 -21 -5 -51q-13 -72 -48.5 -124.5t-87 -80t-111.5 -27.5q-41 0 -72 10l21 121q13 -4 31 -4q41 0 69.5 26.5t36.5 70.5q2 14 2 22q0 34 -20.5 55.5t-56.5 21.5q-48 0 -79.5 -32.5t-43.5 -85.5
l-49 -279h-157l37 212q-55 -52 -139 -52q-88 0 -137 51.5t-49 137.5q0 30 6 61l35 199h-85l23 131h1019l-24 -131h-422zM464 609h-197l-35 -199q-3 -18 -3 -34q0 -40 20.5 -62t63.5 -22q47 0 77.5 32t37.5 80z" />
    <glyph glyph-name="dvBA" unicode="&#x92c;" horiz-adv-x="688" 
d="M770 740l-23 -131h-98l-107 -609h-151l23 127q-31 -32 -75.5 -50t-96.5 -18q-61 0 -107 26t-71 72t-25 106q0 26 4 49q12 70 51.5 121.5t99 79.5t131.5 28q50 0 88 -16t62 -45l23 129h-473l23 131h722zM249 412l184 -162q15 25 21 55q2 16 2 25q0 48 -30.5 79t-84.5 31
q-52 0 -92 -28zM176 276q0 -48 33.5 -76.5t84.5 -28.5q52 0 91 28l-185 161q-17 -27 -21 -56q-3 -15 -3 -28z" />
    <glyph glyph-name="dvBHA" unicode="&#x92d;" horiz-adv-x="852" 
d="M934 740l-22 -131h-99l-108 -609h-157l59 336h-123l-8 -47q-19 -107 -85 -167.5t-170 -60.5q-88 0 -138.5 43.5t-50.5 118.5q0 22 4 41q17 98 89.5 149t171.5 51h63l13 76q2 18 2 25q0 50 -43 50q-25 0 -43 -17.5t-23 -46.5q-3 -17 -2 -32h-157v9q0 9 2 29
q15 85 77.5 138.5t161.5 53.5q90 0 131.5 -44.5t41.5 -122.5q0 -27 -7 -71l-8 -47h124l48 276h256zM337 336h-58q-43 0 -71 -23.5t-28 -64.5q0 -26 17 -40t44 -14q35 0 57 23.5t29 63.5z" />
    <glyph glyph-name="dvMA" unicode="&#x92e;" horiz-adv-x="843" 
d="M902 609h-98l-107 -609h-158l59 336h-129l-8 -47q-19 -107 -85 -167.5t-170 -60.5q-87 0 -137.5 44t-50.5 118q0 22 4 41q16 97 88.5 148.5t171.5 51.5h63l26 145h-346l23 131h877zM646 609h-128l-26 -145h129zM323 336h-59q-42 0 -70 -23t-28 -64q0 -26 17.5 -40.5
t43.5 -14.5q35 0 56.5 23t29.5 64z" />
    <glyph glyph-name="dvYA" unicode="&#x92f;" horiz-adv-x="757" 
d="M815 609h-97l-107 -609h-158l27 154q-36 -34 -85 -53t-108 -19q-111 0 -175 60t-64 162q0 29 6 60q3 20 15 60h10q81 0 120.5 35.5t51.5 104.5l8 45h-234l23 131h791zM561 609h-147l-13 -74q-13 -81 -61 -131t-134 -60q-2 -16 -2 -23q0 -49 34 -78.5t96 -29.5
q73 0 123 45t62 116z" />
    <glyph glyph-name="dvRA" unicode="&#x930;" horiz-adv-x="532" 
d="M591 609h-85l-9 -53q-46 -256 -286 -256h-4l-17 -100q-3 -12 -3 -23q0 -24 13 -38t38 -14q28 0 47 19.5t24 51.5l5 28h150l-2 -23q-17 -97 -78 -153.5t-158 -56.5q-92 0 -143.5 48t-51.5 125q0 24 4 44l38 218h101q77 0 115.5 33t50.5 97l9 53h-323l23 131h565z" />
    <glyph glyph-name="dvLA" unicode="&#x932;" horiz-adv-x="912" 
d="M777 609l-19 -109q41 -23 65 -66.5t24 -102.5q0 -32 -5 -57q-20 -113 -100 -180t-202 -64l-35 2l25 136q12 -2 26 -2q49 0 83.5 31t43.5 84q3 15 3 28q0 35 -19 56t-54 21q-46 0 -74 -33t-38 -85l-4 -24h-130l4 24q4 26 4 37q0 37 -17.5 59t-54.5 22q-44 0 -72 -28.5
t-37 -76.5q-3 -15 -3 -29q0 -40 24 -63t69 -23q8 0 24 2l-24 -137q-14 -1 -30 -1q-107 0 -165 56t-58 148q0 32 5 56q20 116 93.5 175t170.5 59q67 0 106.5 -32t51.5 -82h3q23 41 60 69.5t86 38.5l16 91h-600l23 131h948l-24 -131h-193z" />
    <glyph glyph-name="dvVA" unicode="&#x935;" horiz-adv-x="667" 
d="M749 740l-24 -131h-97l-107 -609h-153l23 132q-30 -34 -71.5 -52t-90.5 -18q-88 0 -139 51.5t-51 139.5q0 29 6 62q17 101 85.5 160.5t168.5 59.5q52 0 90 -18t61 -51l25 143h-450l23 131h701zM358.5 207q30.5 20 47 51.5t16.5 62.5q0 39 -24.5 63.5t-70.5 24.5
q-50 0 -87 -30.5t-46 -79.5q-2 -16 -2 -22q0 -41 26 -65.5t71 -24.5q39 0 69.5 20z" />
    <glyph glyph-name="dvSHA" unicode="&#x936;" horiz-adv-x="856" 
d="M319 153.5q22 25.5 30 71.5h153q-14 -110 -78.5 -171t-175.5 -61q-99 0 -155.5 49t-56.5 135q0 22 5 50l34 192h140q74 0 128 27t65 89q1 6 1 16q0 28 -15 45t-42 17q-42 0 -65.5 -32.5t-23.5 -80.5h-157q9 116 80.5 182.5t182.5 66.5q88 0 144 -47.5t56 -131.5
q0 -25 -4 -46q-21 -117 -107.5 -177t-207.5 -60h-39l-12 -70q-3 -13 -3 -26q0 -29 15.5 -46t48.5 -17q37 0 59 25.5zM938 740l-24 -131h-97l-108 -609h-159l131 740h257z" />
    <glyph glyph-name="dvSSA" unicode="&#x937;" horiz-adv-x="691" 
d="M750 609h-98l-107 -609h-154l37 210q-62 -62 -161 -62q-94 0 -145.5 56t-51.5 149q0 31 6 65l34 191h-85l23 131h725zM497 609h-233l206 -158zM391.5 299q31.5 19 50.5 52l-199 151l-16 -89q-3 -18 -3 -34q0 -45 24.5 -72t70.5 -27q41 0 72.5 19z" />
    <glyph glyph-name="dvSA" unicode="&#x938;" horiz-adv-x="829" 
d="M888 609h-98l-107 -609h-158l53 300h-371l-18 -98q-2 -14 -2 -20q0 -26 14 -41.5t41 -15.5q32 0 51 22.5t26 61.5h150q-10 -101 -74.5 -159.5t-167.5 -58.5q-93 0 -144 50t-51 131q0 25 4 46l34 194h75q77 0 115.5 34.5t49.5 96.5l12 66h-297l24 131h862zM633 609h-154
l-12 -66q-12 -67 -45 -115h179z" />
    <glyph glyph-name="dvHA" unicode="&#x939;" horiz-adv-x="594" 
d="M677 740l-23 -131h-128l-12 -70l-21 -111h-173q-27 0 -46.5 -11.5t-23.5 -36.5q-1 -3 -1 -10q0 -21 20 -32q26 2 41 2q65 0 111.5 -24t70 -62t23.5 -82q0 -12 -1 -18h-151q0 25 -20 43.5t-56 18.5q-46 0 -78.5 -34.5t-32.5 -89.5q0 -36 20.5 -55.5t56.5 -19.5
q33 0 59.5 17.5t37.5 42.5h150q-21 -84 -91.5 -136.5t-169.5 -52.5q-65 0 -114 24.5t-75.5 68.5t-26.5 101q0 25 4 46q10 56 40.5 99.5t76.5 70.5q-46 32 -46 88q0 69 51 111t135 42h79l13 70h-341l23 131h619z" />
    <glyph glyph-name="dvLLA" unicode="&#x933;" horiz-adv-x="957" 
d="M811 609l-20 -110q48 -22 75 -65.5t27 -102.5q0 -25 -4 -46q-12 -70 -51.5 -122.5t-96 -81t-119.5 -28.5q-67 0 -114.5 30.5t-64.5 85.5h-5q-34 -55 -91 -85.5t-123 -30.5q-56 0 -100.5 22.5t-69.5 64.5t-25 99q0 25 4 46q13 70 52 123t95.5 81.5t120.5 28.5
q63 0 109.5 -28t69.5 -86h4q63 89 158 108l17 97h-638l23 131h995l-24 -131h-204zM363.5 363q-22.5 22 -59.5 22q-50 0 -84.5 -34.5t-34.5 -87.5q0 -35 23 -55.5t61 -20.5q48 0 82.5 33.5t34.5 84.5q0 36 -22.5 58zM714.5 363q-22.5 22 -60.5 22q-50 0 -84 -34.5t-34 -86.5
q0 -35 22 -56t60 -21q50 0 84.5 33t34.5 85q0 36 -22.5 58z" />
    <glyph glyph-name="dvK_SSA" horiz-adv-x="865" 
d="M948 740l-23 -131h-98l-108 -609h-150l60 343h-311q-54 -23 -82 -45t-35 -59q-1 -5 -1 -15q0 -28 18 -45t49 -17q40 0 67 26.5t33 61.5h131l-56 -313h-143l26 150q-23 -23 -58.5 -39t-78.5 -16q-71 0 -114 37.5t-43 99.5q0 17 3 35q12 69 57.5 112t118.5 77
q-39 18 -63 52.5t-24 82.5q0 17 3 35q10 56 46 98.5t90 65t118 22.5q78 0 127.5 -38t49.5 -106q0 -17 -3 -35q-11 -66 -64 -114h159l50 284h249zM283.5 478.5q23.5 -19.5 66.5 -20.5q70 41 70 97q0 27 -18 44t-49 17q-37 0 -65 -24.5t-28 -62.5q0 -31 23.5 -50.5z" />
    <glyph glyph-name="dvJ_NYA" horiz-adv-x="845" 
d="M927 740l-23 -131h-99l-107 -609h-155l66 377h-138q39 -37 39 -101q0 -60 -27 -106t-74 -71.5t-104 -25.5q-48 0 -85 15t-57 41l-22 -127h-152l50 287h146q-2 -40 20.5 -64t63.5 -24q47 0 76 30t29 72q0 36 -25 55t-63 19h-40l22 125h363l19 107h-624l23 131h878z" />
    <glyph glyph-name="dvKxA" unicode="&#x958;" horiz-adv-x="965" 
d="M607 609l-25 -146q26 32 64.5 50t85.5 18q80 0 126 -51.5t46 -132.5q0 -22 -5 -52q-20 -106 -87 -163.5t-159 -57.5q-35 0 -66 8l22 123q9 -3 25 -3q39 0 69 25.5t38 70.5q2 14 2 19q0 35 -21 57.5t-57 22.5q-46 0 -75.5 -31t-38.5 -80l-50 -286h-151l24 135
q-29 -33 -70 -52t-91 -19q-79 0 -128 51.5t-49 135.5q0 21 5 51q18 104 86 166.5t166 62.5q51 0 86 -18.5t52 -51.5l26 148h-432l23 131h999l-23 -131h-417zM402 296l-1 -1q2 14 2 22q0 35 -21.5 58t-62.5 23q-49 0 -85 -34.5t-36 -87.5q0 -36 23.5 -58t62.5 -22
q47 1 78.5 29.5t38.5 66.5zM217 -144q-33 -31 -76 -31q-34 0 -55 20.5t-21 52.5q0 29 15 54t40 40t53 15q34 0 55.5 -22t21.5 -56q0 -42 -33 -73z" />
    <glyph glyph-name="dvKHxA" unicode="&#x959;" horiz-adv-x="961" 
d="M1043 740l-24 -131h-97l-107 -609h-156l28 158q-50 -47 -127 -47q-16 0 -30 3q-45 -55 -109 -88t-140 -33q-113 0 -175.5 55.5t-62.5 158.5q0 27 7 69l22 127h25q68 0 107 31t51 99l13 76h-243l24 131h994zM765 609h-339l-17 -98q-17 -97 -70.5 -152.5t-129.5 -64.5
l-7 -37q-3 -15 -3 -28q0 -46 28.5 -73t81.5 -27q77 0 122 56q-24 42 -24 101q0 25 4 48q9 56 39.5 99t75.5 66.5t97 23.5q83 0 119 -49zM688 262.5q28 31.5 28 73.5q0 29 -18 48.5t-53 19.5q-37 0 -65.5 -23t-35.5 -62q-1 -6 -1 -18q0 -33 20 -51.5t52 -18.5q45 0 73 31.5z
M292 -212q-33 -31 -76 -31q-34 0 -55 20.5t-21 52.5q0 29 15 54t40 40t53 15q34 0 55.5 -22t21.5 -56q0 -42 -33 -73z" />
    <glyph glyph-name="dvGxA" unicode="&#x95a;" horiz-adv-x="815" 
d="M897 740l-23 -131h-98l-107 -609h-157l106 609h-126l-39 -226q-16 -96 -75.5 -155t-161.5 -59q-85 0 -134 41.5t-49 118.5q0 25 4 46l6 32h153l-6 -31q-2 -9 -2 -25q0 -48 42 -48q29 0 44.5 21.5t19.5 52.5l42 232h-311l23 131h849zM246 -40q-33 -31 -76 -31
q-34 0 -55 20.5t-21 52.5q0 29 15 54t40 40t53 15q34 0 55.5 -22t21.5 -56q0 -42 -33 -73z" />
    <glyph glyph-name="dvJxA" unicode="&#x95b;" horiz-adv-x="860" 
d="M918 609h-97l-107 -609h-157l62 354h-115l-5 -30q-18 -100 -87 -162t-172 -62q-91 0 -145.5 49t-54.5 132q0 20 5 48l28 159h158l-29 -160q-3 -13 -3 -26q0 -31 15.5 -48t43.5 -17q34 0 57 24.5t31 66.5l28 160h269l21 121h-639l23 131h894zM269 -108q-33 -31 -76 -31
q-34 0 -55 20.5t-21 52.5q0 29 15 54t40 40t53 15q34 0 55.5 -22t21.5 -56q0 -42 -33 -73z" />
    <glyph glyph-name="dvDDxA" unicode="&#x95c;" horiz-adv-x="567" 
d="M247 412q-22 -13 -22 -43q0 -19 14.5 -27.5t38.5 -8.5h44q79 0 129 -36t50 -107q0 -17 -3 -37q-15 -82 -78.5 -127.5t-171.5 -45.5q-103 0 -167.5 44.5t-64.5 122.5q0 8 2 26h156l-1 -11q0 -31 23 -47.5t61 -16.5q42 0 67.5 20.5t25.5 53.5q0 50 -76 50h-35
q-65 0 -118.5 30.5t-53.5 99.5q0 16 3 32q13 75 71 113t138 38h71l13 74h-336l23 131h599l-22 -131h-112l-33 -184h-182q-31 0 -53 -13zM273 -228q-33 -31 -76 -31q-34 0 -55 20.5t-21 52.5q0 29 15 54t40 40t53 15q34 0 55.5 -22t21.5 -56q0 -42 -33 -73z" />
    <glyph glyph-name="dvDDHxA" unicode="&#x95d;" horiz-adv-x="656" 
d="M262 389.5q-61 -43.5 -74 -123.5q-4 -26 -4 -36q0 -57 37.5 -91.5t110.5 -34.5q56 0 96 24t48 67q1 4 1 12q0 20 -12.5 32t-32.5 12q-22 0 -38.5 -12.5t-20.5 -33.5l-2 -18h-110q0 22 3 38q11 65 64 101.5t130 36.5q69 0 111.5 -38t42.5 -102q0 -15 -3 -33
q-17 -93 -94 -146t-199 -53q-82 0 -146.5 29t-100.5 83t-36 125q0 22 5 52q15 83 63 142t119 89t154 30h19l12 68h-379l23 131h689l-23 -131h-162l-31 -176h-116q-83 0 -144 -43.5zM322 -215q-33 -31 -76 -31q-34 0 -55 20.5t-21 52.5q0 29 15 54t40 40t53 15q34 0 55.5 -22
t21.5 -56q0 -42 -33 -73z" />
    <glyph glyph-name="dvPHxA" unicode="&#x95e;" horiz-adv-x="984" 
d="M621 609l-26 -148q29 33 71.5 51.5t93.5 18.5q79 0 123 -48t44 -126q0 -21 -5 -51q-13 -72 -48.5 -124.5t-87 -80t-111.5 -27.5q-41 0 -72 10l21 121q13 -4 31 -4q41 0 69.5 26.5t36.5 70.5q2 14 2 22q0 34 -20.5 55.5t-56.5 21.5q-48 0 -79.5 -32.5t-43.5 -85.5
l-49 -279h-157l37 212q-55 -52 -139 -52q-88 0 -137 51.5t-49 137.5q0 30 6 61l35 199h-85l23 131h1019l-24 -131h-422zM464 609h-197l-35 -199q-3 -18 -3 -34q0 -40 20.5 -62t63.5 -22q47 0 77.5 32t37.5 80zM225 -43q-33 -31 -76 -31q-34 0 -55 20.5t-21 52.5q0 29 15 54
t40 40t53 15q34 0 55.5 -22t21.5 -56q0 -42 -33 -73z" />
    <glyph glyph-name="dvRxA" unicode="&#x931;" horiz-adv-x="532" 
d="M591 609h-85l-9 -53q-46 -256 -286 -256h-4l-17 -100q-3 -12 -3 -23q0 -24 13 -38t38 -14q28 0 47 19.5t24 51.5l5 28h150l-2 -23q-17 -97 -78 -153.5t-158 -56.5q-92 0 -143.5 48t-51.5 125q0 24 4 44l38 218h101q77 0 115.5 33t50.5 97l9 53h-323l23 131h565zM85 -181
q-33 -31 -76 -31q-34 0 -55 20.5t-21 52.5q0 29 15 54t40 40t53 15q34 0 55.5 -22t21.5 -56q0 -42 -33 -73z" />
    <glyph glyph-name="dvK" horiz-adv-x="702" 
d="M607 609l-25 -146q26 32 64.5 50t85.5 18q80 0 126 -51t46 -131q0 -21 -5 -51h-158q2 14 2 19q0 35 -21 57.5t-57 22.5q-46 0 -75.5 -31t-38.5 -80l-50 -286h-151l24 135q-29 -33 -70 -52t-91 -19q-79 0 -128 51.5t-49 135.5q0 21 5 51q18 104 86 166.5t166 62.5
q51 0 86 -18.5t52 -51.5l26 148h-432l23 131h931l-24 -131h-348zM402 296l-1 -1q2 14 2 22q0 35 -21.5 58t-62.5 23q-49 0 -85 -34.5t-36 -87.5q0 -36 23.5 -58t62.5 -22q47 1 78.5 29.5t38.5 66.5z" />
    <glyph glyph-name="dvKH" horiz-adv-x="670" 
d="M202 257q-3 -15 -3 -28q0 -46 28.5 -73t81.5 -27q76 0 120 53q-28 39 -28 93q0 22 4 41q11 63 48.5 109.5t94 71t122.5 24.5q89 0 141.5 -43.5t52.5 -120.5q0 -13 -4 -41q-11 -65 -49 -111.5t-94 -71t-120 -24.5q-31 0 -58 6q-40 -55 -100 -88.5t-137 -33.5
q-121 0 -189.5 59t-68.5 163q0 30 6 61l22 127h25q69 0 107.5 31t50.5 99l13 76h-243l24 131h886l-23 -131h-486l-17 -98q-17 -97 -70.5 -152.5t-129.5 -64.5zM562.5 245.5q20.5 -18.5 55.5 -18.5q41 0 69 24t36 65q2 14 2 19q0 32 -20 50.5t-56 18.5q-46 0 -76.5 -30
t-30.5 -78q0 -32 20.5 -50.5z" />
    <glyph glyph-name="dvG" horiz-adv-x="561" 
d="M605 609h-113l-39 -226q-16 -96 -75.5 -155t-161.5 -59q-85 0 -134 41.5t-49 118.5q0 25 4 46l6 32h153l-6 -31q-2 -9 -2 -25q0 -48 42 -48q29 0 44.5 21.5t19.5 52.5l42 232h-311l23 131h581z" />
    <glyph glyph-name="dvGH" horiz-adv-x="392" 
d="M269 569q-2 -16 -2 -22q0 -60 77 -60h40l-22 -126h-52q-48 0 -74 -23t-26 -58q0 -28 22.5 -43t61.5 -15q67 0 110.5 37.5t53.5 96.5h134q-13 -72 -56.5 -132t-112 -95t-152.5 -35q-105 0 -164.5 42t-59.5 113q0 17 3 33q10 55 46.5 91t84.5 48l1 3q-74 21 -74 101
q0 18 3 37l8 47h-94l23 131h611l-23 -131h-360z" />
    <glyph glyph-name="dvNG" horiz-adv-x="702" 
d="M785 740l-23 -131h-245l-13 -74l-20 -110h-184q-31 0 -53 -13t-22 -43q0 -19 14.5 -27.5t38.5 -8.5h44q79 0 129 -36t50 -107q0 -17 -3 -37q-15 -82 -78.5 -127.5t-171.5 -45.5q-103 0 -167.5 44.5t-64.5 122.5q0 8 2 26h156l-1 -11q0 -31 23 -47.5t61 -16.5
q42 0 67.5 20.5t25.5 53.5q0 50 -76 50h-35q-65 0 -118.5 30.5t-53.5 99.5q0 16 3 32q13 75 71 113t138 38h73l13 74h-339l24 131h735zM674 432.5q19 -18.5 19 -48.5q0 -39 -29.5 -68t-68.5 -29q-30 0 -49 19.5t-19 48.5q0 39 29.5 67.5t67.5 28.5q31 0 50 -18.5zM317 -77
l94 -223h-160l-90 223h156z" />
    <glyph glyph-name="dvC" horiz-adv-x="449" 
d="M716 740l-23 -131h-668l23 131h668zM460.5 255q41.5 42 53.5 113h136q-14 -86 -58 -151t-113.5 -100.5t-156.5 -35.5q-95 0 -151 39.5t-56 113.5q0 12 4 38q12 71 69 117h-134l21 123h370l-22 -123h-41q-47 0 -80 -29t-33 -76q0 -34 25 -52.5t64 -18.5q61 0 102.5 42z
" />
    <glyph glyph-name="dvCH" horiz-adv-x="823" 
d="M263 545q-2 -9 -2 -24q0 -58 67 -58h21l-23 -126h-17q-52 0 -81.5 -28t-29.5 -69q0 -42 40.5 -64t124.5 -22q116 0 186 46t86 133q3 14 3 26q0 30 -14 47.5t-37 17.5q-27 0 -48.5 -21t-27.5 -59q-3 -18 -3 -38q0 -12 2 -38h-129q-2 22 -2 37q0 32 5 57q16 88 78.5 132.5
t146.5 44.5q78 0 122.5 -43.5t44.5 -120.5q0 -26 -4 -50q-16 -92 -73.5 -161t-150 -106.5t-210.5 -37.5q-89 0 -157.5 23t-107 67t-38.5 103q0 21 4 38q11 55 46.5 92t88.5 53v4q-34 9 -53.5 34t-19.5 68q0 17 3 36l13 71h-94l23 131h858l-23 -131h-607z" />
    <glyph glyph-name="dvJ" horiz-adv-x="560" 
d="M771 740l-23 -131h-722l23 131h722zM704 354h-200l-5 -30q-18 -100 -87 -162t-172 -62q-91 0 -145.5 49t-54.5 132q0 20 5 48l28 159h158l-29 -160q-3 -13 -3 -26q0 -31 15.5 -48t43.5 -17q34 0 57 24.5t31 66.5l28 160h353z" />
    <glyph glyph-name="dvJH" horiz-adv-x="559" 
d="M519 609l-13 -73l-20 -111h-186q-30 0 -52 -13.5t-22 -43.5q0 -35 54 -35h43h369l-20 -118h-185q7 -24 7 -46q0 -15 -3 -32q-12 -67 -63 -109.5t-128 -42.5q-45 0 -74.5 15t-45.5 33l-21 -117h-148l45 253h141q-3 -31 16 -50t57 -19t59.5 19.5t21.5 49.5q0 25 -19.5 39
t-57.5 14q-39 0 -63 2q-60 3 -102 35.5t-42 95.5q0 16 3 34q13 76 71 111.5t140 35.5h73l12 73h-334l24 131h708l-23 -131h-222z" />
    <glyph glyph-name="dvNY" horiz-adv-x="536" 
d="M747 740l-23 -131h-699l23 131h699zM455.5 489q52.5 -45 57.5 -123h167l-23 -132h-165q-32 -84 -101 -132t-160 -48q-92 0 -146.5 46t-54.5 126q0 15 1 23h148q4 -29 24 -46t52 -17q50 0 82 39t32 95q0 36 -19 58.5t-56 22.5q-33 0 -59.5 -17t-39.5 -46h-148
q22 90 95.5 143t173.5 53q87 0 139.5 -45z" />
    <glyph glyph-name="dvTT" horiz-adv-x="644" 
d="M249 368.5q-46 -32.5 -57 -93.5q-2 -8 -2 -24q0 -43 29 -69t80 -26q59 0 100 35t51 92h149q-13 -79 -56 -138.5t-110 -92t-151 -32.5q-75 0 -132 26.5t-88.5 75t-31.5 113.5q0 25 4 46q21 119 107.5 184.5t220.5 67.5l14 76h-352l23 131h680l-24 -131h-173l-36 -208h-137
q-62 0 -108 -32.5zM347 -37l95 -223h-160l-90 223h155z" />
    <glyph glyph-name="dvTTH" horiz-adv-x="669" 
d="M451 609l-14 -79q75 -19 121.5 -71.5t46.5 -130.5q0 -22 -5 -50q-13 -77 -59 -133.5t-114 -85.5t-148 -29q-69 0 -125.5 26t-89 74.5t-32.5 113.5q0 25 4 48q17 101 85 162t162 79l14 76h-274l23 131h705l-23 -131h-277zM447 308q0 45 -28.5 72.5t-79.5 27.5
q-55 0 -96 -34t-51 -88q-2 -9 -2 -26q0 -44 28.5 -71.5t77.5 -27.5q57 0 98 34.5t51 88.5q2 16 2 24zM348 -27l94 -223h-160l-90 223h156z" />
    <glyph glyph-name="dvDD" horiz-adv-x="567" 
d="M247 412q-22 -13 -22 -43q0 -19 14.5 -27.5t38.5 -8.5h44q79 0 129 -36t50 -107q0 -17 -3 -37q-15 -82 -78.5 -127.5t-171.5 -45.5q-103 0 -167.5 44.5t-64.5 122.5q0 8 2 26h156l-1 -11q0 -31 23 -47.5t61 -16.5q42 0 67.5 20.5t25.5 53.5q0 50 -76 50h-35
q-65 0 -118.5 30.5t-53.5 99.5q0 16 3 32q13 75 71 113t138 38h71l13 74h-336l23 131h599l-22 -131h-112l-33 -184h-182q-31 0 -53 -13zM303 -77l94 -223h-160l-90 223h156z" />
    <glyph glyph-name="dvDDH" horiz-adv-x="656" 
d="M262 389.5q-61 -43.5 -74 -123.5q-4 -26 -4 -36q0 -57 37.5 -91.5t110.5 -34.5q56 0 96 24t48 67q1 4 1 12q0 20 -12.5 32t-32.5 12q-22 0 -38.5 -12.5t-20.5 -33.5l-2 -18h-110q0 22 3 38q11 65 64 101.5t130 36.5q69 0 111.5 -38t42.5 -102q0 -15 -3 -33
q-17 -93 -94 -146t-199 -53q-82 0 -146.5 29t-100.5 83t-36 125q0 22 5 52q15 83 63 142t119 89t154 30h19l12 68h-379l23 131h689l-23 -131h-162l-31 -176h-116q-83 0 -144 -43.5zM351 -66l94 -223h-160l-90 223h156z" />
    <glyph glyph-name="dvNN" horiz-adv-x="589" 
d="M643 609h-77l-44 -244q-17 -99 -79.5 -159.5t-165.5 -60.5q-93 0 -147 47.5t-54 128.5q0 24 4 44l43 244h-98l23 131h618zM411 609h-134l-45 -258q-2 -14 -2 -19q0 -25 15 -40t41 -15q32 0 53 20t27 54z" />
    <glyph glyph-name="dvT" horiz-adv-x="384" 
d="M25 609l23 131h570l-24 -131h-569zM263 1q-64 0 -118 22t-86 67.5t-32 111.5q0 24 4 47q21 123 111 183t217 60h214l-24 -135h-206q-69 0 -113 -37.5t-44 -105.5q0 -42 27.5 -65.5t80.5 -23.5h18l-21 -124h-28z" />
    <glyph glyph-name="dvTH" horiz-adv-x="477" 
d="M687 361q-14 -87 -66.5 -150t-128.5 -96t-158 -33q-89 0 -152.5 30.5t-96.5 85t-33 126.5q0 52 20 115h86q88 0 141.5 25t63.5 86q1 5 1 13q0 23 -13.5 37.5t-36.5 14.5q-38 0 -58.5 -30t-18.5 -74h-142q3 67 34 121.5t85.5 85.5t125.5 31q80 0 127 -43.5t47 -117.5
q0 -23 -4 -43q-18 -100 -97.5 -159t-210.5 -59h-2q-2 -56 39 -85t106 -29q78 0 137 40t71 108h134z" />
    <glyph glyph-name="dvD" horiz-adv-x="611" 
d="M696 740l-24 -131h-112l-38 -214h-179q-62 0 -102 -34.5t-40 -94.5q0 -35 22 -56t60 -21t68.5 24.5t37.5 67.5h146l-55 -314h-154l26 148q-25 -24 -60 -37t-77 -13q-49 0 -89.5 21t-64 62t-23.5 99q0 21 5 53q20 112 104 170.5t204 58.5h37l14 80h-374l23 131h645z
M471 -90l94 -223h-160l-90 223h156z" />
    <glyph glyph-name="dvDH" horiz-adv-x="429" 
d="M524 143.5q-89 -67.5 -239 -67.5q-105 0 -170.5 40.5t-65.5 117.5q0 15 3 31q11 60 51.5 94t88.5 44v3q-42 14 -69.5 49t-27.5 88q0 17 3 35q14 80 70 125.5t138 45.5q77 0 119.5 -36.5t42.5 -102.5q0 -35 -11 -71h-116q4 18 4 27q0 23 -12 37.5t-37 14.5
q-30 0 -50 -24.5t-20 -58.5q0 -33 24.5 -48.5t65.5 -15.5h83l-23 -127h-52q-46 0 -75 -17.5t-35 -50.5q-1 -5 -1 -13q0 -30 29 -43.5t73 -13.5q77 0 124 33.5t57 88.5h137q-20 -117 -109 -184.5z" />
    <glyph glyph-name="dvN" horiz-adv-x="517" 
d="M748 740l-24 -131h-699l23 131h700zM125.5 444.5q73.5 51.5 179.5 51.5h399l-23 -131h-225q12 -27 12 -66q0 -17 -3 -37q-15 -91 -81 -142t-154 -51q-58 0 -103.5 23t-71 65t-25.5 95q0 12 4 40q18 101 91.5 152.5zM345 299q0 30 -18.5 48t-50.5 18q-42 0 -72 -28.5
t-30 -70.5q0 -29 19.5 -46.5t53.5 -17.5q36 0 63 23t34 58q1 5 1 16z" />
    <glyph glyph-name="dvP" horiz-adv-x="358" 
d="M233 418q-3 -18 -3 -34q0 -43 23 -67.5t70 -24.5q49 0 81 32.5t42 82.5l129 1q-17 -110 -85 -179t-186 -69q-72 0 -124 27.5t-79.5 76t-27.5 112.5q0 28 6 58l31 175h-85l23 131h586l-24 -131h-343z" />
    <glyph glyph-name="dvPH" horiz-adv-x="700" 
d="M621 609l-26 -148q29 33 71.5 51.5t93.5 18.5q79 0 122.5 -48.5t43.5 -129.5q0 -23 -5 -55h-160q2 14 2 22q0 34 -20.5 55.5t-56.5 21.5q-48 0 -79.5 -32.5t-43.5 -85.5l-49 -279h-157l37 212q-55 -52 -139 -52q-88 0 -137 51.5t-49 137.5q0 30 6 61l35 199h-85l23 131
h950l-23 -131h-354zM464 609h-197l-35 -199q-3 -18 -3 -34q0 -40 20.5 -62t63.5 -22q47 0 77.5 32t37.5 80z" />
    <glyph glyph-name="dvB" horiz-adv-x="389" 
d="M649 740l-23 -131h-601l23 131h601zM468 516q52 -27 78 -73t26 -101q0 -19 -3 -37q-11 -69 -49 -125t-102.5 -89t-148.5 -33q-71 0 -123 26.5t-80 73.5t-28 107q0 20 3 39q10 68 49.5 122.5t104 85.5t146.5 31q75 0 127 -27zM448 326q0 48 -30.5 79t-84.5 31
q-50 0 -93 -29l185 -162q17 29 21 55q2 9 2 26zM168 275q0 -50 33.5 -79.5t84.5 -29.5q49 0 90 28l-185 162q-15 -25 -21 -56q-2 -18 -2 -25z" />
    <glyph glyph-name="dvBH" horiz-adv-x="543" 
d="M687 336h-203l-8 -47q-19 -107 -85 -167.5t-170 -60.5q-88 0 -138.5 43.5t-50.5 118.5q0 22 4 41q17 98 89.5 149t171.5 51h63l13 76q2 18 2 25q0 50 -43 50q-25 0 -43 -17.5t-23 -46.5q-3 -17 -2 -32h-157v9q0 9 2 29q15 85 77.5 138.5t161.5 53.5q90 0 131.5 -44.5
t41.5 -122.5q0 -27 -7 -71l-8 -47h203zM337 336h-58q-43 0 -71 -23.5t-28 -64.5q0 -26 17 -40t44 -14q35 0 57 23.5t29 63.5z" />
    <glyph glyph-name="dvM" horiz-adv-x="536" 
d="M518 609l-26 -145h213l-23 -128h-213l-8 -47q-19 -107 -85 -167.5t-170 -60.5q-87 0 -137.5 44t-50.5 118q0 22 4 41q16 97 88.5 148.5t171.5 51.5h63l26 145h-346l23 131h705l-23 -131h-212zM323 336h-59q-42 0 -70 -23t-28 -64q0 -26 17.5 -40.5t43.5 -14.5
q35 0 56.5 23t29.5 64z" />
    <glyph glyph-name="dvY" horiz-adv-x="433" 
d="M340 403.5q-48 -50.5 -134 -59.5q-1 -7 -1 -20q0 -52 36.5 -81.5t97.5 -29.5q70 0 117.5 39t58.5 100h144q-12 -77 -55 -138.5t-114.5 -97t-164.5 -35.5q-126 0 -201.5 59.5t-75.5 165.5q0 28 6 58q3 20 15 60h10q81 0 121 35.5t52 104.5l8 45h-235l24 131h679l-23 -131
h-291l-13 -74q-13 -81 -61 -131.5z" />
    <glyph glyph-name="dvR" horiz-adv-x="531" 
d="M591 609h-85l-9 -53q-46 -256 -286 -256h-4l-17 -100q-3 -12 -3 -23q0 -24 13 -38t38 -14q28 0 47 19.5t24 51.5l5 28h150l-2 -23q-17 -97 -78 -153.5t-158 -56.5q-92 0 -143.5 48t-51.5 125q0 24 4 44l38 218h101q77 0 115.5 33t50.5 97l9 53h-323l23 131h565zM270 -68
l94 -223h-160l-89 223h155z" />
    <glyph glyph-name="dvL" horiz-adv-x="641" 
d="M23 609l23 131h878l-23 -131h-878zM254 30q-107 0 -165 56t-58 148q0 32 5 56q20 116 93.5 175t170.5 59q67 0 106.5 -32t51.5 -82h3q29 51 79.5 82.5t120.5 31.5q53 0 95.5 -22.5t67 -66.5t24.5 -106q0 -14 -4 -48h-161q3 15 3 28q0 35 -19 56t-54 21q-46 0 -74 -33
t-38 -85l-4 -24h-130l4 24q4 26 4 37q0 37 -17.5 59t-54.5 22q-44 0 -72 -28.5t-37 -76.5q-3 -15 -3 -29q0 -40 24 -63t69 -23q8 0 24 2l-24 -137q-14 -1 -30 -1z" />
    <glyph glyph-name="dvV" horiz-adv-x="362" 
d="M25 609l23 131h603l-23 -131h-603zM522.5 174q-37.5 -51 -101.5 -81.5t-151 -30.5q-73 0 -126 26t-80.5 71.5t-27.5 103.5q0 25 4 46q18 102 96.5 164t201.5 62q77 0 130 -28t79.5 -75t26.5 -102q0 -23 -4 -42q-10 -63 -47.5 -114zM216 211q27 -25 73 -25q40 0 71 19.5
t48 51t17 64.5q0 39 -25 64.5t-72 25.5q-37 0 -69 -17.5t-51 -48t-19 -68.5q0 -41 27 -66z" />
    <glyph glyph-name="dvSH" horiz-adv-x="553" 
d="M199 217q-3 -13 -3 -26q0 -29 15.5 -46t48.5 -17q37 0 59 25.5t30 71.5h153q-14 -110 -78.5 -171t-175.5 -61q-99 0 -155.5 49t-56.5 135q0 22 5 50l34 192h140q74 0 128 27t65 89q1 6 1 16q0 28 -15 45t-42 17q-42 0 -65.5 -32.5t-23.5 -80.5h-157q9 116 80.5 182.5
t182.5 66.5q88 0 144 -47.5t56 -131.5q0 -25 -4 -46q-21 -117 -107.5 -177t-207.5 -60h-39z" />
    <glyph glyph-name="dvSS" horiz-adv-x="383" 
d="M262 609l325 -244q-11 -56 -45.5 -105.5t-94 -80.5t-142.5 -31q-73 0 -126 27t-80.5 75t-27.5 111q0 32 5 57l34 191h-85l23 131h605l-23 -131h-368zM243 502l-16 -89q-3 -19 -3 -36q0 -46 24.5 -71.5t71.5 -25.5q43 0 74 19t48 51z" />
    <glyph glyph-name="dvS" horiz-adv-x="511" 
d="M467 543q-12 -67 -45 -115h217l-22 -128h-410l-18 -98q-2 -14 -2 -20q0 -26 14 -41.5t41 -15.5q32 0 51 22.5t26 61.5h150q-10 -101 -74.5 -159.5t-167.5 -58.5q-93 0 -144 50t-51 131q0 25 4 46l34 194h75q77 0 115.5 34.5t49.5 96.5l12 66h-297l24 131h645l-23 -131
h-192z" />
    <glyph glyph-name="dvH" horiz-adv-x="585" 
d="M677 740l-23 -131h-128l-12 -70l-21 -111h-173q-27 0 -46.5 -11.5t-23.5 -36.5q-1 -3 -1 -10q0 -21 20 -32q26 2 41 2q65 0 111.5 -24t70 -62t23.5 -82q0 -12 -1 -18h-151q0 25 -20 43.5t-56 18.5q-46 0 -78.5 -34.5t-32.5 -89.5q0 -36 20.5 -55.5t56.5 -19.5
q33 0 59.5 17.5t37.5 42.5h150q-21 -84 -91.5 -136.5t-169.5 -52.5q-65 0 -114 24.5t-75.5 68.5t-26.5 101q0 25 4 46q10 56 40.5 99.5t76.5 70.5q-46 32 -46 88q0 69 51 111t135 42h79l13 70h-341l23 131h619zM298 -168l94 -223h-160l-90 223h156z" />
    <glyph glyph-name="dvLL" horiz-adv-x="958" 
d="M21 609l23 131h995l-24 -131h-994zM347 83.5q-57 -30.5 -123 -30.5q-56 0 -100.5 22.5t-69.5 64.5t-25 99q0 25 4 46q13 70 52 123t95.5 81.5t120.5 28.5q63 0 109.5 -28t69.5 -86h4q41 59 95.5 86.5t117.5 27.5q57 0 101.5 -22.5t69.5 -65t25 -99.5q0 -25 -4 -46
q-12 -70 -51.5 -122.5t-96 -81t-119.5 -28.5q-67 0 -114.5 30.5t-64.5 85.5h-5q-34 -55 -91 -85.5zM208 207.5q23 -20.5 61 -20.5q48 0 82.5 33.5t34.5 84.5q0 36 -22.5 58t-59.5 22q-50 0 -84.5 -34.5t-34.5 -87.5q0 -35 23 -55.5zM558 208q22 -21 60 -21q50 0 84.5 33
t34.5 85q0 36 -22.5 58t-60.5 22q-50 0 -84 -34.5t-34 -86.5q0 -35 22 -56z" />
    <glyph glyph-name="dvK_SS" horiz-adv-x="559" 
d="M236 298q-28 -22 -35 -59q-1 -5 -1 -15q0 -28 18 -45t49 -17q40 0 67 26.5t33 61.5h131l-56 -313h-143l26 150q-23 -23 -58.5 -39t-78.5 -16q-71 0 -114 37.5t-43 99.5q0 17 3 35q12 69 57.5 112t118.5 77q-39 18 -63 52.5t-24 82.5q0 17 3 35q10 56 46 98.5t90 65
t118 22.5q78 0 127.5 -38t49.5 -106q0 -17 -3 -35q-11 -66 -64 -114h220l-19 -113h-373q-54 -23 -82 -45zM283.5 478.5q23.5 -19.5 66.5 -20.5q70 41 70 97q0 27 -18 44t-49 17q-37 0 -65 -24.5t-28 -62.5q0 -31 23.5 -50.5z" />
    <glyph glyph-name="dvJ_NY" horiz-adv-x="545" 
d="M780 740l-23 -131h-731l23 131h731zM268 502h470l-22 -125h-245q39 -37 39 -101q0 -60 -27 -106t-74 -71.5t-104 -25.5q-48 0 -85 15t-57 41l-22 -127h-152l50 287h146q-2 -40 20.5 -64t63.5 -24q47 0 76 30t29 72q0 36 -25 55t-63 19h-40z" />
    <glyph glyph-name="dvKx" horiz-adv-x="702" 
d="M607 609l-25 -146q26 32 64.5 50t85.5 18q80 0 126 -51t46 -131q0 -21 -5 -51h-158q2 14 2 19q0 35 -21 57.5t-57 22.5q-46 0 -75.5 -31t-38.5 -80l-50 -286h-151l24 135q-29 -33 -70 -52t-91 -19q-79 0 -128 51.5t-49 135.5q0 21 5 51q18 104 86 166.5t166 62.5
q51 0 86 -18.5t52 -51.5l26 148h-432l23 131h931l-24 -131h-348zM402 296l-1 -1q2 14 2 22q0 35 -21.5 58t-62.5 23q-49 0 -85 -34.5t-36 -87.5q0 -36 23.5 -58t62.5 -22q47 1 78.5 29.5t38.5 66.5zM217 -144q-33 -31 -76 -31q-34 0 -55 20.5t-21 52.5q0 29 15 54t40 40
t53 15q34 0 55.5 -22t21.5 -56q0 -42 -33 -73z" />
    <glyph glyph-name="dvKHx" horiz-adv-x="670" 
d="M202 257q-3 -15 -3 -28q0 -46 28.5 -73t81.5 -27q76 0 120 53q-28 39 -28 93q0 22 4 41q11 63 48.5 109.5t94 71t122.5 24.5q89 0 141.5 -43.5t52.5 -120.5q0 -13 -4 -41q-11 -65 -49 -111.5t-94 -71t-120 -24.5q-31 0 -58 6q-40 -55 -100 -88.5t-137 -33.5
q-121 0 -189.5 59t-68.5 163q0 30 6 61l22 127h25q69 0 107.5 31t50.5 99l13 76h-243l24 131h886l-23 -131h-486l-17 -98q-17 -97 -70.5 -152.5t-129.5 -64.5zM562.5 245.5q20.5 -18.5 55.5 -18.5q41 0 69 24t36 65q2 14 2 19q0 32 -20 50.5t-56 18.5q-46 0 -76.5 -30
t-30.5 -78q0 -32 20.5 -50.5zM293 -212q-33 -31 -76 -31q-34 0 -55 20.5t-21 52.5q0 29 15 54t40 40t53 15q34 0 55.5 -22t21.5 -56q0 -42 -33 -73z" />
    <glyph glyph-name="dvGx" horiz-adv-x="561" 
d="M605 609h-113l-39 -226q-16 -96 -75.5 -155t-161.5 -59q-85 0 -134 41.5t-49 118.5q0 25 4 46l6 32h153l-6 -31q-2 -9 -2 -25q0 -48 42 -48q29 0 44.5 21.5t19.5 52.5l42 232h-311l23 131h581zM246 -40q-33 -31 -76 -31q-34 0 -55 20.5t-21 52.5q0 29 15 54t40 40t53 15
q34 0 55.5 -22t21.5 -56q0 -42 -33 -73z" />
    <glyph glyph-name="dvJx" horiz-adv-x="560" 
d="M771 740l-23 -131h-722l23 131h722zM704 354h-200l-5 -30q-18 -100 -87 -162t-172 -62q-91 0 -145.5 49t-54.5 132q0 20 5 48l28 159h158l-29 -160q-3 -13 -3 -26q0 -31 15.5 -48t43.5 -17q34 0 57 24.5t31 66.5l28 160h353zM269 -108q-33 -31 -76 -31q-34 0 -55 20.5
t-21 52.5q0 29 15 54t40 40t53 15q34 0 55.5 -22t21.5 -56q0 -42 -33 -73z" />
    <glyph glyph-name="dvPHx" horiz-adv-x="700" 
d="M621 609l-26 -148q29 33 71.5 51.5t93.5 18.5q79 0 122.5 -48.5t43.5 -129.5q0 -23 -5 -55h-160q2 14 2 22q0 34 -20.5 55.5t-56.5 21.5q-48 0 -79.5 -32.5t-43.5 -85.5l-49 -279h-157l37 212q-55 -52 -139 -52q-88 0 -137 51.5t-49 137.5q0 30 6 61l35 199h-85l23 131
h950l-23 -131h-354zM464 609h-197l-35 -199q-3 -18 -3 -34q0 -40 20.5 -62t63.5 -22q47 0 77.5 32t37.5 80zM224 -43q-33 -31 -76 -31q-34 0 -55 20.5t-21 52.5q0 29 15 54t40 40t53 15q34 0 55.5 -22t21.5 -56q0 -42 -33 -73z" />
    <glyph glyph-name="dvAnusvara" unicode="&#x902;" horiz-adv-x="0" 
d="M-8.5 845q-32.5 -32 -76.5 -32q-33 0 -54.5 21.5t-21.5 54.5q0 43 32.5 74.5t75.5 31.5q34 0 55.5 -21t21.5 -54q0 -43 -32.5 -75z" />
    <glyph glyph-name="dvCandrabindu" unicode="&#x901;" horiz-adv-x="0" 
d="M-1.5 1007.5q-21.5 -21.5 -51.5 -21.5q-22 0 -36 14t-14 36q0 28 22 50t50 22q23 0 37 -14t14 -36q0 -29 -21.5 -50.5zM107.5 866.5q-68.5 -55.5 -182.5 -55.5q-97 0 -155.5 46t-58.5 126q0 11 4 39h125q-1 -6 -1 -17q0 -36 25 -59t73 -23q53 0 88 28.5t43 70.5h126
q-18 -100 -86.5 -155.5z" />
    <glyph glyph-name="dvVisarga" unicode="&#x903;" horiz-adv-x="280" 
d="M242.5 431.5q-15.5 -24.5 -40.5 -39.5t-52 -15q-33 0 -55 21.5t-22 53.5q0 28 15.5 53t40.5 39.5t53 14.5q34 0 55 -21t21 -54q0 -28 -15.5 -52.5zM191.5 141q-15.5 -25 -40.5 -39.5t-53 -14.5q-33 0 -54.5 21.5t-21.5 53.5q0 28 15 53t40 39.5t53 14.5q34 0 55.5 -21.5
t21.5 -53.5q0 -28 -15.5 -53z" />
    <glyph glyph-name="dvAvagraha" unicode="&#x93d;" horiz-adv-x="597" 
d="M2 46l23 132h238q27 0 42.5 12.5t15.5 33.5q0 19 -15 37.5t-49 49.5t-56 55t-38 57t-16 72q0 16 3 34q12 70 65 106.5t129 36.5h228l-24 -132h-187q-23 0 -39.5 -9t-16.5 -33q0 -19 14.5 -36.5t49.5 -50.5q53 -47 82 -88t29 -97q0 -16 -3 -33q-12 -68 -66 -107.5
t-131 -39.5h-278z" />
    <glyph glyph-name="dvVirama" unicode="&#x94d;" horiz-adv-x="0" 
d="M-219 -278l-89 223h155l94 -223h-160z" />
    <glyph glyph-name="dvNukta" unicode="&#x93c;" horiz-adv-x="0" 
d="M-223 -231q-33 -31 -76 -31q-34 0 -55 20.5t-21 52.5q0 29 15 54t40 40t53 15q34 0 55.5 -22t21.5 -56q0 -42 -33 -73z" />
    <glyph glyph-name="dvZero" unicode="&#x966;" horiz-adv-x="652" 
d="M171.5 627.5q83.5 97.5 231.5 97.5q119 0 174.5 -64.5t55.5 -179.5q0 -47 -12 -117q-29 -166 -113 -263.5t-232 -97.5q-119 0 -173.5 64.5t-54.5 179.5q0 53 11 117q29 166 112.5 263.5zM463 461q0 50 -20 77t-68 27q-69 0 -100.5 -53t-47.5 -148q-11 -62 -11 -97
q0 -50 20 -77t68 -27q69 0 100.5 53t47.5 148q11 62 11 97z" />
    <glyph glyph-name="dvOne" unicode="&#x967;" horiz-adv-x="376" 
d="M73 550l28 159h277l-125 -709h-178l97 550h-99z" />
    <glyph glyph-name="dvTwo" unicode="&#x968;" horiz-adv-x="571" 
d="M51 165q109 78 174 129t112.5 104.5t55.5 102.5q3 14 3 26q0 29 -15.5 44t-46.5 15q-77 0 -98 -109h-166q26 126 108.5 189.5t189.5 63.5q104 0 154.5 -47t50.5 -124q0 -24 -4 -44q-18 -102 -105.5 -190t-216.5 -176h270l-25 -139h-502l22 127z" />
    <glyph glyph-name="dvThree" unicode="&#x969;" horiz-adv-x="605" 
d="M192 689q76 58 189 58q99 0 152 -45t53 -117q0 -18 -3 -36q-12 -66 -52 -107.5t-87 -56.5v-4q45 -16 70 -49.5t25 -84.5q0 -22 -4 -42q-17 -94 -91 -152.5t-186 -58.5q-107 0 -168.5 47t-61.5 143q0 13 4 47h166q-2 -16 -2 -22q0 -35 20 -54t60 -19q45 0 72 29t27 74
q0 37 -27.5 53.5t-86.5 16.5h-32l25 139h32q113 0 128 80q2 12 2 18q0 28 -16.5 43t-47.5 15q-38 0 -61 -23t-32 -57h-166q23 107 99 165z" />
    <glyph glyph-name="dvFour" unicode="&#x96a;" horiz-adv-x="677" 
d="M22 130l24 138l395 452h192l-78 -442h82l-26 -148h-82l-23 -130h-172l24 130h-336zM441 532l-213 -254h168z" />
    <glyph glyph-name="dvFive" unicode="&#x96b;" horiz-adv-x="650" 
d="M611 581h-312l-24 -138q24 22 62 36t80 14q94 0 138.5 -51t44.5 -132q0 -24 -5 -56q-21 -117 -99 -185.5t-198 -68.5q-110 0 -169 50.5t-59 135.5q0 9 2 31h166q1 -31 21 -51.5t59 -20.5q47 0 75 30t38 80q2 10 2 27q0 74 -79 74q-34 0 -58.5 -16.5t-36.5 -43.5h-165
l76 435h467z" />
    <glyph glyph-name="dvSix" unicode="&#x96c;" horiz-adv-x="637" 
d="M430.5 588.5q-16.5 18.5 -53.5 18.5q-57 0 -90.5 -49t-54.5 -157q29 35 74 55t95 20q84 0 132 -46t48 -130q0 -33 -5 -59q-13 -73 -52 -128t-100.5 -86t-139.5 -31q-119 0 -170.5 59t-51.5 170q0 58 15 145q34 190 113.5 282.5t218.5 92.5q102 0 151 -52.5t49 -133.5
q0 -17 -1 -26h-159q-2 37 -18.5 55.5zM252.5 309q-35.5 -32 -35.5 -91q0 -37 22 -57t64 -20q44 0 74.5 26.5t38.5 72.5q2 16 2 24q0 36 -21 56.5t-61 20.5q-48 0 -83.5 -32z" />
    <glyph glyph-name="dvSeven" unicode="&#x96d;" horiz-adv-x="535" 
d="M566 595l-366 -595h-179l369 576h-310l26 145h482z" />
    <glyph glyph-name="dvEight" unicode="&#x96e;" horiz-adv-x="648" 
d="M115 518q0 17 3 36q9 52 45.5 98t98.5 74t144 28q73 0 122.5 -22.5t73.5 -60.5t24 -84q0 -16 -3 -33q-9 -54 -41.5 -94t-79.5 -63q40 -21 61.5 -56.5t21.5 -82.5q0 -22 -4 -42q-13 -72 -57.5 -124t-111 -79t-142.5 -27q-103 0 -167.5 49t-64.5 136q0 24 4 45
q11 63 48 109t94 72q-69 40 -69 121zM315.5 591q-27.5 -23 -34.5 -64q-2 -14 -2 -19q0 -31 19.5 -48.5t52.5 -17.5q43 0 73 29t30 77q0 32 -19.5 49t-53.5 17q-38 0 -65.5 -23zM249.5 297q-33.5 -26 -41.5 -72q-2 -14 -2 -21q0 -35 23 -56.5t66 -21.5q55 0 89 34.5t34 85.5
q0 36 -23.5 56.5t-64.5 20.5q-47 0 -80.5 -26z" />
    <glyph glyph-name="dvNine" unicode="&#x96f;" horiz-adv-x="615" 
d="M236.5 155q18.5 -20 57.5 -20q53 0 83.5 47t48.5 153q-26 -31 -67.5 -48t-88.5 -17q-85 0 -135 45t-50 130q0 31 5 56q20 112 98.5 178t194.5 66t166.5 -57t50.5 -166q0 -60 -14 -139q-23 -130 -61 -214t-101 -128t-157 -44q-106 0 -158.5 54t-52.5 137q0 17 1 26h159
q2 -39 20.5 -59zM412.5 438q31.5 33 31.5 88q0 36 -21 55t-60 19q-44 0 -74 -26.5t-38 -72.5q-2 -16 -2 -22q0 -34 21 -54t62 -20q49 0 80.5 33z" />
    <glyph glyph-name="dvOm" unicode="&#x950;" horiz-adv-x="1072" 
d="M592.5 915.5q-14.5 14.5 -14.5 36.5q0 29 22 50t50 21q23 0 37 -14t14 -36q0 -30 -21.5 -51t-50.5 -21q-22 0 -36.5 14.5zM449.5 772q-56.5 46 -56.5 123q0 23 4 42h124q-1 -6 -1 -17q0 -36 26 -59t74 -23q54 0 88 28t42 71h126q-15 -100 -83.5 -155.5t-183.5 -55.5
q-103 0 -159.5 46zM950 638.5q44 -43.5 44 -127.5q0 -38 -7 -76l-21 -121q-26 -146 -109 -222t-215 -76q-49 0 -100 10l23 130q47 -7 72 -7q82 0 122 43.5t54 126.5l25 137q3 20 3 35q0 59 -53 59q-66 0 -80 -86q-14 -78 -41.5 -125t-76 -69t-127.5 -24q0 -13 -4 -39
q-16 -90 -83.5 -143.5t-162.5 -53.5q-94 0 -147.5 46t-53.5 123q0 23 4 42h147q-1 -5 -1 -15q0 -27 17.5 -44t48.5 -17q35 0 59 21.5t31 56.5q1 5 1 15q0 29 -20 48t-60 19h-46l24 132h45q44 0 72 25t28 63q0 27 -16 42t-43 15q-32 0 -55 -18t-29 -49h-145q10 59 45.5 105
t90 71t120.5 25q84 0 132 -39.5t48 -108.5q0 -17 -3 -37q-10 -56 -44.5 -96.5t-88.5 -56.5l-1 -4l17 -6h57q52 0 78 21t37 77q19 106 77.5 161t172.5 55q94 0 138 -43.5z" />
    <glyph glyph-name="dvAbbreviationsign" unicode="&#x970;" horiz-adv-x="476" 
d="M374 467q39 -37 39 -98q0 -15 -3 -33q-14 -74 -69 -120.5t-130 -46.5q-67 0 -107.5 37t-40.5 98q0 16 3 32q14 74 70.5 121t132.5 47q66 0 105 -37zM187 385.5q-27 -25.5 -27 -64.5q0 -26 18 -42.5t49 -16.5q32 0 56.5 20.5t30.5 53.5q1 5 1 14q0 27 -17 44t-45 17
q-39 0 -66 -25.5z" />
    <glyph glyph-name="danda" unicode="&#x964;" horiz-adv-x="344" 
d="M368 740l-130 -740h-156l130 740h156z" />
    <glyph glyph-name="doubledanda" unicode="&#x965;" horiz-adv-x="617" 
d="M368 740l-130 -740h-156l130 740h156zM640 740l-130 -740h-156l130 740h156z" />
    <glyph glyph-name="rupee" unicode="&#x20a8;" horiz-adv-x="1190" 
d="M578.5 355.5q-50.5 -55.5 -135.5 -77.5l119 -278h-194l-105 267h-34l-47 -267h-171l124 702h287q109 0 166 -49t57 -128q0 -23 -4 -43q-12 -71 -62.5 -126.5zM976 376q1 30 -18.5 45.5t-54.5 15.5t-57 -14.5t-22 -37.5q0 -22 25 -32.5t83 -23.5q57 -12 94.5 -24.5
t64.5 -39.5t27 -72q0 -56 -33 -102t-92 -72.5t-134 -26.5q-110 0 -169 49t-55 141h170q-3 -30 18 -45.5t57 -15.5q37 0 58 14.5t21 37.5t-26.5 34.5t-82.5 22.5q-58 12 -94.5 24t-63 38.5t-26.5 71.5q0 53 32.5 99.5t92.5 74.5t140 28q108 0 163.5 -51.5t51.5 -138.5h-170z
M468 495q0 32 -20.5 49.5t-60.5 17.5h-106l-30 -175h105q94 0 110 87q2 16 2 21z" />
    <glyph glyph-name="indianrupee" unicode="&#x20b9;" horiz-adv-x="598" 
d="M535 587l-11 -60h86l-19 -104h-91q-32 -89 -102 -135.5t-189 -46.5l-7 -40q-3 -15 -3 -29q0 -53 55 -53q36 0 54.5 21t25.5 63h158q-21 -101 -86.5 -157t-169.5 -56q-96 0 -146 42.5t-50 128.5q0 29 6 63l23 129q103 0 153.5 4.5t77.5 19t41 46.5h-280l19 104h284l11 60
h-285l21 115h529l-20 -115h-85z" />
    <glyph glyph-name="zerowidthnonjoiner" unicode="&#x200c;" horiz-adv-x="0" 
d="M-23 -230v1041h47v-1041h-47z" />
    <glyph glyph-name="zerowidthjoiner" unicode="&#x200d;" horiz-adv-x="0" 
d="M95 560l-72 75v-865h-47v865l-69 -73l-33 33l93 93l-95 95l33 33l95 -95l96 95l32 -32l-96 -96l96 -95z" />
    <glyph glyph-name="dottedcircle" unicode="&#x25cc;" horiz-adv-x="651" 
d="M332 467.5q-12 -11.5 -31 -11.5t-31 11.5t-12 30.5t12 30.5t31 11.5t31 -11.5t12 -30.5t-12 -30.5zM453 452.5q-12 -11.5 -31 -11.5t-31 11.5t-12 30.5t12 30.5t31 11.5t31 -11.5t12 -30.5t-12 -30.5zM215 425.5q-12 -11.5 -31 -11.5t-31 11.5t-12 30.5t12 30.5t31 11.5
t31 -11.5t12 -30.5t-12 -30.5zM545 378.5q-12 -11.5 -31 -11.5t-31 11.5t-12 30.5t12 30.5t31 11.5t31 -11.5t12 -30.5t-12 -30.5zM139 326.5q-12 -11.5 -31 -11.5t-31 11.5t-12 30.5t12 30.5t31 11.5t31 -11.5t12 -30.5t-12 -30.5zM589 264.5q-12 -11.5 -31 -11.5t-31 11.5
t-12 30.5t12 30.5t31 11.5t31 -11.5t12 -30.5t-12 -30.5zM124 205.5q-12 -11.5 -31 -11.5t-31 11.5t-12 30.5t12 30.5t31 11.5t31 -11.5t12 -30.5t-12 -30.5zM579 144.5q-12 -11.5 -31 -11.5t-31 11.5t-12 30.5t12 30.5t31 11.5t31 -11.5t12 -30.5t-12 -30.5zM169 92.5
q-12 -11.5 -31 -11.5t-31 11.5t-12 30.5t12 30.5t31 11.5t31 -11.5t12 -30.5t-12 -30.5zM506 48.5q-12 -11.5 -31 -11.5t-31 11.5t-12 30.5t12 30.5t31 11.5t31 -11.5t12 -30.5t-12 -30.5zM267 16.5q-12 -11.5 -31 -11.5t-31 11.5t-12 30.5t12 30.5t31 11.5t31 -11.5
t12 -30.5t-12 -30.5zM391 2.5q-12 -11.5 -31 -11.5t-31 11.5t-12 30.5t12 30.5t31 11.5t31 -11.5t12 -30.5t-12 -30.5z" />
    <glyph glyph-name="dvReph" horiz-adv-x="0" 
d="M-193 715l15 89q16 92 73 154.5t164 62.5q80 0 122 -38t42 -107q0 -29 -7 -60h-137q3 15 3 27q0 23 -11 35.5t-31 12.5q-30 0 -47 -21t-25 -64l-16 -91h-145z" />
    <glyph glyph-name="dvEyelash" horiz-adv-x="353" 
d="M-1 609l23 131h459l-22 -131h-460zM418 345q-35 -21 -82.5 -34t-94.5 -13q-93 0 -154 42.5t-61 132.5q0 20 3 42h149q-1 -6 -1 -18q0 -44 30 -65t76 -21q43 0 89 20z" />
    <glyph glyph-name="dvRashtrasign" horiz-adv-x="0" 
d="M-228 -97l-70 119l-113 -119h-167l177 179h210l114 -179h-151z" />
    <glyph glyph-name="dvK_RA" horiz-adv-x="965" 
d="M607 609l-25 -146q26 32 64.5 50t85.5 18q80 0 126 -51.5t46 -132.5q0 -22 -5 -52q-20 -106 -87 -163.5t-159 -57.5q-35 0 -66 8l22 123q9 -3 25 -3q39 0 69 25.5t38 70.5q2 14 2 19q0 35 -21 57.5t-57 22.5q-46 0 -75.5 -31t-38.5 -80l-50 -286h-151l26 147l-10 -11
l-187 -182h-169l142 131q-55 15 -85.5 59t-30.5 107q0 26 4 47q19 105 87 169t166 64q51 0 86 -18.5t52 -51.5l26 148h-432l23 131h999l-23 -131h-417zM402 298q1 6 1 18q0 35 -21.5 58.5t-62.5 23.5q-50 0 -85.5 -34.5t-35.5 -88.5q0 -36 23 -57.5t62 -21.5q46 0 78.5 30
t40.5 70v2z" />
    <glyph glyph-name="dvKH_RA" horiz-adv-x="961" 
d="M1043 740l-24 -131h-97l-107 -609h-156l28 158q-50 -47 -127 -47q-17 0 -32 3q-4 -4 -9 -10t-12 -12h1l-224 -227h-169l2 8l135 129q-99 8 -154 61.5t-55 146.5q0 26 7 66l22 127h25q68 0 107 31t51 99l13 76h-243l24 131h994zM765 609h-339l-17 -98
q-17 -97 -70.5 -152.5t-129.5 -64.5l-7 -37q-3 -15 -3 -28q0 -46 28.5 -73t81.5 -27q77 0 122 56q-24 42 -24 101q0 25 4 48q9 56 39.5 99t75.5 66.5t97 23.5q83 0 119 -49zM688 262.5q28 31.5 28 73.5q0 29 -18 48.5t-53 19.5q-37 0 -65.5 -23t-35.5 -62q-1 -6 -1 -18
q0 -33 20 -51.5t52 -18.5q45 0 73 31.5z" />
    <glyph glyph-name="dvG_RA" horiz-adv-x="815" 
d="M897 740l-23 -131h-98l-106 -609h-154l32 183l-238 -203h-181l444 363l46 266h-127l-26 -157q-17 -97 -76 -155.5t-162 -58.5q-85 0 -134 42t-49 118q0 26 4 47q3 16 7 31h152l-6 -32q-3 -13 -3 -25q0 -22 10.5 -34.5t32.5 -12.5q52 0 65 73l29 164h-311l24 131h848z" />
    <glyph glyph-name="dvGH_RA" horiz-adv-x="699" 
d="M757 609h-96l-107 -609h-158l30 171l-16 -15l-206 -205h-170l159 146q-66 9 -106.5 48t-40.5 99q0 17 3 33q10 55 48 93t85 51v3q-74 21 -74 102q0 17 3 36l8 47h-94l23 131h733zM503 609h-226l-7 -40q-2 -16 -2 -22q0 -60 79 -60h38l-22 -126h-50q-49 0 -75.5 -23
t-26.5 -59q0 -28 22.5 -42.5t60.5 -14.5q59 0 106.5 37t57.5 97v-1z" />
    <glyph glyph-name="dvNG_RA" horiz-adv-x="703" 
d="M785 740l-22 -131h-246l-13 -74l-19 -110h-185q-31 0 -53 -13t-22 -43q0 -19 14.5 -27.5t38.5 -8.5h44q79 0 129 -36t50 -107q0 -17 -3 -37q-10 -55 -41.5 -93.5t-84.5 -58.5l93 -146h-151l-70 119l-113 -119h-167l149 151q-46 22 -71.5 57.5t-25.5 83.5q0 8 2 26h156
l-1 -11q0 -31 23 -47.5t61 -16.5q42 0 67.5 20.5t25.5 53.5q0 50 -76 50h-35q-65 0 -118.5 30.5t-53.5 99.5q0 16 3 32q13 75 71 113t138 38h73l13 74h-338l23 131h735zM674.5 432q19.5 -19 19.5 -48q0 -39 -30 -68t-69 -29q-30 0 -49 19.5t-19 48.5q0 39 29.5 67.5
t68.5 28.5q30 0 49.5 -19z" />
    <glyph glyph-name="dvC_RA" horiz-adv-x="753" 
d="M812 609h-98l-107 -609h-157l29 165q-9 -10 -29 -26l-186 -185h-169l150 139q-60 11 -94.5 49t-34.5 97q0 15 3 33q12 72 69 117h-134l22 123h370l-23 -123h-41q-47 0 -80 -29t-33 -76q0 -34 25 -52.5t64 -18.5q60 0 101.5 42t54.5 112v-1l43 243h-532l23 131h787z" />
    <glyph glyph-name="dvCH_RA" horiz-adv-x="822" 
d="M693 609l-14 -81q47 -17 72.5 -56t25.5 -97q0 -20 -5 -50q-20 -107 -93.5 -182t-190.5 -105l92 -143h-160l-70 119l-113 -119h-159l137 138q-84 20 -132 66.5t-48 113.5q0 21 4 38q11 55 46.5 92t88.5 53v4q-34 9 -53.5 34t-19.5 68q0 17 3 36l13 71h-94l23 131h858
l-23 -131h-188zM548 609h-274l-11 -64q-2 -9 -2 -24q0 -58 67 -58h21l-23 -126h-17q-52 0 -81.5 -28t-29.5 -69q0 -42 40.5 -64t124.5 -22q116 0 186 46t86 133q3 14 3 26q0 30 -14 47.5t-37 17.5q-27 0 -48.5 -21t-27.5 -59q-3 -18 -3 -38q0 -12 2 -38h-129q-2 22 -2 37
q0 32 5 57q12 67 52 108.5t98 58.5z" />
    <glyph glyph-name="dvJ_RA" horiz-adv-x="860" 
d="M919 609h-98l-107 -609h-146l27 159l-220 -208h-173l418 368l8 47h-130q-23 -91 -86 -144t-157 -53q-97 0 -150.5 47.5t-53.5 127.5q0 22 5 50l18 99h158l-18 -95q-3 -15 -3 -27q0 -30 15.5 -47t43.5 -17q34 0 57 24t31 67l17 95h275l21 116h-646l23 131h894z" />
    <glyph glyph-name="dvJH_RA" horiz-adv-x="963" 
d="M1022 609h-98l-107 -609h-151l5 27l-145 -141h-157l331 306l4 23h-217q7 -24 7 -46q0 -15 -3 -32q-12 -67 -63 -109.5t-128 -42.5q-45 0 -74.5 15t-45.5 33l-21 -117h-148l45 253h141q-3 -31 16 -50t57 -19t59.5 19.5t21.5 49.5q0 25 -19.5 39t-57.5 14q-39 0 -63 2
q-60 3 -102 35.5t-42 95.5q0 16 3 34q13 76 71 111.5t140 35.5h73l12 73h-334l24 131h989zM323 333h398l48 276h-250l-13 -73l-20 -111h-186q-30 0 -52 -13.5t-22 -43.5q0 -35 54 -35h43z" />
    <glyph glyph-name="dvNY_RA" horiz-adv-x="879" 
d="M938 609h-98l-108 -609h-153l10 55l-149 -144h-160l338 309l6 34h-125q-29 -86 -96.5 -135.5t-159.5 -49.5q-61 0 -109 21t-75 59.5t-27 90.5q0 7 2 25h148q2 -29 23 -46t54 -17q50 0 81 36t31 86q0 34 -19.5 55.5t-57.5 21.5q-33 0 -59 -17t-39 -46h-148q22 90 92 143
t169 53q83 0 137.5 -39.5t66.5 -108.5h130l40 223h-657l23 131h912z" />
    <glyph glyph-name="dvTT_RA" horiz-adv-x="644" 
d="M249 368.5q-46 -32.5 -57 -93.5q-2 -8 -2 -24q0 -43 29 -69t80 -26q59 0 100 35t51 92h149q-14 -85 -61.5 -146.5t-121.5 -91.5l90 -141h-151l-68 116h-5l-110 -116h-167l142 144q-55 27 -86 75t-31 112q0 25 4 46q21 119 107.5 184.5t220.5 67.5l14 76h-352l23 131h680
l-24 -131h-173l-36 -208h-137q-62 0 -108 -32.5z" />
    <glyph glyph-name="dvTTH_RA" horiz-adv-x="673" 
d="M459 609l-14 -79q75 -19 121.5 -71.5t46.5 -130.5q0 -22 -5 -50q-14 -82 -65 -140.5t-127 -85.5l96 -151h-151l-70 119l-113 -119h-167l152 154q-57 25 -90 74.5t-33 115.5q0 26 4 47q17 101 85 162t162 79l14 76h-274l23 131h705l-23 -131h-277zM455 308
q0 45 -28.5 72.5t-79.5 27.5q-55 0 -96 -34t-51 -88q-2 -9 -2 -26q0 -44 28.5 -71.5t77.5 -27.5q57 0 98 34.5t51 88.5q2 16 2 24z" />
    <glyph glyph-name="dvDD_RA" horiz-adv-x="567" 
d="M247 412q-22 -13 -22 -43q0 -19 14.5 -27.5t38.5 -8.5h44q79 0 129 -36t50 -107q0 -17 -3 -37q-10 -55 -42 -94t-86 -59l92 -145h-151l-70 119l-113 -119h-167l150 152q-45 21 -70 56.5t-25 83.5q0 8 2 26h156l-1 -11q0 -31 23 -47.5t61 -16.5q42 0 67.5 20.5t25.5 53.5
q0 50 -76 50h-35q-65 0 -118.5 30.5t-53.5 99.5q0 16 3 32q13 75 71 113t138 38h71l13 74h-336l23 131h599l-22 -131h-112l-33 -184h-182q-31 0 -53 -13z" />
    <glyph glyph-name="dvDDH_RA" horiz-adv-x="656" 
d="M262 389.5q-61 -43.5 -74 -123.5q-4 -26 -4 -36q0 -57 37.5 -91.5t110.5 -34.5q56 0 96 24t48 67q1 4 1 12q0 20 -12.5 32t-32.5 12q-22 0 -38.5 -12.5t-20.5 -33.5l-2 -18h-110q0 22 3 38q11 65 64 101.5t130 36.5q69 0 111.5 -38t42.5 -102q0 -15 -3 -33
q-13 -70 -60.5 -118t-124.5 -68l88 -138h-151l-70 119l-113 -119h-167l154 156q-62 29 -97 82.5t-35 124.5q0 21 5 51q15 83 63 142t119 89t154 30h19l12 68h-379l23 131h689l-23 -131h-162l-31 -176h-116q-83 0 -144 -43.5z" />
    <glyph glyph-name="dvNN_RA" horiz-adv-x="896" 
d="M955 609h-99l-107 -609h-147l33 185l-248 -231h-179l450 401l44 254h-133l-28 -160q-17 -100 -80 -160.5t-169 -60.5q-92 0 -144.5 49t-52.5 128q0 24 4 44l27 160h-97l23 131h926zM415 609h-135l-31 -175q-1 -5 -1 -15q0 -27 15 -43t42 -16q32 0 53 20.5t26 53.5z" />
    <glyph glyph-name="dvT_RA" horiz-adv-x="710" 
d="M769 609h-97l-107 -609h-152l31 180l-215 -179h-207l1 6l437 333q-15 25 -43.5 39.5t-65.5 14.5q-59 0 -103 -34.5t-55 -96.5h-157q12 76 52.5 134t103.5 89.5t141 31.5q53 0 92.5 -18t64.5 -48l28 157h-493l23 131h744z" />
    <glyph glyph-name="dvTH_RA" horiz-adv-x="793" 
d="M875 740l-22 -131h-98l-108 -609h-157l33 190q-17 -25 -44 -46h1l-275 -212h-194l1 8l206 149q-80 17 -125 73t-45 142q0 30 6 63q7 41 17 72h87q87 0 140.5 25t64.5 85q1 5 1 15q0 23 -13.5 37t-37.5 14q-38 0 -58 -31t-18 -73h-142q2 65 32 119.5t84.5 86.5t127.5 32
q80 0 127.5 -43.5t47.5 -117.5q0 -23 -4 -43q-18 -100 -97.5 -159t-210.5 -59h-2q-4 -49 29.5 -81.5t106.5 -32.5q54 0 101.5 23.5t81 70t44.5 112.5l57 321h255z" />
    <glyph glyph-name="dvD_RA" horiz-adv-x="615" 
d="M241 360.5q-40 -34.5 -40 -94.5q0 -35 22 -56t60 -21t68.5 24.5t37.5 67.5h146l-55 -314h-154l26 148q-8 -9 -19 -16l-177 -173h-169l162 150q-50 18 -80.5 62t-30.5 109q0 21 5 53q20 112 104 170.5t204 58.5h37l14 80h-374l23 131h645l-24 -131h-112l-38 -214h-179
q-62 0 -102 -34.5z" />
    <glyph glyph-name="dvDH_RA" horiz-adv-x="738" 
d="M798 609h-95l-108 -609h-157l30 168l-14 -14l-225 -225h-170l168 154q-80 4 -129.5 41.5t-49.5 103.5q0 16 3 32q11 60 52 96t89 47v3q-41 14 -68.5 49t-27.5 87q0 17 3 36q13 80 69.5 125.5t138.5 45.5q76 0 119 -37t43 -102q0 -32 -12 -71h-116q4 13 4 29q0 22 -12 36
t-36 14q-30 0 -50 -24t-20 -58t24.5 -49.5t65.5 -15.5h83l-23 -127h-52q-47 0 -76.5 -17t-34.5 -50q-1 -4 -1 -13q0 -28 25 -43t69 -15q76 0 130 48t68 125l42 238l21 123h252z" />
    <glyph glyph-name="dvN_RA" horiz-adv-x="867" 
d="M926 609h-98l-107 -609h-142l20 113l-205 -202h-171l395 355l17 99h-178q11 -28 11 -63q0 -19 -3 -40q-10 -61 -45 -104.5t-85 -66t-105 -22.5q-58 0 -103.5 23t-71 65t-25.5 95q0 12 4 40q18 101 91.5 152.5t179.5 51.5h353l20 113h-653l23 131h901zM345 299
q0 30 -18.5 48t-50.5 18q-42 0 -72 -28.5t-30 -70.5q0 -29 19.5 -46.5t53.5 -17.5q36 0 63 23t34 58q1 5 1 16z" />
    <glyph glyph-name="dvP_RA" horiz-adv-x="677" 
d="M737 609h-98l-108 -609h-157l39 223q-2 -3 -5 -5l-240 -244h-169l209 197q-67 12 -102 61t-35 123q0 30 6 63l33 191h-85l23 131h711zM482 609h-215l-33 -191q-3 -18 -3 -35q0 -43 21.5 -67t65.5 -24q48 0 82 30t44 76z" />
    <glyph glyph-name="dvPH_RA" horiz-adv-x="984" 
d="M621 609l-26 -148q29 33 71.5 51.5t93.5 18.5q79 0 123 -48t44 -126q0 -21 -5 -51q-13 -72 -48.5 -124.5t-87 -80t-111.5 -27.5q-41 0 -72 10l21 121q13 -4 31 -4q41 0 69.5 26.5t36.5 70.5q2 14 2 22q0 34 -20.5 55.5t-56.5 21.5q-48 0 -79.5 -32.5t-43.5 -85.5
l-49 -279h-157l39 220l-8 -7l-225 -239h-169l205 200q-63 15 -96.5 61.5t-33.5 115.5q0 29 6 59l35 199h-85l23 131h1019l-24 -131h-422zM464 609h-197l-35 -199q-3 -18 -3 -34q0 -40 20.5 -62t63.5 -22q47 0 77.5 32t37.5 80z" />
    <glyph glyph-name="dvB_RA" horiz-adv-x="687" 
d="M769 740l-23 -131h-97l-107 -609h-151l23 128l-7 -7l-188 -183h-165l147 132q-76 13 -119 65t-43 129q0 25 4 48q12 69 52.5 121t100.5 80t130 28q49 0 87 -16t62 -45l23 129h-473l23 131h721zM249 412l185 -162q15 26 20 55q2 16 2 25q0 48 -30.5 79t-84.5 31
q-52 0 -92 -28zM176 276q0 -48 33.5 -76.5t84.5 -28.5t92 27l-186 162q-15 -25 -21 -56q-3 -15 -3 -28z" />
    <glyph glyph-name="dvBH_RA" horiz-adv-x="873" 
d="M954 740l-23 -131h-99l-107 -609h-141l20 117l-243 -206h-171l432 347l15 87h-155l-6 -37q-18 -103 -84.5 -164t-167.5 -61q-87 0 -138 43t-51 116q0 17 3 36q16 94 88.5 143.5t171.5 49.5h65l12 69q2 9 2 24q0 52 -48 52q-26 0 -44 -17.5t-24 -46.5q-2 -10 -2 -30h-152
q0 20 3 38q13 84 75.5 136.5t162.5 52.5q89 0 129.5 -44.5t40.5 -121.5q0 -37 -7 -72l-7 -40h155l47 269h248zM341 345h-64q-41 0 -68 -21.5t-27 -58.5q0 -24 17 -38.5t44 -14.5q37 0 59.5 23.5t30.5 64.5z" />
    <glyph glyph-name="dvM_RA" horiz-adv-x="843" 
d="M909 609h-98l-108 -609h-142l22 119l-244 -208h-172l431 346l17 96h-140l-7 -42q-18 -103 -84.5 -164t-168.5 -61q-86 0 -136.5 43t-50.5 115q0 19 3 38q16 96 88.5 146.5t170.5 50.5h66l24 130h-348l23 131h877zM661 609h-140l-23 -130h140zM334 353h-65
q-36 0 -61.5 -18.5t-32.5 -51.5q-1 -5 -1 -14q0 -25 16.5 -40t44.5 -15q37 0 60 24t30 65z" />
    <glyph glyph-name="dvY_RA" horiz-adv-x="758" 
d="M816 609h-98l-107 -609h-158l26 150q-14 -14 -35 -27l-240 -186h-191l1 9l204 147q-80 17 -124.5 73t-44.5 139q0 33 5 59q3 20 15 60h10q81 0 121 36t52 107l8 42h-235l24 131h790zM561 609h-146l-13 -70q-32 -176 -195 -195q-2 -16 -2 -25q0 -48 33.5 -77t95.5 -29
q68 0 116.5 39.5t65.5 103.5z" />
    <glyph glyph-name="dvL_RA" horiz-adv-x="912" 
d="M777 609l-19 -109q41 -23 65 -66.5t24 -102.5q0 -32 -5 -57q-20 -113 -100 -180t-202 -64l-35 2l25 136q12 -2 26 -2q49 0 83.5 31t43.5 84q3 15 3 28q0 35 -19 56t-54 21q-46 0 -74 -33t-38 -85l-4 -24h-130l4 24q4 26 4 37q0 37 -17.5 59t-54.5 22q-44 0 -72 -28.5
t-37 -76.5q-3 -15 -3 -29q0 -40 24 -63t69 -23q8 0 24 2l-24 -137q-14 -1 -30 -1q-107 0 -165 56t-58 148q0 32 5 56q20 116 93.5 175t170.5 59q67 0 106.5 -32t51.5 -82h3q23 41 60 69.5t86 38.5l16 91h-600l23 131h948l-24 -131h-193zM669 -194l-70 119l-113 -119h-167
l177 179h210l114 -179h-151z" />
    <glyph glyph-name="dvV_RA" horiz-adv-x="667" 
d="M749 740l-24 -131h-97l-107 -609h-153l25 141l-17 -16l-178 -170h-168l139 124q-62 16 -96 62t-34 115q0 28 6 59q18 101 87.5 160.5t172.5 59.5q51 0 88 -18.5t57 -52.5l25 145h-450l23 131h701zM192 277q0 -41 26 -65.5t71 -24.5q39 0 69.5 20t47 51.5t16.5 62.5
q0 39 -24.5 63.5t-70.5 24.5q-50 0 -87 -30.5t-46 -79.5q-2 -16 -2 -22z" />
    <glyph glyph-name="dvSH_RA" horiz-adv-x="862" 
d="M943 740l-23 -131h-97l-108 -609h-154l26 144l-51 29l-224 -184h-184l2 14l298 230l-104 57l-159 -110h-179l3 18l230 157q-94 73 -94 169q0 18 3 37q15 86 83 137t168 51q58 0 101.5 -21t67 -58t23.5 -82q0 -15 -3 -30q-10 -55 -37.5 -96.5t-85.5 -86.5l166 -92l81 457
h251zM271 528q0 -56 58 -89l7 -4q36 24 59 49t28 58q1 5 1 14q0 27 -17 45t-48 18q-34 0 -58 -21.5t-29 -51.5q-1 -6 -1 -18z" />
    <glyph glyph-name="dvSS_RA" horiz-adv-x="694" 
d="M750 609h-98l-107 -609h-154l37 210q-1 -1 -25 -22l-234 -214h-170l210 180q-67 16 -103 69t-36 130q0 32 6 65l34 191h-85l23 131h725zM497 609h-233l206 -158zM391.5 299q31.5 19 50.5 52l-199 151l-16 -89q-3 -18 -3 -34q0 -45 24.5 -72t70.5 -27q41 0 72.5 19z" />
    <glyph glyph-name="dvS_RA" horiz-adv-x="916" 
d="M968 609h-91l-107 -609h-136l25 140l-189 -204h-150l351 353l3 19h-474l-18 -107q-2 -14 -2 -20q0 -26 12.5 -41t37.5 -15q31 0 46.5 21.5t22.5 59.5h134q-9 -97 -66.5 -156t-151.5 -59q-88 0 -136.5 48t-48.5 125q0 25 4 45l36 203h75q77 0 116 34.5t49 96.5l12 66h-297
l23 131h943zM727 609h-249l-11 -66q-10 -64 -45 -115h273z" />
    <glyph glyph-name="dvH_RA" horiz-adv-x="585" 
d="M677 740l-24 -131h-128l-12 -70l-20 -111h-174q-27 0 -45.5 -11.5t-24.5 -36.5q-1 -3 -1 -9q0 -23 22 -34q26 2 41 2q59 0 104.5 -20t70 -55.5t24.5 -80.5l-97 -93h-140l99 93q-9 16 -28 27t-48 11q-49 0 -83.5 -34t-45.5 -90q-3 -15 -3 -28q0 -41 24 -65t65 -24
q35 0 62.5 17t39.5 41h138q-21 -82 -89 -131.5t-168 -49.5q-66 0 -115.5 25.5t-77 71t-27.5 105.5q0 21 5 51q11 62 44 109.5t82 76.5q-50 33 -50 91q0 16 2 25q11 58 60 92.5t124 34.5h79l13 70h-341l24 131h619z" />
    <glyph glyph-name="dvLL_RA" horiz-adv-x="957" 
d="M811 609l-20 -110q48 -22 75 -65.5t27 -102.5q0 -25 -4 -46q-12 -67 -48.5 -118.5t-90.5 -80.5l101 -158h-151l-70 119l-113 -119h-167l155 157q-46 32 -62 84h-5q-34 -55 -91 -85.5t-123 -30.5q-56 0 -100.5 22.5t-69.5 64.5t-25 99q0 25 4 46q13 70 52 123t95.5 81.5
t120.5 28.5q63 0 109.5 -28t69.5 -86h4q63 89 158 108l17 97h-638l23 131h995l-24 -131h-204zM363.5 363q-22.5 22 -59.5 22q-50 0 -84.5 -34.5t-34.5 -87.5q0 -35 23 -55.5t61 -20.5q48 0 82.5 33.5t34.5 84.5q0 36 -22.5 58zM558 208q22 -21 60 -21q50 0 84.5 33t34.5 85
q0 36 -22.5 58t-60.5 22q-50 0 -84 -34.5t-34 -86.5q0 -35 22 -56z" />
    <glyph glyph-name="dvKx_RA" horiz-adv-x="1037" 
d="M682 609l-25 -146q26 32 64.5 50t85.5 18q80 0 126 -51.5t46 -132.5q0 -22 -5 -52q-20 -106 -87 -163.5t-159 -57.5q-35 0 -66 8l22 123q9 -3 25 -3q39 0 69 25.5t38 70.5q2 14 2 19q0 35 -21 57.5t-57 22.5q-46 0 -75.5 -31t-38.5 -80l-50 -286h-151l26 147l-10 -11
l-187 -182h-169l142 131q-55 15 -85.5 59t-30.5 107q0 26 4 47q19 105 87 169t166 64q51 0 86 -18.5t52 -51.5l26 148h-509l23 131h1076l-23 -131h-417zM477 298q1 6 1 18q0 35 -21.5 58.5t-62.5 23.5q-50 0 -85.5 -34.5t-35.5 -88.5q0 -36 23 -57.5t62 -21.5q46 0 78.5 30
t40.5 70v2zM85.5 122q18.5 -19 18.5 -48q0 -37 -28.5 -64t-65.5 -27q-30 0 -48 18t-18 45q0 38 28 66.5t65 28.5q30 0 48.5 -19z" />
    <glyph glyph-name="dvKHx_RA" horiz-adv-x="961" 
d="M1043 740l-24 -131h-97l-107 -609h-156l28 158q-50 -47 -127 -47q-17 0 -32 3q-4 -4 -9 -10t-12 -12h1l-224 -227h-169l2 8l135 129q-99 8 -154 61.5t-55 146.5q0 26 7 66l22 127h25q68 0 107 31t51 99l13 76h-243l24 131h994zM765 609h-339l-17 -98
q-17 -97 -70.5 -152.5t-129.5 -64.5l-7 -37q-3 -15 -3 -28q0 -46 28.5 -73t81.5 -27q77 0 122 56q-24 42 -24 101q0 25 4 48q9 56 39.5 99t75.5 66.5t97 23.5q83 0 119 -49zM688 262.5q28 31.5 28 73.5q0 29 -18 48.5t-53 19.5q-37 0 -65.5 -23t-35.5 -62q-1 -6 -1 -18
q0 -33 20 -51.5t52 -18.5q45 0 73 31.5zM76.5 -9q18.5 -19 18.5 -48q0 -37 -28.5 -64t-65.5 -27q-30 0 -48 18t-18 45q0 38 28 66.5t65 28.5q30 0 48.5 -19z" />
    <glyph glyph-name="dvGx_RA" horiz-adv-x="815" 
d="M897 740l-23 -131h-98l-106 -609h-154l32 183l-238 -203h-181l444 363l46 266h-127l-26 -157q-17 -97 -76 -155.5t-162 -58.5q-85 0 -134 42t-49 118q0 26 4 47q3 16 7 31h152l-6 -32q-3 -13 -3 -25q0 -22 10.5 -34.5t32.5 -12.5q52 0 65 73l29 164h-311l24 131h848z
M119.5 155q18.5 -19 18.5 -48q0 -37 -28.5 -64t-65.5 -27q-30 0 -48 18t-18 45q0 38 28 66.5t65 28.5q30 0 48.5 -19z" />
    <glyph glyph-name="dvJx_RA" horiz-adv-x="860" 
d="M919 609h-98l-107 -609h-146l27 159l-220 -208h-173l418 368l8 47h-130q-23 -91 -86 -144t-157 -53q-97 0 -150.5 47.5t-53.5 127.5q0 22 5 50l18 99h158l-18 -95q-3 -15 -3 -27q0 -30 15.5 -47t43.5 -17q34 0 57 24t31 67l17 95h275l21 116h-646l23 131h894zM150.5 97
q18.5 -19 18.5 -48q0 -37 -28.5 -64t-65.5 -27q-30 0 -48 18t-18 45q0 38 28 66.5t65 28.5q30 0 48.5 -19z" />
    <glyph glyph-name="dvPHx_RA" horiz-adv-x="1060" 
d="M697 609l-25 -147q29 32 70.5 50.5t92.5 18.5q80 0 124 -48t44 -126q0 -23 -5 -51q-13 -72 -48.5 -124.5t-87 -80t-111.5 -27.5q-41 0 -72 10l21 121q13 -4 31 -4q40 0 69 26.5t37 70.5q2 14 2 21q0 35 -20 56.5t-57 21.5q-48 0 -79.5 -31.5t-42.5 -83.5l-50 -282h-157
l39 220q-4 -4 -6 -5l-227 -241h-169l205 200q-63 15 -96.5 61.5t-33.5 114.5q0 29 6 60l35 199h-169l23 131h1102l-23 -131h-422zM540 609h-197l-35 -199q-3 -18 -3 -34q0 -40 20.5 -62t63.5 -22q47 0 77 31.5t38 80.5zM92.5 76q-28.5 -27 -65.5 -27q-30 0 -48 18t-18 45
q0 38 28 66.5t65 28.5q30 0 48.5 -19t18.5 -48q0 -37 -28.5 -64z" />
    <glyph glyph-name="dvK_R" horiz-adv-x="702" 
d="M607 609l-25 -146q26 32 64.5 50t85.5 18q80 0 126 -51t46 -131q0 -21 -5 -51h-158q2 14 2 19q0 35 -21 57.5t-57 22.5q-46 0 -75.5 -31t-38.5 -80l-50 -286h-151l26 147l-10 -11v0l-187 -182h-169l143 131q-55 15 -86 59t-31 107q0 26 4 47q19 105 87 169t166 64
q51 0 86 -18.5t52 -51.5l26 148h-432l23 131h931l-24 -131h-348zM402 298q1 6 1 18q0 35 -21.5 58.5t-62.5 23.5q-50 0 -85.5 -34.5t-35.5 -88.5q0 -36 23 -57.5t62 -21.5q46 0 78.5 30t40.5 70v2z" />
    <glyph glyph-name="dvKH_R" horiz-adv-x="670" 
d="M202 257q-3 -15 -3 -28q0 -46 28.5 -73t81.5 -27q76 0 120 53q-28 39 -28 93q0 22 4 41q11 63 48.5 109.5t94 71t122.5 24.5q89 0 141.5 -43.5t52.5 -120.5q0 -13 -4 -41q-11 -65 -49 -111.5t-94 -71t-120 -24.5q-31 0 -58 6q-38 -53 -89 -82l-166 -168h-168l1 8l129 124
q-96 13 -149 70t-53 148q0 30 6 61l22 127h25q69 0 107.5 31t50.5 99l13 76h-243l24 131h886l-23 -131h-486l-17 -98q-17 -97 -70.5 -152.5t-129.5 -64.5zM562.5 245.5q20.5 -18.5 55.5 -18.5q41 0 69 24t36 65q2 14 2 19q0 32 -20 50.5t-56 18.5q-46 0 -76.5 -30t-30.5 -78
q0 -32 20.5 -50.5z" />
    <glyph glyph-name="dvG_R" horiz-adv-x="546" 
d="M676 740l-23 -131h-161l-26 -157q-17 -97 -76 -155.5t-162 -58.5q-85 0 -134 42t-49 118q0 26 4 47q3 16 7 31h152l-6 -32q-3 -13 -3 -25q0 -22 10.5 -34.5t32.5 -12.5q52 0 65 73l29 164h-311l24 131h627zM129 -20l482 394l-27 -161l-274 -233h-181z" />
    <glyph glyph-name="dvGH_R" horiz-adv-x="392" 
d="M269 569q-2 -16 -2 -22q0 -60 77 -60h40l-22 -126h-52q-48 0 -74 -23t-26 -58q0 -28 22.5 -43t61.5 -15q67 0 110.5 37.5t53.5 96.5h134q-11 -57 -40 -106.5t-74 -85.5l-213 -213h-169l156 143q-97 4 -151 45.5t-54 109.5q0 17 3 33q10 55 46.5 91t84.5 48l1 3
q-74 21 -74 101q0 18 3 37l8 47h-94l23 131h611l-23 -131h-360z" />
    <glyph glyph-name="dvNG_R" horiz-adv-x="703" 
d="M785 740l-22 -131h-246l-13 -74l-19 -110h-185q-31 0 -53 -13t-22 -43q0 -19 14.5 -27.5t38.5 -8.5h44q79 0 129 -36t50 -107q0 -17 -3 -37q-10 -55 -41.5 -93.5t-84.5 -58.5l93 -146h-151l-70 119l-113 -119h-167l149 151q-46 22 -71.5 57.5t-25.5 83.5q0 8 2 26h156
l-1 -11q0 -31 23 -47.5t61 -16.5q42 0 67.5 20.5t25.5 53.5q0 50 -76 50h-35q-65 0 -118.5 30.5t-53.5 99.5q0 16 3 32q13 75 71 113t138 38h73l13 74h-338l23 131h735zM674.5 432q19.5 -19 19.5 -48q0 -39 -30 -68t-69 -29q-30 0 -49 19.5t-19 48.5q0 39 29.5 67.5
t68.5 28.5q30 0 49.5 -19zM288 -174l94 -223h-160l-90 223h156z" />
    <glyph glyph-name="dvC_R" horiz-adv-x="449" 
d="M716 740l-23 -131h-668l23 131h668zM460.5 255q41.5 42 53.5 113h136q-11 -69 -42 -125t-79 -94l-193 -195h-169l138 127q-87 4 -138.5 43.5t-51.5 109.5q0 12 4 38q12 71 69 117h-134l21 123h370l-22 -123h-41q-47 0 -80 -29t-33 -76q0 -34 25 -52.5t64 -18.5
q61 0 102.5 42z" />
    <glyph glyph-name="dvCH_R" horiz-adv-x="822" 
d="M263 545q-2 -9 -2 -24q0 -58 67 -58h21l-23 -126h-17q-52 0 -81.5 -28t-29.5 -69q0 -42 40.5 -64t124.5 -22q116 0 186 46t86 133q3 14 3 26q0 30 -14 47.5t-37 17.5q-27 0 -48.5 -21t-27.5 -59q-3 -18 -3 -38q0 -12 2 -38h-129q-2 22 -2 37q0 32 5 57q16 88 78.5 132.5
t146.5 44.5q78 0 122.5 -43.5t44.5 -120.5q0 -26 -4 -50q-20 -107 -93.5 -182t-190.5 -105l92 -143h-160l-70 119l-113 -119h-159l137 138q-84 20 -132 66.5t-48 113.5q0 21 4 38q11 55 46.5 92t88.5 53v4q-34 9 -53.5 34t-19.5 68q0 17 3 36l13 71h-94l23 131h858l-23 -131
h-607z" />
    <glyph glyph-name="dvJ_R" horiz-adv-x="553" 
d="M771 740l-22 -131h-722l22 131h722zM706 366l-22 -123l-309 -292h-172l469 415h-174q-23 -91 -86 -144t-157 -53q-97 0 -150.5 47.5t-53.5 127.5q0 22 5 50l18 99h158l-18 -95q-3 -15 -3 -27q0 -30 15.5 -47t43.5 -17q34 0 57 24t31 67l17 95h353z" />
    <glyph glyph-name="dvJH_R" horiz-adv-x="561" 
d="M519 609l-13 -73l-20 -111h-186q-30 0 -52 -13.5t-22 -43.5q0 -35 54 -35h43h427l-20 -118h-1l-26 -154l-179 -175h-158l361 329h-240q7 -24 7 -46q0 -15 -3 -32q-12 -67 -63 -109.5t-128 -42.5q-45 0 -74.5 15t-45.5 33l-21 -117h-148l45 253h141q-3 -31 16 -50t57 -19
t59.5 19.5t21.5 49.5q0 25 -19.5 39t-57.5 14q-39 0 -63 2q-60 3 -102 35.5t-42 95.5q0 16 3 34q13 76 71 111.5t140 35.5h73l12 73h-334l24 131h766l-23 -131h-280z" />
    <glyph glyph-name="dvNY_R" horiz-adv-x="533" 
d="M768 740l-23 -131h-719l23 131h719zM705 386l-21 -119l-24 -143l-220 -213h-160l370 343h-151q-29 -86 -96.5 -135.5t-159.5 -49.5q-61 0 -109 21t-75 59.5t-27 90.5q0 7 2 25h148q2 -29 23 -46t54 -17q50 0 81 36t31 86q0 34 -19.5 55.5t-57.5 21.5q-33 0 -59 -17
t-39 -46h-148q22 90 92 143t169 53q83 0 137.5 -39.5t66.5 -108.5h192z" />
    <glyph glyph-name="dvTT_R" horiz-adv-x="644" 
d="M249 368.5q-46 -32.5 -57 -93.5q-2 -8 -2 -24q0 -43 29 -69t80 -26q59 0 100 35t51 92h149q-14 -85 -61.5 -146.5t-121.5 -91.5l90 -141h-151l-68 116h-5l-110 -116h-167l142 144q-55 27 -86 75t-31 112q0 25 4 46q21 119 107.5 184.5t220.5 67.5l14 76h-352l23 131h680
l-24 -131h-173l-36 -208h-137q-62 0 -108 -32.5zM334 -124l94 -223h-160l-90 223h156z" />
    <glyph glyph-name="dvTTH_R" horiz-adv-x="673" 
d="M459 609l-14 -79q75 -19 121.5 -71.5t46.5 -130.5q0 -22 -5 -50q-14 -82 -65 -140.5t-127 -85.5l96 -151h-151l-70 119l-113 -119h-167l152 154q-57 25 -90 74.5t-33 115.5q0 26 4 47q17 101 85 162t162 79l14 76h-274l23 131h705l-23 -131h-277zM455 308
q0 45 -28.5 72.5t-79.5 27.5q-55 0 -96 -34t-51 -88q-2 -9 -2 -26q0 -44 28.5 -71.5t77.5 -27.5q57 0 98 34.5t51 88.5q2 16 2 24zM336 -129l94 -223h-160l-90 223h156z" />
    <glyph glyph-name="dvDD_R" horiz-adv-x="567" 
d="M247 412q-22 -13 -22 -43q0 -19 14.5 -27.5t38.5 -8.5h44q79 0 129 -36t50 -107q0 -17 -3 -37q-10 -55 -42 -94t-86 -59l92 -145h-151l-70 119l-113 -119h-167l150 152q-45 21 -70 56.5t-25 83.5q0 8 2 26h156l-1 -11q0 -31 23 -47.5t61 -16.5q42 0 67.5 20.5t25.5 53.5
q0 50 -76 50h-35q-65 0 -118.5 30.5t-53.5 99.5q0 16 3 32q13 75 71 113t138 38h71l13 74h-336l23 131h599l-22 -131h-112l-33 -184h-182q-31 0 -53 -13zM284 -174l94 -223h-159l-91 223h156z" />
    <glyph glyph-name="dvDDH_R" horiz-adv-x="656" 
d="M262 389.5q-61 -43.5 -74 -123.5q-4 -26 -4 -36q0 -57 37.5 -91.5t110.5 -34.5q56 0 96 24t48 67q1 4 1 12q0 20 -12.5 32t-32.5 12q-22 0 -38.5 -12.5t-20.5 -33.5l-2 -18h-110q0 22 3 38q11 65 64 101.5t130 36.5q69 0 111.5 -38t42.5 -102q0 -15 -3 -33
q-13 -70 -60.5 -118t-124.5 -68l88 -138h-151l-70 119l-113 -119h-167l154 156q-62 29 -97 82.5t-35 124.5q0 21 5 51q15 83 63 142t119 89t154 30h19l12 68h-379l23 131h689l-23 -131h-162l-31 -176h-116q-83 0 -144 -43.5zM341 -163l94 -223h-160l-90 223h156z" />
    <glyph glyph-name="dvNN_R" horiz-adv-x="584" 
d="M746 740l-23 -131h-154l-28 -160q-17 -100 -80 -160.5t-169 -60.5q-92 0 -144.5 49t-52.5 128q0 24 4 44l27 160h-97l23 131h694zM415 609h-135l-31 -175q-1 -5 -1 -15q0 -27 15 -43t42 -16q32 0 53 20.5t26 53.5zM208 -46l474 420l-31 -176l-264 -244h-179z" />
    <glyph glyph-name="dvT_R" horiz-adv-x="412" 
d="M687 740l-24 -131h-638l23 131h639zM535 466.5q68 -53.5 78 -146.5l-385 -319h-206v6l437 334q-15 25 -42.5 39t-64.5 14q-59 0 -103.5 -34.5t-55.5 -96.5h-157q13 73 57 131.5t114.5 92t157.5 33.5q102 0 170 -53.5z" />
    <glyph glyph-name="dvTH_R" horiz-adv-x="475" 
d="M642 241.5q-34 -53.5 -85 -89.5l-302 -233h-194l2 9l217 157q-109 13 -168.5 77t-59.5 161q0 53 20 116h86q88 0 141.5 25t63.5 86q1 5 1 13q0 23 -13.5 37.5t-36.5 14.5q-38 0 -58.5 -30t-18.5 -74h-142q3 67 34 121.5t85.5 85.5t125.5 31q80 0 127 -43.5t47 -117.5
q0 -23 -4 -43q-18 -100 -97.5 -159t-210.5 -59h-2q-2 -56 39 -85t106 -29q78 0 137 40t71 108h134q-11 -66 -45 -119.5z" />
    <glyph glyph-name="dvD_R" horiz-adv-x="615" 
d="M696 740l-24 -131h-112l-38 -214h-179q-62 0 -102 -34.5t-40 -94.5q0 -35 22 -56t60 -21t68.5 24.5t37.5 67.5h146l-55 -314h-154l26 148q-8 -9 -19 -16l-177 -173h-169l162 150q-50 18 -80.5 62t-30.5 109q0 21 5 53q20 112 104 170.5t204 58.5h37l14 80h-374l23 131
h645zM472 -90l93 -223h-160l-90 223h157z" />
    <glyph glyph-name="dvDH_R" horiz-adv-x="427" 
d="M538 155l-224 -226h-170l161 147h-20q-105 0 -170.5 40.5t-65.5 117.5q0 15 3 31q11 60 51.5 94t88.5 44v3q-42 14 -69.5 49t-27.5 88q0 17 3 35q14 80 70 125.5t138 45.5q77 0 119.5 -36.5t42.5 -102.5q0 -35 -11 -71h-116q4 18 4 27q0 23 -12 37.5t-37 14.5
q-30 0 -50 -24.5t-20 -58.5q0 -33 24.5 -48.5t65.5 -15.5h83l-23 -127h-52q-46 0 -75 -17.5t-35 -50.5q-1 -5 -1 -13q0 -30 29 -43.5t73 -13.5q77 0 124 33.5t57 88.5h137q-18 -107 -95 -173z" />
    <glyph glyph-name="dvN_R" horiz-adv-x="514" 
d="M749 740l-24 -131h-700l23 131h701zM125.5 444.5q73.5 51.5 179.5 51.5h400l-23 -131h-225q11 -28 11 -63q0 -19 -3 -40q-11 -61 -46 -104.5t-84.5 -66t-104.5 -22.5q-58 0 -103.5 23t-71 65t-25.5 95q0 12 4 40q18 101 91.5 152.5zM326.5 347q-18.5 18 -50.5 18
q-42 0 -72 -28.5t-30 -70.5q0 -29 19.5 -46.5t53.5 -17.5q40 0 69 28t29 69q0 30 -18.5 48zM224 -89l449 404l-27 -159l-251 -245h-171z" />
    <glyph glyph-name="dvP_R" horiz-adv-x="353" 
d="M233 418q-3 -18 -3 -35q0 -43 23 -67t69 -24q51 0 83 33t41 84h129q-21 -127 -98 -191l-237 -244h-169l199 187q-93 9 -145 67.5t-52 146.5q0 22 5 54l32 180h-85l23 131h586l-23 -131h-344z" />
    <glyph glyph-name="dvPH_R" horiz-adv-x="700" 
d="M621 609l-26 -148q29 33 71.5 51.5t93.5 18.5q79 0 123 -49t44 -130q0 -22 -5 -54h-161q2 14 2 22q0 34 -20.5 55.5t-56.5 21.5q-48 0 -79.5 -32.5t-43.5 -85.5l-49 -279h-157l39 220l-8 -7l-225 -239h-169l205 200q-63 15 -96.5 61.5t-33.5 115.5q0 29 6 59l35 199h-85
l23 131h951l-23 -131h-355zM464 609h-197l-35 -199q-3 -18 -3 -34q0 -40 20.5 -62t63.5 -22q47 0 77.5 32t37.5 80z" />
    <glyph glyph-name="dvB_R" horiz-adv-x="389" 
d="M649 740l-23 -131h-601l23 131h601zM468 516q52 -27 78 -73t26 -101q0 -19 -3 -37q-8 -53 -33 -99t-64 -79l-191 -189h-157l132 120q-67 2 -116 29.5t-75.5 73.5t-26.5 104q0 20 3 39q10 68 49.5 122.5t104 85.5t146.5 31q75 0 127 -27zM448 326q0 48 -30.5 79t-84.5 31
q-50 0 -93 -29l185 -162q17 29 21 55q2 9 2 26zM168 275q0 -50 33.5 -79.5t84.5 -29.5q49 0 90 28l-185 162q-15 -25 -21 -56q-2 -18 -2 -25z" />
    <glyph glyph-name="dvBH_R" horiz-adv-x="540" 
d="M710 471l-22 -126h-206l-6 -37q-18 -103 -84.5 -164t-167.5 -61q-87 0 -138 43t-51 116q0 17 3 36q16 94 88.5 143.5t171.5 49.5h65l12 69q2 9 2 24q0 52 -48 52q-26 0 -44 -17.5t-24 -46.5q-2 -10 -2 -30h-152q0 20 3 38q13 84 75.5 136.5t162.5 52.5q89 0 129.5 -44.5
t40.5 -121.5q0 -37 -7 -72l-7 -40h206zM341 345h-64q-41 0 -68 -21.5t-27 -58.5q0 -24 17 -38.5t44 -14.5q37 0 59.5 23.5t30.5 64.5zM190 -89l491 394l-25 -143l-295 -251h-171z" />
    <glyph glyph-name="dvM_R" horiz-adv-x="533" 
d="M521 609l-23 -130h213l-22 -126h-214l-7 -42q-18 -103 -84.5 -164t-168.5 -61q-86 0 -136.5 43t-50.5 115q0 19 3 38q16 96 88.5 146.5t170.5 50.5h66l24 130h-348l23 131h705l-23 -131h-216zM334 353h-65q-36 0 -61.5 -18.5t-32.5 -51.5q-1 -5 -1 -14q0 -25 16.5 -40
t44.5 -15q37 0 60 24t30 65zM167 -89l518 415l-26 -142l-320 -273h-172z" />
    <glyph glyph-name="dvY_R" horiz-adv-x="430" 
d="M340 403.5q-48 -50.5 -134 -59.5q-1 -7 -1 -20q0 -52 36.5 -81.5t97.5 -29.5q70 0 117.5 39t58.5 100h144q-10 -66 -43 -121t-87 -92l-261 -202h-191l1 9l193 138q-103 13 -163 70.5t-60 151.5q0 28 6 58q3 20 15 60h10q81 0 121 35.5t52 104.5l8 45h-235l24 131h679
l-23 -131h-291l-13 -74q-13 -81 -61 -131.5z" />
    <glyph glyph-name="dvL_R" horiz-adv-x="912" 
d="M777 609l-19 -109q41 -23 65 -66.5t24 -102.5q0 -32 -5 -57q-20 -113 -100 -180t-202 -64l-35 2l25 136q12 -2 26 -2q49 0 83.5 31t43.5 84q3 15 3 28q0 35 -19 56t-54 21q-46 0 -74 -33t-38 -85l-4 -24h-130l4 24q4 26 4 37q0 37 -17.5 59t-54.5 22q-44 0 -72 -28.5
t-37 -76.5q-3 -15 -3 -29q0 -40 24 -63t69 -23q8 0 24 2l-24 -137q-14 -1 -30 -1q-107 0 -165 56t-58 148q0 32 5 56q20 116 93.5 175t170.5 59q67 0 106.5 -32t51.5 -82h3q23 41 60 69.5t86 38.5l16 91h-600l23 131h948l-24 -131h-193zM706 -15l114 -179h-151l-70 119
l-113 -119h-167l177 179h210zM642 -223l94 -223h-160l-90 223h156z" />
    <glyph glyph-name="dvV_R" horiz-adv-x="359" 
d="M651 740l-23 -131h-603l23 131h603zM468 507q53 -28 79.5 -75t26.5 -102q0 -23 -4 -42q-16 -97 -89 -158l-192 -192h-165l137 124q-70 2 -121 28t-77.5 71t-26.5 102q0 25 4 46q18 102 96.5 164t201.5 62q77 0 130 -28zM216 211q27 -25 73 -25q40 0 71 19.5t48 51
t17 64.5q0 39 -25 64.5t-72 25.5q-37 0 -69 -17.5t-51 -48t-19 -68.5q0 -41 27 -66z" />
    <glyph glyph-name="dvSH_R" horiz-adv-x="522" 
d="M532.5 462.5q-28.5 -41.5 -87.5 -87.5l116 -63l-25 -139l-224 -184h-184l2 14l298 230l-103 57l-160 -110h-179l3 18l230 157q-94 73 -94 169q0 18 3 37q15 86 83 137t168 51q58 0 101.5 -22t66.5 -59.5t23 -84.5q0 -7 -2 -25q-7 -54 -35.5 -95.5zM336 435q36 24 59 49
t28 58q1 5 1 14q0 27 -17 45t-48 18q-34 0 -58 -21.5t-29 -51.5q-1 -6 -1 -18q0 -56 58 -89z" />
    <glyph glyph-name="dvSS_R" horiz-adv-x="383" 
d="M631 609h-368l324 -244q-17 -80 -72 -137l-4 -4l-7 -6l-263 -244h-168l202 175q-97 7 -150.5 65t-53.5 148q0 24 5 56l34 191h-85l23 131h605zM224 378q0 -46 25 -72t72 -26q43 0 73.5 19t47.5 50l-199 153l-16 -89q-3 -18 -3 -35z" />
    <glyph glyph-name="dvS_R" horiz-adv-x="511" 
d="M467 543q-10 -64 -45 -115h246l-21 -120h-447l-18 -107q-2 -14 -2 -20q0 -26 12.5 -41t37.5 -15q31 0 46.5 21.5t22.5 59.5h134q-9 -97 -66.5 -156t-151.5 -59q-88 0 -136.5 48t-48.5 125q0 25 4 45l36 203h75q77 0 116 34.5t49 96.5l12 66h-296l22 131h675l-23 -131
h-222zM320 -64l317 316l-29 -166l-138 -150h-150z" />
    <glyph glyph-name="dvH_R" horiz-adv-x="585" 
d="M677 740l-24 -131h-128l-12 -70l-20 -111h-174q-27 0 -45.5 -11.5t-24.5 -36.5q-1 -3 -1 -9q0 -23 22 -34q26 2 41 2q59 0 104.5 -20t70 -55.5t24.5 -80.5l-97 -93h-140l99 93q-9 16 -28 27t-48 11q-49 0 -83.5 -34t-45.5 -90q-3 -15 -3 -28q0 -41 24 -65t65 -24
q35 0 62.5 17t39.5 41h138q-21 -82 -89 -131.5t-168 -49.5q-66 0 -115.5 25.5t-77 71t-27.5 105.5q0 21 5 51q11 62 44 109.5t82 76.5q-50 33 -50 91q0 16 2 25q11 58 60 92.5t124 34.5h79l13 70h-341l24 131h619zM289 -198l94 -223h-160l-90 223h156z" />
    <glyph glyph-name="dvLL_R" horiz-adv-x="957" 
d="M1039 740l-24 -131h-994l23 131h995zM798.5 495.5q44.5 -22.5 69.5 -65t25 -99.5q0 -25 -4 -46q-12 -67 -48.5 -118.5t-90.5 -80.5l101 -158h-151l-70 119l-113 -119h-167l155 157q-46 32 -62 84h-5q-34 -55 -91 -85.5t-123 -30.5q-56 0 -100.5 22.5t-69.5 64.5t-25 99
q0 25 4 46q13 70 52 123t95.5 81.5t120.5 28.5q63 0 109.5 -28t69.5 -86h4q41 59 95.5 86.5t117.5 27.5q57 0 101.5 -22.5zM363.5 363q-22.5 22 -59.5 22q-50 0 -84.5 -34.5t-34.5 -87.5q0 -35 23 -55.5t61 -20.5q48 0 82.5 33.5t34.5 84.5q0 36 -22.5 58zM558 208
q22 -21 60 -21q50 0 84.5 33t34.5 85q0 36 -22.5 58t-60.5 22q-50 0 -84 -34.5t-34 -86.5q0 -35 22 -56z" />
    <glyph glyph-name="dvKx_R" horiz-adv-x="777" 
d="M682 609l-25 -146q26 32 64.5 50t85.5 18q80 0 126 -51t46 -131q0 -21 -5 -51h-158q2 14 2 19q0 35 -21 57.5t-57 22.5q-46 0 -75.5 -31t-38.5 -80l-50 -286h-151l26 147l-10 -11v0l-187 -182h-169l143 131q-55 15 -86 59t-31 107q0 26 4 47q19 105 87 169t166 64
q51 0 86 -18.5t52 -51.5l26 148h-504l23 131h1003l-24 -131h-348zM477 298q1 6 1 18q0 35 -21.5 58.5t-62.5 23.5q-50 0 -85.5 -34.5t-35.5 -88.5q0 -36 23 -57.5t62 -21.5q46 0 78.5 30t40.5 70v2zM85.5 122q18.5 -19 18.5 -48q0 -37 -28.5 -64t-65.5 -27q-30 0 -48 18
t-18 45q0 38 28 66.5t65 28.5q30 0 48.5 -19z" />
    <glyph glyph-name="dvKHx_R" horiz-adv-x="670" 
d="M202 257q-3 -15 -3 -28q0 -46 28.5 -73t81.5 -27q76 0 120 53q-28 39 -28 93q0 22 4 41q11 63 48.5 109.5t94 71t122.5 24.5q89 0 141.5 -43.5t52.5 -120.5q0 -13 -4 -41q-11 -65 -49 -111.5t-94 -71t-120 -24.5q-31 0 -58 6q-38 -53 -89 -82l-166 -168h-168l1 8l129 124
q-96 13 -149 70t-53 148q0 30 6 61l22 127h25q69 0 107.5 31t50.5 99l13 76h-243l24 131h886l-23 -131h-486l-17 -98q-17 -97 -70.5 -152.5t-129.5 -64.5zM562.5 245.5q20.5 -18.5 55.5 -18.5q41 0 69 24t36 65q2 14 2 19q0 32 -20 50.5t-56 18.5q-46 0 -76.5 -30t-30.5 -78
q0 -32 20.5 -50.5zM76.5 -9q18.5 -19 18.5 -48q0 -37 -28.5 -64t-65.5 -27q-30 0 -48 18t-18 45q0 38 28 66.5t65 28.5q30 0 48.5 -19z" />
    <glyph glyph-name="dvGx_R" horiz-adv-x="546" 
d="M676 740l-23 -131h-161l-26 -157q-17 -97 -76 -155.5t-162 -58.5q-85 0 -134 42t-49 118q0 26 4 47q3 16 7 31h152l-6 -32q-3 -13 -3 -25q0 -22 10.5 -34.5t32.5 -12.5q52 0 65 73l29 164h-311l24 131h627zM129 -20l482 394l-27 -161l-274 -233h-181zM119.5 155
q18.5 -19 18.5 -48q0 -37 -28.5 -64t-65.5 -27q-30 0 -48 18t-18 45q0 38 28 66.5t65 28.5q30 0 48.5 -19z" />
    <glyph glyph-name="dvJx_R" horiz-adv-x="553" 
d="M771 740l-22 -131h-722l22 131h722zM706 366l-22 -123l-309 -292h-172l469 415h-174q-23 -91 -86 -144t-157 -53q-97 0 -150.5 47.5t-53.5 127.5q0 22 5 50l18 99h158l-18 -95q-3 -15 -3 -27q0 -30 15.5 -47t43.5 -17q34 0 57 24t31 67l17 95h353zM150.5 97
q18.5 -19 18.5 -48q0 -37 -28.5 -64t-65.5 -27q-30 0 -48 18t-18 45q0 38 28 66.5t65 28.5q30 0 48.5 -19z" />
    <glyph glyph-name="dvPHx_R" horiz-adv-x="776" 
d="M697 609l-25 -147q29 32 70.5 50.5t92.5 18.5q80 0 124 -49t44 -130q0 -22 -5 -54h-161q2 14 2 21q0 35 -20 56.5t-57 21.5q-48 0 -79.5 -31.5t-42.5 -83.5l-50 -282h-157l39 220q-4 -4 -6 -5l-227 -241h-169l205 200q-63 15 -96.5 61.5t-33.5 114.5q0 29 6 60l35 199
h-169l23 131h1035l-24 -131h-354zM540 609h-197l-35 -199q-3 -18 -3 -34q0 -40 20.5 -62t63.5 -22q47 0 77 31.5t38 80.5zM92.5 76q-28.5 -27 -65.5 -27q-30 0 -48 18t-18 45q0 38 28 66.5t65 28.5q30 0 48.5 -19t18.5 -48q0 -37 -28.5 -64z" />
    <glyph glyph-name="dvK_KA" horiz-adv-x="1660" 
d="M1303 609l-25 -146q26 32 64.5 50t85.5 18q80 0 126 -51.5t46 -132.5q0 -22 -5 -52q-20 -106 -87 -163.5t-159 -57.5q-35 0 -66 8l22 123q9 -3 25 -3q39 0 69 25.5t38 70.5q2 14 2 19q0 35 -21 57.5t-57 22.5q-46 0 -75.5 -31t-38.5 -80l-50 -286h-151l24 135
q-29 -33 -70 -52t-91 -19q-79 0 -128 51.5t-49 135.5q0 26 4 47q2 14 2 21q0 34 -20 56t-56 22q-46 0 -74 -31t-37 -80l-50 -286h-151l24 135q-29 -33 -70 -52t-91 -19q-79 0 -128 51.5t-49 135.5q0 21 5 51q18 104 86 166.5t166 62.5q51 0 86 -18.5t52 -51.5l26 148h-432
l23 131h1695l-23 -131h-417zM1153 609h-546l-25 -145q26 32 63.5 49.5t84.5 17.5q72 0 117 -43q61 43 142 43q51 0 86 -18.5t52 -51.5zM402 296l-1 -1q2 14 2 22q0 35 -21.5 58t-62.5 23q-49 0 -85 -34.5t-36 -87.5q0 -36 23.5 -58t62.5 -22q47 1 78.5 29.5t38.5 66.5z
M1098 296l-1 -1q2 14 2 22q0 35 -21.5 58t-62.5 23q-49 0 -85 -34.5t-36 -87.5q0 -36 23.5 -58t62.5 -22q47 1 78.5 29.5t38.5 66.5z" />
    <glyph glyph-name="dvKx_KxA" horiz-adv-x="1661" 
d="M1303 609l-25 -146q26 32 64.5 50t85.5 18q80 0 126 -51.5t46 -132.5q0 -22 -5 -52q-20 -106 -87 -163.5t-159 -57.5q-35 0 -66 8l22 123q9 -3 25 -3q39 0 69 25.5t38 70.5q2 14 2 19q0 35 -21 57.5t-57 22.5q-46 0 -75.5 -31t-38.5 -80l-50 -286h-151l24 135
q-29 -33 -70 -52t-91 -19q-79 0 -128 51.5t-49 135.5q0 26 4 47q2 14 2 22q0 34 -20 55.5t-54 21.5q-47 0 -75.5 -31t-37.5 -80l-50 -286h-151l24 135q-29 -33 -70 -52t-91 -19q-79 0 -127.5 52t-48.5 136q0 27 4 50q18 104 86 166.5t166 62.5q51 0 86 -18.5t52 -51.5
l26 148h-432l23 131h1695l-23 -131h-417zM1153 609h-546l-25 -146q26 32 64 50t85 18q71 0 116 -43q61 43 142 43q51 0 86 -18.5t52 -51.5zM402 296l-1 -1q2 14 2 22q0 35 -21.5 58t-62.5 23q-44 0 -77.5 -28t-41.5 -73q-2 -14 -2 -21q0 -36 23.5 -58t62.5 -22
q47 1 78.5 29.5t38.5 66.5zM1098 296l-1 -1q2 14 2 22q0 35 -21.5 58t-62.5 23q-49 0 -85 -34.5t-36 -87.5q0 -36 23.5 -58t62.5 -22q47 1 78.5 29.5t38.5 66.5zM228.5 -15q21.5 -22 21.5 -56q0 -42 -33 -73t-76 -31q-34 0 -55 20.5t-21 52.5q0 29 15 54t40 40t53 15
q34 0 55.5 -22zM924.5 -15q21.5 -22 21.5 -56q0 -42 -33 -73t-76 -31q-34 0 -55 20.5t-21 52.5q0 29 15 54t40 40t53 15q34 0 55.5 -22z" />
    <glyph glyph-name="dvK_KHA" horiz-adv-x="1643" 
d="M1701 609h-97l-107 -609h-156l28 158q-50 -47 -127 -47q-16 0 -30 3q-45 -55 -109 -88t-140 -33q-113 0 -175.5 55.5t-62.5 158.5q0 27 7 69l5 28q1 5 1 15q0 35 -19.5 56.5t-56.5 21.5q-46 0 -74 -31t-37 -80l-50 -286h-151l24 135q-29 -33 -70 -52t-91 -19
q-79 0 -128 51.5t-49 135.5q0 21 5 51q18 104 86 166.5t166 62.5q51 0 86 -18.5t52 -51.5l26 148h-432l23 131h1677zM824.5 497.5q36.5 -25.5 51.5 -70.5q48 30 61 106l13 76h-343l-26 -152q27 31 64.5 48.5t84.5 17.5q58 0 94.5 -25.5zM1447 609h-339l-17 -98
q-17 -97 -70.5 -152.5t-129.5 -64.5l-7 -37q-3 -15 -3 -28q0 -46 28.5 -73t81.5 -27q77 0 122 56q-24 42 -24 101q0 25 4 48q9 56 39.5 99t75.5 66.5t97 23.5q83 0 119 -49zM1370 262.5q28 31.5 28 73.5q0 29 -18 48.5t-53 19.5q-37 0 -65.5 -23t-35.5 -62q-1 -6 -1 -18
q0 -33 20 -51.5t52 -18.5q45 0 73 31.5zM402 296l-1 -1q2 14 2 22q0 35 -21.5 58t-62.5 23q-49 0 -85 -34.5t-36 -87.5q0 -36 23.5 -58t62.5 -22q47 1 78.5 29.5t38.5 66.5z" />
    <glyph glyph-name="dvK_CA" horiz-adv-x="1335" 
d="M1393 609h-97l-108 -609h-157l28 160q-35 -37 -83.5 -57t-104.5 -20q-78 0 -126.5 40.5t-48.5 110.5q0 20 4 39q6 37 24 67.5t46 52.5h-97q-51 0 -83 -31.5t-40 -81.5v1l-49 -281h-151l24 135q-29 -33 -70 -52t-91 -19q-79 0 -128 51.5t-49 135.5q0 21 5 51
q18 104 86 166.5t166 62.5q51 0 86 -18.5t52 -51.5l26 148h-432l23 131h1369zM1139 609h-532l-27 -157q27 30 68.5 46.5t94.5 17.5h284l-22 -123h-42q-41 0 -72 -25t-39 -66q-2 -12 -2 -18q0 -34 25 -52.5t64 -18.5q60 0 100.5 40t55.5 107zM402 296l-1 -1q2 14 2 22
q0 35 -21.5 58t-62.5 23q-49 0 -85 -34.5t-36 -87.5q0 -36 23.5 -58t62.5 -22q47 1 78.5 29.5t38.5 66.5z" />
    <glyph glyph-name="dvK_JA" horiz-adv-x="1553" 
d="M1611 609h-97l-107 -609h-157l62 354h-116l-5 -30q-12 -65 -47.5 -116t-91 -79.5t-123.5 -28.5q-96 0 -147 45.5t-51 116.5q0 17 3 35l2 11q1 5 1 15q0 34 -18.5 54t-55.5 20q-46 0 -74.5 -30.5t-36.5 -77.5v1l-51 -290h-151l24 135q-29 -33 -70 -52t-91 -19
q-79 0 -128 51.5t-49 135.5q0 21 5 51q18 104 86 166.5t166 62.5q51 0 86 -18.5t52 -51.5l26 148h-432l23 131h1587zM1356 609h-749l-26 -148q28 33 67 51.5t87 18.5q80 0 122.5 -45.5t42.5 -111.5q0 -18 -3 -36l-2 -10q-2 -18 -2 -25q0 -31 14.5 -48.5t43.5 -17.5
q34 0 57 24t31 67l28 160h268zM402 296l-1 -1q2 14 2 22q0 35 -21.5 58t-62.5 23q-49 0 -85 -34.5t-36 -87.5q0 -36 23.5 -58t62.5 -22q47 1 78.5 29.5t38.5 66.5z" />
    <glyph glyph-name="dvK_TTA" horiz-adv-x="1340" 
d="M945 368.5q-46 -32.5 -57 -93.5q-2 -8 -2 -24q0 -43 29 -69t80 -26q59 0 100 35t51 92h149q-13 -79 -56 -138.5t-110 -92t-151 -32.5q-75 0 -132 26.5t-88.5 75t-31.5 113.5q0 25 4 46l5 26q4 40 -15.5 65t-57.5 25q-46 0 -74 -31t-37 -80l-50 -286h-151l24 135
q-29 -33 -70 -52t-91 -19q-79 0 -128 51.5t-49 135.5q0 21 5 51q18 104 86 166.5t166 62.5q51 0 86 -18.5t52 -51.5l26 148h-432l23 131h1375l-24 -131h-173l-36 -208h-137q-62 0 -108 -32.5zM857 478q83 54 201 55l14 76h-465l-25 -145q26 32 63.5 49.5t83.5 17.5
q85 0 128 -53zM402 296l-1 -1q2 14 2 22q0 35 -21.5 58t-62.5 23q-49 0 -85 -34.5t-36 -87.5q0 -36 23.5 -58t62.5 -22q47 1 78.5 29.5t38.5 66.5z" />
    <glyph glyph-name="dvK_NNA" horiz-adv-x="1554" 
d="M1613 609h-98l-108 -609h-157l107 609h-133l-44 -244q-17 -99 -79.5 -159.5t-165.5 -60.5q-96 0 -151 51t-50 136q-4 30 -22 47.5t-50 17.5q-45 0 -73.5 -31t-36.5 -77v1l-51 -290h-151l24 135q-29 -33 -70 -52t-91 -19q-79 0 -128 51.5t-49 135.5q0 21 5 51
q18 104 86 166.5t166 62.5q51 0 86 -18.5t52 -51.5l26 148h-432l23 131h1588zM729 517q18 0 35 -3l17 95h-174l-27 -155q56 63 149 63zM1069 609h-134l-45 -258q-2 -14 -2 -19q0 -25 15 -40t41 -15q32 0 53 20t27 54zM402 296l-1 -1q2 14 2 22q0 35 -21.5 58t-62.5 23
q-49 0 -85 -34.5t-36 -87.5q0 -36 23.5 -58t62.5 -22q47 1 78.5 29.5t38.5 66.5z" />
    <glyph glyph-name="dvK_TA" horiz-adv-x="1088" 
d="M721 609l-33 -184q28 33 67.5 51t88.5 18q81 0 128 -51.5t47 -133.5q0 -22 -5 -52q-20 -108 -88 -167t-163 -59q-39 0 -69 9l22 122q9 -3 28 -3q42 0 73.5 27.5t38.5 74.5q2 12 2 19q0 34 -21.5 57t-59.5 23q-49 0 -79.5 -31.5t-39.5 -80.5v1l-44 -249h-151l62 352h-109
q-62 0 -103 -29.5t-51 -84.5q-3 -13 -3 -26q0 -41 27.5 -64t81.5 -23h18l-22 -124h-43q-99 0 -161 48t-62 133q0 22 4 42q14 77 65 130h-130l24 132h487l22 123h-545l23 131h1122l-23 -131h-426z" />
    <glyph glyph-name="dvKx_TA" horiz-adv-x="1391" 
d="M1450 609h-99l-106 -609h-157l62 357h-124q-69 0 -113 -37.5t-44 -105.5q0 -42 27.5 -65.5t80.5 -23.5h18l-21 -124h-28q-64 0 -118 22t-86 67.5t-32 111.5q0 24 4 47q3 21 9 39q3 17 3 29q0 38 -18.5 58t-50.5 20q-43 0 -70 -30t-35 -76v1l-51 -290h-151l24 135
q-29 -33 -70 -52t-91 -19q-79 0 -128 51.5t-49 135.5q0 21 5 51q18 104 86 166.5t166 62.5q51 0 86 -18.5t52 -51.5l26 148h-432l23 131h1425zM1194 609h-587l-26 -150q26 30 63.5 46.5t83.5 16.5q47 0 81 -18t51 -51q77 39 182 39h132zM402 296l-1 -1q2 14 2 22
q0 35 -21.5 58t-62.5 23q-49 0 -85 -34.5t-36 -87.5q0 -36 23.5 -58t62.5 -22q47 1 78.5 29.5t38.5 66.5zM228.5 -15q21.5 -22 21.5 -56q0 -42 -33 -73t-76 -31q-34 0 -55 20.5t-21 52.5q0 29 15 54t40 40t53 15q34 0 55.5 -22z" />
    <glyph glyph-name="dvK_T_YA" horiz-adv-x="1814" 
d="M1872 609h-97l-107 -609h-158l27 154q-36 -34 -85 -53t-108 -19q-111 0 -175 60.5t-64 162.5q-9 28 -30.5 44t-65.5 16q-54 0 -90.5 -30t-46.5 -85q-3 -15 -3 -28q0 -42 27.5 -65.5t80.5 -23.5h18l-21 -123h-40q-99 0 -162 50.5t-63 144.5q0 22 5 54q6 30 10 43
q2 16 2 22q0 34 -18 53t-50 19q-42 0 -70 -30.5t-36 -76.5v1l-51 -290h-151l24 135q-29 -33 -70 -52t-91 -19q-79 0 -128 51.5t-49 135.5q0 21 5 51q18 104 86 166.5t166 62.5q51 0 86 -18.5t52 -51.5l26 148h-432l23 131h1848zM1201 432q47 12 72 45t35 87l8 45h-709
l-26 -150q26 31 63.5 47.5t83.5 16.5q45 0 78 -15.5t51 -43.5q69 36 163 36q122 0 181 -68zM1618 609h-147l-13 -74q-13 -81 -61 -131t-134 -60q-2 -16 -2 -23q0 -49 34 -78.5t96 -29.5q73 0 123 45t62 116zM402 296l-1 -1q2 14 2 22q0 35 -21.5 58t-62.5 23
q-49 0 -85 -34.5t-36 -87.5q0 -36 23.5 -58t62.5 -22q47 1 78.5 29.5t38.5 66.5z" />
    <glyph glyph-name="dvK_T_RA" horiz-adv-x="1405" 
d="M1464 609h-97l-107 -609h-152l31 181l-216 -180h-206l1 6l437 333q-15 25 -43.5 39.5t-65.5 14.5q-59 0 -103 -34.5t-55 -96.5h-157v1v0q3 23 3 40q0 45 -19 69t-55 24q-44 0 -72 -30.5t-36 -76.5v1l-51 -291h-151l24 135q-29 -33 -70 -52t-91 -19q-79 0 -128 51.5
t-49 135.5q0 21 5 51q18 104 86 166.5t166 62.5q51 0 86 -18.5t52 -51.5l26 148h-432l23 131h1439zM1213 609h-606l-26 -147q27 32 65.5 50.5t85.5 18.5q40 0 71 -16.5t50 -48.5q76 52 175 52q54 0 93 -18t64 -48zM402 296l-1 -1q2 14 2 22q0 35 -21.5 58t-62.5 23
q-49 0 -85 -34.5t-36 -87.5q0 -36 23.5 -58t62.5 -22q47 1 78.5 29.5t38.5 66.5z" />
    <glyph glyph-name="dvK_T_VA" horiz-adv-x="1733" 
d="M1791 609h-97l-107 -609h-153l23 132q-30 -34 -71.5 -52t-90.5 -18q-88 0 -139 51.5t-51 139.5q0 29 6 62q5 27 10 42h-95q-69 0 -113 -37.5t-44 -105.5q0 -42 27.5 -65.5t80.5 -23.5h18l-21 -124h-28q-64 0 -118 22t-86 67.5t-32 111.5q0 24 4 47q4 27 14 55q1 6 1 18
q0 33 -18.5 53.5t-48.5 20.5q-45 0 -73.5 -30.5t-36.5 -76.5v1l-51 -290h-151l24 135q-29 -33 -70 -52t-91 -19q-79 0 -128 51.5t-49 135.5q0 21 5 51q18 104 86 166.5t166 62.5q51 0 86 -18.5t52 -51.5l26 148h-432l23 131h1767zM1042 492h176q61 43 147 43q52 0 90 -18
t61 -51l25 143h-934l-26 -150q56 64 151 64q45 0 79 -18t52 -50q77 37 179 37zM1424.5 207q30.5 20 47 51.5t16.5 62.5q0 39 -24.5 63.5t-70.5 24.5q-50 0 -87 -30.5t-46 -79.5q-2 -16 -2 -22q0 -41 26 -65.5t71 -24.5q39 0 69.5 20zM402 296l-1 -1q2 14 2 22q0 35 -21.5 58
t-62.5 23q-49 0 -85 -34.5t-36 -87.5q0 -36 23.5 -58t62.5 -22q47 1 78.5 29.5t38.5 66.5z" />
    <glyph glyph-name="dvK_THA" horiz-adv-x="1480" 
d="M1562 740l-22 -131h-99l-107 -609h-158l34 190q-33 -46 -94 -77t-139 -31q-112 0 -177.5 59.5t-65.5 164.5l1 21q-4 33 -23 51.5t-50 18.5q-46 0 -74.5 -31.5t-36.5 -79.5l-50 -286h-151l24 135q-29 -33 -70 -52t-91 -19q-79 0 -128 51.5t-49 135.5q0 21 5 51
q18 104 86 166.5t166 62.5q51 0 86 -18.5t52 -51.5l26 148h-432l23 131h911q32 9 67 9q80 0 127 -43t47 -117q0 -24 -4 -44q-18 -100 -97 -159t-210 -59h-3q-3 -50 30.5 -82t106.5 -32q53 0 100.5 23.5t81 70t45.5 112.5l56 321h256zM647.5 505q39.5 18 88.5 18
q52 0 86.5 -22t49.5 -61q75 3 121 28t57 81q1 5 1 14q0 23 -13.5 37.5t-37.5 14.5q-16 0 -28 -6h-365l-27 -154q28 32 67.5 50zM402 296l-1 -1q2 14 2 22q0 35 -21.5 58t-62.5 23q-49 0 -85 -34.5t-36 -87.5q0 -36 23.5 -58t62.5 -22q47 1 78.5 29.5t38.5 66.5z" />
    <glyph glyph-name="dvK_DA" horiz-adv-x="1306" 
d="M932 360.5q-40 -34.5 -40 -94.5q0 -35 22 -56t60 -21t68.5 24.5t37.5 67.5h146l-55 -314h-154l26 148q-25 -24 -60 -37t-77 -13q-49 0 -89.5 21t-64 62t-23.5 99q0 21 5 53l1 7q1 5 1 14q0 33 -19.5 54.5t-53.5 21.5q-45 0 -74 -31.5t-38 -79.5v1l-50 -287h-151l24 135
q-29 -33 -70 -52t-91 -19q-79 0 -128 51.5t-49 135.5q0 21 5 51q18 104 86 166.5t166 62.5q51 0 86 -18.5t52 -51.5l26 148h-432l23 131h1339l-24 -131h-112l-38 -214h-179q-62 0 -102 -34.5zM851 479q78 50 191 50h37l14 80h-486l-25 -146q26 32 64 50t84 18q77 0 121 -52z
M402 296l-1 -1q2 14 2 22q0 35 -21.5 58t-62.5 23q-49 0 -85 -34.5t-36 -87.5q0 -36 23.5 -58t62.5 -22q47 1 78.5 29.5t38.5 66.5z" />
    <glyph glyph-name="dvK_NA" horiz-adv-x="1520" 
d="M1580 609h-98l-107 -609h-158l64 365h-126q11 -28 11 -63q0 -19 -3 -40q-10 -61 -45 -104.5t-85 -66t-105 -22.5q-58 0 -103.5 23t-71 65t-25.5 95q0 12 4 40l1 6q2 16 2 22q0 35 -19 56t-53 21q-45 0 -74 -31t-37 -76v1l-51 -291h-151l24 135q-29 -33 -70 -52t-91 -19
q-79 0 -128 51.5t-49 135.5q0 21 5 51q18 104 86 166.5t166 62.5q51 0 86 -18.5t52 -51.5l26 148h-432l23 131h1555zM1325 609h-718l-26 -149q28 34 67 52.5t87 18.5q94 0 127 -64q61 29 141 29h302zM402 296l-1 -1q2 14 2 22q0 35 -21.5 58t-62.5 23q-49 0 -85 -34.5
t-36 -87.5q0 -36 23.5 -58t62.5 -22q47 1 78.5 29.5t38.5 66.5zM1043 299q0 30 -18.5 48t-50.5 18q-42 0 -72 -28.5t-30 -70.5q0 -29 19.5 -46.5t53.5 -17.5q36 0 63 23t34 58q1 5 1 16z" />
    <glyph glyph-name="dvK_PA" horiz-adv-x="1333" 
d="M1392 609h-98l-107 -609h-157l38 214q-59 -54 -147 -54q-89 0 -140 50t-55 134q-5 25 -22 39t-44 14q-43 0 -71.5 -31t-36.5 -77v1l-51 -290h-151l24 135q-29 -33 -70 -52t-91 -19q-79 0 -128 51.5t-49 135.5q0 21 5 51q18 104 86 166.5t166 62.5q51 0 86 -18.5t52 -51.5
l26 148h-432l23 131h1367zM645 506q38 17 86 17q13 0 20 -1l15 87h-159l-26 -151q26 31 64 48zM1137 609h-214l-34 -191q-3 -18 -3 -34q0 -43 23 -67.5t70 -24.5q48 0 79.5 29.5t41.5 77.5zM402 296l-1 -1q2 14 2 22q0 35 -21.5 58t-62.5 23q-49 0 -85 -34.5t-36 -87.5
q0 -36 23.5 -58t62.5 -22q47 1 78.5 29.5t38.5 66.5z" />
    <glyph glyph-name="dvK_P_RA" horiz-adv-x="1333" 
d="M1393 609h-98l-108 -609h-157l39 223q-2 -3 -5 -5l-240 -244h-169l209 197q-62 12 -96.5 54t-39.5 106q-2 30 -19.5 48t-48.5 18q-43 0 -71.5 -31t-36.5 -77v1l-51 -290h-151l24 135q-29 -33 -70 -52t-91 -19q-79 0 -128 51.5t-49 135.5q0 21 5 51q18 104 86 166.5
t166 62.5q51 0 86 -18.5t52 -51.5l26 148h-432l23 131h1367zM645 506q38 17 86 17q14 0 20 -1l15 87h-159l-26 -151q26 31 64 48zM1138 609h-215l-33 -191q-3 -18 -3 -35q0 -43 21.5 -67t65.5 -24q48 0 82 30t44 76zM402 296l-1 -1q2 14 2 22q0 35 -21.5 58t-62.5 23
q-49 0 -85 -34.5t-36 -87.5q0 -36 23.5 -58t62.5 -22q47 1 78.5 29.5t38.5 66.5z" />
    <glyph glyph-name="dvK_PHA" horiz-adv-x="1650" 
d="M1286 609l-26 -148q29 33 71.5 51.5t93.5 18.5q79 0 123 -48t44 -126q0 -21 -5 -51q-13 -72 -48.5 -124.5t-87 -80t-111.5 -27.5q-41 0 -72 10l21 121q13 -4 31 -4q41 0 69.5 26.5t36.5 70.5q2 14 2 22q0 34 -20.5 55.5t-56.5 21.5q-48 0 -79.5 -32.5t-43.5 -85.5
l-49 -279h-157l37 212q-55 -52 -139 -52q-87 0 -135.5 49.5t-50.5 133.5q-5 25 -24 39.5t-49 14.5q-44 0 -73 -32t-37 -79l-50 -286h-151l24 135q-29 -33 -70 -52t-91 -19q-79 0 -128 51.5t-49 135.5q0 21 5 51q18 104 86 166.5t166 62.5q51 0 86 -18.5t52 -51.5l26 148
h-432l23 131h1684l-24 -131h-422zM645.5 506q38.5 17 86.5 17q10 0 28 -2l15 88h-168l-26 -151q26 31 64.5 48zM1129 609h-197l-35 -199q-3 -18 -3 -34q0 -40 20.5 -62t63.5 -22q47 0 77.5 32t37.5 80zM402 296l-1 -1q2 14 2 22q0 35 -21.5 58t-62.5 23q-49 0 -85 -34.5
t-36 -87.5q0 -36 23.5 -58t62.5 -22q47 1 78.5 29.5t38.5 66.5z" />
    <glyph glyph-name="dvKx_PHA" horiz-adv-x="1650" 
d="M1286 609l-26 -148q29 33 71.5 51.5t93.5 18.5q79 0 123 -48t44 -126q0 -21 -5 -51q-13 -72 -48.5 -124.5t-87 -80t-111.5 -27.5q-41 0 -72 10l21 121q13 -4 31 -4q41 0 69.5 26.5t36.5 70.5q2 14 2 22q0 34 -20.5 55.5t-56.5 21.5q-48 0 -79.5 -32.5t-43.5 -85.5
l-49 -279h-157l37 212q-55 -52 -139 -52q-87 0 -135.5 49.5t-50.5 133.5q-5 25 -24 39.5t-49 14.5q-44 0 -73 -32t-37 -79l-50 -286h-151l24 135q-29 -33 -70 -52t-91 -19q-79 0 -128 51.5t-49 135.5q0 21 5 51q18 104 86 166.5t166 62.5q51 0 86 -18.5t52 -51.5l26 148
h-432l23 131h1684l-24 -131h-422zM645.5 506q38.5 17 86.5 17q10 0 28 -2l15 88h-168l-26 -151q26 31 64.5 48zM1129 609h-197l-35 -199q-3 -18 -3 -34q0 -40 20.5 -62t63.5 -22q47 0 77.5 32t37.5 80zM402 296l-1 -1q2 14 2 22q0 35 -21.5 58t-62.5 23q-49 0 -85 -34.5
t-36 -87.5q0 -36 23.5 -58t62.5 -22q47 1 78.5 29.5t38.5 66.5zM217 -144q-33 -31 -76 -31q-34 0 -55 20.5t-21 52.5q0 29 15 54t40 40t53 15q34 0 55.5 -22t21.5 -56q0 -42 -33 -73z" />
    <glyph glyph-name="dvKx_PHxA" horiz-adv-x="1650" 
d="M217 -144q-33 -31 -76 -31q-34 0 -55 20.5t-21 52.5q0 29 15 54t40 40t53 15q34 0 55.5 -22t21.5 -56q0 -42 -33 -73zM891 -43q-33 -31 -76 -31q-34 0 -55 20.5t-21 52.5q0 29 15 54t40 40t53 15q34 0 55.5 -22t21.5 -56q0 -42 -33 -73zM1286 609l-26 -148
q29 33 71.5 51.5t93.5 18.5q79 0 123 -48t44 -126q0 -21 -5 -51q-13 -72 -48.5 -124.5t-87 -80t-111.5 -27.5q-41 0 -72 10l21 121q13 -4 31 -4q41 0 69.5 26.5t36.5 70.5q2 14 2 22q0 34 -20.5 55.5t-56.5 21.5q-48 0 -79.5 -32.5t-43.5 -85.5l-49 -279h-157l37 212
q-55 -52 -139 -52q-87 0 -135.5 49.5t-50.5 133.5q-5 25 -24 39.5t-49 14.5q-44 0 -73 -32t-37 -79l-50 -286h-151l24 135q-29 -33 -70 -52t-91 -19q-79 0 -128 51.5t-49 135.5q0 21 5 51q18 104 86 166.5t166 62.5q51 0 86 -18.5t52 -51.5l26 148h-432l23 131h1684
l-24 -131h-422zM645.5 506q38.5 17 86.5 17q10 0 28 -2l15 88h-168l-26 -151q26 31 64.5 48zM1129 609h-197l-35 -199q-3 -18 -3 -34q0 -40 20.5 -62t63.5 -22q47 0 77.5 32t37.5 80zM402 296l-1 -1q2 14 2 22q0 35 -21.5 58t-62.5 23q-49 0 -85 -34.5t-36 -87.5
q0 -36 23.5 -58t62.5 -22q47 1 78.5 29.5t38.5 66.5z" />
    <glyph glyph-name="dvKx_BA" horiz-adv-x="1382" 
d="M1442 609h-98l-107 -609h-151l23 127q-31 -32 -75.5 -50t-96.5 -18q-60 0 -106 26t-71.5 72t-25.5 106q0 11 2 35h-1q2 16 2 22q0 36 -19 56.5t-56 20.5q-45 0 -74 -32t-37 -80v1l-50 -286h-151l24 135q-29 -33 -70 -52t-91 -19q-79 0 -128 51.5t-49 135.5q0 21 5 51
q18 104 86 166.5t166 62.5q51 0 86 -18.5t52 -51.5l26 148h-432l23 131h1417zM842 485q36 27 81.5 41.5t96.5 14.5q50 0 88 -16t62 -45l23 129h-586l-26 -148q28 33 67 51.5t87 18.5q71 0 107 -46zM1128 250q15 25 21 55q2 16 2 25q0 48 -30.5 79t-84.5 31q-52 0 -92 -28z
M402 296l-1 -1q2 14 2 22q0 35 -21.5 58t-62.5 23q-49 0 -85 -34.5t-36 -87.5q0 -36 23.5 -58t62.5 -22q47 1 78.5 29.5t38.5 66.5zM871 276q0 -48 33.5 -76.5t84.5 -28.5q52 0 91 28l-185 161q-17 -27 -21 -56q-3 -15 -3 -28zM228.5 -15q21.5 -22 21.5 -56q0 -42 -33 -73
t-76 -31q-34 0 -55 20.5t-21 52.5q0 29 15 54t40 40t53 15q34 0 55.5 -22z" />
    <glyph glyph-name="dvK_MA" horiz-adv-x="1545" 
d="M1604 609h-98l-107 -609h-158l59 336h-129l-8 -47q-19 -107 -85 -167.5t-170 -60.5q-87 0 -137.5 44t-50.5 118q0 22 4 41q3 16 11 44q1 5 1 14q0 34 -19.5 54.5t-54.5 20.5q-44 0 -73 -31t-37 -77v1l-51 -290h-151l24 135q-29 -33 -70 -52t-91 -19q-79 0 -128 51.5
t-49 135.5q0 21 5 51q18 104 86 166.5t166 62.5q51 0 86 -18.5t52 -51.5l26 148h-432l23 131h1579zM870 444q54 20 114 20h63l26 145h-466l-27 -153q28 32 67 49.5t87 17.5q102 0 136 -79zM1348 609h-128l-26 -145h129zM402 296l-1 -1q2 14 2 22q0 35 -21.5 58t-62.5 23
q-49 0 -85 -34.5t-36 -87.5q0 -36 23.5 -58t62.5 -22q47 1 78.5 29.5t38.5 66.5zM1025 336h-59q-42 0 -70 -23t-28 -64q0 -26 17.5 -40.5t43.5 -14.5q35 0 56.5 23t29.5 64z" />
    <glyph glyph-name="dvKx_MA" horiz-adv-x="1545" 
d="M1604 609h-98l-107 -609h-158l59 336h-129l-8 -47q-19 -107 -85 -167.5t-170 -60.5q-87 0 -137.5 44t-50.5 118q0 22 4 41q3 16 11 44q1 5 1 14q0 34 -19.5 54.5t-54.5 20.5q-44 0 -73 -31t-37 -77v1l-51 -290h-151l24 135q-29 -33 -70 -52t-91 -19q-79 0 -128 51.5
t-49 135.5q0 21 5 51q18 104 86 166.5t166 62.5q51 0 86 -18.5t52 -51.5l26 148h-432l23 131h1579zM870 444q54 20 114 20h63l26 145h-466l-27 -153q28 32 67 49.5t87 17.5q102 0 136 -79zM1348 609h-128l-26 -145h129zM402 296l-1 -1q2 14 2 22q0 35 -21.5 58t-62.5 23
q-49 0 -85 -34.5t-36 -87.5q0 -36 23.5 -58t62.5 -22q47 1 78.5 29.5t38.5 66.5zM1025 336h-59q-42 0 -70 -23t-28 -64q0 -26 17.5 -40.5t43.5 -14.5q35 0 56.5 23t29.5 64zM217 -144q-33 -31 -76 -31q-34 0 -55 20.5t-21 52.5q0 29 15 54t40 40t53 15q34 0 55.5 -22
t21.5 -56q0 -42 -33 -73z" />
    <glyph glyph-name="dvK_YA" horiz-adv-x="1442" 
d="M1501 609h-97l-107 -609h-158l27 154q-36 -34 -85 -53t-108 -19q-77 0 -132 30t-82.5 84.5t-23.5 127.5q-1 31 -18 52t-55 21q-44 -1 -73.5 -32t-37.5 -79l-50 -286h-151l24 135q-29 -33 -70 -52t-91 -19q-79 0 -128 51.5t-49 135.5q0 21 5 51q18 104 86 166.5t166 62.5
q51 0 86 -18.5t52 -51.5l26 148h-432l23 131h1477zM646.5 505q39.5 18 87.5 18q49 0 82.5 -20.5t49.5 -56.5q57 32 71 118l8 45h-338l-27 -153q27 31 66.5 49zM1247 609h-147l-13 -74q-13 -81 -61 -131t-134 -60q-2 -16 -2 -23q0 -49 34 -78.5t96 -29.5q73 0 123 45t62 116z
M402 296l-1 -1q2 14 2 22q0 35 -21.5 58t-62.5 23q-49 0 -85 -34.5t-36 -87.5q0 -36 23.5 -58t62.5 -22q47 1 78.5 29.5t38.5 66.5z" />
    <glyph glyph-name="dvK_LA" horiz-adv-x="1607" 
d="M1473 609l-19 -109q41 -23 65 -66.5t24 -102.5q0 -32 -5 -57q-20 -113 -100 -180t-202 -64l-35 2l25 136q12 -2 26 -2q49 0 83.5 31t43.5 84q3 15 3 28q0 35 -19 56t-54 21q-46 0 -74 -33t-38 -85l-4 -24h-130l4 24q4 26 4 37q0 37 -17.5 59t-54.5 22q-44 0 -72 -28.5
t-37 -76.5q-3 -15 -3 -29q0 -40 24 -63t69 -23q8 0 24 2l-24 -137q-14 -1 -30 -1q-107 0 -165 56t-58 148q0 32 5 56l3 17q1 5 1 15q0 34 -19 54.5t-54 20.5q-44 0 -74 -32.5t-38 -78.5l-50 -286h-151l24 135q-29 -33 -70 -52t-91 -19q-79 0 -128 51.5t-49 135.5q0 21 5 51
q18 104 86 166.5t166 62.5q51 0 86 -18.5t52 -51.5l26 148h-432l23 131h1642l-24 -131h-193zM1217 479.5q37 28.5 86 38.5l16 91h-712l-27 -153q28 32 67 49.5t87 17.5q69 0 107 -46q68 47 155 47q67 0 106.5 -32t51.5 -82h3q23 41 60 69.5zM402 296l-1 -1q2 14 2 22
q0 35 -21.5 58t-62.5 23q-49 0 -85 -34.5t-36 -87.5q0 -36 23.5 -58t62.5 -22q47 1 78.5 29.5t38.5 66.5z" />
    <glyph glyph-name="dvK_VA" horiz-adv-x="1359" 
d="M1418 609h-97l-107 -609h-153l23 132q-30 -34 -71.5 -52t-90.5 -18q-88 0 -139 51.5t-51 139.5q0 25 4 48h-1q2 14 2 20q0 34 -19 55t-55 21q-46 0 -75 -32.5t-37 -78.5l-50 -286h-151l24 135q-29 -33 -70 -52t-91 -19q-79 0 -128 51.5t-49 135.5q0 21 5 51
q18 104 86 166.5t166 62.5q51 0 86 -18.5t52 -51.5l26 148h-432l23 131h1394zM835 484q65 51 157 51q52 0 90 -18t61 -51l25 143h-561l-27 -152q27 31 66 48.5t88 17.5q64 0 101 -39zM1051.5 207q30.5 20 47 51.5t16.5 62.5q0 39 -24.5 63.5t-70.5 24.5q-50 0 -87 -30.5
t-46 -79.5q-2 -16 -2 -22q0 -41 26 -65.5t71 -24.5q39 0 69.5 20zM402 296l-1 -1q2 14 2 22q0 35 -21.5 58t-62.5 23q-49 0 -85 -34.5t-36 -87.5q0 -36 23.5 -58t62.5 -22q47 1 78.5 29.5t38.5 66.5z" />
    <glyph glyph-name="dvK_V_YA" horiz-adv-x="1823" 
d="M1882 609h-97l-108 -609h-157l27 156q-36 -35 -86 -54.5t-110 -19.5q-61 0 -109.5 19t-78.5 54q-37 -43 -89.5 -68t-118.5 -25q-108 0 -166.5 53t-58.5 141q0 26 4 47l3 13q2 36 -16 58.5t-56 22.5q-46 0 -76 -32t-38 -79l-50 -286h-151l24 135q-29 -33 -70 -52t-91 -19
q-79 0 -128 51.5t-49 135.5q0 21 5 51q18 104 86 166.5t166 62.5q51 0 86 -18.5t52 -51.5l26 148h-432l23 131h1857zM842 477q78 58 191 58q71 0 118.5 -29t67.5 -79q42 14 65 46t32 83l10 53h-719l-27 -154q28 32 67.5 50t88.5 18q68 0 106 -46zM1627 609h-146l-15 -81
q-13 -85 -61.5 -138.5t-134.5 -63.5l-1 -13q0 -45 34 -72.5t96 -27.5q72 0 123 45t63 115v-1zM1068 219.5q35 32.5 45 81.5l1 4q0 7 2 27q-3 33 -28.5 55t-66.5 22q-37 0 -68 -17.5t-49.5 -47.5t-18.5 -67q0 -41 26 -65.5t70 -24.5q52 0 87 32.5zM402 296l-1 -1q2 14 2 22
q0 35 -21.5 58t-62.5 23q-49 0 -85 -34.5t-36 -87.5q0 -36 23.5 -58t62.5 -22q47 1 78.5 29.5t38.5 66.5z" />
    <glyph glyph-name="dvK_SHA" horiz-adv-x="1536" 
d="M999 153.5q22 25.5 31 71.5h152q-14 -110 -78 -171t-176 -61q-98 0 -154.5 49t-56.5 134q0 21 5 51l13 71h-1q2 16 2 23q0 34 -19 55t-55 21q-45 0 -74 -32t-37 -79l-50 -286h-151l24 135q-29 -33 -70 -52t-91 -19q-79 0 -128 51.5t-49 135.5q0 21 5 51q18 104 86 166.5
t166 62.5q51 0 86 -18.5t52 -51.5l26 148h-432l23 131h929q33 9 72 9q89 0 145 -48t56 -132q0 -24 -4 -45q-21 -117 -108 -177t-208 -60h-39l-12 -70q-3 -13 -3 -26q0 -29 15.5 -46t48.5 -17q37 0 59 25.5zM1618 740l-23 -131h-98l-107 -609h-160l131 740h257zM822 495.5
q35 -27.5 48 -76.5h25q74 0 128 27t65 89q2 12 2 18q0 27 -15.5 43.5t-42.5 16.5q-14 0 -25 -4h-400l-27 -152q27 31 66 48.5t88 17.5q53 0 88 -27.5zM402 296l-1 -1q2 14 2 22q0 35 -21.5 58t-62.5 23q-49 0 -85 -34.5t-36 -87.5q0 -36 23.5 -58t62.5 -22q47 1 78.5 29.5
t38.5 66.5z" />
    <glyph glyph-name="dvK_SS_MA" horiz-adv-x="1412" 
d="M1470 609h-98l-107 -609h-158l58 328h-129l-8 -47q-19 -107 -85 -167.5t-170 -60.5q-87 0 -138 44.5t-51 119.5q0 11 4 39q9 48 32 87h-302q-54 -23 -82 -45t-35 -59q-1 -5 -1 -15q0 -28 18 -45t49 -17q40 0 67 26.5t33 61.5h131l-56 -313h-143l26 150q-23 -23 -58.5 -39
t-78.5 -16q-71 0 -114 37.5t-43 99.5q0 17 3 35q12 69 57.5 112t118.5 77q-39 18 -63 52.5t-24 82.5q0 17 3 35q10 56 46 98.5t90 65t118 22.5q78 0 127.5 -38t49.5 -106q0 -17 -3 -35q-11 -66 -64 -114h422l26 153h-287l24 131h819zM283.5 478.5q23.5 -19.5 66.5 -20.5
q70 41 70 97q0 27 -18 44t-49 17q-37 0 -65 -24.5t-28 -62.5q0 -31 23.5 -50.5zM1215 609h-130l-26 -153h129zM890 328h-59q-42 0 -70 -23.5t-28 -63.5q0 -26 17 -40.5t43 -14.5q36 0 58 23t29 63z" />
    <glyph glyph-name="dvK_SS_M_YA" horiz-adv-x="1861" 
d="M1920 609h-97l-108 -609h-157l27 156q-37 -37 -86.5 -57.5t-110.5 -20.5q-109 0 -172.5 59.5t-63.5 161.5l1 22h-119l-8 -47q-19 -107 -85 -167.5t-171 -60.5q-87 0 -137.5 44.5t-50.5 119.5q0 11 4 39q9 53 37 94h-305q-54 -23 -82 -45t-35 -59q-1 -5 -1 -15
q0 -28 18 -45t49 -17q40 0 67 26.5t33 61.5h131l-56 -313h-143l26 150q-23 -23 -58.5 -39t-78.5 -16q-71 0 -114 37.5t-43 99.5q0 17 3 35q12 69 57.5 112t118.5 77q-39 18 -63 52.5t-24 82.5q0 17 3 35q10 56 46 98.5t90 65t118 22.5q78 0 127.5 -38t49.5 -106
q0 -17 -3 -35q-12 -69 -71 -120h428l28 159h-290l23 131h1271zM283.5 478.5q23.5 -19.5 66.5 -20.5q70 41 70 97q0 27 -18 44t-49 17q-37 0 -65 -24.5t-28 -62.5q0 -31 23.5 -50.5zM1057 450h166q60 0 91 27t42 87l8 45h-279zM1665 609h-146l-13 -74q-32 -178 -197 -195
q-2 -16 -2 -23q0 -49 34 -78.5t96 -29.5q72 0 123 48.5t64 120.5zM888 321h-59q-42 0 -70 -23.5t-28 -62.5q0 -26 17 -41t43 -15q35 0 57.5 23.5t29.5 63.5z" />
    <glyph glyph-name="dvK_SS_YA" horiz-adv-x="1310" 
d="M1369 609h-97l-108 -609h-158l27 152q-77 -70 -193 -70q-111 0 -175 56.5t-64 156.5q0 14 4 48h-287q-54 -23 -82 -45t-35 -59q-1 -5 -1 -15q0 -28 18 -45t49 -17q40 0 67 26.5t33 61.5h131l-56 -313h-143l26 150q-23 -23 -58.5 -39t-78.5 -16q-71 0 -114 37.5t-43 99.5
q0 17 3 35q12 69 57.5 112t118.5 77q-39 18 -63 52.5t-24 82.5q0 17 3 35q10 56 46 98.5t90 65t118 22.5q78 0 127.5 -38t49.5 -106q0 -17 -3 -35q-12 -69 -71 -120h176q58 0 97 28t48 84l8 47h-164l23 131h720zM283.5 478.5q23.5 -19.5 66.5 -20.5q70 41 70 97q0 27 -18 44
t-49 17q-37 0 -65 -24.5t-28 -62.5q0 -31 23.5 -50.5zM1113 609h-145l-8 -47q-15 -87 -64.5 -143.5t-135.5 -70.5q-2 -16 -2 -24q0 -51 33.5 -81t95.5 -30q69 0 118 40.5t64 106.5z" />
    <glyph glyph-name="dvK_SS_VA" horiz-adv-x="1223" 
d="M1305 740l-23 -131h-98l-106 -609h-154l23 131q-30 -33 -72 -51t-90 -18q-88 0 -139 51.5t-51 139.5q0 29 6 62q4 18 7 28h-290q-54 -23 -82 -45t-35 -59q-1 -5 -1 -15q0 -28 18 -45t49 -17q40 0 67 26.5t33 61.5h131l-56 -313h-143l26 150q-23 -23 -58.5 -39t-78.5 -16
q-71 0 -114 37.5t-43 99.5q0 17 3 35q12 69 58 112t119 77q-39 17 -63.5 51.5t-24.5 83.5q0 17 3 35q10 56 46 98.5t90 65t118 22.5q78 0 127.5 -38t49.5 -106q0 -17 -3 -35q-11 -66 -64 -114h179q36 38 85 58.5t108 20.5q50 0 87 -18.5t57 -51.5l25 144h-391l23 131h642z
M283.5 478.5q23.5 -19.5 66.5 -20.5q70 40 70 97q0 27 -18 44t-49 17q-37 0 -65 -24.5t-28 -62.5q0 -31 23.5 -50.5zM928.5 216.5q34.5 29.5 46.5 71.5l4 22q3 43 -21.5 71t-74.5 28q-36 0 -66.5 -17t-49 -47t-18.5 -68q0 -41 26 -65.5t70 -24.5q49 0 83.5 29.5z" />
    <glyph glyph-name="dvK_SA" horiz-adv-x="1514" 
d="M1573 609h-98l-107 -609h-158l53 300h-371l-18 -98q-2 -14 -2 -20q0 -26 14 -41.5t41 -15.5q32 0 51 22.5t26 61.5h150q-10 -101 -74.5 -159.5t-167.5 -58.5q-93 0 -144 50t-51 131q0 25 4 46l15 87q2 14 2 20q0 32 -19 52t-55 20q-46 0 -76 -33t-37 -78v1l-50 -287h-151
l24 135q-29 -33 -70 -52t-91 -19q-79 0 -128 51.5t-49 135.5q0 21 5 51q18 104 86 166.5t166 62.5q51 0 86 -18.5t52 -51.5l26 148h-432l23 131h1548zM957 458q28 33 38 85l12 66h-400l-28 -159q27 31 66.5 49t88.5 18q58 0 93.5 -27t48.5 -74q53 9 81 42zM1318 609h-154
l-12 -66q-12 -67 -45 -115h179zM402 296l-1 -1q2 14 2 22q0 35 -21.5 58t-62.5 23q-49 0 -85 -34.5t-36 -87.5q0 -36 23.5 -58t62.5 -22q47 1 78.5 29.5t38.5 66.5z" />
    <glyph glyph-name="dvK_S_TTA" horiz-adv-x="1851" 
d="M1456 368.5q-46 -32.5 -57 -93.5q-2 -8 -2 -24q0 -43 29 -69t80 -26q59 0 100 35t51 92h149q-13 -79 -56 -138.5t-110 -92t-151 -32.5q-75 0 -132 26.5t-88.5 75t-31.5 113.5q0 25 4 46q2 14 4 19h-353l-18 -98q-2 -14 -2 -20q0 -26 14 -41.5t41 -15.5q32 0 51 22.5
t26 61.5h150q-10 -101 -74.5 -159.5t-167.5 -58.5q-93 0 -144 50t-51 131q0 25 4 46l15 87q2 14 2 20q0 32 -19 52t-55 20q-46 0 -76 -33t-37 -78v1l-50 -287h-151l24 135q-29 -33 -70 -52t-91 -19q-79 0 -128 51.5t-49 135.5q0 21 5 51q18 104 86 166.5t166 62.5
q51 0 86 -18.5t52 -51.5l26 148h-432l23 131h1886l-24 -131h-173l-36 -208h-137q-62 0 -108 -32.5zM957 458q28 33 38 85l12 66h-400l-28 -159q27 31 66.5 49t88.5 18q58 0 93.5 -27t48.5 -74q53 9 81 42zM1418.5 504.5q66.5 26.5 150.5 28.5l14 76h-419l-12 -66
q-12 -67 -45 -115h202q43 50 109.5 76.5zM402 296l-1 -1q2 14 2 22q0 35 -21.5 58t-62.5 23q-49 0 -85 -34.5t-36 -87.5q0 -36 23.5 -58t62.5 -22q47 1 78.5 29.5t38.5 66.5z" />
    <glyph glyph-name="dvK_S_DDA" horiz-adv-x="1782" 
d="M1462 412q-22 -13 -22 -43q0 -19 14.5 -27.5t38.5 -8.5h44q79 0 129 -36t50 -107q0 -17 -3 -37q-15 -82 -78.5 -127.5t-171.5 -45.5q-103 0 -167.5 44.5t-64.5 122.5q0 8 2 26h156l-1 -11q0 -31 23 -47.5t61 -16.5q42 0 67.5 20.5t25.5 53.5q0 50 -76 50h-35
q-50 0 -96 18.5t-65 59.5h-402l-17 -98q-2 -14 -2 -21q0 -26 13.5 -41t41.5 -15q31 0 50.5 22.5t25.5 61.5h151q-10 -101 -74.5 -159.5t-167.5 -58.5q-93 0 -144 50t-51 131q0 25 4 46l15 87q2 14 2 20q0 32 -19 52t-55 20q-46 0 -76 -33t-37 -78v1l-50 -287h-151l24 135
q-29 -33 -70 -52t-91 -19q-79 0 -128 51.5t-49 135.5q0 21 5 51q18 104 86 166.5t166 62.5q51 0 86 -18.5t52 -51.5l26 148h-432l23 131h1816l-22 -131h-112l-33 -184h-182q-31 0 -53 -13zM957 458q28 33 38 85l12 66h-400l-28 -159q27 31 66.5 49t88.5 18q58 0 93.5 -27
t48.5 -74q53 9 81 42zM1374.5 508q52.5 27 119.5 27h71l13 74h-414l-12 -66q-12 -65 -46 -115h192q24 53 76.5 80zM402 296l-1 -1q2 14 2 22q0 35 -21.5 58t-62.5 23q-49 0 -85 -34.5t-36 -87.5q0 -36 23.5 -58t62.5 -22q47 1 78.5 29.5t38.5 66.5z" />
    <glyph glyph-name="dvK_S_TA" horiz-adv-x="1912" 
d="M1971 609h-99l-106 -609h-157l62 357h-124q-69 0 -113 -37.5t-44 -105.5q0 -42 27.5 -65.5t80.5 -23.5h18l-21 -124h-28q-64 0 -118 22t-86 67.5t-32 111.5q0 24 4 47q5 29 13 51h-356l-18 -98q-2 -14 -2 -20q0 -26 14 -41.5t41 -15.5q32 0 51 22.5t26 61.5h150
q-10 -101 -74.5 -159.5t-167.5 -58.5q-93 0 -144 50t-51 131q0 25 4 46l15 87q2 14 2 20q0 32 -19 52t-55 20q-46 0 -76 -33t-37 -78v1l-50 -287h-151l24 135q-29 -33 -70 -52t-91 -19q-79 0 -128 51.5t-49 135.5q0 21 5 51q18 104 86 166.5t166 62.5q51 0 86 -18.5
t52 -51.5l26 148h-432l23 131h1946zM957 458q28 33 38 85l12 66h-400l-28 -159q27 31 66.5 49t88.5 18q58 0 93.5 -27t48.5 -74q53 9 81 42zM1715 609h-551l-12 -66q-12 -67 -45 -115h233q44 32 101 48t122 16h132zM402 296l-1 -1q2 14 2 22q0 35 -21.5 58t-62.5 23
q-49 0 -85 -34.5t-36 -87.5q0 -36 23.5 -58t62.5 -22q47 1 78.5 29.5t38.5 66.5z" />
    <glyph glyph-name="dvK_S_P_RA" horiz-adv-x="1870" 
d="M1930 609h-98l-108 -609h-157l39 223q-2 -3 -5 -5l-240 -244h-169l209 197q-54 10 -87 44t-44 85h-379l-17 -98q-2 -14 -2 -21q0 -26 13.5 -41t41.5 -15q31 0 50.5 22.5t25.5 61.5h151q-10 -101 -74.5 -159.5t-167.5 -58.5q-93 0 -144 50t-51 131q0 25 4 46l15 87
q2 14 2 20q0 32 -19 52t-55 20q-46 0 -76 -33t-37 -78v1l-50 -287h-151l24 135q-29 -33 -70 -52t-91 -19q-79 0 -128 51.5t-49 135.5q0 21 5 51q18 104 86 166.5t166 62.5q51 0 86 -18.5t52 -51.5l26 148h-432l23 131h1904zM957 458q28 33 38 85l12 66h-400l-28 -159
q27 31 66.5 49t88.5 18q58 0 93.5 -27t48.5 -74q53 9 81 42zM1164 609l-12 -66q-12 -65 -46 -115h166l31 181h-139zM1675 609h-215l-33 -191q-3 -18 -3 -35q0 -43 21.5 -67t65.5 -24q48 0 82 30t44 76zM402 296l-1 -1q2 14 2 22q0 35 -21.5 58t-62.5 23q-49 0 -85 -34.5
t-36 -87.5q0 -36 23.5 -58t62.5 -22q47 1 78.5 29.5t38.5 66.5z" />
    <glyph glyph-name="dvK_S_P_LA" horiz-adv-x="2459" 
d="M2325 609l-19 -109q41 -23 65 -66.5t24 -102.5q0 -32 -5 -57q-20 -113 -100 -180t-202 -64l-35 2l25 136q12 -2 26 -2q49 0 83.5 31t43.5 84q3 15 3 28q0 35 -19 56t-54 21q-46 0 -74 -33t-38 -85l-4 -24h-130l4 24q4 26 4 37q0 37 -17.5 59t-54.5 22q-44 0 -72 -28.5
t-37 -76.5q-3 -15 -3 -29q0 -40 24 -63t69 -23q8 0 24 2l-24 -137q-14 -1 -30 -1q-93 0 -149 42t-70 114q-49 -26 -111 -26q-81 0 -133 37.5t-68 102.5h-380l-17 -98q-2 -14 -2 -21q0 -26 13.5 -41t41.5 -15q31 0 50.5 22.5t25.5 61.5h151q-10 -101 -74.5 -159.5
t-167.5 -58.5q-93 0 -144 50t-51 131q0 25 4 46l15 87q2 14 2 20q0 32 -19 52t-55 20q-46 0 -76 -33t-37 -78v1l-50 -287h-151l24 135q-29 -33 -70 -52t-91 -19q-79 0 -128 51.5t-49 135.5q0 21 5 51q18 104 86 166.5t166 62.5q51 0 86 -18.5t52 -51.5l26 148h-432l23 131
h2494l-24 -131h-193zM957 458q28 33 38 85l12 66h-400l-28 -159q27 31 66.5 49t88.5 18q58 0 93.5 -27t48.5 -74q53 9 81 42zM1164 609l-12 -66q-12 -65 -46 -115h166l32 181h-140zM2069 479.5q37 28.5 86 38.5l16 91h-710l-34 -191q-4 -28 -4 -39q0 -87 83 -87q30 0 54 16
t40 42q31 86 98.5 130t149.5 44q67 0 106.5 -32t51.5 -82h3q23 41 60 69.5zM402 296l-1 -1q2 14 2 22q0 35 -21.5 58t-62.5 23q-49 0 -85 -34.5t-36 -87.5q0 -36 23.5 -58t62.5 -22q47 1 78.5 29.5t38.5 66.5z" />
    <glyph glyph-name="dvKH_KHA" horiz-adv-x="1627" 
d="M1686 609h-97l-107 -609h-157l28 158q-50 -47 -126 -47q-16 0 -31 3q-45 -55 -108.5 -88t-139.5 -33q-91 0 -150 37t-79 107q-55 -28 -122 -28q-31 0 -58 6q-40 -55 -100 -88.5t-137 -33.5q-121 0 -189.5 59t-68.5 163q0 30 6 61l22 127h25q69 0 107.5 31t50.5 99l13 76
h-243l24 131h1660zM429 182q-28 39 -28 93q0 22 4 41q11 63 48.5 109.5t94 71t122.5 24.5q68 0 115 -30t62 -84q61 32 75 126l13 76h-509l-17 -98q-17 -97 -70.5 -152.5t-129.5 -64.5l-7 -37q-3 -15 -3 -28q0 -46 28.5 -73t81.5 -27q76 0 120 53zM1432 609h-340l-16 -98
q-17 -97 -70.5 -152t-130.5 -65l-6 -37q-3 -15 -3 -28q0 -46 28.5 -73t81.5 -27q76 0 122 55q-25 45 -25 102q0 25 4 48q9 56 40 99t76 66.5t97 23.5q83 0 118 -49zM687 251q28 24 36 65q2 14 2 19q0 32 -20 50.5t-56 18.5q-46 0 -76.5 -30t-30.5 -78q0 -32 20.5 -50.5
t55.5 -18.5q41 0 69 24zM1346 254.5q26 23.5 34 58.5l2 12l1 11q0 29 -18.5 48.5t-53.5 19.5q-37 0 -65 -22.5t-35 -62.5q-2 -14 -2 -19q0 -33 20.5 -51t52.5 -18q38 0 64 23.5z" />
    <glyph glyph-name="dvKH_TA" horiz-adv-x="1368" 
d="M1427 609h-98l-107 -609h-157l62 357h-124q-61 0 -102.5 -30t-51.5 -85q-2 -9 -2 -27q0 -42 27 -66t80 -24h19l-22 -124h-28q-82 0 -137 33.5t-72 99.5q-53 -25 -122 -25q-26 0 -54 5q-39 -55 -99 -88t-137 -33q-121 0 -189.5 59t-68.5 163q0 30 6 61l22 127h25
q69 0 107.5 31t50.5 99l13 76h-243l24 131h1401zM1171 609h-745l-17 -98q-17 -97 -70.5 -152.5t-129.5 -64.5l-7 -37q-3 -15 -3 -28q0 -46 28.5 -73t81.5 -27q76 0 119 52q-26 38 -26 94q0 20 3 41q17 95 87.5 150t169.5 55q62 0 105 -20.5t64 -58.5q78 50 188 50h132z
M687 251q28 24 36 65q2 14 2 19q0 32 -20 50.5t-56 18.5q-46 0 -76.5 -30t-30.5 -78q0 -32 20.5 -50.5t55.5 -18.5q41 0 69 24z" />
    <glyph glyph-name="dvKHx_TA" horiz-adv-x="1368" 
d="M1427 609h-98l-107 -609h-157l62 357h-124q-61 0 -102.5 -30t-51.5 -85q-2 -9 -2 -27q0 -42 27 -66t80 -24h19l-22 -124h-28q-82 0 -137 33.5t-72 99.5q-53 -25 -122 -25q-26 0 -54 5q-39 -55 -99 -88t-137 -33q-121 0 -189.5 59t-68.5 163q0 30 6 61l22 127h25
q69 0 107.5 31t50.5 99l13 76h-243l24 131h1401zM1171 609h-745l-17 -98q-17 -97 -70.5 -152.5t-129.5 -64.5l-7 -37q-3 -15 -3 -28q0 -46 28.5 -73t81.5 -27q76 0 119 52q-26 38 -26 94q0 20 3 41q17 95 87.5 150t169.5 55q62 0 105 -20.5t64 -58.5q78 50 188 50h132z
M687 251q28 24 36 65q2 14 2 19q0 32 -20 50.5t-56 18.5q-46 0 -76.5 -30t-30.5 -78q0 -32 20.5 -50.5t55.5 -18.5q41 0 69 24zM321 -217q-33 -31 -76 -31q-34 0 -55 20.5t-21 52.5q0 29 15 54t40 40t53 15q34 0 55.5 -22t21.5 -56q0 -42 -33 -73z" />
    <glyph glyph-name="dvKH_NA" horiz-adv-x="1505" 
d="M1565 609h-99l-106 -609h-157l64 365h-128q11 -28 11 -63q0 -19 -3 -40q-10 -61 -45 -105t-85 -66t-107 -22q-56 0 -98.5 22t-64.5 63q-61 -45 -150 -45q-31 0 -58 6q-40 -55 -100 -88.5t-137 -33.5q-121 0 -189.5 59t-68.5 163q0 30 6 61l22 127h25q69 0 107.5 31
t50.5 99l13 76h-243l24 131h1539zM1309 609h-883l-17 -98q-17 -97 -70.5 -152.5t-129.5 -64.5l-7 -37q-3 -15 -3 -28q0 -46 28.5 -73t81.5 -27q76 0 120 53q-28 39 -28 93q0 22 4 41q17 95 87.5 150t169.5 55q58 0 100 -19.5t64 -56.5q68 51 167 51h296zM725 335
q0 32 -20 50.5t-56 18.5q-46 0 -76.5 -30t-30.5 -78q0 -32 20.5 -50.5t55.5 -18.5q41 0 69 24t36 65q2 14 2 19zM1009.5 347q-19.5 18 -51.5 18q-37 0 -64.5 -23t-34.5 -59q-1 -5 -1 -16q0 -30 19.5 -47.5t52.5 -17.5q41 0 70 28t29 70q0 29 -19.5 47z" />
    <glyph glyph-name="dvKH_MA" horiz-adv-x="1531" 
d="M1589 609h-98l-107 -609h-158l60 336h-130l-8 -47q-17 -109 -79.5 -168.5t-160.5 -59.5q-61 0 -105.5 22.5t-66.5 62.5q-60 -37 -139 -37q-31 0 -58 6q-40 -55 -100 -88.5t-137 -33.5q-121 0 -189.5 59t-68.5 163q0 30 6 61l22 127h25q69 0 107.5 31t50.5 99l13 76h-243
l24 131h1564zM429 182q-28 39 -28 93q0 22 4 41q17 95 87.5 150t169.5 55q64 0 108 -23t63 -67q59 33 136 33h63l25 145h-631l-17 -98q-17 -97 -70.5 -152.5t-129.5 -64.5l-7 -37q-3 -15 -3 -28q0 -46 28.5 -73t81.5 -27q76 0 120 53zM1334 609h-130l-25 -145h129zM687 251
q28 24 36 65q2 14 2 19q0 32 -20 50.5t-56 18.5q-46 0 -76.5 -30t-30.5 -78q0 -32 20.5 -50.5t55.5 -18.5q41 0 69 24zM1010 336h-59q-42 0 -70 -22.5t-28 -63.5q0 -26 17 -41t43 -15q35 0 57 23t30 64z" />
    <glyph glyph-name="dvKHx_MA" horiz-adv-x="1531" 
d="M293 -212q-33 -31 -76 -31q-34 0 -55 20.5t-21 52.5q0 29 15 54t40 40t53 15q34 0 55.5 -22t21.5 -56q0 -42 -33 -73zM1589 609h-98l-107 -609h-158l60 336h-130l-8 -47q-17 -109 -79.5 -168.5t-160.5 -59.5q-61 0 -105.5 22.5t-66.5 62.5q-60 -37 -139 -37q-31 0 -58 6
q-40 -55 -100 -88.5t-137 -33.5q-121 0 -189.5 59t-68.5 163q0 30 6 61l22 127h25q69 0 107.5 31t50.5 99l13 76h-243l24 131h1564zM429 182q-28 39 -28 93q0 22 4 41q17 95 87.5 150t169.5 55q64 0 108 -23t63 -67q59 33 136 33h63l25 145h-631l-17 -98
q-17 -97 -70.5 -152.5t-129.5 -64.5l-7 -37q-3 -15 -3 -28q0 -46 28.5 -73t81.5 -27q76 0 120 53zM1334 609h-130l-25 -145h129zM687 251q28 24 36 65q2 14 2 19q0 32 -20 50.5t-56 18.5q-46 0 -76.5 -30t-30.5 -78q0 -32 20.5 -50.5t55.5 -18.5q41 0 69 24zM1010 336h-59
q-42 0 -70 -22.5t-28 -63.5q0 -26 17 -41t43 -15q35 0 57 23t30 64z" />
    <glyph glyph-name="dvKH_YA" horiz-adv-x="1426" 
d="M1485 609h-98l-107 -609h-158l27 154q-36 -34 -85 -53t-108 -19q-67 0 -114 22.5t-73 64.5q-34 -29 -78.5 -44.5t-93.5 -15.5q-31 0 -58 6q-40 -55 -100 -88.5t-137 -33.5q-121 0 -189.5 59t-68.5 163q0 30 6 61l22 127h25q69 0 107.5 31t50.5 99l13 76h-243l24 131h1459
zM429 182q-28 39 -28 93q0 22 4 41q11 63 48.5 109.5t94 71t122.5 24.5q62 0 106 -24.5t64 -68.5q67 30 80 129l9 52h-503l-17 -98q-17 -97 -70.5 -152.5t-129.5 -64.5l-7 -37q-3 -15 -3 -28q0 -46 28.5 -73t81.5 -27q76 0 120 53zM1230 609h-146l-14 -81
q-13 -81 -61.5 -132.5t-134.5 -61.5q-1 -5 -1 -15q0 -46 33.5 -76t96.5 -30q73 0 123 45t62 116zM725 335q0 32 -20 50.5t-56 18.5q-46 0 -76.5 -30t-30.5 -78q0 -32 20.5 -50.5t55.5 -18.5q41 0 69 24t36 65q2 14 2 19z" />
    <glyph glyph-name="dvKHx_YA" horiz-adv-x="1426" 
d="M319 -217q-33 -31 -76 -31q-34 0 -55 20.5t-21 52.5q0 29 15 54t40 40t53 15q34 0 55.5 -22t21.5 -56q0 -42 -33 -73zM1485 609h-98l-107 -609h-158l27 154q-36 -34 -85 -53t-108 -19q-67 0 -114 22.5t-73 64.5q-34 -29 -78.5 -44.5t-93.5 -15.5q-31 0 -58 6
q-40 -55 -100 -88.5t-137 -33.5q-121 0 -189.5 59t-68.5 163q0 30 6 61l22 127h25q69 0 107.5 31t50.5 99l13 76h-243l24 131h1459zM429 182q-28 39 -28 93q0 22 4 41q11 63 48.5 109.5t94 71t122.5 24.5q62 0 106 -24.5t64 -68.5q67 30 80 129l9 52h-503l-17 -98
q-17 -97 -70.5 -152.5t-129.5 -64.5l-7 -37q-3 -15 -3 -28q0 -46 28.5 -73t81.5 -27q76 0 120 53zM1230 609h-146l-14 -81q-13 -81 -61.5 -132.5t-134.5 -61.5q-1 -5 -1 -15q0 -46 33.5 -76t96.5 -30q73 0 123 45t62 116zM725 335q0 32 -20 50.5t-56 18.5q-46 0 -76.5 -30
t-30.5 -78q0 -32 20.5 -50.5t55.5 -18.5q41 0 69 24t36 65q2 14 2 19z" />
    <glyph glyph-name="dvKH_VA" horiz-adv-x="1333" 
d="M1393 609h-98l-106 -609h-154l23 132q-30 -34 -71.5 -52t-90.5 -18q-56 0 -97.5 22.5t-62.5 64.5q-63 -40 -147 -40q-24 0 -51 5q-39 -55 -99.5 -88t-136.5 -33q-121 0 -189.5 59t-68.5 163q0 30 6 61l22 127h25q69 0 107.5 31t50.5 99l13 76h-243l24 131h1367zM427 180
q-26 38 -26 92q0 24 4 44q17 95 86.5 150t167.5 55q94 0 145 -51q67 65 162 65q51 0 89.5 -18t61.5 -50l25 142h-716l-17 -98q-17 -97 -70.5 -152.5t-129.5 -64.5l-7 -37q-3 -15 -3 -28q0 -46 28.5 -73t81.5 -27q76 0 118 51zM1026.5 207q30.5 20 46.5 51t16 63
q0 39 -24.5 63.5t-70.5 24.5q-36 0 -67 -17t-49 -47t-18 -68q0 -41 26 -65.5t70 -24.5q40 0 70.5 20zM687 251q28 24 36 65q2 14 2 19q0 32 -20 50.5t-56 18.5q-46 0 -76.5 -30t-30.5 -78q0 -32 20.5 -50.5t55.5 -18.5q41 0 69 24z" />
    <glyph glyph-name="dvKHx_VA" horiz-adv-x="1333" 
d="M319 -217q-33 -31 -76 -31q-34 0 -55 20.5t-21 52.5q0 29 15 54t40 40t53 15q34 0 55.5 -22t21.5 -56q0 -42 -33 -73zM1393 609h-98l-106 -609h-154l23 132q-30 -34 -71.5 -52t-90.5 -18q-56 0 -97.5 22.5t-62.5 64.5q-63 -40 -147 -40q-24 0 -51 5q-39 -55 -99.5 -88
t-136.5 -33q-121 0 -189.5 59t-68.5 163q0 30 6 61l22 127h25q69 0 107.5 31t50.5 99l13 76h-243l24 131h1367zM427 180q-26 38 -26 92q0 24 4 44q17 95 86.5 150t167.5 55q94 0 145 -51q67 65 162 65q51 0 89.5 -18t61.5 -50l25 142h-716l-17 -98q-17 -97 -70.5 -152.5
t-129.5 -64.5l-7 -37q-3 -15 -3 -28q0 -46 28.5 -73t81.5 -27q76 0 118 51zM1026.5 207q30.5 20 46.5 51t16 63q0 39 -24.5 63.5t-70.5 24.5q-36 0 -67 -17t-49 -47t-18 -68q0 -41 26 -65.5t70 -24.5q40 0 70.5 20zM687 251q28 24 36 65q2 14 2 19q0 32 -20 50.5t-56 18.5
q-46 0 -76.5 -30t-30.5 -78q0 -32 20.5 -50.5t55.5 -18.5q41 0 69 24z" />
    <glyph glyph-name="dvKH_SHA" horiz-adv-x="1505" 
d="M998 225h153q-1 -15 -3 -18q-17 -102 -81.5 -158t-166.5 -56q-82 0 -137.5 34.5t-70.5 98.5q-46 -17 -101 -17q-25 0 -53 5q-38 -54 -99 -87.5t-137 -33.5q-121 0 -189.5 59t-68.5 163q0 30 6 61l22 127h25q69 0 107.5 31t50.5 99l13 76h-243l23 131h901q35 8 73 8
q90 0 144 -46.5t54 -128.5q0 -20 -5 -48q-21 -117 -108.5 -177.5t-207.5 -60.5h-39l-12 -70q-3 -13 -3 -27q0 -28 15.5 -45t48.5 -17q34 0 57 22.5t29 58.5zM1587 740l-24 -131h-97l-107 -609h-159l130 740h257zM428 180q-27 40 -27 93q0 23 4 43q17 95 87.5 150t169.5 55
q70 0 116.5 -26.5t62.5 -75.5h23q75 0 128.5 27t64.5 89q1 6 1 18q0 28 -15 44t-45 16q-14 0 -29 -4h-543l-17 -98q-17 -97 -70.5 -152.5t-129.5 -64.5l-7 -37q-3 -15 -3 -28q0 -46 28.5 -73t81.5 -27q74 0 119 51zM562 245q20 -18 56 -18q41 0 69 24t36 65q2 12 2 18
q0 32 -20.5 51t-55.5 19q-47 0 -77 -30.5t-30 -78.5q0 -32 20 -50z" />
    <glyph glyph-name="dvKHx_SHA" horiz-adv-x="1505" 
d="M319 -217q-33 -31 -76 -31q-34 0 -55 20.5t-21 52.5q0 29 15 54t40 40t53 15q34 0 55.5 -22t21.5 -56q0 -42 -33 -73zM998 225h153q-1 -15 -3 -18q-17 -102 -81.5 -158t-166.5 -56q-82 0 -137.5 34.5t-70.5 98.5q-46 -17 -101 -17q-25 0 -53 5q-38 -54 -99 -87.5
t-137 -33.5q-121 0 -189.5 59t-68.5 163q0 30 6 61l22 127h25q69 0 107.5 31t50.5 99l13 76h-243l23 131h901q35 8 73 8q90 0 144 -46.5t54 -128.5q0 -20 -5 -48q-21 -117 -108.5 -177.5t-207.5 -60.5h-39l-12 -70q-3 -13 -3 -27q0 -28 15.5 -45t48.5 -17q34 0 57 22.5
t29 58.5zM1587 740l-24 -131h-97l-107 -609h-159l130 740h257zM428 180q-27 40 -27 93q0 23 4 43q17 95 87.5 150t169.5 55q70 0 116.5 -26.5t62.5 -75.5h23q75 0 128.5 27t64.5 89q1 6 1 18q0 28 -15 44t-45 16q-14 0 -29 -4h-543l-17 -98q-17 -97 -70.5 -152.5
t-129.5 -64.5l-7 -37q-3 -15 -3 -28q0 -46 28.5 -73t81.5 -27q74 0 119 51zM562 245q20 -18 56 -18q41 0 69 24t36 65q2 12 2 18q0 32 -20.5 51t-55.5 19q-47 0 -77 -30.5t-30 -78.5q0 -32 20 -50z" />
    <glyph glyph-name="dvKHx_SA" horiz-adv-x="1502" 
d="M1561 609h-98l-107 -609h-158l53 300h-371l-18 -98q-2 -14 -2 -20q0 -26 14 -41.5t41 -15.5q32 0 51 22.5t26 61.5h150q-10 -101 -74.5 -159.5t-167.5 -58.5q-80 0 -129.5 38t-61.5 101q-51 -21 -112 -21q-31 0 -58 6q-40 -55 -100 -88.5t-137 -33.5q-121 0 -189.5 59
t-68.5 163q0 30 6 61l22 127h25q69 0 107.5 31t50.5 99l13 76h-243l24 131h1535zM942.5 455q30.5 33 40.5 88l12 66h-569l-17 -98q-17 -97 -70.5 -152.5t-129.5 -64.5l-7 -37q-3 -15 -3 -28q0 -46 28.5 -73t81.5 -27q76 0 120 53q-28 39 -28 93q0 22 4 41q11 63 48.5 109.5
t94 71t122.5 24.5q70 0 118.5 -28t65.5 -79q58 8 88.5 41zM1306 609h-154l-12 -66q-12 -67 -45 -115h179zM687 251q28 24 36 65q2 14 2 19q0 32 -20 50.5t-56 18.5q-46 0 -76.5 -30t-30.5 -78q0 -32 20.5 -50.5t55.5 -18.5q41 0 69 24zM330.5 -88q21.5 -22 21.5 -56
q0 -42 -33 -73t-76 -31q-34 0 -55 20.5t-21 52.5q0 29 15 54t40 40t53 15q34 0 55.5 -22z" />
    <glyph glyph-name="dvG_GA" horiz-adv-x="1316" 
d="M1375 609h-98l-107 -609h-157l106 609h-126l-39 -226q-16 -96 -75.5 -155t-161.5 -59q-85 0 -134 41.5t-49 118.5q0 25 4 46l6 32h153l-6 -31q-2 -9 -2 -25q0 -48 42 -48q29 0 44.5 21.5t19.5 52.5l42 232h-345l-39 -226q-16 -96 -75.5 -155t-161.5 -59q-85 0 -134 41.5
t-49 118.5q0 25 4 46l6 32h153l-6 -31q-2 -9 -2 -25q0 -48 42 -48q29 0 44.5 21.5t19.5 52.5l42 232h-311l23 131h1350z" />
    <glyph glyph-name="dvG_GHA" horiz-adv-x="1190" 
d="M1249 609h-96l-107 -609h-158l30 171q-37 -37 -87 -57t-106 -20q-81 0 -134 40.5t-53 110.5q0 16 3 32q10 55 48 93t85 51v3q-74 21 -74 102q0 17 3 36l8 47h-119l-39 -226q-16 -96 -75.5 -155t-161.5 -59q-85 0 -134 41.5t-49 118.5q0 25 4 46l6 32h153l-6 -31
q-2 -9 -2 -25q0 -48 42 -48q29 0 44.5 21.5t19.5 52.5l42 232h-311l23 131h1225zM995 609h-226l-7 -40q-2 -16 -2 -22q0 -60 77 -60h40l-22 -126h-52q-49 0 -74.5 -23t-25.5 -59q0 -28 22.5 -42.5t60.5 -14.5q60 0 107 37t57 97v-1z" />
    <glyph glyph-name="dvG_JA" horiz-adv-x="1359" 
d="M1417 609h-97l-107 -609h-157l62 354h-115l-5 -30q-18 -100 -87 -162t-172 -62q-91 0 -145.5 49t-54.5 132q0 20 5 48l28 159h158l-29 -160q-3 -13 -3 -26q0 -31 15.5 -48t43.5 -17q34 0 57 24.5t31 66.5l28 160h269l21 121h-671l-39 -226q-16 -96 -75.5 -155t-161.5 -59
q-85 0 -134 41.5t-49 118.5q0 25 4 46l6 32h153l-6 -31q-2 -9 -2 -25q0 -48 42 -48q29 0 44.5 21.5t19.5 52.5l42 232h-311l23 131h1393z" />
    <glyph glyph-name="dvG_NNA" horiz-adv-x="1385" 
d="M1444 609h-98l-108 -609h-157l107 609h-133l-44 -244q-17 -99 -79.5 -159.5t-165.5 -60.5q-93 0 -147 47.5t-54 128.5q0 24 4 44l43 244h-120l-39 -226q-16 -96 -75.5 -155t-161.5 -59q-85 0 -134 41.5t-49 118.5q0 25 4 46l6 32h153l-6 -31q-2 -9 -2 -25q0 -48 42 -48
q29 0 44.5 21.5t19.5 52.5l42 232h-311l23 131h1419zM900 609h-134l-45 -258q-2 -14 -2 -19q0 -25 15 -40t41 -15q32 0 53 20t27 54z" />
    <glyph glyph-name="dvG_DA" horiz-adv-x="1111" 
d="M737 360.5q-40 -34.5 -40 -94.5q0 -35 22 -56t60 -21t68.5 24.5t37.5 67.5h146l-55 -314h-154l26 148q-25 -24 -60 -37t-77 -13q-49 0 -89.5 21t-64 62t-23.5 99q0 21 5 53q20 112 104 170.5t204 58.5h37l14 80h-406l-39 -226q-16 -96 -75.5 -155t-161.5 -59
q-85 0 -134 41.5t-49 118.5q0 25 4 46l6 32h153l-6 -31q-2 -9 -2 -25q0 -48 42 -48q29 0 44.5 21.5t19.5 52.5l42 232h-311l23 131h1144l-24 -131h-112l-38 -214h-179q-62 0 -102 -34.5z" />
    <glyph glyph-name="dvG_DHA" horiz-adv-x="1222" 
d="M1282 609h-95l-108 -609h-157l30 167q-40 -43 -97 -66t-127 -23q-86 0 -141 39t-55 110q0 17 3 33q11 60 52 96t89 47v3q-41 14 -68.5 49t-27.5 87q0 17 3 36q4 19 7 31h-98l-39 -226q-16 -96 -75.5 -155t-161.5 -59q-85 0 -134 41.5t-49 118.5q0 25 4 46l6 32h153
l-6 -31q-2 -9 -2 -25q0 -48 42 -48q29 0 44.5 21.5t19.5 52.5l42 232h-311l23 131h676q32 9 67 9q76 0 119 -37t43 -102q0 -32 -12 -71h-116q4 13 4 29q0 22 -12 36t-36 14q-30 0 -50 -24t-20 -58t24.5 -49.5t65.5 -15.5h83l-23 -127h-52q-47 0 -76.5 -17t-34.5 -50
q-1 -4 -1 -13q0 -28 25 -43t69 -15q76 0 130 48t68 125l42 238l21 123h252z" />
    <glyph glyph-name="dvG_DH_YA" horiz-adv-x="1686" 
d="M1745 609h-97l-108 -609h-157l27 155q-36 -34 -85 -53.5t-109 -19.5q-70 0 -122.5 25.5t-82.5 71.5q-40 -50 -100.5 -76.5t-140.5 -26.5q-103 0 -169.5 41.5t-66.5 117.5q0 15 3 31q11 59 51.5 93t88.5 44v3q-42 14 -69.5 49t-27.5 88q0 17 3 35q4 20 8 31h-99l-39 -226
q-16 -96 -75.5 -155t-161.5 -59q-85 0 -134 41.5t-49 118.5q0 25 4 46l6 32h153l-6 -31q-2 -9 -2 -25q0 -48 42 -48q29 0 44.5 21.5t19.5 52.5l42 232h-311l23 131h676q32 9 67 9q77 0 119.5 -36.5t42.5 -102.5q0 -35 -11 -71h-116q4 18 4 27q0 23 -12 37.5t-37 14.5
q-30 0 -50 -24.5t-20 -58.5q0 -33 24.5 -48.5t65.5 -15.5h83l-23 -127h-52q-50 0 -80.5 -20t-30.5 -58q0 -31 29 -45.5t72 -14.5q71 0 120 38t63 105q0 5 2 15q3 20 15 60h10q81 0 120 35t52 105l8 45h-139l23 131h696zM1491 609h-147l-13 -74q-30 -172 -195 -191
q-2 -16 -2 -23q0 -49 34 -78.5t96 -29.5q73 0 123 45t62 116z" />
    <glyph glyph-name="dvG_DH_VA" horiz-adv-x="1602" 
d="M1684 740l-23 -131h-98l-107 -609h-153l23 132q-30 -34 -71.5 -52t-90.5 -18q-60 0 -104 25t-66 71q-84 -82 -226 -82q-105 0 -170.5 40.5t-65.5 117.5q0 15 3 31q11 60 51.5 94t88.5 44v3q-42 14 -69.5 49t-27.5 88q0 17 3 35q4 20 8 31h-97l-39 -226
q-16 -96 -75.5 -155t-161.5 -59q-85 0 -134 41.5t-49 118.5q0 25 4 46l6 32h153l-6 -31q-2 -9 -2 -25q0 -48 42 -48q29 0 44.5 21.5t19.5 52.5l42 232h-311l23 131h674q31 9 67 9q77 0 119.5 -36.5t42.5 -102.5q0 -35 -11 -71h-116q4 18 4 27q0 23 -12 37.5t-37 14.5
q-30 0 -50 -24.5t-20 -58.5q0 -33 24.5 -48.5t65.5 -15.5h83l-23 -127h-52q-46 0 -75 -17.5t-35 -50.5q-1 -5 -1 -13q0 -30 29 -43.5t73 -13.5q76 0 121 32t66 98q23 92 90.5 145.5t164.5 53.5q51 0 88 -18.5t57 -51.5l25 144h-362l23 131h613zM1293.5 207q30.5 20 47 51
t16.5 63q0 39 -24.5 63.5t-70.5 24.5q-50 0 -87 -30.5t-46 -79.5q-2 -16 -2 -22q0 -41 26 -65.5t70 -24.5q40 0 70.5 20z" />
    <glyph glyph-name="dvG_NA" horiz-adv-x="1325" 
d="M1384 609h-98l-107 -609h-158l64 365h-126q11 -28 11 -63q0 -19 -3 -40q-10 -61 -45 -104.5t-85 -66t-105 -22.5q-58 0 -103.5 23t-71 65t-25.5 95q0 12 4 40q18 101 91.5 152.5t179.5 51.5h302l20 113h-637l-39 -226q-16 -96 -75.5 -155t-161.5 -59q-85 0 -134 41.5
t-49 118.5q0 25 4 46l6 32h153l-6 -31q-2 -9 -2 -25q0 -48 42 -48q29 0 44.5 21.5t19.5 52.5l42 232h-311l23 131h1359zM847 299q0 30 -18.5 48t-50.5 18q-42 0 -72 -28.5t-30 -70.5q0 -29 19.5 -46.5t53.5 -17.5q36 0 63 23t34 58q1 5 1 16z" />
    <glyph glyph-name="dvG_N_YA" horiz-adv-x="1774" 
d="M1833 609h-97l-108 -609h-157l26 148q-71 -66 -188 -66q-114 0 -178 67.5t-62 181.5h-118q13 -31 13 -69q0 -17 -3 -35q-16 -91 -81.5 -142t-154.5 -51q-58 0 -103 23.5t-70.5 65.5t-25.5 95q0 20 3 39q19 101 92.5 152.5t178.5 51.5h301q83 0 121 25.5t47 77.5l8 45
h-785l-39 -226q-16 -96 -75.5 -155t-161.5 -59q-85 0 -134 41.5t-49 118.5q0 25 4 46l6 32h153l-6 -31q-2 -9 -2 -25q0 -48 42 -48q29 0 44.5 21.5t19.5 52.5l42 232h-311l23 131h1809zM1579 609h-147l-13 -74q-13 -74 -63.5 -124t-132.5 -64q0 -59 33.5 -96.5t95.5 -37.5
q73 0 123 45t62 116zM822 312.5q-19 17.5 -51 17.5q-42 0 -71.5 -28.5t-29.5 -70.5q0 -29 19.5 -46.5t52.5 -17.5q42 0 70.5 28.5t28.5 70.5q0 29 -19 46.5z" />
    <glyph glyph-name="dvG_BA" horiz-adv-x="1185" 
d="M1244 609h-98l-107 -609h-151l23 127q-31 -32 -75.5 -50t-96.5 -18q-61 0 -107 26t-71 72t-25 106q0 26 4 49q12 70 51.5 121.5t99 79.5t131.5 28q50 0 88 -16t62 -45l23 129h-503l-39 -226q-16 -96 -75.5 -155t-161.5 -59q-85 0 -134 41.5t-49 118.5q0 25 4 46l6 32h153
l-6 -31q-2 -9 -2 -25q0 -48 42 -48q29 0 44.5 21.5t19.5 52.5l42 232h-311l23 131h1219zM746 412l184 -162q15 25 21 55q2 16 2 25q0 48 -30.5 79t-84.5 31q-52 0 -92 -28zM673 276q0 -48 33.5 -76.5t84.5 -28.5q52 0 91 28l-185 161q-17 -27 -21 -56q-3 -15 -3 -28z" />
    <glyph glyph-name="dvG_BHA" horiz-adv-x="1348" 
d="M1430 740l-23 -131h-99l-108 -609h-157l59 336h-123l-8 -47q-19 -108 -85 -168t-171 -60q-86 0 -137 44t-51 118q0 22 4 41q17 97 89.5 148.5t171.5 51.5h63l13 76q3 14 3 26q0 49 -44 49q-14 0 -25 -6h-310l-39 -226q-16 -96 -75.5 -155t-161.5 -59q-84 0 -134 41.5
t-50 117.5q0 19 5 47l6 32h153l-6 -31q-3 -13 -3 -26q0 -22 10.5 -34.5t32.5 -12.5q29 0 44.5 21.5t19.5 52.5l42 232h-311l23 131h724q32 9 72 9q90 0 131 -44t41 -122q0 -37 -7 -72l-8 -47h124l48 276h257zM832 336h-58q-42 0 -70 -23t-28 -64q0 -26 16.5 -40.5
t43.5 -14.5q35 0 57 23.5t29 63.5z" />
    <glyph glyph-name="dvG_BH_YA" horiz-adv-x="1777" 
d="M1836 609h-98l-107 -609h-158l27 152q-75 -70 -191 -70q-112 0 -176.5 58t-64.5 159q0 11 2 37h-91l-8 -47q-19 -107 -85 -167.5t-170 -60.5q-88 0 -138.5 43.5t-50.5 118.5q0 22 4 41q17 98 89.5 149t171.5 51h63l13 76q2 18 2 25q0 50 -43 50q-25 0 -43 -17.5
t-23 -46.5q-3 -17 -2 -32h-157v9q0 9 2 29q5 29 15 52h-127l-39 -226q-16 -96 -75.5 -155t-161.5 -59q-85 0 -134 41.5t-49 118.5q0 25 4 46l6 32h153l-6 -31q-2 -9 -2 -25q0 -48 42 -48q29 0 44.5 21.5t19.5 52.5l42 232h-311l23 131h721q34 9 74 9q90 0 131.5 -44.5
t41.5 -122.5q0 -27 -7 -71l-8 -47h141q61 0 90.5 21t38.5 79l8 45h-157l23 131h714zM1581 609h-147l-13 -74q-13 -81 -60.5 -130.5t-133.5 -58.5q-3 -15 -3 -28q0 -48 34 -76.5t96 -28.5q73 0 123 45t62 116zM832 336h-58q-43 0 -71 -23.5t-28 -64.5q0 -26 17 -40t44 -14
q35 0 57 23.5t29 63.5z" />
    <glyph glyph-name="dvG_MA" horiz-adv-x="1350" 
d="M1409 609h-98l-107 -609h-158l59 336h-129l-8 -47q-19 -107 -85 -167.5t-170 -60.5q-87 0 -137.5 44t-50.5 118q0 22 4 41q16 97 88.5 148.5t171.5 51.5h63l26 145h-386l-39 -226q-16 -96 -75.5 -155t-161.5 -59q-85 0 -134 41.5t-49 118.5q0 25 4 46l6 32h153l-6 -31
q-2 -9 -2 -25q0 -48 42 -48q29 0 44.5 21.5t19.5 52.5l42 232h-311l23 131h1384zM1153 609h-128l-26 -145h129zM830 336h-59q-42 0 -70 -23t-28 -64q0 -26 17.5 -40.5t43.5 -14.5q35 0 56.5 23t29.5 64z" />
    <glyph glyph-name="dvG_YA" horiz-adv-x="1253" 
d="M1311 609h-97l-107 -609h-158l27 154q-36 -34 -85 -53t-108 -19q-111 0 -175 60t-64 162q0 29 6 60q3 20 15 60h10q81 0 120.5 35.5t51.5 104.5l8 45h-263l-39 -226q-16 -96 -75.5 -155t-161.5 -59q-85 0 -134 41.5t-49 118.5q0 25 4 46l6 32h153l-6 -31q-2 -9 -2 -25
q0 -48 42 -48q29 0 44.5 21.5t19.5 52.5l42 232h-311l23 131h1287zM1057 609h-147l-13 -74q-13 -81 -61 -131t-134 -60q-2 -16 -2 -23q0 -49 34 -78.5t96 -29.5q73 0 123 45t62 116z" />
    <glyph glyph-name="dvG_R_YA" horiz-adv-x="1254" 
d="M1312 609h-97l-107 -609h-158l27 154q-36 -34 -85 -53t-108 -19q-78 0 -134 31t-83 87l-257 -220h-181l417 339q2 30 5 45q3 20 15 60h10q81 0 120.5 35.5t51.5 104.5l8 45h-264l-26 -157q-17 -97 -76 -155.5t-162 -58.5q-85 0 -134 42t-49 118q0 26 4 47q3 16 7 31h152
l-6 -32q-3 -13 -3 -25q0 -22 10.5 -34.5t32.5 -12.5q52 0 65 73l29 164h-311l24 131h1287zM1058 609h-147l-13 -74q-13 -81 -61 -131t-134 -60q-2 -16 -2 -23q0 -49 34 -78.5t96 -29.5q73 0 123 45t62 116z" />
    <glyph glyph-name="dvG_LA" horiz-adv-x="1412" 
d="M1277 609l-19 -109q41 -23 65 -66.5t24 -102.5q0 -32 -5 -57q-20 -113 -100 -180t-202 -64l-35 2l25 136q12 -2 26 -2q49 0 83.5 31t43.5 84q3 15 3 28q0 35 -19 56t-54 21q-46 0 -74 -33t-38 -85l-4 -24h-130l4 24q4 26 4 37q0 37 -17.5 59t-54.5 22q-44 0 -72 -28.5
t-37 -76.5q-3 -15 -3 -29q0 -40 24 -63t69 -23q8 0 24 2l-24 -137q-14 -1 -30 -1q-107 0 -165 56t-58 148q0 32 5 56q20 116 93.5 175t170.5 59q67 0 106.5 -32t51.5 -82h3q23 41 60 69.5t86 38.5l16 91h-631l-39 -226q-16 -96 -75.5 -155t-161.5 -59q-85 0 -134 41.5
t-49 118.5q0 25 4 46l6 32h153l-6 -31q-2 -9 -2 -25q0 -48 42 -48q29 0 44.5 21.5t19.5 52.5l42 232h-311l23 131h1446l-24 -131h-193z" />
    <glyph glyph-name="dvG_VA" horiz-adv-x="1163" 
d="M1221 609h-97l-107 -609h-153l23 132q-30 -34 -71.5 -52t-90.5 -18q-88 0 -139 51.5t-51 139.5q0 29 6 62q17 101 85.5 160.5t168.5 59.5q52 0 90 -18t61 -51l25 143h-479l-39 -226q-16 -96 -75.5 -155t-161.5 -59q-85 0 -134 41.5t-49 118.5q0 25 4 46l6 32h153l-6 -31
q-2 -9 -2 -25q0 -48 42 -48q29 0 44.5 21.5t19.5 52.5l42 232h-311l23 131h1197zM854.5 207q30.5 20 47 51.5t16.5 62.5q0 39 -24.5 63.5t-70.5 24.5q-50 0 -87 -30.5t-46 -79.5q-2 -16 -2 -22q0 -41 26 -65.5t71 -24.5q39 0 69.5 20z" />
    <glyph glyph-name="dvG_SA" horiz-adv-x="1324" 
d="M1383 609h-98l-107 -609h-158l53 300h-371l-18 -98q-2 -14 -2 -20q0 -26 14 -41.5t41 -15.5q32 0 51 22.5t26 61.5h150q-10 -101 -74.5 -159.5t-167.5 -58.5q-93 0 -144 50t-51 131q0 25 4 46l34 194h75q77 0 115.5 34.5t49.5 96.5l12 66h-325l-39 -226
q-16 -96 -75.5 -155t-161.5 -59q-85 0 -134 41.5t-49 118.5q0 25 4 46l6 32h153l-6 -31q-2 -9 -2 -25q0 -48 42 -48q29 0 44.5 21.5t19.5 52.5l42 232h-311l23 131h1358zM1128 609h-154l-12 -66q-12 -67 -45 -115h179z" />
    <glyph glyph-name="dvGH_NA" horiz-adv-x="1220" 
d="M1280 609h-98l-107 -609h-158l64 365h-126q11 -28 11 -63q0 -19 -3 -40q-10 -61 -45 -104.5t-85 -66t-105 -22.5q-64 0 -112 28t-71 76q-34 -39 -83.5 -59t-108.5 -20q-93 0 -150 40t-57 112q0 17 3 35q10 55 47.5 91.5t85.5 48.5v3q-74 21 -74 102q0 17 3 36l8 47h-94
l23 131h1255zM1025 609h-748l-7 -40q-2 -16 -2 -22q0 -60 77 -60h40l-22 -126h-52q-44 0 -69 -18t-30 -49q-2 -10 -2 -14q0 -28 23.5 -43t60.5 -15q99 0 144 106l10 20q31 73 98.5 110.5t156.5 37.5h302zM743 299q0 30 -18.5 48t-50.5 18q-42 0 -72 -28.5t-30 -70.5
q0 -29 19.5 -46.5t53.5 -17.5q36 0 63 23t34 58q1 5 1 16z" />
    <glyph glyph-name="dvGH_MA" horiz-adv-x="1242" 
d="M1301 609h-98l-107 -609h-158l59 336h-129l-8 -47q-19 -107 -85 -167.5t-170 -60.5q-64 0 -109.5 25t-64.5 69q-34 -30 -79.5 -45.5t-98.5 -15.5q-93 0 -150 40t-57 112q0 17 3 35q10 55 47.5 91.5t85.5 48.5v3q-74 21 -74 102q0 17 3 36l8 47h-94l23 131h1276zM435 318
l8 15q32 65 95.5 98t142.5 33h63l26 145h-493l-7 -40q-2 -16 -2 -22q0 -60 77 -60h40l-22 -126h-52q-49 0 -74.5 -22t-25.5 -58q0 -28 23 -43.5t60 -15.5q94 0 141 96zM1045 609h-128l-26 -145h129zM722 336h-59q-42 0 -70 -23t-28 -64q0 -26 17.5 -40.5t43.5 -14.5
q35 0 56.5 23t29.5 64z" />
    <glyph glyph-name="dvGH_YA" horiz-adv-x="1162" 
d="M1220 609h-97l-107 -609h-158l27 154q-36 -34 -85 -53t-108 -19q-69 0 -121.5 24.5t-81.5 69.5q-42 -39 -97.5 -60.5t-120.5 -21.5q-105 0 -164.5 42t-59.5 113q0 17 3 33q10 55 46.5 91t84.5 48l1 3q-74 21 -74 101q0 18 3 37l8 47h-94l23 131h1196zM402 259.5
q42 37.5 56 99.5l1 5q3 20 15 60h10q81 0 120.5 35.5t51.5 104.5l8 45h-388l-7 -40q-2 -16 -2 -22q0 -60 77 -60h40l-22 -126h-52q-48 0 -74 -23t-26 -58q0 -28 22.5 -43t61.5 -15q66 0 108 37.5zM966 609h-147l-13 -74q-13 -81 -61 -131t-134 -60q-2 -16 -2 -23
q0 -49 34 -78.5t96 -29.5q73 0 123 45t62 116z" />
    <glyph glyph-name="dvC_CA" horiz-adv-x="1117" 
d="M1176 609h-97l-108 -609h-157l28 160q-35 -37 -83.5 -57t-104.5 -20t-98 21.5t-61 60.5q-81 -84 -195 -84q-80 0 -132 42t-52 113q0 18 3 36q12 71 69 117h-134l21 123h734l-22 -123h-42q-41 0 -72 -24t-38 -64q-2 -12 -2 -17q0 -34 24.5 -52.5t63.5 -18.5q60 0 101 40.5
t56 108.5l44 247h-897l23 131h1151zM435.5 236.5q33.5 23.5 54.5 62.5q16 54 62 90h-170q-42 0 -73 -24t-38 -64q-2 -12 -2 -17q0 -34 24.5 -52.5t64.5 -18.5q44 0 77.5 23.5z" />
    <glyph glyph-name="dvC_CHA" horiz-adv-x="1257" 
d="M1128 609l-14 -81q47 -17 72.5 -56t25.5 -97q0 -20 -5 -50q-16 -92 -73.5 -161t-150 -106.5t-210.5 -37.5q-103 0 -178.5 31t-106.5 88q-35 -28 -77.5 -43t-89.5 -15q-87 0 -146 42t-59 115q0 16 3 34q12 71 69 117h-134l21 123h370l-22 -123h-41q-42 0 -73 -24t-38 -64
q-2 -12 -2 -17q0 -34 24 -52t64 -18t74.5 22.5t56.5 58.5q33 73 121 101v4q-34 9 -53.5 34t-19.5 68q0 17 3 36l13 71h-527l23 131h1291l-23 -131h-188zM983 609h-274l-11 -64q-2 -9 -2 -24q0 -58 67 -58h21l-23 -126h-17q-52 0 -81.5 -28t-29.5 -69q0 -42 40.5 -64
t124.5 -22q116 0 186 46t86 133q3 14 3 26q0 30 -14 47.5t-37 17.5q-27 0 -48.5 -21t-27.5 -59q-3 -18 -3 -38q0 -12 2 -38h-129q-2 22 -2 37q0 32 5 57q12 67 52 108.5t98 58.5z" />
    <glyph glyph-name="dvC_CH_VA" horiz-adv-x="1258" 
d="M1128 609l-14 -81q47 -17 72.5 -56t25.5 -97q0 -20 -5 -50q-15 -83 -63 -147.5t-125 -104.5l-75 -425h-140l19 110q-26 -28 -62.5 -43t-79.5 -15q-54 0 -94.5 22.5t-62 61.5t-21.5 86q0 18 3 36q16 94 89 145q-75 31 -107 88q-35 -28 -77.5 -43t-89.5 -15q-87 0 -146 42
t-59 115q0 16 3 34q12 71 69 117h-134l21 123h370l-22 -123h-41q-42 0 -73 -24t-38 -64q-2 -12 -2 -17q0 -34 24 -52t64 -18t74.5 22.5t56.5 58.5q33 73 121 101v4q-34 9 -53.5 34t-19.5 68q0 17 3 36l13 71h-527l23 131h1291l-23 -131h-188zM983 609h-274l-11 -64
q-2 -9 -2 -24q0 -58 67 -58h21l-23 -126h-17q-52 0 -81.5 -28t-29.5 -69q0 -42 40.5 -64t124.5 -22q116 0 186 46t86 133q3 14 3 26q0 30 -14 47.5t-37 17.5q-27 0 -48.5 -21t-27.5 -59q-3 -18 -3 -38q0 -12 2 -38h-129q-2 22 -2 37q0 32 5 57q12 67 52 108.5t98 58.5z
M870 27q-52 -7 -94 -7q-49 -1 -81.5 -29t-41.5 -71q-2 -14 -2 -21q0 -35 22.5 -56.5t61.5 -21.5q45 0 76 27t39 66z" />
    <glyph glyph-name="dvC_NA" horiz-adv-x="1274" 
d="M1334 609h-98l-107 -609h-158l64 365h-126q11 -28 11 -63q0 -19 -3 -40q-10 -61 -45 -104.5t-85 -66t-105 -22.5q-59 0 -104.5 23.5t-70.5 65.5q-36 -37 -84 -57t-102 -20q-56 0 -102.5 18.5t-74.5 54t-28 85.5q0 15 3 33q12 71 69 117h-134l21 123h370l-22 -123h-41
q-42 0 -73 -24t-38 -64q-2 -12 -2 -17q0 -34 24 -52t64 -18q48 0 82.5 26.5t50.5 71.5q23 91 95 137.5t172 46.5h302l20 113h-1054l23 131h1309zM797 299q0 30 -18.5 48t-50.5 18q-42 0 -72 -28.5t-30 -70.5q0 -29 19.5 -46.5t53.5 -17.5q36 0 63 23t34 58q1 5 1 16z" />
    <glyph glyph-name="dvC_MA" horiz-adv-x="1299" 
d="M1357 609h-98l-107 -609h-158l59 336h-129l-8 -47q-19 -107 -85 -167.5t-170 -60.5q-61 0 -105 22.5t-65 62.5q-73 -65 -178 -65q-85 0 -141 41t-56 114q0 18 3 36q12 71 69 117h-134l21 123h370l-22 -123h-41q-42 0 -73 -24t-38 -64q-2 -12 -2 -17q0 -34 24.5 -52.5
t63.5 -18.5q43 0 77 24.5t53 65.5q26 79 94.5 120t155.5 41h63l26 145h-801l23 131h1332zM1101 609h-128l-26 -145h129zM778 336h-59q-42 0 -70 -23t-28 -64q0 -26 17.5 -40.5t43.5 -14.5q35 0 56.5 23t29.5 64z" />
    <glyph glyph-name="dvC_YA" horiz-adv-x="1217" 
d="M1275 609h-97l-107 -609h-158l27 154q-36 -34 -85 -53t-108 -19q-72 0 -125 26t-82 74q-40 -49 -95.5 -75t-123.5 -26q-88 0 -146.5 41t-58.5 116q0 16 3 34q12 71 69 117h-134l21 123h370l-22 -123h-41q-42 0 -73 -24t-38 -64q-2 -12 -2 -17q0 -34 24.5 -52.5
t63.5 -18.5q117 0 158 154q4 25 14 57h10q81 0 120.5 35.5t51.5 104.5l8 45h-694l23 131h1251zM1021 609h-147l-13 -74q-13 -81 -61 -131t-134 -60q-2 -16 -2 -23q0 -49 34 -78.5t96 -29.5q73 0 123 45t62 116z" />
    <glyph glyph-name="dvCH_YA" horiz-adv-x="1345" 
d="M1403 609h-97l-107 -609h-158l27 150q-73 -68 -182 -68q-65 0 -113 20.5t-77 59.5q-57 -68 -149 -105t-209 -37q-89 0 -157.5 23t-107 67t-38.5 103q0 21 4 38q11 55 46.5 92t88.5 53v4q-34 9 -53.5 34t-19.5 68q0 17 3 36l13 71h-94l23 131h1380zM638 359q0 30 -14 47.5
t-37 17.5q-27 0 -48.5 -21t-27.5 -59q-3 -18 -3 -38q0 -12 2 -38h-129q-2 22 -2 37q0 32 5 57q16 88 78.5 132.5t146.5 44.5q51 0 88.5 -19t57.5 -54q39 8 59 30.5t27 61.5l9 51h-576l-11 -64q-2 -9 -2 -24q0 -58 67 -58h21l-23 -126h-17q-52 0 -81.5 -28t-29.5 -69
q0 -42 40.5 -64t124.5 -22q116 0 186 46t86 133q3 14 3 26zM1149 609h-147l-13 -74q-14 -80 -70.5 -132t-142.5 -60q13 -130 146 -130q70 0 121 45t64 116z" />
    <glyph glyph-name="dvCH_R_YA" horiz-adv-x="1345" 
d="M1403 609h-97l-107 -609h-158l27 150q-73 -68 -182 -68q-65 0 -113 20.5t-77 59.5q-74 -89 -207 -124l92 -143h-159l-71 119l-113 -119h-158l136 138q-84 20 -132.5 66.5t-48.5 113.5q0 21 4 38q11 55 46.5 92t88.5 53v4q-34 9 -53.5 34t-19.5 68q0 17 3 36l13 71h-94
l23 131h1380zM638 359q0 30 -14 47.5t-37 17.5q-27 0 -48.5 -21t-27.5 -59q-3 -18 -3 -38q0 -12 2 -38h-129q-2 22 -2 37q0 32 5 57q16 88 78.5 132.5t146.5 44.5q51 0 88.5 -19t57.5 -54q39 8 59 30.5t27 61.5l9 51h-576l-11 -64q-2 -9 -2 -24q0 -58 67 -58h21l-23 -126
h-17q-52 0 -81.5 -28t-29.5 -69q0 -42 40.5 -64t124.5 -22q116 0 186 46t86 133q3 14 3 26zM1149 609h-147l-13 -74q-14 -80 -70.5 -132t-142.5 -60q13 -130 146 -130q70 0 121 45t64 116z" />
    <glyph glyph-name="dvJ_KA" horiz-adv-x="1522" 
d="M1164 609l-25 -146q26 32 64.5 50t85.5 18q80 0 126 -51.5t46 -132.5q0 -22 -5 -52q-20 -106 -87 -163.5t-159 -57.5q-35 0 -66 8l22 123q9 -3 25 -3q39 0 69 25.5t38 70.5q2 14 2 19q0 35 -21 57.5t-57 22.5q-46 0 -75.5 -31t-38.5 -80l-50 -286h-151l24 135
q-29 -33 -70 -52t-91 -19q-79 0 -128 51.5t-49 135.5q0 21 5 51q4 22 13 52h-107l-5 -30q-18 -100 -87 -162t-172 -62q-91 0 -145.5 49t-54.5 132q0 20 5 48l28 159h158l-29 -160q-3 -13 -3 -26q0 -31 15.5 -48t43.5 -17q34 0 57 24.5t31 66.5l28 160h334q61 43 142 43
q51 0 86 -18.5t52 -51.5l26 148h-988l23 131h1555l-23 -131h-417zM959 296l-1 -1q2 14 2 22q0 35 -21.5 58t-62.5 23q-49 0 -85 -34.5t-36 -87.5q0 -36 23.5 -58t62.5 -22q47 1 78.5 29.5t38.5 66.5z" />
    <glyph glyph-name="dvJ_JA" horiz-adv-x="1426" 
d="M1484 609h-97l-107 -609h-157l62 354h-115l-5 -30q-18 -100 -87 -162t-172 -62q-91 0 -145.5 49t-54.5 132q0 20 5 48l4 25h-111l-5 -30q-18 -100 -87 -162t-172 -62q-91 0 -145.5 49t-54.5 132q0 20 5 48l28 159h158l-29 -160q-3 -13 -3 -26q0 -31 15.5 -48t43.5 -17
q34 0 57 24.5t31 66.5l28 160h423l-29 -160q-3 -13 -3 -26q0 -31 15.5 -48t43.5 -17q34 0 57 24.5t31 66.5l28 160h269l21 121h-1204l23 131h1459z" />
    <glyph glyph-name="dvJx_JxA" horiz-adv-x="1426" 
d="M1484 609h-97l-107 -609h-157l62 354h-115l-5 -30q-18 -100 -87 -162t-172 -62q-91 0 -145.5 49t-54.5 132q0 20 5 48l4 25h-111l-5 -30q-18 -100 -87 -162t-172 -62q-91 0 -145.5 49t-54.5 132q0 20 5 48l28 159h158l-29 -160q-3 -13 -3 -26q0 -31 15.5 -48t43.5 -17
q34 0 57 24.5t31 66.5l28 160h423l-29 -160q-3 -13 -3 -26q0 -31 15.5 -48t43.5 -17q34 0 57 24.5t31 66.5l28 160h269l21 121h-1204l23 131h1459zM268 -108q-33 -31 -76 -31q-34 0 -55 20.5t-21 52.5q0 29 15 54t40 40t53 15q34 0 55.5 -22t21.5 -56q0 -42 -33 -73z
M834 -108q-33 -31 -76 -31q-34 0 -55 20.5t-21 52.5q0 29 15 54t40 40t53 15q34 0 55.5 -22t21.5 -56q0 -42 -33 -73z" />
    <glyph glyph-name="dvJ_J_NYA" horiz-adv-x="1386" 
d="M1445 609h-99l-107 -609h-155l64 362h-146q45 -38 45 -104q0 -20 -2 -30q-11 -78 -66.5 -126.5t-134.5 -48.5q-50 0 -87 15t-57 42l-22 -127h-152l50 286h147q-3 -40 20 -63.5t64 -23.5q47 0 75.5 30t28.5 74q0 35 -24.5 55.5t-63.5 20.5h-317l-7 -38q-18 -100 -87 -162
t-172 -62q-91 0 -145.5 49t-54.5 132q0 20 5 48l28 159h158l-29 -160q-3 -13 -3 -26q0 -31 15.5 -48t43.5 -17q34 0 57 24.5t31 66.5l28 160h796l21 121h-1165l23 131h1419z" />
    <glyph glyph-name="dvJ_J_YA" horiz-adv-x="1880" 
d="M1939 609h-97l-107 -609h-159l27 153q-78 -71 -197 -71q-110 0 -172.5 65t-59.5 174q-20 -1 -74 -1h-36q-19 -99 -88 -159.5t-171 -60.5q-91 0 -144.5 48.5t-53.5 133.5q0 20 3 42h-111q-18 -100 -87 -162t-172 -62q-92 0 -146 49t-54 132q0 20 5 48l23 129h158l-24 -130
q-3 -13 -3 -26q0 -31 15.5 -48t43.5 -17q34 0 57 24.5t31 66.5l23 130h423l-24 -130q-3 -13 -3 -26q0 -31 15.5 -48t43.5 -17q34 0 57 24t31 67l22 122h274q81 0 119 29t48 85l8 45h-1357l23 131h1913zM1684 609h-146l-13 -74q-12 -74 -63 -125t-132 -65q-1 -6 -1 -19
q0 -50 33.5 -81.5t94.5 -31.5q73 0 123 45t62 116z" />
    <glyph glyph-name="dvJ_J_VA" horiz-adv-x="1788" 
d="M1846 609h-97l-107 -609h-153l23 132q-30 -34 -71.5 -52t-90.5 -18q-88 0 -139 51.5t-51 139.5q0 29 6 62q3 22 9 39h-105l-5 -30q-18 -100 -87 -162t-172 -62q-91 0 -145.5 49t-54.5 132q0 20 5 48l4 25h-111l-5 -30q-18 -100 -87 -162t-172 -62q-91 0 -145.5 49
t-54.5 132q0 20 5 48l28 159h158l-29 -160q-3 -13 -3 -26q0 -31 15.5 -48t43.5 -17q34 0 57 24.5t31 66.5l28 160h423l-29 -160q-3 -13 -3 -26q0 -31 15.5 -48t43.5 -17q34 0 57 24.5t31 66.5l28 160h327q66 47 153 47q52 0 90 -18t61 -51l25 143h-1570l23 131h1821z
M1479.5 207q30.5 20 47 51.5t16.5 62.5q0 39 -24.5 63.5t-70.5 24.5q-50 0 -87 -30.5t-46 -79.5q-2 -16 -2 -22q0 -41 26 -65.5t71 -24.5q39 0 69.5 20z" />
    <glyph glyph-name="dvJ_JHA" horiz-adv-x="1421" 
d="M1479 609h-99l-106 -609h-155l38 215h-127q7 -24 7 -46q0 -15 -3 -32q-12 -67 -63 -109.5t-128 -42.5q-45 0 -74.5 15t-45.5 33l-21 -117h-148l45 253h141q-3 -31 16 -50t57 -19t59.5 19.5t21.5 49.5q0 25 -19.5 39t-57.5 14q-39 0 -63 2q-59 3 -101 35.5t-43 94.5h-106
l-5 -30q-18 -100 -87 -162t-172 -62q-91 0 -145.5 49t-54.5 132q0 20 5 48l28 159h158l-29 -160q-3 -13 -3 -26q0 -31 15.5 -48t43.5 -17q34 0 57 24.5t31 66.5l28 160h293q56 48 157 48h73l12 73h-883l23 131h1453zM1226 609h-164l-13 -73l-20 -111h-186q-30 0 -52 -13.5
t-22 -43.5q0 -35 54 -35h43h312z" />
    <glyph glyph-name="dvJ_NY_YA" horiz-adv-x="1323" 
d="M1381 609h-97l-107 -609h-158l27 154q-36 -34 -85 -53t-108 -19q-111 0 -175 60t-64 162l1 22q-7 51 -82 51h-62q39 -37 39 -101q0 -60 -27 -106t-74 -71.5t-104 -25.5q-48 0 -85 15t-57 41l-22 -127h-152l50 287h146q-2 -40 20.5 -64t63.5 -24q47 0 76 30t29 72
q0 36 -25 55t-63 19h-40l22 125h289q126 0 171 -65q38 15 59 47t30 80l8 45h-799l23 131h1356zM1127 609h-147l-13 -74q-13 -81 -61 -131t-134 -60q-2 -16 -2 -23q0 -49 34 -78.5t96 -29.5q73 0 123 45t62 116z" />
    <glyph glyph-name="dvJ_TTA" horiz-adv-x="1198" 
d="M802 368.5q-46 -32.5 -57 -93.5q-2 -8 -2 -24q0 -43 29 -69t80 -26q59 0 100 35t51 92h149q-13 -79 -56 -138.5t-110 -92t-151 -32.5q-75 0 -132 26.5t-88.5 75t-31.5 113.5q0 25 4 46q8 41 21 73h-104l-5 -30q-18 -100 -87 -162t-172 -62q-91 0 -145.5 49t-54.5 132
q0 20 5 48l28 159h158l-29 -160q-3 -13 -3 -26q0 -31 15.5 -48t43.5 -17q34 0 57 24.5t31 66.5l28 160h356q76 43 185 45l14 76h-903l23 131h1231l-24 -131h-173l-36 -208h-137q-62 0 -108 -32.5z" />
    <glyph glyph-name="dvJ_DDA" horiz-adv-x="1097" 
d="M777 412q-22 -13 -22 -43q0 -19 14.5 -27.5t38.5 -8.5h44q79 0 129 -36t50 -107q0 -17 -3 -37q-15 -82 -78.5 -127.5t-171.5 -45.5q-103 0 -167.5 44.5t-64.5 122.5q0 8 2 26h156l-1 -11q0 -31 23 -47.5t61 -16.5q42 0 67.5 20.5t25.5 53.5q0 50 -76 50h-35
q-66 0 -119.5 31t-52.5 101h-93l-5 -30q-18 -100 -87 -162t-172 -62q-91 0 -145.5 49t-54.5 132q0 20 5 48l28 159h158l-29 -160q-3 -13 -3 -26q0 -31 15.5 -48t43.5 -17q34 0 57 24.5t31 66.5l28 160h285q29 23 67.5 35t82.5 12h71l13 74h-867l23 131h1130l-22 -131h-112
l-33 -184h-182q-31 0 -53 -13z" />
    <glyph glyph-name="dvJ_TA" horiz-adv-x="1266" 
d="M1325 609h-99l-106 -609h-157l62 357h-124q-69 0 -113 -37.5t-44 -105.5q0 -42 27.5 -65.5t80.5 -23.5h18l-21 -124h-28q-64 0 -118 22t-86 67.5t-32 111.5q0 24 4 47q10 62 40 109h-124l-6 -34q-18 -100 -87 -162t-172 -62q-91 0 -145.5 49t-54.5 132q0 20 5 48l29 164
h158l-30 -165q-3 -13 -3 -26q0 -31 15.5 -48t43.5 -17q34 0 57 24.5t31 66.5l29 164h674l20 117h-1043l23 131h1299z" />
    <glyph glyph-name="dvJ_DA" horiz-adv-x="1166" 
d="M792 360.5q-40 -34.5 -40 -94.5q0 -35 22 -56t60 -21t68.5 24.5t37.5 67.5h146l-55 -314h-154l26 148q-25 -24 -60 -37t-77 -13q-49 0 -89.5 21t-64 62t-23.5 99q0 21 5 53q5 29 15 54h-105l-5 -30q-18 -100 -87 -162t-172 -62q-91 0 -145.5 49t-54.5 132q0 20 5 48
l28 159h158l-29 -160q-3 -13 -3 -26q0 -31 15.5 -48t43.5 -17q34 0 57 24.5t31 66.5l28 160h352q73 41 176 41h37l14 80h-927l23 131h1198l-24 -131h-112l-38 -214h-179q-62 0 -102 -34.5z" />
    <glyph glyph-name="dvJ_NA" horiz-adv-x="1378" 
d="M1436 609h-97l-108 -609h-157l63 357h-126q13 -29 13 -64q0 -20 -4 -39q-11 -61 -46 -104.5t-85 -66t-105 -22.5q-57 0 -102.5 23t-71 64.5t-25.5 94.5q0 22 4 41q8 40 22 70h-107l-5 -30q-18 -100 -87 -162t-172 -62q-91 0 -145.5 49t-54.5 132q0 20 5 48l28 159h158
l-29 -160q-3 -13 -3 -26q0 -31 15.5 -48t43.5 -17q34 0 57 24.5t31 66.5l28 160h786l22 121h-1156l23 131h1411zM881.5 339q-18.5 18 -50.5 18q-42 0 -72 -28.5t-30 -70.5q0 -29 19.5 -46.5t53.5 -17.5q40 0 69 28.5t29 69.5q0 29 -18.5 47z" />
    <glyph glyph-name="dvJ_BA" horiz-adv-x="1237" 
d="M1296 609h-98l-107 -609h-151l23 127q-31 -32 -75.5 -50t-96.5 -18q-61 0 -107 26t-71 72t-25 106q0 26 4 49q6 28 11 42h-99l-5 -30q-18 -100 -87 -162t-172 -62q-91 0 -145.5 49t-54.5 132q0 20 5 48l28 159h158l-29 -160q-3 -13 -3 -26q0 -31 15.5 -48t43.5 -17
q34 0 57 24.5t31 66.5l28 160h326q73 53 174 53q50 0 88 -16t62 -45l23 129h-1021l23 131h1270zM798 412l184 -162q15 25 21 55q2 16 2 25q0 48 -30.5 79t-84.5 31q-52 0 -92 -28zM725 276q0 -48 33.5 -76.5t84.5 -28.5q52 0 91 28l-185 161q-17 -27 -21 -56q-3 -15 -3 -28z
" />
    <glyph glyph-name="dvJ_MA" horiz-adv-x="1405" 
d="M1464 609h-98l-107 -609h-158l61 347h-129l-8 -46q-19 -108 -84.5 -168.5t-170.5 -60.5q-84 0 -135.5 43t-51.5 115q0 18 3 37q9 51 32 85h-114l-5 -28q-18 -100 -87 -162t-170 -62q-96 0 -149 49.5t-53 131.5q0 21 5 49l27 152h157l-27 -154q-3 -13 -3 -26
q0 -31 15.5 -48t43.5 -17q34 0 57 24.5t31 66.5l26 149h538l23 132h-908l23 131h1439zM1208 609h-128l-24 -132h129zM887 347h-59q-43 0 -70.5 -23t-27.5 -64q0 -26 17 -40.5t44 -14.5q35 0 57 24t29 63z" />
    <glyph glyph-name="dvJ_YA" horiz-adv-x="1314" 
d="M1373 609h-97l-107 -609h-159l27 153q-78 -71 -197 -71q-110 0 -172.5 65t-59.5 174q-20 -1 -74 -1h-36q-19 -99 -88 -159.5t-171 -60.5q-91 0 -144.5 48.5t-53.5 133.5q0 21 5 53l22 123h158l-24 -130q-3 -13 -3 -26q0 -31 15.5 -48t43.5 -17q34 0 57 24t31 67l22 122
h274q81 0 119 29t48 85l8 45h-792l23 131h1348zM1118 609h-146l-13 -74q-12 -74 -63 -125t-132 -65q-1 -6 -1 -19q0 -50 33.5 -81.5t94.5 -31.5q73 0 123 45t62 116z" />
    <glyph glyph-name="dvJx_YA" horiz-adv-x="1314" 
d="M1373 609h-97l-107 -609h-159l27 153q-78 -71 -197 -71q-110 0 -172.5 65t-59.5 174q-20 -1 -74 -1h-36q-19 -99 -88 -159.5t-171 -60.5q-91 0 -144.5 48.5t-53.5 133.5q0 21 5 53l22 123h158l-24 -130q-3 -13 -3 -26q0 -31 15.5 -48t43.5 -17q34 0 57 24t31 67l22 122
h274q81 0 119 29t48 85l8 45h-792l23 131h1348zM1118 609h-146l-13 -74q-12 -74 -63 -125t-132 -65q-1 -6 -1 -19q0 -50 33.5 -81.5t94.5 -31.5q73 0 123 45t62 116zM268 -108q-33 -31 -76 -31q-34 0 -55 20.5t-21 52.5q0 29 15 54t40 40t53 15q34 0 55.5 -22t21.5 -56
q0 -42 -33 -73z" />
    <glyph glyph-name="dvJ_VA" horiz-adv-x="1222" 
d="M1280 609h-97l-107 -609h-153l23 132q-30 -34 -71.5 -52t-90.5 -18q-88 0 -139 51.5t-51 139.5q0 29 6 62q3 22 9 39h-105l-5 -30q-18 -100 -87 -162t-172 -62q-91 0 -145.5 49t-54.5 132q0 20 5 48l28 159h158l-29 -160q-3 -13 -3 -26q0 -31 15.5 -48t43.5 -17
q34 0 57 24.5t31 66.5l28 160h327q66 47 153 47q52 0 90 -18t61 -51l25 143h-1004l23 131h1255zM913.5 207q30.5 20 47 51.5t16.5 62.5q0 39 -24.5 63.5t-70.5 24.5q-50 0 -87 -30.5t-46 -79.5q-2 -16 -2 -22q0 -41 26 -65.5t71 -24.5q39 0 69.5 20z" />
    <glyph glyph-name="dvJH_NA" horiz-adv-x="1373" 
d="M1432 609h-98l-107 -609h-158l64 365h-126q11 -28 11 -63q0 -19 -3 -40q-10 -61 -45 -104.5t-85 -66t-105 -22.5q-77 0 -130.5 40t-65.5 106h-97q7 -24 7 -46q0 -15 -3 -32q-12 -67 -63 -109.5t-128 -42.5q-45 0 -74.5 15t-45.5 33l-21 -117h-148l45 253h141
q-3 -31 16 -50t57 -19t59.5 19.5t21.5 49.5q0 25 -19.5 39t-57.5 14q-39 0 -63 2q-60 3 -102 35.5t-42 95.5q0 16 3 34q13 76 71 111.5t140 35.5h73l12 73h-334l24 131h1399zM1177 609h-658l-13 -73l-20 -111h-186q-30 0 -52 -13.5t-22 -43.5q0 -35 54 -35h43h271
q27 81 97 122t164 41h302zM895 299q0 30 -18.5 48t-50.5 18q-42 0 -72 -28.5t-30 -70.5q0 -29 19.5 -46.5t53.5 -17.5q36 0 63 23t34 58q1 5 1 16z" />
    <glyph glyph-name="dvJH_MA" horiz-adv-x="1404" 
d="M1463 609h-98l-107 -609h-158l59 336h-129l-8 -47q-19 -107 -85 -167.5t-170 -60.5q-84 0 -134.5 41.5t-53.5 112.5h-92q7 -24 7 -46q0 -15 -3 -32q-12 -67 -63 -109.5t-128 -42.5q-45 0 -74.5 15t-45.5 33l-21 -117h-148l45 253h141q-3 -31 16 -50t57 -19t59.5 19.5
t21.5 49.5q0 25 -19.5 39t-57.5 14q-39 0 -63 2q-60 3 -102 35.5t-42 95.5q0 16 3 34q13 76 71 111.5t140 35.5h73l12 73h-334l24 131h1430zM323 333h282q32 65 95.5 98t142.5 33h63l26 145h-413l-13 -73l-20 -111h-186q-30 0 -52 -13.5t-22 -43.5q0 -35 54 -35h43z
M1207 609h-128l-26 -145h129zM884 336h-59q-42 0 -70 -23t-28 -64q0 -26 17.5 -40.5t43.5 -14.5q35 0 56.5 23t29.5 64z" />
    <glyph glyph-name="dvJH_YA" horiz-adv-x="1301" 
d="M1359 609h-97l-107 -609h-158l27 154q-36 -34 -85 -53t-108 -19q-83 0 -141.5 35t-81.5 98h-121q7 -24 7 -46q0 -15 -3 -32q-12 -67 -63 -109.5t-128 -42.5q-45 0 -74.5 15t-45.5 33l-21 -117h-148l45 253h141q-3 -31 16 -50t57 -19t59.5 19.5t21.5 49.5q0 25 -19.5 39
t-57.5 14q-39 0 -63 2q-60 3 -102 35.5t-42 95.5q0 16 3 34q13 76 71 111.5t140 35.5h73l12 73h-334l24 131h1327zM323 333h271q2 20 4 31q3 20 15 60h10q81 0 120.5 35.5t51.5 104.5l8 45h-284l-13 -73l-20 -111h-186q-30 0 -52 -13.5t-22 -43.5q0 -35 54 -35h43zM1105 609
h-147l-13 -74q-13 -81 -61 -131t-134 -60q-2 -16 -2 -23q0 -49 34 -78.5t96 -29.5q73 0 123 45t62 116z" />
    <glyph glyph-name="dvNY_CA" horiz-adv-x="1268" 
d="M1327 609h-97l-108 -609h-157l28 160q-35 -37 -84 -57t-105 -20q-66 0 -111.5 30t-58.5 83h-160q-36 -67 -100 -104.5t-143 -37.5q-92 0 -146.5 46t-54.5 126q0 15 1 23h148q4 -29 24 -46t52 -17q50 0 82 39t32 95q0 36 -19 58.5t-56 22.5q-33 0 -59.5 -17t-39.5 -46
h-148q22 90 95.5 143t173.5 53q92 0 145 -50t53 -136q0 -10 -2 -30h136q18 42 55 71h-134l21 123h370l-22 -123h-41q-42 0 -73 -24t-38 -64q-2 -12 -2 -17q0 -34 25 -52.5t64 -18.5q61 0 102.5 42t53.5 112l43 242h-1047l23 131h1302z" />
    <glyph glyph-name="dvNY_CHA" horiz-adv-x="1352" 
d="M1222 609l-14 -81q47 -17 72.5 -56t25.5 -97q0 -20 -5 -50q-16 -92 -73.5 -161t-150 -106.5t-210.5 -37.5q-89 0 -157.5 23t-107 67t-38.5 103q0 14 1 21h-73q-32 -84 -101 -132t-160 -48q-92 0 -146.5 46t-54.5 126q0 15 1 23h148q4 -29 24 -46t52 -17q50 0 82 39t32 95
q0 36 -19 58.5t-56 22.5q-33 0 -59.5 -17t-39.5 -46h-148q22 90 95.5 143t173.5 53q87 0 139.5 -45t57.5 -123h128q27 19 62 30v4q-34 9 -53.5 34t-19.5 68q0 17 3 36l13 71h-621l23 131h1385l-23 -131h-188zM1077 609h-274l-11 -64q-2 -9 -2 -24q0 -58 67 -58h21l-23 -126
h-17q-52 0 -81.5 -28t-29.5 -69q0 -42 40.5 -64t124.5 -22q116 0 186 46t86 133q3 14 3 26q0 30 -14 47.5t-37 17.5q-27 0 -48.5 -21t-27.5 -59q-3 -18 -3 -38q0 -12 2 -38h-129q-2 22 -2 37q0 32 5 57q12 67 52 108.5t98 58.5z" />
    <glyph glyph-name="dvNY_JA" horiz-adv-x="1401" 
d="M1459 609h-97l-107 -609h-157l62 354h-115l-5 -30q-18 -100 -87 -162t-172 -62q-77 0 -128.5 35.5t-65.5 98.5h-95q-32 -84 -101 -132t-160 -48q-92 0 -146.5 46t-54.5 126q0 15 1 23h148q4 -29 24 -46t52 -17q50 0 82 39t32 95q0 36 -19 58.5t-56 22.5q-33 0 -59.5 -17
t-39.5 -46h-148q22 90 95.5 143t173.5 53q87 0 139.5 -45t57.5 -123h80l21 122h158l-29 -160q-3 -13 -3 -26q0 -31 15.5 -48t43.5 -17q34 0 57 24.5t31 66.5l28 160h269l21 121h-1180l23 131h1435z" />
    <glyph glyph-name="dvNY_SHA" horiz-adv-x="1389" 
d="M852 153.5q22 25.5 30 71.5h153q-14 -110 -78.5 -171t-175.5 -61q-99 0 -155.5 49t-56.5 135q0 22 5 50l1 7h-83q-32 -84 -101 -132t-160 -48q-92 0 -146.5 46t-54.5 126q0 15 1 23h148q3 -29 23.5 -46t52.5 -17q50 0 82 39t32 94q0 36 -19.5 59t-56.5 23
q-32 0 -58.5 -17t-39.5 -46h-148q22 90 95.5 143t173.5 53q87 0 138.5 -44.5t57.5 -122.5h87l9 52h140q74 0 128 27t65 89q1 6 1 16q0 28 -15 45t-42 17q-42 0 -65.5 -32.5t-23.5 -80.5h-157q4 57 27 109h-641l23 131h779q35 9 75 9q88 0 144 -47.5t56 -131.5q0 -25 -4 -46
q-21 -117 -107.5 -177t-207.5 -60h-39l-12 -70q-3 -13 -3 -26q0 -29 15.5 -46t48.5 -17q37 0 59 25.5zM1471 740l-24 -131h-97l-108 -609h-159l131 740h257z" />
    <glyph glyph-name="dvTT_TTA" horiz-adv-x="668" 
d="M257 379q-40 -27 -49 -76q-2 -14 -2 -21q0 -37 28 -59.5t79 -22.5q62 0 100.5 30.5t46.5 82.5h150q-20 -114 -102 -179t-215 -69q-56 -2 -96 -27.5t-49 -76.5q-2 -14 -2 -20q0 -38 27.5 -60.5t79.5 -22.5q62 0 100 31t47 83h150q-21 -115 -104.5 -182t-212.5 -67
q-76 0 -132 24t-86.5 67.5t-30.5 101.5q0 23 4 42q10 56 43.5 100t83.5 72q-33 24 -50.5 59t-17.5 79q0 22 4 42q12 68 54 119.5t109 80t151 28.5h6l13 71h-359l23 131h703l-24 -131h-188l-36 -203h-152q-54 0 -94 -27z" />
    <glyph glyph-name="dvTT_TTHA" horiz-adv-x="670" 
d="M249 373.5q-43 -32.5 -43 -90.5q0 -38 28 -60.5t79 -22.5q60 0 99.5 31t48.5 82h150q-10 -59 -42.5 -105.5t-83.5 -75.5q69 -47 69 -135q0 -22 -4 -42q-13 -72 -58.5 -124t-114 -79.5t-148.5 -27.5q-109 0 -176 50t-67 138q0 23 4 43q10 60 43 104t83 72q-68 48 -68 136
q0 23 4 43q12 68 54 119.5t108.5 80t150.5 28.5h7l12 71h-359l23 131h704l-23 -131h-190l-36 -203h-151q-60 0 -103 -32.5zM368.5 45.5q-27.5 22.5 -78.5 22.5q-63 0 -104 -35.5t-41 -91.5q0 -40 28 -62.5t79 -22.5q64 0 104 35t40 93q0 39 -27.5 61.5z" />
    <glyph glyph-name="dvTT_YA" horiz-adv-x="1305" 
d="M1364 609h-98l-107 -609h-154l20 115q-65 -72 -173 -72q-83 0 -135.5 45.5t-52.5 134.5q0 29 6 60l4 24h55q83 0 83 54q0 40 -68 40h-387q-62 0 -108 -32.5t-57 -93.5q-2 -8 -2 -24q0 -43 29 -69t80 -26q59 0 100 35t51 92h149q-13 -79 -56 -138.5t-110 -92t-151 -32.5
q-75 0 -132 26.5t-88.5 75t-31.5 113.5q0 25 4 46q21 119 107.5 184.5t220.5 67.5l14 76h-352l23 131h1340zM1000.5 197q41.5 36 56.5 101l55 311h-582l-15 -84h257q96 0 146.5 -32.5t50.5 -93.5t-41.5 -103t-114.5 -52q-1 -36 21.5 -59.5t69.5 -23.5q55 0 96.5 36z" />
    <glyph glyph-name="dvTT_VA" horiz-adv-x="659" 
d="M254 379.5q-41 -26.5 -50 -76.5q-2 -12 -2 -18q0 -39 29 -62t84 -23q64 0 105 31t49 82h149q-18 -103 -90 -167l-79 -445h-144l20 115q-30 -30 -69.5 -46.5t-86.5 -16.5q-81 0 -125.5 45.5t-44.5 117.5q0 23 4 42q9 52 38.5 95t73.5 70q-71 51 -71 143q0 23 4 43
q12 69 54.5 120.5t109 80t150.5 28.5h13l13 71h-363l23 131h693l-23 -131h-176l-36 -203h-155q-56 0 -97 -26.5zM281 65q-52 0 -85 -27.5t-42 -69.5q-2 -14 -2 -19q0 -35 22.5 -55t61.5 -20q43 0 74 25t41 62l20 112q-45 -8 -90 -8z" />
    <glyph glyph-name="dvTTH_TTHA" horiz-adv-x="673" 
d="M457 609l-12 -73q75 -15 119.5 -61.5t44.5 -121.5q0 -25 -4 -46q-10 -59 -40.5 -104.5t-77.5 -76.5q61 -48 61 -129q0 -22 -4 -42q-13 -72 -58.5 -124t-113.5 -79.5t-147 -27.5q-108 0 -174.5 50.5t-66.5 139.5q0 13 4 41q10 57 40.5 100t76.5 71q-59 51 -59 136
q0 25 4 46q16 94 81.5 152t158.5 76l12 73h-277l23 131h707l-23 -131h-275zM452 329q0 39 -27.5 62t-77.5 23q-64 0 -103.5 -36t-39.5 -94q0 -39 27.5 -62t77.5 -23q57 0 94.5 29t46.5 79q2 16 2 22zM392 -17q0 41 -27.5 63.5t-78.5 22.5q-56 0 -94 -28.5t-47 -78.5
q-2 -16 -2 -23q0 -39 27.5 -62t77.5 -23q57 0 95 29t47 79q2 14 2 21z" />
    <glyph glyph-name="dvTTH_YA" horiz-adv-x="1314" 
d="M1371 609h-98l-107 -609h-154l22 126q-66 -71 -172 -71q-83 0 -135.5 45.5t-52.5 134.5q0 24 5 57q1 8 5 22h54q72 0 82 46q1 3 1 9q0 40 -65 40h-183q24 -37 24 -91q0 -24 -4 -44q-13 -76 -57.5 -131t-111 -84t-144.5 -29q-69 0 -125.5 26t-89 74t-32.5 113q0 25 4 48
q16 100 83.5 162t162.5 80l14 76h-274l23 131h1348zM1009 208.5q42 35.5 57 99.5l53 301h-667l-14 -79h342q96 0 147 -32.5t51 -92.5t-42 -101.5t-116 -51.5q0 -34 23.5 -56.5t70.5 -22.5q53 0 95 35.5zM448 308q0 46 -29 73t-79 27q-42 0 -76 -19.5t-53.5 -53t-19.5 -75.5
q0 -45 28.5 -72t76.5 -27q58 0 99 34t51 89q2 16 2 24z" />
    <glyph glyph-name="dvTTH_VA" horiz-adv-x="673" 
d="M461 609l-11 -67q74 -16 118.5 -62.5t44.5 -120.5q0 -24 -4 -47q-15 -88 -77 -147l-79 -453h-147l20 114q-29 -30 -67.5 -46.5t-83.5 -16.5q-81 0 -125.5 45t-44.5 119q0 24 4 45q9 51 36 93t69 68q-64 50 -64 139q0 24 4 44q17 94 82.5 151t158.5 75l12 67h-282l23 131
h707l-23 -131h-271zM457 335q0 39 -27.5 61.5t-76.5 22.5q-59 0 -97.5 -28.5t-47.5 -77.5q-2 -16 -2 -22q0 -40 28.5 -63.5t79.5 -23.5q56 0 94 29t47 79q2 16 2 23zM371 83q-43 -8 -86 -8q-50 0 -84.5 -26.5t-42.5 -70.5q-2 -14 -2 -20q0 -34 21.5 -54t59.5 -20q41 0 72 24
t42 58z" />
    <glyph glyph-name="dvDD_DDA" horiz-adv-x="578" 
d="M233 403q-4 -23 15.5 -31.5t61.5 -8.5q98 0 150 -27t52 -92q0 -15 -3 -33q-14 -75 -83.5 -116t-184.5 -41q-40 0 -60.5 -9t-23.5 -29q-1 -3 -1 -8q0 -20 20 -26t61 -6q101 0 154 -26t53 -91q0 -17 -3 -35q-14 -76 -80.5 -117t-173.5 -41q-100 0 -161.5 39t-61.5 110
q0 14 1 21h149q-4 -32 20.5 -50t68.5 -18q42 0 66 18t24 49q0 27 -23.5 35.5t-66.5 8.5q-94 0 -144.5 24.5t-50.5 81.5q0 43 21.5 74t59.5 49q-58 35 -58 95q0 7 2 21h149q-2 -29 22 -48t68 -19q42 0 66 18t24 48q0 26 -24.5 34.5t-66.5 8.5q-193 0 -193 114q0 17 2 27
q12 68 68 102t136 34h74l12 66h-345l23 131h612l-23 -131h-121l-17 -97l-13 -71h-184q-61 0 -69 -38z" />
    <glyph glyph-name="dvDD_DDHA" horiz-adv-x="587" 
d="M246 401q-4 -23 15 -30.5t62 -7.5q97 0 149 -27t52 -91q0 -16 -3 -34q-13 -70 -73 -108.5t-170 -49.5q-72 -6 -122.5 -43.5t-62.5 -102.5q-3 -15 -3 -29q0 -47 34 -75t102 -28q55 0 93 19.5t45 55.5q1 4 1 11q0 18 -11.5 28.5t-32.5 10.5q-22 0 -37 -12t-19 -30l-1 -6
q0 -3 2 -9h-102v10q0 12 2 26q11 59 58.5 91t118.5 32q70 0 109 -33.5t39 -88.5q0 -18 -2 -28q-14 -84 -86 -132t-191 -48q-113 0 -184 50.5t-71 143.5q0 24 4 45q12 68 51.5 117.5t97.5 74.5q-32 16 -49.5 41.5t-17.5 58.5q0 7 2 21h150q-2 -29 21.5 -48t68.5 -19
q38 0 61 15t27 40q1 4 1 12q0 26 -24.5 34t-66.5 8q-193 0 -193 111q0 13 3 28q12 68 68 103t135 35h75l12 66h-340l23 131h601l-23 -131h-115l-17 -97l-13 -71h-184q-61 0 -69 -40z" />
    <glyph glyph-name="dvDD_YA" horiz-adv-x="1210" 
d="M1270 609h-97l-108 -609h-154l23 127q-67 -72 -173 -72q-84 0 -136.5 44.5t-52.5 133.5q0 29 6 60q2 16 4 23h50q39 0 64.5 15t25.5 48q0 25 -21.5 35.5t-50.5 10.5h-350q-31 0 -53 -13t-22 -43q0 -19 14.5 -27.5t38.5 -8.5h44q79 0 129 -36t50 -107q0 -17 -3 -37
q-15 -82 -78.5 -127.5t-171.5 -45.5q-103 0 -167.5 44.5t-64.5 122.5q0 8 2 26h156l-1 -11q0 -31 23 -47.5t61 -16.5q42 0 67.5 20.5t25.5 53.5q0 50 -76 50h-35q-65 0 -118.5 30.5t-53.5 99.5q0 16 3 32q13 75 71 113t138 38h71l13 74h-336l23 131h1243zM1019 609h-504
l-14 -78h179q98 0 147.5 -31.5t49.5 -90.5q0 -63 -41.5 -104.5t-114.5 -51.5q-1 -35 22 -57.5t70 -22.5q56 0 99 39t56 110z" />
    <glyph glyph-name="dvDD_VA" horiz-adv-x="589" 
d="M255.5 431q-19.5 -10 -23.5 -34q-1 -3 -1 -10q0 -15 12.5 -21.5t37 -8t51.5 -2.5q176 -7 176 -123q0 -15 -3 -33q-9 -55 -48 -94l-75 -431h-132l20 115q-54 -49 -136 -49q-72 0 -114.5 40t-42.5 106q0 17 3 37q9 51 39.5 91.5t75.5 62.5q-33 20 -50.5 48.5t-17.5 61.5
q0 7 2 21h150q-2 -28 22 -46.5t68 -18.5q38 0 61.5 15t28.5 42q1 4 1 11q0 29 -26 38.5t-76 9.5q-74 0 -127.5 24.5t-53.5 92.5q0 15 3 31q11 67 67 101.5t136 34.5h74l12 66h-344l23 131h623l-23 -131h-133l-17 -97l-12 -71h-184q-27 0 -46.5 -10zM316 43q-27 -4 -63 -4
q-53 0 -90 -26t-46 -74q-2 -14 -2 -19q0 -32 21 -51t54 -19q39 0 67.5 22.5t37.5 53.5z" />
    <glyph glyph-name="dvDDH_DDHA" horiz-adv-x="676" 
d="M265 413q-54 -38 -66 -108q-3 -16 -3 -30q0 -51 35 -80.5t105 -29.5q63 0 103.5 23t40.5 64q0 18 -11.5 28.5t-33.5 10.5q-24 0 -41.5 -12.5t-19.5 -30.5q0 -10 1 -14h-102q0 25 2 35q10 60 59 92t123 32q73 0 112 -32.5t39 -87.5q0 -14 -3 -31q-15 -83 -90.5 -131
t-187.5 -48q-74 0 -129.5 -38.5t-67.5 -108.5q-3 -17 -3 -30q0 -51 35 -80t105 -29q64 0 104 23t40 64q0 18 -11.5 28t-34.5 10t-39 -12t-20 -30v-4q0 -7 1 -11h-102v10q0 11 2 25q10 59 58.5 91.5t121.5 32.5q72 0 112 -33.5t40 -89.5q0 -18 -2 -27q-14 -85 -90 -132.5
t-202 -47.5q-117 0 -189.5 52t-72.5 145q0 24 4 45q13 67 51.5 117t97.5 78q-83 56 -83 156q0 24 4 45q13 74 56.5 127.5t108.5 81t142 27.5h29l11 61h-379l23 131h710l-23 -131h-197l-28 -158h-117q-74 0 -128 -38z" />
    <glyph glyph-name="dvDDH_YA" horiz-adv-x="1324" 
d="M1383 609h-98l-107 -609h-154l22 127q-67 -72 -173 -72q-83 0 -135.5 45t-52.5 135q0 32 5 58q3 12 5 23h45q38 0 63.5 13.5t31.5 43.5l1 10q0 27 -22.5 38.5t-55.5 11.5h-352q-83 0 -144 -43.5t-74 -123.5q-4 -26 -4 -36q0 -57 37.5 -91.5t110.5 -34.5q56 0 96 24t48 67
q1 4 1 12q0 20 -12.5 32t-32.5 12q-22 0 -38.5 -12.5t-20.5 -33.5l-2 -18h-110q0 22 3 38q11 65 64 101.5t130 36.5q69 0 111.5 -38t42.5 -102q0 -15 -3 -33q-17 -93 -94 -146t-199 -53q-82 0 -146.5 29t-100.5 83t-36 125q0 22 5 52q15 83 63 142t119 89t154 30h19l12 68
h-379l23 131h1357zM1131 609h-578l-13 -73h252q198 0 198 -123q0 -13 -3 -30q-9 -57 -50.5 -89t-103.5 -40q0 -35 23 -58t70 -23q57 0 99.5 39t54.5 109z" />
    <glyph glyph-name="dvDDH_VA" horiz-adv-x="658" 
d="M265.5 413q-54.5 -38 -66.5 -108q-3 -16 -3 -31q0 -50 35 -79.5t104 -29.5q56 0 94 20t45 56q1 4 1 11q0 18 -11 28.5t-31 10.5q-23 0 -38.5 -12t-19.5 -31l-1 -6q0 -4 2 -8h-102v10q0 11 2 25q10 60 58.5 92t121.5 32q70 0 108.5 -33t38.5 -88q0 -14 -3 -29
q-15 -82 -85 -127l-78 -442h-131l25 142q-28 -30 -65.5 -46t-81.5 -16q-82 0 -128 42.5t-46 111.5q0 11 4 39q10 52 40.5 93.5t76.5 66.5q-37 25 -57.5 64.5t-20.5 91.5q0 26 4 49q13 74 57 127.5t109 81t141 27.5h26l11 61h-376l23 131h692l-23 -131h-182l-27 -158h-114
q-74 0 -128.5 -38zM313 63q-59 0 -99.5 -24.5t-49.5 -73.5q-2 -12 -2 -18q0 -33 22 -53t59 -20q43 0 73.5 25.5t40.5 63.5l18 104q-27 -4 -62 -4z" />
    <glyph glyph-name="dvNN_TTA" horiz-adv-x="1204" 
d="M809 368.5q-46 -32.5 -57 -93.5q-2 -8 -2 -24q0 -43 29 -69t80 -26q59 0 100 35t51 92h149q-13 -79 -56 -138.5t-110 -92t-151 -32.5q-75 0 -132 26.5t-88.5 75t-31.5 113.5q0 25 4 46q21 119 107.5 184.5t220.5 67.5l14 76h-370l-44 -244q-17 -99 -79.5 -159.5
t-165.5 -60.5q-93 0 -147 47.5t-54 128.5q0 24 4 44l43 244h-98l23 131h1239l-24 -131h-173l-36 -208h-137q-62 0 -108 -32.5zM411 609h-134l-45 -258q-2 -14 -2 -19q0 -25 15 -40t41 -15q32 0 53 20t27 54z" />
    <glyph glyph-name="dvNN_TTHA" horiz-adv-x="1240" 
d="M1022 609l-14 -79q75 -19 121.5 -71.5t46.5 -130.5q0 -22 -5 -50q-13 -77 -59 -133.5t-114 -85.5t-148 -29q-69 0 -125.5 26t-89 74.5t-32.5 113.5q0 25 4 48q17 101 85 162t162 79l14 76h-302l-44 -244q-17 -99 -79.5 -159.5t-165.5 -60.5q-93 0 -147 47.5t-54 128.5
q0 24 4 44l43 244h-98l23 131h1274l-23 -131h-277zM411 609h-134l-45 -258q-2 -14 -2 -19q0 -25 15 -40t41 -15q32 0 53 20t27 54zM1018 308q0 45 -28.5 72.5t-79.5 27.5q-55 0 -96 -34t-51 -88q-2 -9 -2 -26q0 -44 28.5 -71.5t77.5 -27.5q57 0 98 34.5t51 88.5q2 16 2 24z
" />
    <glyph glyph-name="dvNN_DDA" horiz-adv-x="1135" 
d="M815 412q-22 -13 -22 -43q0 -19 14.5 -27.5t38.5 -8.5h44q79 0 129 -36t50 -107q0 -17 -3 -37q-15 -82 -78.5 -127.5t-171.5 -45.5q-103 0 -167.5 44.5t-64.5 122.5q0 8 2 26h156l-1 -11q0 -31 23 -47.5t61 -16.5q42 0 67.5 20.5t25.5 53.5q0 50 -76 50h-35
q-65 0 -118.5 30.5t-53.5 99.5q0 16 3 32q13 75 71 113t138 38h71l13 74h-365l-44 -244q-17 -99 -79.5 -159.5t-165.5 -60.5q-93 0 -147 47.5t-54 128.5q0 24 4 44l43 244h-98l23 131h1169l-22 -131h-112l-33 -184h-182q-31 0 -53 -13zM411 609h-134l-45 -258q-2 -14 -2 -19
q0 -25 15 -40t41 -15q32 0 53 20t27 54z" />
    <glyph glyph-name="dvNN_DDHA" horiz-adv-x="1226" 
d="M832 389.5q-61 -43.5 -74 -123.5q-4 -26 -4 -36q0 -57 37.5 -91.5t110.5 -34.5q56 0 96 24t48 67q1 4 1 12q0 20 -12.5 32t-32.5 12q-22 0 -38.5 -12.5t-20.5 -33.5l-2 -18h-110q0 22 3 38q11 65 64 101.5t130 36.5q69 0 111.5 -38t42.5 -102q0 -15 -3 -33
q-17 -93 -94 -146t-199 -53q-82 0 -146.5 29t-100.5 83t-36 125q0 22 5 52q15 83 63 142t119 89t154 30h19l12 68h-409l-44 -244q-17 -99 -79.5 -159.5t-165.5 -60.5q-93 0 -147 47.5t-54 128.5q0 24 4 44l43 244h-98l23 131h1260l-23 -131h-162l-31 -176h-116
q-83 0 -144 -43.5zM411 609h-134l-45 -258q-2 -14 -2 -19q0 -25 15 -40t41 -15q32 0 53 20t27 54z" />
    <glyph glyph-name="dvNN_NNA" horiz-adv-x="1451" 
d="M1510 609h-98l-108 -609h-157l107 609h-133l-44 -244q-17 -99 -79.5 -159.5t-165.5 -60.5q-93 0 -147 47.5t-54 128.5q0 24 4 44l43 244h-112l-44 -244q-17 -99 -79.5 -159.5t-165.5 -60.5q-93 0 -147 47.5t-54 128.5q0 24 4 44l43 244h-98l23 131h1485zM411 609h-134
l-45 -258q-2 -14 -2 -19q0 -25 15 -40t41 -15q32 0 53 20t27 54zM966 609h-134l-45 -258q-2 -14 -2 -19q0 -25 15 -40t41 -15q32 0 53 20t27 54z" />
    <glyph glyph-name="dvNN_MA" horiz-adv-x="1406" 
d="M1465 609h-98l-107 -609h-158l59 336h-129l-8 -47q-19 -107 -85 -167.5t-170 -60.5q-87 0 -137.5 44t-50.5 118q0 22 4 41q16 97 88.5 148.5t171.5 51.5h63l26 145h-368l-44 -244q-17 -99 -79.5 -159.5t-165.5 -60.5q-93 0 -147 47.5t-54 128.5q0 24 4 44l43 244h-98
l23 131h1440zM411 609h-134l-45 -258q-2 -14 -2 -19q0 -25 15 -40t41 -15q32 0 53 20t27 54zM1209 609h-128l-26 -145h129zM886 336h-59q-42 0 -70 -23t-28 -64q0 -26 17.5 -40.5t43.5 -14.5q35 0 56.5 23t29.5 64z" />
    <glyph glyph-name="dvNN_YA" horiz-adv-x="1312" 
d="M1370 609h-97l-107 -609h-158l27 154q-36 -34 -85 -53t-108 -19q-111 0 -175 60t-64 162q0 29 6 60q3 20 15 60h10q81 0 120.5 35.5t51.5 104.5l8 45h-248l-44 -244q-17 -99 -79.5 -159.5t-165.5 -60.5q-93 0 -147 47.5t-54 128.5q0 24 4 44l43 244h-98l23 131h1346z
M411 609h-134l-45 -258q-2 -14 -2 -19q0 -25 15 -40t41 -15q32 0 53 20t27 54zM1116 609h-147l-13 -74q-13 -81 -61 -131t-134 -60q-2 -16 -2 -23q0 -49 34 -78.5t96 -29.5q73 0 123 45t62 116z" />
    <glyph glyph-name="dvNN_VA" horiz-adv-x="1238" 
d="M1296 609h-97l-107 -609h-153l23 132q-30 -34 -71.5 -52t-90.5 -18q-88 0 -139 51.5t-51 139.5q0 29 6 62q17 101 85.5 160.5t168.5 59.5q52 0 90 -18t61 -51l25 143h-480l-44 -244q-17 -99 -79.5 -159.5t-165.5 -60.5q-93 0 -147 47.5t-54 128.5q0 24 4 44l43 244h-98
l23 131h1272zM411 609h-134l-45 -258q-2 -14 -2 -19q0 -25 15 -40t41 -15q32 0 53 20t27 54zM929.5 207q30.5 20 47 51.5t16.5 62.5q0 39 -24.5 63.5t-70.5 24.5q-50 0 -87 -30.5t-46 -79.5q-2 -16 -2 -22q0 -41 26 -65.5t71 -24.5q39 0 69.5 20z" />
    <glyph glyph-name="dvT_KA" horiz-adv-x="1347" 
d="M989 609l-25 -146q26 32 64.5 50t85.5 18q80 0 126 -51.5t46 -132.5q0 -22 -5 -52q-20 -106 -87 -163.5t-159 -57.5q-35 0 -66 8l22 123q9 -3 25 -3q39 0 69 25.5t38 70.5q2 14 2 19q0 35 -21 57.5t-57 22.5q-46 0 -75.5 -31t-38.5 -80l-50 -286h-151l24 135
q-29 -33 -70 -52t-91 -19q-79 0 -128 51.5t-49 135.5q0 21 5 51q4 28 14 55h-94q-69 0 -113 -37.5t-44 -105.5q0 -42 27.5 -65.5t80.5 -23.5h18l-21 -124h-28q-64 0 -118 22t-86 67.5t-32 111.5q0 24 4 47q21 123 111 183t217 60h180q59 39 136 39q51 0 86 -18.5t52 -51.5
l26 148h-814l23 131h1381l-23 -131h-417zM784 296l-1 -1q2 14 2 22q0 35 -21.5 58t-62.5 23q-49 0 -85 -34.5t-36 -87.5q0 -36 23.5 -58t62.5 -22q47 1 78.5 29.5t38.5 66.5z" />
    <glyph glyph-name="dvT_K_YA" horiz-adv-x="1824" 
d="M1883 609h-97l-107 -609h-158l27 154q-36 -34 -85 -53t-108 -19q-77 0 -132 30t-82.5 84.5t-23.5 127.5q-1 31 -18 52t-55 21q-44 -1 -73.5 -32t-37.5 -79l-50 -286h-151l24 135q-29 -33 -70 -52t-91 -19q-79 0 -128 51.5t-49 135.5q0 21 5 51q4 28 14 55h-94
q-69 0 -113 -37.5t-44 -105.5q0 -42 27.5 -65.5t80.5 -23.5h18l-21 -124h-28q-64 0 -118 22t-86 67.5t-32 111.5q0 24 4 47q21 123 111 183t217 60h180q59 39 136 39q51 0 86 -18.5t52 -51.5l26 148h-814l23 131h1859zM1028.5 505q39.5 18 87.5 18q49 0 82.5 -20.5
t49.5 -56.5q57 32 71 118l8 45h-338l-27 -153q27 31 66.5 49zM1629 609h-147l-13 -74q-13 -81 -61 -131t-134 -60q-2 -16 -2 -23q0 -49 34 -78.5t96 -29.5q73 0 123 45t62 116zM784 296l-1 -1q2 14 2 22q0 35 -21.5 58t-62.5 23q-49 0 -85 -34.5t-36 -87.5q0 -36 23.5 -58
t62.5 -22q47 1 78.5 29.5t38.5 66.5z" />
    <glyph glyph-name="dvT_K_RA" horiz-adv-x="1347" 
d="M989 609l-25 -146q26 32 64.5 50t85.5 18q80 0 126 -51.5t46 -132.5q0 -22 -5 -52q-20 -106 -87 -163.5t-159 -57.5q-35 0 -66 8l22 123q9 -3 25 -3q39 0 69 25.5t38 70.5q2 14 2 19q0 35 -21 57.5t-57 22.5q-46 0 -75.5 -31t-38.5 -80l-50 -286h-151l26 147l-10 -11
l-187 -182h-169l142 131q-55 15 -85.5 59t-30.5 107q0 26 4 47q6 32 16 59h-95q-69 0 -113 -37.5t-44 -105.5q0 -42 27.5 -65.5t80.5 -23.5h18l-21 -124h-28q-64 0 -118 22t-86 67.5t-32 111.5q0 24 4 47q21 123 111 183t217 60h182q59 39 134 39q51 0 86 -18.5t52 -51.5
l26 148h-814l23 131h1381l-23 -131h-417zM784 298q1 6 1 18q0 35 -21.5 58.5t-62.5 23.5q-50 0 -85.5 -34.5t-35.5 -88.5q0 -36 23 -57.5t62 -21.5q46 0 78.5 30t40.5 70v2z" />
    <glyph glyph-name="dvT_K_VA" horiz-adv-x="1742" 
d="M1800 609h-97l-107 -609h-153l23 132q-30 -34 -71.5 -52t-90.5 -18q-88 0 -139 51.5t-51 139.5q0 25 4 48h-1q2 14 2 20q0 34 -19 55t-55 21q-46 0 -75 -32.5t-37 -78.5l-50 -286h-151l24 135q-29 -33 -70 -52t-91 -19q-79 0 -128 51.5t-49 135.5q0 21 5 51q4 28 14 55
h-94q-69 0 -113 -37.5t-44 -105.5q0 -42 27.5 -65.5t80.5 -23.5h18l-21 -124h-28q-64 0 -118 22t-86 67.5t-32 111.5q0 24 4 47q21 123 111 183t217 60h180q59 39 136 39q51 0 86 -18.5t52 -51.5l26 148h-814l23 131h1776zM1217 484q65 51 157 51q52 0 90 -18t61 -51l25 143
h-561l-27 -152q27 31 66 48.5t88 17.5q64 0 101 -39zM1433.5 207q30.5 20 47 51.5t16.5 62.5q0 39 -24.5 63.5t-70.5 24.5q-50 0 -87 -30.5t-46 -79.5q-2 -16 -2 -22q0 -41 26 -65.5t71 -24.5q39 0 69.5 20zM784 296l-1 -1q2 14 2 22q0 35 -21.5 58t-62.5 23
q-49 0 -85 -34.5t-36 -87.5q0 -36 23.5 -58t62.5 -22q47 1 78.5 29.5t38.5 66.5z" />
    <glyph glyph-name="dvT_K_SSA" horiz-adv-x="1262" 
d="M1344 740l-23 -131h-98l-108 -609h-150l60 343h-311q-54 -23 -82 -45t-35 -59q-1 -5 -1 -15q0 -28 18 -45t49 -17q40 0 67 26.5t33 61.5h131l-56 -313h-143l26 150q-23 -23 -58.5 -39t-78.5 -16q-71 0 -114 37.5t-43 99.5q0 17 3 35l3 22q2 10 2 28q0 46 -26.5 74.5
t-75.5 28.5q-62 0 -102.5 -38t-40.5 -105q0 -42 27.5 -65.5t80.5 -23.5h18l-22 -124h-35q-98 0 -162.5 50.5t-64.5 150.5q0 22 5 55q20 117 96.5 176t183.5 59q85 0 136.5 -41t66.5 -108q36 27 86 50q-39 18 -63 52.5t-24 82.5q0 17 3 35q5 28 13 46h-506l23 131h648
q36 9 76 9q78 0 127.5 -38t49.5 -106q0 -17 -3 -35q-11 -66 -64 -114h159l50 284h249zM679.5 478.5q23.5 -19.5 66.5 -20.5q70 41 70 97q0 27 -18 44t-49 17q-37 0 -65 -24.5t-28 -62.5q0 -31 23.5 -50.5z" />
    <glyph glyph-name="dvT_KHA" horiz-adv-x="1358" 
d="M1417 609h-97l-107 -609h-156l28 158q-50 -47 -127 -47q-17 0 -30 3q-45 -55 -109 -88t-140 -33q-113 0 -175.5 55.5t-62.5 158.5q0 27 7 69q-2 34 -25.5 57.5t-80.5 23.5q-62 0 -102 -29.5t-50 -85.5q-3 -15 -3 -28q0 -42 27.5 -65.5t80.5 -23.5h18l-22 -124h-43
q-100 0 -161 47t-61 142q0 22 5 55q14 82 62 138t116.5 84t147.5 28q77 0 128 -21.5t77 -60.5q75 25 91 120l13 76h-641l24 131h1392zM1163 609h-339l-17 -98q-17 -97 -70.5 -152.5t-129.5 -64.5l-7 -37q-3 -15 -3 -28q0 -46 28.5 -73t81.5 -27q77 0 122 56q-24 42 -24 101
q0 25 4 48q9 56 39.5 99t75.5 66.5t97 23.5q83 0 119 -49zM1086 262.5q28 31.5 28 73.5q0 29 -18 48.5t-53 19.5q-37 0 -65.5 -23t-35.5 -62q-1 -6 -1 -18q0 -33 20 -51.5t52 -18.5q45 0 73 31.5z" />
    <glyph glyph-name="dvT_KH_RA" horiz-adv-x="1358" 
d="M1417 609h-97l-107 -609h-156l28 158q-50 -47 -127 -47q-17 0 -32 3q-4 -4 -9 -10t-12 -12h1l-224 -227h-169l2 8l135 129q-99 8 -154 61.5t-55 146.5q0 26 7 66q-2 34 -25.5 57.5t-80.5 23.5q-62 0 -102 -29.5t-50 -85.5q-3 -15 -3 -28q0 -42 27.5 -65.5t80.5 -23.5h18
l-22 -124h-43q-100 0 -161 47t-61 142q0 22 5 55q14 82 62 138t116.5 84t147.5 28q77 0 128 -21.5t77 -60.5q75 25 91 120l13 76h-641l24 131h1392zM1163 609h-339l-17 -98q-17 -97 -70.5 -152.5t-129.5 -64.5l-7 -37q-3 -15 -3 -28q0 -46 28.5 -73t81.5 -27q77 0 122 56
q-24 42 -24 101q0 25 4 48q9 56 39.5 99t75.5 66.5t97 23.5q83 0 119 -49zM1086 262.5q28 31.5 28 73.5q0 29 -18 48.5t-53 19.5q-37 0 -65.5 -23t-35.5 -62q-1 -6 -1 -18q0 -33 20 -51.5t52 -18.5q45 0 73 31.5z" />
    <glyph glyph-name="dvT_TA" horiz-adv-x="765" 
d="M823 609h-98l-106 -609h-158l63 357h-123q-63 0 -104.5 -30.5t-51.5 -88.5q-2 -16 -2 -23q0 -42 27.5 -66t81.5 -24h17l-22 -124h-38q-65 0 -116 23t-80.5 66t-29.5 101q0 23 4 43q13 78 59 126h-124l23 132h503l20 117h-543l23 131h799z" />
    <glyph glyph-name="dvT_T_YA" horiz-adv-x="1184" 
d="M1241 609h-97l-107 -609h-158l27 154q-36 -34 -85 -53t-108 -19q-111 0 -175 60t-64 163q-9 28 -31.5 44t-66.5 16q-54 0 -90 -30.5t-45 -84.5q-3 -13 -3 -26q0 -40 27.5 -64t80.5 -24h18l-22 -123h-43q-98 0 -160 48t-62 133q0 23 4 42q16 82 63 132h-128l23 132h328
q150 0 211 -66q43 14 66.5 46.5t32.5 83.5l8 45h-667l23 131h1224zM987 609h-147l-13 -74q-13 -81 -61 -131t-134 -60q-2 -16 -2 -23q0 -49 34 -78.5t96 -29.5q73 0 123 45t62 116z" />
    <glyph glyph-name="dvT_T_VA" horiz-adv-x="1106" 
d="M1164 609h-97l-107 -609h-153l23 132q-30 -34 -71.5 -52t-90.5 -18q-88 0 -139 51.5t-51 139.5q0 29 6 62q5 27 10 42h-93q-63 0 -104.5 -30.5t-51.5 -88.5q-2 -16 -2 -23q0 -42 27.5 -66t81.5 -24h17l-22 -124h-38q-65 0 -116 23t-80.5 66t-29.5 101q0 23 4 43
q13 78 59 126h-124l23 132h546q61 43 147 43q52 0 90 -18t61 -51l25 143h-889l23 131h1140zM797.5 207q30.5 20 47 51.5t16.5 62.5q0 39 -24.5 63.5t-70.5 24.5q-50 0 -87 -30.5t-46 -79.5q-2 -16 -2 -22q0 -41 26 -65.5t71 -24.5q39 0 69.5 20z" />
    <glyph glyph-name="dvT_THA" horiz-adv-x="1184" 
d="M1266 740l-22 -131h-98l-108 -609h-157l33 190q-31 -45 -93 -76.5t-140 -31.5q-114 0 -179.5 62.5t-62.5 171.5h-113q-59 0 -96 -24.5t-45 -70.5q-2 -14 -2 -21q0 -35 25.5 -55t74.5 -20h28l-21 -124h-48q-98 0 -159.5 46.5t-61.5 135.5q0 21 5 49q19 109 103.5 160.5
t208.5 51.5h211q87 0 140.5 23.5t64.5 81.5q1 5 1 15q0 23 -13.5 37t-37.5 14q-38 0 -58 -30.5t-18 -73.5h-142q2 54 22 98h-483l22 131h612q33 9 71 9q80 0 127.5 -43t47.5 -117q0 -24 -4 -44q-18 -98 -96.5 -155.5t-209.5 -57.5h-4q-4 -52 29.5 -85.5t106.5 -33.5
q54 0 101.5 23.5t81 70t44.5 112.5l57 321h255z" />
    <glyph glyph-name="dvT_NA" horiz-adv-x="1200" 
d="M1259 609h-97l-108 -609h-157l64 364h-128q13 -31 13 -66q0 -18 -3 -38q-11 -61 -46 -104.5t-85 -66t-105 -22.5q-58 0 -103 23.5t-70.5 65t-25.5 95.5q0 20 3 39q8 39 22 69h-90q-69 0 -113 -38.5t-44 -106.5q0 -42 27.5 -65.5t80.5 -23.5h18l-21 -124h-28
q-64 0 -118 22t-86 67.5t-32 111.5q0 24 4 47q21 124 111 184.5t217 60.5h625l21 115h-980l23 131h1235zM723 298q0 29 -19 47t-51 18q-37 0 -65 -23t-35 -59q-1 -5 -1 -15q0 -30 19.5 -48t52.5 -18q37 0 64 23t34 59q1 5 1 16z" />
    <glyph glyph-name="dvT_N_YA" horiz-adv-x="1651" 
d="M1709 609h-97l-108 -609h-157l26 148q-71 -66 -188 -66q-114 0 -178 67.5t-62 181.5h-118q13 -31 13 -69q0 -17 -3 -35q-16 -91 -81.5 -142t-154.5 -51q-58 0 -103 23.5t-70.5 65.5t-25.5 95q0 20 3 39q8 39 22 69h-102q-62 0 -100.5 -32t-38.5 -85q0 -40 27.5 -62
t80.5 -22h18l-21 -124h-28q-64 0 -117.5 21.5t-86 65.5t-32.5 108q0 25 4 48q19 109 104.5 162.5t205.5 53.5h307q9 1 28 1h301q83 0 121 25.5t47 77.5l8 45h-1128l23 131h1685zM1455 609h-147l-13 -74q-13 -74 -63.5 -124t-132.5 -64q0 -59 33.5 -96.5t95.5 -37.5
q73 0 123 45t62 116zM698 312.5q-19 17.5 -51 17.5q-42 0 -71.5 -28.5t-29.5 -70.5q0 -29 19.5 -46.5t52.5 -17.5q42 0 70.5 28.5t28.5 70.5q0 29 -19 46.5z" />
    <glyph glyph-name="dvT_PA" horiz-adv-x="1032" 
d="M1091 609h-98l-107 -609h-157l38 214q-59 -54 -147 -54q-93 0 -144 54t-51 143h-82q-69 0 -113 -37.5t-44 -105.5q0 -42 27.5 -65.5t80.5 -23.5h18l-21 -124h-28q-64 0 -118 22t-86 67.5t-32 111.5q0 24 4 47q21 123 111 183t217 60h85l21 117h-440l23 131h1066zM836 609
h-214l-34 -191q-3 -18 -3 -34q0 -43 23 -67.5t70 -24.5q48 0 79.5 29.5t41.5 77.5z" />
    <glyph glyph-name="dvT_P_RA" horiz-adv-x="1032" 
d="M1092 609h-98l-108 -609h-157l39 223q-2 -3 -5 -5l-240 -244h-169l209 197q-68 13 -103 62.5t-34 123.5h-83q-69 0 -113 -37.5t-44 -105.5q0 -42 27.5 -65.5t80.5 -23.5h18l-21 -124h-28q-64 0 -118 22t-86 67.5t-32 111.5q0 24 4 47q21 123 111 183t217 60h86l20 117
h-440l23 131h1066zM837 609h-215l-33 -191q-3 -18 -3 -35q0 -43 21.5 -67t65.5 -24q48 0 82 30t44 76z" />
    <glyph glyph-name="dvT_P_LA" horiz-adv-x="1621" 
d="M1486 609l-19 -109q41 -23 65 -66.5t24 -102.5q0 -32 -5 -57q-20 -113 -100 -180t-202 -64l-35 2l25 136q12 -2 26 -2q49 0 83.5 31t43.5 84q3 15 3 28q0 35 -19 56t-54 21q-46 0 -74 -33t-38 -85l-4 -24h-130l4 24q4 26 4 37q0 37 -17.5 59t-54.5 22q-44 0 -72 -28.5
t-37 -76.5q-3 -15 -3 -29q0 -40 24 -63t69 -23q8 0 24 2l-24 -137q-14 -1 -30 -1q-93 0 -149 42t-70 114q-49 -26 -111 -26q-99 0 -153 54t-55 143h-82q-69 0 -113 -37.5t-44 -105.5q0 -42 27.5 -65.5t80.5 -23.5h18l-21 -124h-28q-64 0 -118 22t-86 67.5t-32 111.5
q0 24 4 47q21 123 111 183t217 60h85l21 117h-440l23 131h1655l-24 -131h-193zM1230 479.5q37 28.5 86 38.5l16 91h-710l-34 -191q-4 -28 -4 -39q0 -87 83 -87q30 0 54 16t40 42q31 86 98.5 130t149.5 44q67 0 106.5 -32t51.5 -82h3q23 41 60 69.5z" />
    <glyph glyph-name="dvT_PHA" horiz-adv-x="1340" 
d="M976 609l-26 -148q29 33 71.5 51.5t93.5 18.5q79 0 123 -48t44 -126q0 -21 -5 -51q-13 -72 -48.5 -124.5t-87 -80t-111.5 -27.5q-41 0 -72 10l21 121q13 -4 31 -4q41 0 69.5 26.5t36.5 70.5q2 14 2 22q0 34 -20.5 55.5t-56.5 21.5q-48 0 -79.5 -32.5t-43.5 -85.5
l-49 -279h-157l37 212q-55 -52 -139 -52q-90 0 -139 54t-47 143h-81q-69 0 -113 -37.5t-44 -105.5q0 -42 27.5 -65.5t80.5 -23.5h18l-21 -124h-28q-64 0 -118 22t-86 67.5t-32 111.5q0 24 4 47q21 123 111 183t217 60h85l21 117h-440l23 131h1374l-24 -131h-422zM819 609
h-197l-35 -199q-3 -18 -3 -34q0 -40 20.5 -62t63.5 -22q47 0 77.5 32t37.5 80z" />
    <glyph glyph-name="dvT_MA" horiz-adv-x="1227" 
d="M1286 609h-98l-108 -609h-158l60 341h-128l-8 -47q-19 -107 -85 -167.5t-171 -60.5q-87 0 -137.5 44.5t-50.5 119.5q0 11 4 39q6 36 21 66h-79q-72 0 -117 -32t-45 -95q0 -40 27.5 -61.5t80.5 -21.5h18l-21 -124h-28q-65 0 -118.5 21.5t-85.5 65t-32 108.5q0 25 4 46
q20 118 111.5 172.5t221.5 54.5l288 1h15h63l25 139h-730l23 131h1261zM1030 609h-129l-24 -139h128zM708 341h-60q-37 0 -63 -19t-33 -52q-1 -5 -1 -14q0 -27 17 -42t43 -15q35 0 57 23t30 63z" />
    <glyph glyph-name="dvT_M_YA" horiz-adv-x="1677" 
d="M1736 609h-98l-107 -609h-157l27 155q-36 -35 -85.5 -54t-110.5 -19q-108 0 -172 59t-64 160q0 15 1 23h-119l-8 -47q-19 -107 -85 -167.5t-170 -60.5q-87 0 -137.5 44t-50.5 118q0 22 4 41q6 37 21 67h-96q-65 0 -104 -27t-39 -84q0 -40 27.5 -61.5t80.5 -21.5h18
l-21 -124h-28q-65 0 -118.5 21.5t-85.5 65t-32 108.5q0 25 4 46q19 111 105 161t210 50h381l27 156h-729l23 131h1711zM874 453h166q59 0 90.5 28t41.5 83l8 45h-279zM1481 609h-146l-13 -74q-31 -172 -195 -191q-2 -16 -2 -23q0 -49 34 -78.5t96 -29.5q72 0 122.5 45
t61.5 116v-1zM705 324h-59q-42 0 -70 -23t-28 -64q0 -26 17.5 -40.5t43.5 -14.5q35 0 57 23.5t29 63.5z" />
    <glyph glyph-name="dvT_YA" horiz-adv-x="1131" 
d="M1189 609h-97l-107 -609h-158l27 154q-36 -34 -85 -53t-108 -19q-111 0 -175 60.5t-64 162.5q-9 28 -30.5 44t-65.5 16q-54 0 -90.5 -30t-46.5 -85q-3 -15 -3 -28q0 -42 27.5 -65.5t80.5 -23.5h18l-21 -123h-40q-99 0 -162 50.5t-63 144.5q0 22 5 54q21 122 104.5 181.5
t201.5 59.5q122 0 181 -68q47 12 72 45t35 87l8 45h-608l23 131h1165zM935 609h-147l-13 -74q-13 -81 -61 -131t-134 -60q-2 -16 -2 -23q0 -49 34 -78.5t96 -29.5q73 0 123 45t62 116z" />
    <glyph glyph-name="dvT_R_YA" horiz-adv-x="1166" 
d="M1225 609h-98l-107 -609h-158l24 133q-72 -67 -181 -67q-88 0 -150 35.5t-87 98.5l-240 -199h-206v6l437 334q-15 25 -42.5 39t-64.5 14q-59 0 -103.5 -34.5t-55.5 -96.5h-157q13 73 57 131.5t114.5 92t157.5 33.5q69 0 124.5 -26t88.5 -73q63 30 79 121l12 67h-644
l23 131h1200zM970 609h-146l-17 -96q-14 -81 -61.5 -131t-132.5 -60v-2l-3 -3q-1 -5 -1 -16q0 -47 33 -76t96 -29q69 0 118.5 39.5t65.5 103.5z" />
    <glyph glyph-name="dvT_LA" horiz-adv-x="1294" 
d="M1159 609l-19 -109q41 -23 65 -66.5t24 -102.5q0 -32 -5 -57q-20 -113 -100 -180t-202 -64l-35 2l25 136q12 -2 26 -2q49 0 83.5 31t43.5 84q3 15 3 28q0 35 -19 56t-54 21q-46 0 -74 -33t-38 -85l-4 -24h-130l4 24q4 26 4 37q0 37 -17.5 59t-54.5 22q-44 0 -72 -28.5
t-37 -76.5q-3 -15 -3 -29q0 -40 24 -63t69 -23q8 0 24 2l-24 -137q-14 -1 -30 -1q-107 0 -165 56t-58 148q0 32 5 56q6 38 18 67h-93q-69 0 -113 -37.5t-44 -105.5q0 -42 27.5 -65.5t80.5 -23.5h18l-21 -124h-28q-64 0 -118 22t-86 67.5t-32 111.5q0 24 4 47q21 123 111 183
t217 60h192q58 32 131 32q67 0 106.5 -32t51.5 -82h3q23 41 60 69.5t86 38.5l16 91h-980l23 131h1328l-24 -131h-193z" />
    <glyph glyph-name="dvT_VA" horiz-adv-x="1050" 
d="M1108 609h-97l-107 -609h-153l23 132q-30 -34 -71.5 -52t-90.5 -18q-88 0 -139 51.5t-51 139.5q0 29 6 62q5 27 10 42h-95q-69 0 -113 -37.5t-44 -105.5q0 -42 27.5 -65.5t80.5 -23.5h18l-21 -124h-28q-64 0 -118 22t-86 67.5t-32 111.5q0 24 4 47q21 123 111 183t217 60
h176q61 43 147 43q52 0 90 -18t61 -51l25 143h-833l23 131h1084zM741.5 207q30.5 20 47 51.5t16.5 62.5q0 39 -24.5 63.5t-70.5 24.5q-50 0 -87 -30.5t-46 -79.5q-2 -16 -2 -22q0 -41 26 -65.5t71 -24.5q39 0 69.5 20z" />
    <glyph glyph-name="dvT_SA" horiz-adv-x="1235" 
d="M1293 609h-97l-108 -609h-157l52 295h-371l-17 -93q-2 -14 -2 -20q0 -27 13.5 -42t41.5 -15q32 0 51 22.5t25 61.5h151q-10 -101 -74.5 -159.5t-167.5 -58.5q-93 0 -144 50t-51 131q0 25 4 46l8 45q4 36 -21 65t-87 29q-63 0 -102.5 -29.5t-49.5 -85.5q-3 -15 -3 -28
q0 -42 27.5 -65.5t80.5 -23.5h18l-22 -124h-35q-99 0 -164 52t-65 149q0 22 5 54q21 121 107 180t211 59q79 0 132.5 -23t79.5 -65q133 5 153 131l13 71h-703l24 131h1268zM1038 609h-153l-13 -71q-12 -65 -44 -114h178z" />
    <glyph glyph-name="dvT_S_NA" horiz-adv-x="1748" 
d="M1807 609h-98l-107 -609h-158l64 365h-126q11 -28 11 -63q0 -19 -3 -40q-10 -61 -45 -104.5t-85 -66t-105 -22.5q-58 0 -103.5 23t-71 65t-25.5 95q0 12 4 40q0 2 1 3h-348l-17 -93q-2 -14 -2 -20q0 -27 13.5 -42t41.5 -15q32 0 51 22.5t25 61.5h151
q-10 -101 -74.5 -159.5t-167.5 -58.5q-93 0 -144 50t-51 131q0 25 4 46l8 45q4 36 -21 65t-87 29q-63 0 -102.5 -29.5t-49.5 -85.5q-3 -15 -3 -28q0 -42 27.5 -65.5t80.5 -23.5h18l-22 -124h-35q-99 0 -164 52t-65 149q0 22 5 54q21 121 107 180t211 59q79 0 132.5 -23
t79.5 -65q133 5 153 131l13 71h-703l24 131h1781zM1552 609h-667l-13 -71q-12 -65 -44 -114h198q38 36 90 54t114 18h302zM1270 299q0 30 -18.5 48t-50.5 18q-42 0 -72 -28.5t-30 -70.5q0 -29 19.5 -46.5t53.5 -17.5q36 0 63 23t34 58q1 5 1 16z" />
    <glyph glyph-name="dvT_S_YA" horiz-adv-x="1675" 
d="M1733 609h-97l-108 -609h-157l27 152q-38 -34 -87.5 -53.5t-108.5 -19.5q-111 0 -172.5 58.5t-62.5 157.5h-356l-17 -93q-2 -14 -2 -20q0 -26 14 -41.5t41 -15.5q32 0 51 22.5t26 61.5h150q-10 -101 -74.5 -159.5t-167.5 -58.5q-93 0 -143.5 50t-50.5 131q0 25 4 46l7 39
h-1q1 5 1 15q0 34 -25 59.5t-82 25.5q-63 0 -102.5 -29.5t-49.5 -85.5q-3 -15 -3 -28q0 -42 27.5 -65.5t80.5 -23.5h18l-22 -124h-35q-100 0 -164.5 52t-64.5 150q0 21 5 53q21 121 107 180t211 59q79 0 132 -23t80 -65q71 3 107 38t46 98l12 66h-702l24 131h1708zM872 543
q-11 -66 -45 -119h171q80 0 119 31.5t50 96.5l10 57h-293zM1478 609h-146l-15 -85q-31 -178 -194 -197q-2 -12 -2 -19q0 -43 33.5 -70.5t94.5 -27.5q68 0 117 39t66 102z" />
    <glyph glyph-name="dvT_S_VA" horiz-adv-x="1586" 
d="M1645 609h-97l-107 -609h-153l23 132q-30 -34 -71.5 -52t-90.5 -18q-88 0 -139 51.5t-51 139.5q0 20 3 42h-350l-17 -93q-2 -14 -2 -20q0 -27 13.5 -42t41.5 -15q32 0 51 22.5t25 61.5h151q-10 -101 -74.5 -159.5t-167.5 -58.5q-93 0 -144 50t-51 131q0 25 4 46l8 45
q4 36 -21 65t-87 29q-63 0 -102.5 -29.5t-49.5 -85.5q-3 -15 -3 -28q0 -42 27.5 -65.5t80.5 -23.5h18l-22 -124h-35q-99 0 -164 52t-65 149q0 22 5 54q21 121 107 180t211 59q79 0 132.5 -23t79.5 -65q71 3 107 38t47 98l12 66h-703l24 131h1620zM1095 506q55 29 124 29
q52 0 90 -18t61 -51l25 143h-510l-12 -66q-11 -66 -45 -119h178q34 53 89 82zM1278.5 207q30.5 20 47 51.5t16.5 62.5q0 39 -24.5 63.5t-70.5 24.5q-50 0 -87 -30.5t-46 -79.5q-2 -16 -2 -22q0 -41 26 -65.5t71 -24.5q39 0 69.5 20z" />
    <glyph glyph-name="dvTH_NA" horiz-adv-x="1319" 
d="M1378 609h-98l-107 -609h-158l64 365h-126q11 -28 11 -63q0 -19 -3 -40q-11 -61 -46 -104.5t-84.5 -66t-104.5 -22.5q-59 0 -105.5 24.5t-70.5 67.5q-45 -39 -101 -59t-115 -20q-89 0 -152.5 30.5t-96.5 85t-33 126.5q0 52 20 115h86q88 0 141.5 25t63.5 86q1 5 1 13
q0 23 -13.5 37.5t-36.5 14.5q-38 0 -58.5 -30t-18.5 -74h-142q3 67 34 121.5t85.5 85.5t125.5 31q80 0 127 -43.5t47 -117.5q0 -23 -4 -43q-18 -100 -97.5 -159t-210.5 -59h-2q-2 -56 39 -85t106 -29q63 0 116.5 29t74.5 78q25 87 96 131.5t169 44.5h302l20 113h-522l23 131
h777zM822.5 347q-18.5 18 -50.5 18q-42 0 -72 -28.5t-30 -70.5q0 -29 19.5 -46.5t53.5 -17.5q40 0 69 28t29 69q0 30 -18.5 48z" />
    <glyph glyph-name="dvTH_YA" horiz-adv-x="1255" 
d="M1313 609h-97l-108 -609h-157l27 154q-77 -72 -194 -72q-74 0 -128 28t-82 79q-47 -52 -110 -79.5t-130 -27.5q-89 0 -152.5 30.5t-96.5 85t-33 126.5q0 52 20 115h86q88 0 141.5 25t63.5 86q1 5 1 13q0 23 -13.5 37.5t-36.5 14.5q-38 0 -58.5 -30t-18.5 -74h-142
q3 67 34 121.5t85.5 85.5t125.5 31q80 0 127 -43.5t47 -117.5q0 -23 -4 -43q-18 -100 -97.5 -159t-210.5 -59h-2q-2 -56 38.5 -85t105.5 -29q71 0 130 42.5t79 116.5l6 26q4 18 5 26h13q81 0 120 35t52 105l8 45h-157l23 131h714zM1058 609h-146l-13 -74q-30 -172 -195 -191
q-2 -16 -2 -23q0 -49 34 -78.5t96 -29.5q69 0 118 40.5t64 106.5z" />
    </font>
</defs>
</svg>
