<svg width="24" height="24" viewBox="0 0 24 24" fill="none" xmlns="http://www.w3.org/2000/svg">
  <mask id="path-1-inside-1_667_7075" fill="white">
  <path fill-rule="evenodd" clip-rule="evenodd" d="M12 24C18.6274 24 24 18.6274 24 12C24 5.37258 18.6274 0 12 0C5.37258 0 0 5.37258 0 12C0 18.6274 5.37258 24 12 24ZM5 12.0413L12 7.99989V10.8747L19 10.8747V13.208L12 13.208V16.0828L5 12.0413Z"/>
  </mask>
  <path d="M12 7.99989H13V6.26784L11.5 7.13386L12 7.99989ZM5 12.0413L4.5 11.1753L3 12.0413L4.5 12.9074L5 12.0413ZM12 10.8747H11V11.8747H12V10.8747ZM19 10.8747H20V9.87466H19V10.8747ZM19 13.208V14.208H20V13.208H19ZM12 13.208V12.208H11V13.208H12ZM12 16.0828L11.5 16.9488L13 17.8148V16.0828H12ZM23 12C23 18.0751 18.0751 23 12 23V25C19.1797 25 25 19.1797 25 12H23ZM12 1C18.0751 1 23 5.92487 23 12H25C25 4.8203 19.1797 -1 12 -1V1ZM1 12C1 5.92487 5.92487 1 12 1V-1C4.8203 -1 -1 4.8203 -1 12H1ZM12 23C5.92487 23 1 18.0751 1 12H-1C-1 19.1797 4.8203 25 12 25V23ZM11.5 7.13386L4.5 11.1753L5.5 12.9074L12.5 8.86591L11.5 7.13386ZM13 10.8747V7.99989H11V10.8747H13ZM19 9.87466L12 9.87466V11.8747L19 11.8747V9.87466ZM20 13.208V10.8747H18V13.208H20ZM12 14.208L19 14.208V12.208L12 12.208V14.208ZM13 16.0828V13.208H11V16.0828H13ZM4.5 12.9074L11.5 16.9488L12.5 15.2167L5.5 11.1753L4.5 12.9074Z" fill="#C7C6C8" mask="url(#path-1-inside-1_667_7075)"/>
  </svg>
  