<svg width="140" height="140" viewBox="0 0 140 140" fill="none" xmlns="http://www.w3.org/2000/svg">
<path d="M125.538 121.706C126.054 121.204 126.403 120.555 126.537 119.847C126.671 119.139 126.584 118.407 126.287 117.751C124.876 118.822 123.207 119.503 121.45 119.726C123.221 118.704 123.018 117.065 123.018 115.637C125.265 115.294 125.265 112.978 124.719 111.004C124.243 111.207 123.557 111.479 122.745 111.752C122.718 110.656 122.627 109.562 122.472 108.476C125.608 107.454 127.176 105.816 125.468 102.344C125.375 103.297 125.001 104.2 124.395 104.941C123.788 105.681 122.975 106.224 122.059 106.502V102.134C125.398 100.433 123.998 97.283 120.659 96.205C110.572 92.971 111.041 102.891 113.225 106.776C112.775 108.144 112.8 109.623 113.295 110.976C108.906 107.959 100.968 108.245 100.751 113.565C100.611 116.288 100.205 118.879 100.205 118.879C100.205 118.879 98.7069 119.089 98.4969 120.111C98.2869 121.133 98.0909 124.947 99.0429 126.109C99.9949 127.271 103.747 127.81 106.407 127.677C108.115 127.65 109.796 127.244 111.328 126.488C112.861 125.733 114.207 124.647 115.269 123.309C117.495 121.16 123.284 120.747 125.538 121.706Z" fill="#AB82FE"/>
<path d="M109.039 77.3894C110.95 70.0954 113.743 56.4594 115.717 48.6894C117.355 42.2774 114.765 41.1224 109.039 40.0934C87.7308 36.2714 87.1288 36.0194 84.6998 45.6164C83.7058 49.5364 79.4498 67.1414 79.0438 69.4794C78.6378 71.8174 78.4278 74.4557 81.1438 75.3447C87.4438 77.4447 92.9388 78.7544 98.8748 80.3224C102.627 81.4144 107.744 82.4994 109.039 77.3894ZM80.2688 69.4094C81.9698 61.9124 84.0138 53.4564 86.0648 46.0294C88.2278 38.2034 86.9118 37.2584 108.836 41.5284C113.736 42.4804 115.836 42.8234 114.436 48.4794C106.799 78.4674 110.593 82.0794 99.2318 79.1604C80.6258 74.1554 79.0578 74.6867 80.2688 69.4094Z" fill="#AB82FE"/>
<path d="M109.445 26.1217C107.296 28.1727 106.176 28.3407 108.22 31.6447C109.039 33.0027 109.62 32.1557 111.426 30.1397C112.357 29.1037 111.426 27.8927 110.81 26.3947C110.6 25.8487 110.18 25.4217 109.445 26.1217Z" fill="#AB82FE"/>
<path d="M125.195 6.46584C113.498 5.40184 110.173 4.33084 108.626 9.73484C106.582 17.0988 104.881 23.9168 103.649 30.3918C102.564 35.8518 105.56 35.7818 113.337 37.0068C128.737 39.4148 127.855 41.3748 131.194 25.9608C135.177 7.61384 137.746 7.82384 125.195 6.46584ZM132.762 13.1438C125.832 39.5618 128.954 37.7068 120.218 36.6638C117.901 36.3908 112.308 35.4388 107.674 34.6198C103.194 33.7728 104.797 31.5748 109.655 11.7788C110.607 7.96384 111.013 6.66884 115.171 7.01184C119.329 7.35484 124.173 7.71184 128.331 8.23684C132.013 8.73384 133.924 8.66384 132.762 13.1648V13.1438Z" fill="#AB82FE"/>
<path d="M100.8 52.5749C99.5047 51.2799 96.7117 48.1439 95.7597 50.9369C95.2137 52.5049 93.3027 57.6849 96.9147 56.6629C99.0147 56.0469 103.383 55.2349 100.8 52.5749Z" fill="#AB82FE"/>
<path d="M117.011 125.795C115.17 127.636 114.694 132.48 117.9 133.635C124.578 136.05 130.332 131.591 126.832 125.592C125.334 123.065 119.468 123.275 117.011 125.795Z" fill="#AB82FE"/>
<path d="M37.9329 39.3657C34.7129 38.7427 31.5209 38.1407 28.2449 37.7277C21.8399 36.8457 19.5929 36.8457 18.2279 43.7967C16.8629 49.9357 15.1549 57.0967 13.6569 63.1587C13.3209 64.6637 13.1109 67.1137 15.3649 68.0587C19.5229 69.8297 24.3599 71.3277 29.1339 72.8257C36.1339 75.0097 36.9039 71.7407 38.2339 65.8257C39.2629 61.7377 41.9859 51.0347 43.0779 46.8767C44.4079 41.8717 42.6159 40.2547 37.9329 39.3657ZM41.6079 46.5267C39.9349 52.7007 37.4499 63.3267 35.8189 69.4307C34.8599 72.8397 32.1999 72.2937 29.4769 71.5307C25.3189 70.3757 20.8179 68.9407 16.8769 67.4427C14.4899 66.5537 14.3569 65.3427 14.9029 63.2427C20.7409 40.8987 19.3409 38.2387 24.9199 38.9037C29.2039 39.4147 33.5089 40.0657 37.7369 40.9477C41.6079 41.4657 42.7629 42.2567 41.6079 46.5057V46.5267Z" fill="#AB82FE"/>
<path d="M49.3848 17.1898C50.9738 11.9258 45.6328 12.3458 39.5008 12.0098C35.8188 11.7998 33.9778 12.1428 32.8158 16.1678C28.0978 31.7008 26.3688 31.1688 35.6158 32.9678C46.1298 34.9838 43.8058 35.6208 49.3848 17.1898ZM39.8368 32.3238C31.6958 30.8608 29.8128 30.9238 30.3588 28.2988C30.9048 25.6738 33.6348 17.3228 34.5588 15.0758C35.4618 12.7028 36.8408 12.9128 44.9888 13.5778C47.0888 13.7808 48.8038 14.3968 47.9848 16.7768C43.6798 32.1628 44.3658 33.1638 39.8368 32.3238Z" fill="#AB82FE"/>
<path d="M85.9947 21.8238C87.2897 16.7768 86.8137 14.1868 81.1507 13.5078C76.1737 12.8918 71.6797 12.5558 65.6107 12.2128C56.9027 11.7788 55.1877 11.7648 52.9267 20.1858C51.8487 24.2248 47.5927 41.5008 46.8577 45.3438C46.0457 49.4388 47.5577 51.0068 51.4987 51.9588C72.4987 57.0898 74.3327 57.2788 76.6987 55.0948C79.2117 52.5118 79.1627 49.5018 85.9947 21.8238ZM68.3337 54.2758C49.1117 50.0058 46.6687 50.4888 47.9497 45.1408C50.2667 36.0058 52.5207 26.3948 55.0407 17.4628C56.1327 13.7108 59.0657 13.3048 61.7887 13.4378C68.3337 13.6408 73.2477 13.9838 78.7707 14.6628C84.2937 15.3418 86.1277 15.3628 84.5597 21.5508C82.6557 29.1178 79.5197 43.5728 77.4687 50.5938C76.0407 55.5708 72.2887 55.1648 68.3337 54.2758Z" fill="#AB82FE"/>
<path d="M85.8553 64.2996C82.8243 67.2256 82.3553 67.0436 82.8593 68.5976C83.0063 69.0666 83.4753 70.5016 83.9513 71.6636C84.7703 74.2536 87.2203 70.5016 88.0393 70.0256C89.3343 68.7306 87.8363 66.6166 87.5633 64.7756C87.3603 64.0266 86.8003 63.3966 85.8553 64.2996Z" fill="#AB82FE"/>
<path d="M51.7016 41.5285C50.6096 42.8235 51.4286 44.5245 52.4016 46.5755C53.1016 48.0735 53.8366 47.1215 56.6016 44.2515C57.7636 43.0265 56.6716 41.3255 55.9926 39.8205C55.1806 37.9655 54.0186 38.8685 51.7016 41.5285Z" fill="#AB82FE"/>
<path d="M32.4098 27.0038C31.9268 27.4868 31.9968 27.5498 32.6128 29.1038C32.8858 29.8038 33.1588 29.3768 34.5868 28.2218C35.0628 27.7458 34.4538 26.7168 34.1808 26.1218C33.8378 25.3028 33.2918 26.1218 32.4098 27.0038Z" fill="#AB82FE"/>
<path d="M17.4087 60.7508C16.8627 61.3668 16.7087 61.5068 17.7517 64.2998C18.3607 65.8258 19.2777 64.8178 21.0207 63.0748C21.7697 62.1158 21.6367 62.1158 20.6147 59.3228C20.2017 58.1608 19.3827 58.6438 17.4087 60.7508Z" fill="#AB82FE"/>
<path d="M114.905 32.5962C116.06 33.4152 120.967 33.8912 122.472 33.8912C123.018 33.8912 123.697 33.0722 122.535 32.5262C121.373 31.9802 118.041 31.6442 116.06 31.3712C114.422 31.2312 114.492 32.2532 114.905 32.5962Z" fill="white"/>
<path d="M102.08 22.4399C99.9805 21.9219 88.3465 19.9269 87.9055 21.4179C87.6115 22.3909 89.0535 22.5869 102.563 24.0079C103.788 24.1409 104.299 22.9159 102.08 22.4399Z" fill="white"/>
<path d="M77.3357 32.7372C78.6307 27.5502 79.6527 25.9192 77.6087 23.3222C72.4357 16.7422 73.8427 17.3512 63.2937 16.8472C60.7667 16.7142 59.1987 16.3712 58.1767 19.9132C52.8987 39.5132 51.1767 36.7902 67.2767 39.4152C75.6347 40.7662 75.2917 40.7662 77.3357 32.7372ZM72.6317 19.5772C74.3535 21.2545 75.8649 23.135 77.1327 25.1772C70.7767 24.4772 71.7917 25.3172 72.6317 19.5772ZM71.4697 29.2582C71.2671 29.3219 71.0534 29.3423 70.8424 29.3182C70.6313 29.2941 70.4277 29.2259 70.2447 29.1182C70.1747 28.9152 70.2447 28.1662 70.4477 28.0962C70.8405 28.0341 71.2429 28.0826 71.6097 28.2362C71.7427 28.3692 71.6797 29.1882 71.4697 29.2582ZM68.6697 29.1182C68.8727 29.0552 69.7617 29.1182 69.8317 29.2582C69.9017 29.3982 69.8947 30.3502 69.6917 30.4132C69.4887 30.4762 68.6697 30.4132 68.5367 30.2102C68.4037 30.0072 68.4737 29.1882 68.6767 29.1182H68.6697ZM67.4447 28.7122C67.3845 28.3805 67.4574 28.0385 67.6477 27.7602C67.836 27.6784 68.0425 27.6476 68.2465 27.671C68.4505 27.6943 68.6448 27.771 68.8097 27.8932C68.9427 28.0962 68.7397 28.7822 68.4667 28.8452C68.1937 28.9082 67.5217 28.8662 67.4517 28.7122H67.4447ZM69.1457 27.6202C69.1027 27.289 69.1744 26.9531 69.3487 26.6682C69.7367 26.6185 70.1304 26.6398 70.5107 26.7312C70.6507 26.8712 70.5107 27.5502 70.3077 27.6902C70.1047 27.8302 69.2227 27.8232 69.1527 27.6202H69.1457ZM57.9457 36.4122C56.3007 36.1042 55.6287 35.6632 55.9717 33.9622C56.9937 28.9852 58.0717 24.6242 59.6467 19.4372C60.0597 18.0372 61.1517 18.0372 63.1467 18.1422C66.3527 18.3452 67.5147 18.4152 71.3997 18.8912C70.9167 21.2852 70.3007 24.1552 70.9867 25.1002C69.1457 25.6462 67.3747 25.8002 66.0867 25.3032C64.9247 24.8902 65.1977 23.9382 63.8397 23.9382C61.7887 23.9382 59.4017 29.1882 59.0657 30.4132C58.6527 31.9812 59.0657 32.8002 60.4307 32.5132C61.5857 32.3102 62.7477 30.6722 64.2457 30.8122C67.5217 31.0852 69.0897 30.9452 70.4477 33.6752C71.4697 35.7192 73.3807 34.1512 73.7237 32.3802C73.9925 30.1962 73.7531 27.9807 73.0237 25.9052C74.3887 26.1712 76.0267 26.3112 77.4547 26.5142C76.7156 30.2197 75.7809 33.8835 74.6547 37.4902C73.9967 39.5412 72.0997 39.1002 57.9737 36.4122H57.9457ZM63.5457 28.2992C63.3357 28.0962 62.7897 28.2992 62.5867 28.0262C62.4968 27.8638 62.475 27.6722 62.5262 27.4937C62.5774 27.3152 62.6973 27.1643 62.8597 27.0742C63.1327 26.9412 63.7487 27.2142 63.8817 27.0742C64.0147 26.9342 64.0217 26.5282 64.2947 26.2552C64.4819 26.1721 64.6882 26.1412 64.8915 26.1658C65.0949 26.1905 65.2878 26.2697 65.4497 26.3952C65.5897 26.5982 65.2467 27.1442 65.3867 27.2772C65.5267 27.4102 66.1987 27.4172 66.3387 27.6202C66.3947 27.7879 66.3986 27.9686 66.3499 28.1386C66.3011 28.3085 66.2021 28.4597 66.0657 28.5722C65.7927 28.7122 65.1767 28.5092 65.0437 28.5722C64.9107 28.6352 64.8407 29.3282 64.6307 29.5312C64.4207 29.7342 63.6787 29.8042 63.5457 29.3912C63.2237 28.9852 63.6997 28.5092 63.5667 28.2992H63.5457Z" fill="white"/>
<path d="M72.9748 44.1187C71.8128 43.6427 63.3568 42.0187 61.4528 42.0187C60.1578 42.0187 60.0178 43.4537 61.1798 43.7267C62.3418 43.9997 71.6098 45.8267 72.9048 45.9037C74.1998 45.9807 74.1298 44.5947 72.9748 44.1187Z" fill="white"/>
<path d="M102.081 28.6413C102.9 28.2983 102.221 27.6193 100.786 27.4163C99.3508 27.2133 92.3368 26.2543 90.2858 26.0163C88.2348 25.7783 87.5558 26.4293 88.1858 26.8353C88.9348 27.3043 101.038 28.9913 102.081 28.6413Z" fill="white"/>
<path d="M102.494 69.0741C101.332 68.3741 94.7936 66.9741 93.2186 66.7571C91.6436 66.5401 91.2446 67.9121 92.1266 68.3251C94.0376 69.1371 100.247 70.5721 101.927 70.5721C103.383 70.5721 103.173 69.4661 102.494 69.0741Z" fill="white"/>
<path d="M106.449 63.3483C107.604 59.5263 108.29 56.6633 109.039 53.4573C109.788 50.2513 108.836 50.0483 104.881 44.9383C104.062 43.9163 103.11 43.7763 101.472 43.4403C92.7775 41.4593 90.3765 41.4943 89.4735 46.0303C86.9535 58.0213 84.2935 61.3603 88.5845 62.2563C90.9715 62.8023 98.3355 64.9163 102.627 65.5953C105.7 66.0713 106.036 64.7063 106.449 63.3483ZM102.949 49.1663C103.152 48.2073 103.565 46.8493 103.838 45.8273C105.196 47.3953 106.428 49.1663 107.653 50.8673C103.278 49.9293 102.732 50.2163 102.97 49.1663H102.949ZM103.971 51.6163C106.225 60.8913 91.0065 62.0393 91.6995 52.9113C92.0635 48.1303 97.7685 46.7793 101.584 48.5503C101.157 50.6993 102.116 51.1473 103.992 51.6163H103.971ZM102.676 64.1603C98.0415 63.2083 93.6105 62.2563 89.0395 61.0243C87.8845 60.6883 87.2965 60.5553 87.6395 59.3233C91.6575 43.4403 90.4395 42.9853 95.1365 43.5733C96.5015 43.7763 102.704 45.0713 102.704 45.0713C102.501 45.6173 102.004 47.4583 102.004 47.4583C95.3185 43.4403 86.7295 51.0073 91.8465 57.8253C96.6835 63.4813 107.247 59.6663 105.413 51.8263C106.295 51.9593 107.114 52.0993 107.933 52.3023C105.287 63.1663 105.623 64.7483 102.697 64.1603H102.676Z" fill="white"/>
<path d="M126.903 24.0782C129.528 14.1382 129.703 16.4202 126.014 12.2832C125.195 11.4642 124.173 10.0992 122.878 9.95917C116.2 9.35017 113.197 8.73417 112.448 11.3942C111.559 14.6632 110.404 18.3942 109.648 21.7542C109.235 23.3922 109.921 24.7572 111.748 25.0302C115.29 25.5762 118.699 26.1222 122.248 26.7312C124.719 27.1442 126.154 27.0042 126.903 24.0782ZM123.9 12.0662C124.922 13.0952 125.881 14.1662 126.833 15.1392C124.733 15.1392 123.97 15.2022 123.697 14.7262C123.424 14.2502 123.557 13.1652 123.9 12.0662ZM123.284 18.4782C120.631 18.2052 117.831 17.9322 114.632 17.5262C115.381 14.6562 116.333 15.4262 117.285 16.6372C117.389 16.7773 117.522 16.8927 117.676 16.975C117.83 17.0573 118 17.1045 118.174 17.1132C120.141 17.3302 120.47 17.5192 121.38 16.9102C122.927 15.3702 123.41 16.3012 123.284 18.4852V18.4782ZM122.745 21.5442C121.45 23.1822 116.445 22.1602 115.444 21.8172C115.147 21.7598 114.876 21.6107 114.669 21.3908C114.462 21.171 114.329 20.8916 114.289 20.5922C115.089 20.7874 115.93 20.7429 116.705 20.4641C117.481 20.1853 118.157 19.6845 118.65 19.0242C119.812 21.0752 121.38 21.6912 122.745 21.5512V21.5442ZM113.946 11.5202C114.151 11.2313 114.43 11.0033 114.754 10.8603C115.079 10.7174 115.435 10.6648 115.787 10.7082C118.095 10.7411 120.397 10.9448 122.675 11.3172C122.27 12.4569 122.062 13.6569 122.059 14.8662C121.4 15.1336 120.799 15.5256 120.288 16.0212L118.314 15.8182C115.584 12.5492 114.016 14.5932 113.197 17.3862C112.854 17.3162 112.581 17.3162 112.245 17.2532C112.518 16.5042 113.4 12.7662 113.946 11.5272V11.5202ZM111.972 23.7982C109.872 23.3502 111.272 21.1102 112.035 18.2752C112.2 18.8264 112.479 19.3368 112.854 19.7732C112.245 23.6582 118.244 23.6582 120.421 23.6582C121.786 23.6582 124.04 23.3852 124.243 20.9352C125.044 20.4246 125.645 19.6532 125.944 18.7512C123.592 18.4152 124.985 19.1782 124.376 16.4342C125.335 16.4972 126.217 16.4972 127.176 16.5672C126.814 19.2997 126.126 21.9789 125.125 24.5472C124.551 26.0662 123.669 25.4432 112 23.8052L111.972 23.7982Z" fill="white"/>
<path d="M91.2447 71.5663C91.0417 72.5183 91.9937 72.8606 94.9967 73.6096C98.4967 74.4286 100.128 75.0523 100.597 74.0233C101.157 72.7633 91.5177 70.2293 91.2447 71.5663Z" fill="white"/>
<path d="M121.653 30.4129C122.745 30.6229 123.018 29.4609 121.856 29.1179C115.038 27.1159 114.513 29.2509 116.13 29.6009C117.082 29.8039 120.561 30.2099 121.653 30.4129Z" fill="white"/>
<path d="M106.106 115.708C112.042 115.855 111.58 111.788 110.264 112.978C108.626 114.476 106.764 114.644 105.287 114.819C104.608 114.896 104.741 115.708 106.106 115.708Z" fill="white"/>
<path d="M118.517 100.91C119.427 100.873 120.326 100.689 121.177 100.364C122.472 99.818 122.535 98.726 121.786 98.999C120.246 99.5352 118.64 99.8579 117.012 99.958C116.13 100.007 116.536 100.966 118.517 100.91Z" fill="white"/>
<path d="M114.1 97.5705C115.864 96.8012 117.776 96.4286 119.7 96.4792C121.268 96.5492 120.449 95.2542 117.453 95.2542C112.602 95.2542 111.552 98.9915 114.1 97.5705Z" fill="white"/>
<path d="M100.247 95.1833C97.6495 94.2313 74.6755 86.8673 73.1775 86.3913C71.6795 85.9153 71.4695 86.7973 73.6535 87.6863C78.1475 89.4853 97.6495 95.5053 97.7195 95.5263C100.513 96.3453 102.97 96.1353 100.247 95.1833Z" fill="white"/>
<path d="M29.3365 106.636C11.8365 99.153 10.1705 99.055 10.7935 96.549C11.0735 95.275 8.10554 96.6323 9.84154 99.1383C11.0385 100.86 16.2465 102.681 18.3605 103.57C28.9095 108.092 28.7065 107.546 29.4065 108.547C29.9525 109.436 30.4285 110.73 31.6535 111.206C43.6795 115.406 45.6535 117.912 49.4545 116.806C49.9039 116.669 50.3761 116.623 50.8435 116.67C51.311 116.717 51.7644 116.856 52.1775 117.08C70.7135 125.025 75.2775 128.063 88.0385 117.017C88.5145 116.604 88.5845 115.239 84.9025 117.969C74.1365 125.802 69.1245 122.939 54.1025 116.401C48.7825 114.084 49.5315 116.807 46.0595 115.449C42.3075 113.944 37.5335 112.173 32.4865 110.199C30.6315 109.436 31.0445 107.385 29.3365 106.636Z" fill="white"/>
<path d="M33.8379 101.526C34.7269 99.8884 31.9969 101.659 31.4509 102.226C28.1819 105.502 33.2919 107.126 35.6509 108.092C44.5759 111.592 45.5979 112.089 46.3539 111.431C46.5569 111.228 46.0179 110.682 44.4499 110.136C43.0149 109.66 31.3879 105.495 31.6959 103.997C31.9689 102.814 33.2219 102.618 33.8379 101.526Z" fill="white"/>
<path d="M95.6756 105.684C85.0566 112.299 84.5386 114.083 76.3136 111.066C67.7246 108.07 35.0626 95.9329 26.9496 91.7049C22.4276 89.4439 32.8226 85.0409 34.7266 83.4589C36.6726 81.5059 28.4686 85.1809 25.3816 88.0929C23.8836 89.4579 23.6806 91.9149 25.5916 92.7269C36.4276 97.5709 64.7916 108.547 79.3796 113.454C85.1966 115.421 90.1666 110.955 97.3766 105.684C98.0486 105.166 98.1326 104.186 95.6756 105.684Z" fill="white"/>
<path d="M121.653 120.615C124.859 119.915 127.449 118.088 126.833 114.476C127.582 113.594 127.785 113.118 127.785 111.543C127.785 110.185 127.925 109.443 127.309 108.477C127.722 105.957 127.722 103.164 125.909 100.91C126.721 89.8777 109.963 91.0257 108.045 98.3197C107.569 100.091 108.045 103.367 109.067 104.865C108.724 105.565 108.724 106.027 108.864 107.182C103.677 105.782 95.7037 108.141 96.3827 114.546C93.9327 116.317 94.2057 120.748 94.9827 122.799C97.4327 129.099 114.072 128.182 112.301 119.663C112.364 119.593 112.504 119.523 112.574 119.39C114.532 120.456 116.754 120.941 118.979 120.79C113.869 121.49 111.825 125.494 112.91 130.268C114.128 135.735 127.68 136.463 129.822 130.814C130.228 129.792 130.228 126.929 129.619 125.214C128.604 122.316 125.608 120.342 121.653 120.615ZM126.427 110.248C126.693 111.753 126.231 113.195 125.468 113.748C122.773 115.638 116.809 115.519 114.219 114.448C114.293 113.69 114.225 112.926 114.016 112.194C118.041 113.524 123.697 113.118 126.427 110.248ZM126.217 106.16C126.287 108.141 125.741 109.163 124.173 110.185C120.561 112.502 112.791 111.683 111.153 108.274C110.85 107.685 110.731 107.02 110.81 106.363C114.905 109.709 122.332 110.388 126.217 106.16ZM118.314 107.56C121.814 107.35 125.062 105.922 125.608 102.919C125.671 106.566 121.583 107.868 118.3 107.595L118.314 107.56ZM123.494 96.6467C123.912 97.1682 124.121 97.8259 124.083 98.493C124.044 99.1601 123.759 99.7892 123.284 100.259C120.148 103.192 111.629 102.646 110.061 98.9007C108.542 95.5127 119.497 91.4247 123.494 96.6817V96.6467ZM109.382 100.469C112.448 104.151 121.282 104.424 124.586 101.015C124.243 108.106 112.308 106.944 110.264 103.402C109.686 102.546 109.379 101.536 109.382 100.504V100.469ZM100.926 109.191C104.811 107.287 110.95 107.896 112.308 111.578C112.509 112.123 112.55 112.715 112.426 113.283C112.302 113.851 112.018 114.372 111.608 114.784C106.554 119.705 92.7007 113.342 100.926 109.226V109.191ZM96.7257 116.968C97.3417 120.167 102.655 122.078 107.569 121.532C102.501 123.142 95.2977 120.734 96.6977 117.003L96.7257 116.968ZM110.726 122.568C108.199 126.866 95.3817 126.25 95.8577 119.978C99.0637 124.178 107.863 124.682 111.132 120.678C111.16 121.344 111.002 122.006 110.677 122.589L110.726 122.568ZM98.5877 117.591C98.132 116.708 97.9193 115.72 97.9717 114.728C100.562 118.55 109.172 119.628 112.84 115.617C112 122.323 100.317 120.636 98.5387 117.612L98.5877 117.591ZM113.449 118.34C113.862 117.582 114.117 116.749 114.198 115.89C117.817 117.185 123.2 116.982 125.72 115.274C125.006 120.174 117.39 120.363 113.4 118.361L113.449 118.34ZM127.631 124.136C127.969 124.525 128.176 125.01 128.225 125.523C128.274 126.037 128.162 126.552 127.904 126.999C125.657 130.891 116.858 130.499 114.681 126.523C112.861 122.568 124.11 119.943 127.582 124.157L127.631 124.136ZM128.52 130.681C126.203 134.776 113.652 134.503 114.135 127.958C117.334 131.913 126.266 132.046 128.793 127.958C128.895 128.885 128.785 129.823 128.471 130.702L128.52 130.681Z" fill="white"/>
<path d="M60.8992 46.4361C59.3942 46.3661 59.2612 47.6681 60.5562 48.0741C61.8512 48.4801 67.1012 49.5721 68.1932 49.7121C69.2852 49.8521 70.3772 48.6901 68.5362 48.0741C66.0441 47.3029 63.4884 46.7547 60.8992 46.4361Z" fill="white"/>
<path d="M121.582 128.385C121.715 128.931 123.829 128.931 125.537 127.979C127.448 126.957 126.937 125.319 126.286 125.935C124.102 128.182 121.449 127.636 121.582 128.385Z" fill="white"/>
<path d="M117.222 125.662C118.958 124.613 120.923 124.003 122.948 123.884C124.348 123.821 123.081 122.728 120.904 122.931C115.591 123.365 115.92 126.558 117.222 125.662Z" fill="white"/>
<path d="M100.512 113.118C101.128 113.321 101.268 111.613 102.899 110.794C104.53 109.975 107.057 109.982 106.651 109.394C106.378 108.918 104.061 108.694 101.814 109.87C99.7634 110.864 99.7634 112.908 100.512 113.118Z" fill="white"/>
<path d="M133.7 27.893C132.265 27.193 131.978 28.32 132.741 29.118C133.679 30.098 135.268 31.575 134.652 35.936C132.265 51.686 124.047 86.399 123.606 88.093C123.165 89.787 122.906 91.096 123.606 91.096C124.152 91.096 124.768 90.683 125.244 88.436C125.72 86.189 131.859 59.869 132.741 55.438C136.78 35.943 138.096 30.672 133.7 27.893Z" fill="white"/>
<path d="M89.5364 96.2761C88.8364 96.1711 88.3044 96.6961 83.8104 99.6151C81.2904 98.5231 78.7704 97.4311 76.2434 96.4791C77.3187 95.7315 78.3238 94.8878 79.2464 93.9584C80.1144 93.0554 79.3094 92.8664 77.8814 93.7484C76.4534 94.6304 75.6974 95.1141 74.6754 95.8001C70.7204 94.2951 68.9564 93.5594 68.2004 93.9584C67.4444 94.3574 68.8164 94.9804 73.1774 96.6814C70.7904 98.2494 68.4034 99.8874 66.0864 101.658C64.4484 100.958 62.8104 100.258 61.1864 99.5584C62.8174 98.2004 64.3224 96.9684 64.3224 96.5624C64.3224 96.1564 63.7764 96.0171 62.8874 96.6331C61.9984 97.2491 60.8434 98.0324 59.6184 98.8794C55.8664 97.2414 52.3244 95.7441 48.5724 94.3791C50.1404 93.4271 51.6384 92.4044 53.2064 91.4454C54.7044 91.9914 56.4824 92.6774 58.3864 93.3564C60.0944 93.9724 61.1864 93.2234 60.0244 92.7404C58.4564 92.1314 56.4124 91.2424 54.7044 90.4934C56.2724 89.4714 57.8404 88.5124 59.3454 87.4904C62.4744 88.5824 64.5114 89.4994 65.2744 89.1984C65.8204 88.9954 65.5474 88.4984 60.7104 86.5384C62.9574 85.0404 64.0494 83.7384 63.2304 83.8084C62.4114 83.8784 61.2494 84.6281 59.0724 85.9931C56.6854 85.1741 54.2984 84.3544 51.8414 83.6054L54.2984 82.2054C55.6984 81.3794 54.3754 80.3154 49.9374 83.0874C47.8864 82.3874 45.9824 81.7294 45.4364 82.2054C44.6174 82.9544 47.6204 83.8371 48.2364 84.0471C47.5364 84.3831 45.1004 85.5451 46.2624 85.9511C47.0814 86.2241 48.1664 85.6151 50.0774 84.5931C52.6674 85.3421 55.0544 86.1604 57.5114 86.9794C55.9434 88.0014 54.3754 88.9541 52.8704 89.9761C49.1254 88.4781 47.9704 88.5761 47.5574 88.7511C46.8154 89.1011 47.4874 89.3594 51.3724 90.9274C49.8744 91.8864 48.3764 92.9091 46.8714 93.8611C43.3294 92.5661 39.8714 91.2711 36.3714 89.8431C37.5334 89.0871 38.0094 88.6811 39.0314 88.0651C40.3264 87.1831 40.5994 85.6144 38.8984 86.5664C37.1974 87.5184 36.2384 88.2744 34.8734 89.1564C33.3754 88.4074 31.8074 88.0644 31.2614 88.4564C30.8554 88.8624 32.5564 89.5491 33.5784 90.0251C32.6964 90.5711 31.6044 91.4251 32.3534 91.7261C32.9694 91.9361 33.9214 91.3201 35.0134 90.7041C38.6254 92.2021 41.8314 93.3641 45.3734 94.7291C42.7834 96.6401 43.3294 97.3184 43.9734 97.2484C44.6174 97.1784 45.9544 96.0234 46.9064 95.3374C50.6584 96.7724 54.4034 98.2074 58.1064 99.8384C56.6084 101 55.7264 102.022 56.6084 102.022C57.1544 102.022 57.6304 101.749 59.5414 100.454C60.7664 101 62.9504 101.952 64.5884 102.638C62.8804 104.269 64.2454 104.542 65.9884 103.247C68.8514 104.409 70.6294 103.863 67.2204 102.365C69.6704 100.524 71.7844 99.0894 74.4444 97.3184C76.9014 98.2704 79.5544 99.3624 82.0814 100.454C80.4854 101.539 74.4654 105.481 74.1714 106.797C74.0244 108.197 78.7564 104.416 83.5794 101.07C85.8264 101.952 87.3944 102.771 88.2834 102.47C89.1724 102.169 87.8774 101.588 84.9444 100.083C86.3444 99.0614 87.1284 98.5854 88.2834 97.7664C89.8794 97.2274 90.0194 96.2761 89.5364 96.2761Z" fill="white"/>
<path d="M45.5628 19.1633C45.7028 18.1413 44.7648 17.1123 44.2048 16.3003C43.0078 14.5783 42.5668 14.8023 37.7228 14.4593C37.2129 14.4114 36.7031 14.5514 36.2893 14.8531C35.8755 15.1548 35.5862 15.5972 35.4758 16.0973C33.5578 21.5783 32.7108 24.2313 34.7758 24.8263C35.6718 25.0783 39.0738 25.7783 41.0758 26.0513C44.4008 26.4713 44.1838 24.6653 45.5628 19.1633ZM42.7628 16.7133C43.1408 17.1515 43.4838 17.6198 43.7848 18.1133C43.3088 18.0503 42.8328 17.9803 42.5598 17.9103C42.5675 17.5028 42.6383 17.099 42.7698 16.7133H42.7628ZM41.2648 24.5533C39.4069 24.3401 37.5628 24.0199 35.7418 23.5943C35.1258 23.4613 34.5798 23.4613 34.9928 21.7533C36.3578 16.5313 36.7148 15.7963 37.9258 15.6913C37.9258 15.6913 40.9918 15.9643 41.5378 16.0273C41.1948 18.8903 41.3278 19.0303 44.1278 19.5273C43.0358 24.6233 42.9868 24.7003 41.2998 24.5533H41.2648Z" fill="white"/>
<path d="M41.4748 22.3C41.2718 21.691 41.1318 21.348 41.1318 21.348C41.1318 21.348 41.8808 20.732 41.8808 20.256C41.6988 19.129 40.7118 18.73 40.5228 20.053C39.2768 17.778 39.3398 17.757 37.9328 17.05C37.6598 16.987 37.5898 16.917 37.5198 17.26C37.5198 19.22 37.6108 18.471 39.0878 20.802C38.3388 20.599 37.7928 20.872 37.6878 21.075C37.5828 21.278 37.8278 21.894 38.6468 22.237C39.1042 22.2764 39.565 22.2289 40.0048 22.097C40.2582 22.3091 40.4927 22.5436 40.7048 22.797C40.6452 22.9233 40.6313 23.0663 40.6656 23.2017C40.6998 23.337 40.7801 23.4563 40.8925 23.539C41.005 23.6217 41.1428 23.6628 41.2822 23.6551C41.4216 23.6474 41.554 23.5916 41.6568 23.497C41.8018 23.4584 41.9274 23.3677 42.0096 23.2422C42.0919 23.1167 42.1248 22.9653 42.1023 22.8169C42.0797 22.6686 42.0032 22.5338 41.8874 22.4384C41.7716 22.343 41.6247 22.2937 41.4748 22.3Z" fill="white"/>
<path d="M48.6985 70.2287C49.1395 68.3807 51.8345 57.2787 52.3175 55.4377C52.8005 53.5967 51.5615 53.4567 50.6795 55.2347C49.7975 57.0127 46.9275 69.6197 46.7245 71.2507C46.5215 72.8817 48.2505 72.1327 48.6985 70.2287Z" fill="white"/>
<path d="M53.6128 71.4612C56.0628 72.1612 100.247 85.4612 116.13 89.4582C119.399 90.2772 120.491 88.6392 121.177 85.6362C121.877 82.7732 128.947 52.7782 131.061 43.2302C132.286 37.6302 133.035 34.3682 132.461 34.0322C131.292 33.2482 129.948 44.5882 119.714 85.1322C118.65 89.5072 117.971 88.4502 105.805 85.1322C89.7817 80.4982 69.4048 74.8422 54.3968 70.2712C52.6958 69.7252 52.8988 68.9762 53.0388 67.8142C53.5148 64.2722 55.6288 57.5872 55.4888 55.7462C55.4258 55.2702 54.7888 55.0462 54.1938 57.1462C53.3748 60.0792 52.7938 63.1452 52.0168 66.0782C51.3588 68.9342 51.1558 70.7752 53.6128 71.4612Z" fill="white"/>
<path d="M40.5227 29.3905C39.6337 29.1175 36.8407 28.6415 36.0917 28.8445C35.3427 29.0475 35.2027 29.8035 36.0917 30.0065C37.6186 30.3557 39.1665 30.6059 40.7257 30.7555C41.5447 30.8255 41.4747 29.6005 40.5227 29.3905Z" fill="white"/>
<path d="M39.9765 26.9402C39.2275 26.8002 38.5415 26.6672 37.2465 26.5272C35.9515 26.3872 35.6785 27.4862 36.7705 27.7592C38.0011 28.07 39.2569 28.2737 40.5225 28.3682C41.9505 28.5082 41.5445 27.2132 39.9765 26.9402Z" fill="white"/>
<path d="M91.6998 121.707C80.7098 129.162 76.7198 131.29 68.5228 129.071C64.8408 128.049 15.9528 108.68 8.45576 104.795C5.24976 103.094 5.24976 101.526 5.24976 99.2719C5.24976 95.5549 4.82276 96.4719 25.1578 85.6359C31.5698 82.2269 40.5578 77.3899 42.9518 76.2279C46.0248 74.7299 49.5668 75.2759 52.4998 76.1649C65.0998 79.9099 100.1 90.6829 103.362 91.5649C106.904 92.5169 108.878 91.3619 105.812 90.5429C34.6218 71.2369 55.8738 67.8629 24.2758 84.0609C19.1588 86.7909 9.89076 91.6979 6.77576 93.4759C4.59176 94.7709 3.49976 95.7929 3.49976 99.1319C3.49976 101.449 3.49976 104.032 7.65776 106.223C15.1548 110.178 57.3578 126.88 63.6998 129.323C72.4288 132.592 76.7898 132.459 82.4458 129.253C85.4574 127.604 88.3719 125.783 91.1748 123.8C93.0998 122.589 93.0998 120.748 91.6998 121.707Z" fill="white"/>
<path d="M24.9754 63.2082C26.2004 63.4812 29.1334 64.4332 30.3584 64.7062C31.5834 64.9792 31.3174 63.6212 29.4764 63.0752C27.6354 62.5292 25.7244 61.7102 24.4294 61.8432C23.1344 61.9762 23.7504 62.8022 24.9754 63.2082Z" fill="white"/>
<path d="M30.8416 68.458C31.5906 68.661 32.4726 67.506 29.6796 66.687C26.8866 65.868 24.4296 64.846 23.5406 65.119C21.3076 66.05 28.2516 67.751 30.8416 68.458Z" fill="white"/>
<path d="M35.6998 58.0982C38.3038 47.9412 39.0038 49.3622 34.1318 43.6432C32.7318 41.8722 31.4018 42.0752 26.2218 41.4592C22.0218 41.0182 22.1338 43.6921 19.4038 54.2061C18.7948 56.4601 20.2928 57.7062 21.9938 58.0282C31.4998 60.6462 34.5798 62.3822 35.6998 58.0982ZM33.1798 44.7352C34.1857 45.909 35.0963 47.1613 35.9028 48.4802C32.5428 47.6682 32.1368 48.6202 33.1588 44.7352H33.1798ZM30.9258 58.9172C29.8338 58.7072 22.7498 56.8662 21.8258 56.5932C19.8518 55.8932 20.5308 54.7522 22.3018 48.4172C23.2118 45.0922 23.3658 42.4741 26.1868 42.8171C28.1608 42.9711 30.1215 43.268 32.0528 43.7062C31.8061 44.4195 31.6004 45.1463 31.4368 45.8831C30.0718 46.0861 26.3268 45.5472 26.3968 46.8422C26.4598 47.8642 25.2348 52.8412 24.4158 53.3172C21.8958 52.0222 20.8038 55.7042 23.5968 55.4172C24.6888 55.2772 25.6408 54.8011 27.2788 48.2561C28.5916 48.1082 29.914 48.0637 31.2338 48.1232C31.3598 48.4635 31.5814 48.7601 31.872 48.9774C32.1626 49.1948 32.5098 49.3235 32.8718 49.3482C32.5598 50.8882 32.1028 52.3953 31.5068 53.8492C30.8068 53.1492 28.5738 53.0302 28.5738 54.6682C28.5738 55.6202 29.3928 56.0262 30.2818 55.8932C33.0048 55.4172 33.0048 51.3922 33.7818 49.3482C34.6008 49.4812 35.5598 49.6912 36.2388 49.7542C33.6488 59.3932 34.2018 59.7362 30.9048 58.9172H30.9258Z" fill="white"/>
<path d="M113.267 105.166C113.467 105.148 113.655 105.062 113.8 104.922C113.944 104.783 114.036 104.597 114.06 104.398C114.083 104.198 114.038 103.996 113.93 103.826C113.823 103.656 113.66 103.529 113.47 103.465C112.518 103.164 112.245 104.935 113.267 105.166Z" fill="white"/>
<path d="M116.2 105.613C116.381 105.609 116.556 105.548 116.7 105.438C116.844 105.328 116.95 105.176 117.001 105.002C117.054 104.829 117.051 104.643 116.992 104.472C116.934 104.301 116.822 104.153 116.674 104.049C116.576 103.98 116.464 103.932 116.346 103.908C116.228 103.884 116.107 103.886 115.99 103.913C115.108 103.997 114.968 105.683 116.2 105.613Z" fill="white"/>
<path d="M119.336 105.544C120.078 105.25 119.854 103.773 119.063 103.773C117.845 103.766 117.964 106.006 119.336 105.544Z" fill="white"/>
<path d="M122.605 103.766C122.745 102.674 121.205 102.814 121.205 103.836C121.1 105.068 122.605 104.865 122.605 103.766Z" fill="white"/>
<path d="M111.769 103.367C111.902 102.548 110.607 102.205 110.677 103.024C110.747 103.843 111.629 104.249 111.769 103.367Z" fill="white"/>
<path d="M114.422 108.666C113.4 108.393 113.127 109.968 114.289 110.234C115.297 110.423 115.332 108.988 114.422 108.666Z" fill="white"/>
<path d="M119.945 111.066C121.107 111.066 121.023 109.155 119.742 109.295C118.79 109.435 118.72 111.136 119.945 111.066Z" fill="white"/>
<path d="M123.081 110.318C123.239 110.237 123.368 110.107 123.447 109.948C123.527 109.789 123.553 109.609 123.523 109.433C123.492 109.258 123.406 109.097 123.278 108.974C123.149 108.851 122.984 108.773 122.808 108.75C122.688 108.746 122.568 108.769 122.458 108.818C122.348 108.866 122.25 108.939 122.172 109.03C122.053 109.167 121.983 109.34 121.974 109.521C121.965 109.703 122.017 109.882 122.122 110.03C122.227 110.178 122.378 110.287 122.552 110.339C122.726 110.391 122.912 110.384 123.081 110.318Z" fill="white"/>
<path d="M125.398 108.344C125.468 107.525 124.229 107.797 124.173 108.406C124.082 109.428 125.335 109.366 125.398 108.344Z" fill="white"/>
<path d="M116.535 109.226C115.66 109.373 115.835 110.934 116.948 110.934C118.061 110.934 117.788 109.093 116.535 109.226Z" fill="white"/>
<path d="M111.559 108.071C111.699 108.953 112.581 109.366 112.721 108.477C112.861 107.588 111.496 107.182 111.559 108.071Z" fill="white"/>
<path d="M118.243 113.251C118.134 113.268 118.029 113.307 117.935 113.365C117.841 113.423 117.76 113.499 117.696 113.589C117.632 113.679 117.586 113.781 117.562 113.889C117.538 113.997 117.536 114.108 117.556 114.217C117.576 114.326 117.618 114.429 117.679 114.522C117.74 114.614 117.818 114.693 117.91 114.755C118.002 114.816 118.105 114.858 118.214 114.879C118.323 114.9 118.434 114.898 118.542 114.875C118.752 114.83 118.936 114.705 119.056 114.526C119.175 114.348 119.22 114.129 119.181 113.918C119.142 113.707 119.023 113.519 118.847 113.394C118.672 113.27 118.456 113.219 118.243 113.251Z" fill="white"/>
<path d="M123.423 114.14C124.361 114.14 124.249 112.663 123.283 112.74C123.191 112.748 123.102 112.775 123.02 112.819C122.938 112.862 122.865 112.922 122.807 112.993C122.748 113.065 122.704 113.147 122.677 113.236C122.65 113.325 122.641 113.418 122.65 113.51C122.659 113.602 122.687 113.692 122.73 113.773C122.774 113.855 122.834 113.927 122.906 113.986C122.978 114.044 123.06 114.088 123.149 114.114C123.238 114.141 123.331 114.149 123.423 114.14Z" fill="white"/>
<path d="M121.45 114.749C122.15 114.483 121.94 113.118 121.31 113.118C120.015 113.118 120.344 115.19 121.45 114.749Z" fill="white"/>
<path d="M125.741 112.634C125.811 111.682 124.586 111.815 124.586 112.634C124.446 113.656 125.741 113.565 125.741 112.634Z" fill="white"/>
<path d="M115.24 112.978C115.102 113.078 114.995 113.216 114.934 113.375C114.873 113.534 114.86 113.708 114.896 113.875C114.933 114.041 115.017 114.194 115.139 114.313C115.262 114.432 115.416 114.513 115.583 114.546C116.703 114.966 116.724 112.425 115.24 112.978Z" fill="white"/>
<path d="M121.176 118.704C122.261 118.704 122.128 116.793 121.106 117.003C120.904 117.042 120.723 117.153 120.595 117.314C120.467 117.476 120.402 117.678 120.41 117.883C120.419 118.089 120.501 118.285 120.641 118.436C120.782 118.586 120.971 118.681 121.176 118.704Z" fill="white"/>
<path d="M115.5 116.73C115.321 116.686 115.133 116.699 114.961 116.765C114.789 116.831 114.641 116.948 114.538 117.1C114.469 117.201 114.422 117.315 114.399 117.435C114.375 117.555 114.376 117.678 114.402 117.798C114.428 117.918 114.478 118.031 114.55 118.13C114.62 118.23 114.71 118.314 114.815 118.378C114.919 118.442 115.035 118.484 115.157 118.501C115.386 118.533 115.619 118.476 115.808 118.342C115.997 118.208 116.127 118.006 116.172 117.779C116.216 117.551 116.171 117.315 116.046 117.12C115.921 116.924 115.725 116.785 115.5 116.73Z" fill="white"/>
<path d="M118.447 117.066C117.831 116.933 117.495 117.206 117.425 117.822C117.355 118.438 117.698 118.774 118.125 118.844C119.133 118.956 119.336 117.423 118.447 117.066Z" fill="white"/>
<path d="M124.243 117.065C124.173 116.183 122.843 116.589 122.948 117.408C122.948 118.297 124.376 117.954 124.243 117.065Z" fill="white"/>
<path d="M117.768 130.702C116.809 130.429 116.473 132.27 117.495 132.41C117.704 132.411 117.906 132.337 118.065 132.202C118.225 132.067 118.331 131.879 118.364 131.673C118.397 131.467 118.355 131.255 118.246 131.077C118.136 130.899 117.967 130.766 117.768 130.702Z" fill="white"/>
<path d="M122.877 131.248C122.658 131.287 122.462 131.406 122.326 131.582C122.189 131.758 122.123 131.978 122.141 132.2C122.158 132.422 122.258 132.63 122.42 132.782C122.509 132.863 122.613 132.926 122.726 132.966C122.84 133.006 122.96 133.023 123.08 133.016C123.2 133.009 123.318 132.977 123.425 132.924C123.533 132.87 123.629 132.795 123.707 132.704C123.785 132.612 123.844 132.506 123.88 132.391C123.916 132.277 123.929 132.156 123.917 132.036C123.906 131.916 123.87 131.8 123.812 131.694C123.755 131.589 123.677 131.496 123.582 131.421C123.483 131.345 123.369 131.29 123.248 131.26C123.127 131.231 123.001 131.226 122.877 131.248Z" fill="white"/>
<path d="M124.992 131.52C124.789 132.752 126.427 132.613 126.427 131.451C126.56 130.226 125.062 130.365 124.992 131.52Z" fill="white"/>
<path d="M120.218 131.248C120.111 131.253 120.006 131.281 119.91 131.33C119.815 131.379 119.731 131.448 119.664 131.532C119.598 131.617 119.55 131.714 119.525 131.819C119.5 131.923 119.497 132.032 119.518 132.137C119.518 132.753 119.721 133.026 120.337 133.026C121.464 133.026 121.506 131.108 120.218 131.248Z" fill="white"/>
<path d="M114.967 130.155C114.694 130.974 116.129 131.555 116.262 130.638C116.395 129.721 115.17 129.273 114.967 130.155Z" fill="white"/>
<path d="M127.924 129.609C126.902 129.609 126.832 131.185 127.721 130.975C128.26 130.842 128.533 129.609 127.924 129.609Z" fill="white"/>
<path d="M108.898 118.158C108.738 118.198 108.599 118.297 108.509 118.434C108.418 118.572 108.382 118.739 108.409 118.902C108.435 119.064 108.522 119.211 108.651 119.313C108.781 119.415 108.944 119.465 109.108 119.452C109.27 119.414 109.411 119.316 109.503 119.178C109.596 119.039 109.632 118.871 109.605 118.707C109.579 118.543 109.491 118.395 109.36 118.294C109.229 118.192 109.064 118.143 108.898 118.158Z" fill="white"/>
<path d="M103.6 118.298C103.508 118.288 103.415 118.297 103.327 118.324C103.228 118.355 103.137 118.406 103.06 118.476C102.983 118.546 102.923 118.632 102.883 118.728C102.844 118.823 102.826 118.927 102.831 119.03C102.836 119.134 102.864 119.235 102.912 119.326C102.961 119.418 103.029 119.498 103.112 119.56C103.195 119.622 103.291 119.664 103.393 119.685C103.494 119.706 103.599 119.704 103.7 119.679C103.801 119.654 103.895 119.608 103.975 119.542C104.083 119.454 104.161 119.336 104.202 119.203C104.242 119.07 104.242 118.928 104.202 118.795C104.162 118.662 104.084 118.544 103.976 118.455C103.869 118.367 103.738 118.312 103.6 118.298Z" fill="white"/>
<path d="M100.449 118.57C100.995 119.452 102.423 118.844 101.744 117.955C100.925 117.003 100.036 117.884 100.449 118.57Z" fill="white"/>
<path d="M106.4 118.466C105.07 118.298 105.077 119.901 106.197 119.901C106.743 119.901 107.016 119.698 107.016 119.152C107.058 118.704 106.652 118.501 106.4 118.466Z" fill="white"/>
<path d="M110.334 118.087C110.488 118.836 111.559 118.43 111.356 117.751C111.153 117.072 110.208 117.471 110.334 118.087Z" fill="white"/>
<path d="M98.8817 116.59C98.2657 116.59 98.5387 117.681 99.0847 117.884C99.9737 118.087 99.9037 116.59 98.8817 116.59Z" fill="white"/>
<path d="M98.7417 122.666C97.9227 122.323 97.5167 123.688 98.4057 123.961C98.5552 123.954 98.6984 123.899 98.8146 123.805C98.9309 123.711 99.014 123.582 99.0518 123.437C99.089 123.292 99.079 123.139 99.0232 123.001C98.9675 122.862 98.8688 122.745 98.7417 122.666Z" fill="white"/>
<path d="M103.649 123.681C103.552 123.677 103.455 123.692 103.364 123.726C103.274 123.76 103.191 123.812 103.121 123.879C103.051 123.946 102.995 124.027 102.957 124.116C102.919 124.205 102.899 124.301 102.899 124.398C102.899 124.495 102.919 124.591 102.957 124.681C102.995 124.77 103.051 124.85 103.121 124.917C103.191 124.984 103.274 125.037 103.364 125.071C103.455 125.105 103.552 125.12 103.649 125.116C104.671 125.116 104.86 123.681 103.649 123.681Z" fill="white"/>
<path d="M105.973 123.751C105.273 124.514 106.582 125.249 107.198 124.451C107.674 123.821 106.806 122.883 105.973 123.751Z" fill="white"/>
<path d="M100.8 123.275C100.714 123.25 100.623 123.246 100.535 123.261C100.447 123.277 100.364 123.313 100.292 123.365C100.22 123.418 100.161 123.486 100.119 123.565C100.077 123.644 100.054 123.732 100.051 123.821C99.9177 124.297 100.121 124.57 100.667 124.703C101.696 125.123 102.109 123.436 100.8 123.275Z" fill="white"/>
<path d="M96.5998 121.909C96.3268 122.525 97.4118 123.064 97.5518 122.315C97.7198 121.706 96.6978 121.265 96.5998 121.909Z" fill="white"/>
<path d="M109.654 122.526C108.695 122.456 108.492 123.926 109.311 123.751C109.857 123.681 110.193 122.526 109.654 122.526Z" fill="white"/>
</svg>
