<svg width="47" height="1080" viewBox="0 0 47 1080" fill="none" xmlns="http://www.w3.org/2000/svg">
  <path fill-rule="evenodd" clip-rule="evenodd" d="M6 -0.00732405L6 544.376L7.51921 543.974L16 551.199L16 523.72H20L20 554.607L29.0193 562.291L28.8706 562.33H29L29 1091H25L25 563.355L24.9806 563.36L20 559.117L20 1034.57H16L16 555.709L7.99973 548.893V1081.1H3.99973V545.592H2L2 -0.00732422L6 -0.00732405ZM33.0002 532.612V37H29.0002V551H33.0002V536.183L46.3544 528.156H46.6303V527.99L46.6807 527.96L46.6303 527.937L46.6303 91.0816H42.6303L42.6303 526.823L33.0002 532.612ZM16 -3.5895e-05L16 496.989H20L20 -3.57218e-05L16 -3.5895e-05Z" fill="url(#paint0_linear_667_7571)"/>
  <path fill-rule="evenodd" clip-rule="evenodd" d="M6 -0.00732405L6 544.376L7.51921 543.974L16 551.199L16 523.72H20L20 554.607L29.0193 562.291L28.8706 562.33H29L29 1091H25L25 563.355L24.9806 563.36L20 559.117L20 1034.57H16L16 555.709L7.99973 548.893V1081.1H3.99973V545.592H2L2 -0.00732422L6 -0.00732405ZM33.0002 532.612V37H29.0002V551H33.0002V536.183L46.3544 528.156H46.6303V527.99L46.6807 527.96L46.6303 527.937L46.6303 91.0816H42.6303L42.6303 526.823L33.0002 532.612ZM16 -3.5895e-05L16 496.989H20L20 -3.57218e-05L16 -3.5895e-05Z" fill="black" fill-opacity="0.2"/>
  <defs>
  <linearGradient id="paint0_linear_667_7571" x1="4.40721" y1="1504.12" x2="45.2762" y2="1504.02" gradientUnits="userSpaceOnUse">
  <stop stop-color="#4126E8"/>
  <stop offset="0.411458" stop-color="#EA1ABA"/>
  <stop offset="1" stop-color="#10A6D6"/>
  </linearGradient>
  </defs>
  </svg>
  