<svg width="435" height="406" viewBox="0 0 435 406" fill="none" xmlns="http://www.w3.org/2000/svg">
  <path fill-rule="evenodd" clip-rule="evenodd" d="M127.243 3.92109C-39.1739 78.761 -43.1202 319.207 120.761 398.879C139.912 408.189 140.621 407.958 134.773 394.314C117.147 353.191 102.54 281.863 112.547 285.779C177.495 311.194 253.273 311.939 314.146 287.758C331.484 280.871 324.851 330.606 300.249 391.965C293.682 408.341 293.889 408.476 311.97 399.57C476.794 318.383 474.109 79.2328 307.533 4.27194C294.55 -1.56964 293.642 -0.894917 298.864 10.7143C307.677 30.2961 318.5 69.3719 323.736 100.505C327.631 123.66 327.51 124.027 317.444 119.565C260.766 94.4415 178.858 94.4565 114.04 119.601C102.76 123.977 114.196 62.7627 133.788 13.9019C139.971 -1.51765 139.826 -1.73756 127.243 3.92109ZM250.41 154.012C352.47 167.786 367.423 225.327 274.681 247.412C185.802 268.576 78.1334 235.546 97.822 193.156C111.237 164.274 185.425 145.241 250.41 154.012Z" fill="red"/>
  </svg>
  