<svg width="274" height="256" viewBox="0 0 274 256" fill="none" xmlns="http://www.w3.org/2000/svg">
  <path fill-rule="evenodd" clip-rule="evenodd" d="M80.2505 2.14608C-24.7967 49.4584 -27.2877 201.464 76.1586 251.831C88.2473 257.717 88.6949 257.571 85.0034 248.945C73.8772 222.948 64.6572 177.855 70.9738 180.331C111.971 196.398 159.804 196.869 198.229 181.582C209.173 177.229 204.986 208.67 189.456 247.46C185.311 257.813 185.442 257.898 196.855 252.268C300.896 200.943 299.202 49.7567 194.054 2.36788C185.859 -1.32505 185.286 -0.898508 188.583 6.44059C194.145 18.8199 200.977 43.5228 204.282 63.2046C206.74 77.843 206.664 78.0749 200.311 75.254C164.534 59.3713 112.831 59.3808 71.9162 75.2767C64.7957 78.0433 72.0144 39.3446 84.3814 8.45578C88.2844 -1.29219 88.1932 -1.43121 80.2505 2.14608ZM157.997 97.0305C222.42 105.738 231.858 142.115 173.317 156.076C117.214 169.456 49.2509 148.575 61.6789 121.776C70.1467 103.518 116.976 91.4861 157.997 97.0305Z" fill="#F4F3F6"/>
</svg>
  