<svg width="32" height="32" viewBox="0 0 32 32" fill="none" xmlns="http://www.w3.org/2000/svg">
<g clip-path="url(#clip0_419_14087)">
<path d="M29.8006 30.774L22.9316 28.654L17.7517 31.8636L14.1375 31.862L8.95437 28.654L2.08856 30.774L0 23.4663L2.08856 15.3558L0 8.49869L2.08856 0L12.8169 6.64362H19.072L29.8006 0L31.8891 8.49869L29.8006 15.3558L31.8891 23.4663L29.8006 30.774Z" fill="#FF5C16"/>
<path d="M2.08984 0L12.8184 6.64829L12.3918 11.211L2.08984 0ZM8.95587 23.4693L13.6763 27.1965L8.95587 28.654V23.4693ZM13.2991 17.3073L12.3918 11.214L6.58449 15.3577L6.58134 15.356V15.3591L6.59936 19.6242L8.95429 17.3076L13.2991 17.3073ZM29.8005 0L19.0719 6.64829L19.4972 11.211L29.8005 0ZM22.9347 23.4693L18.214 27.1965L22.9347 28.654V23.4693ZM25.3074 15.3588V15.3558L25.3061 15.3574L19.4987 11.214L18.5915 17.3073H22.9345L25.291 19.6237L25.3074 15.3588Z" fill="#FF5C16"/>
<path d="M8.95437 28.654L2.08856 30.7739L0 23.4693H8.95437V28.654ZM13.2976 17.3057L14.6091 26.1148L12.7914 21.2167L6.59651 19.6237L8.95279 17.3059H13.2976V17.3057ZM22.9345 28.654L29.8006 30.7739L31.8891 23.4693H22.9345V28.654ZM18.5915 17.3057L17.28 26.1148L19.0975 21.2167L25.2926 19.6237L22.9348 17.3059H18.5915V17.3057Z" fill="#E34807"/>
<path d="M0 23.4662L2.08856 15.3557H6.57983L6.59628 19.6222L12.7917 21.2152L14.6091 26.1131L13.6748 27.1918L8.95437 23.4646H0V23.4662ZM31.8891 23.4662L29.8006 15.3557H25.3091L25.2926 19.6222L19.0977 21.2152L17.28 26.1131L18.2141 27.1918L22.9348 23.4646H31.8891V23.4662ZM19.072 6.64355H12.8169L12.3921 11.2062L14.6094 26.1084H17.28L19.4986 11.2062L19.072 6.64355Z" fill="#FF8D5D"/>
<path d="M2.08856 0L0 8.49869L2.08856 15.3558H6.57983L12.3903 11.211L2.08856 0ZM11.9995 19.075H9.96484L8.85701 20.2006L12.793 21.212L11.9995 19.0736V19.075ZM29.8006 0L31.8891 8.49869L29.8006 15.3558H25.3091L19.4988 11.211L29.8006 0ZM19.8925 19.075H21.9301L23.038 20.202L19.0975 21.2153L19.8925 19.0734V19.075ZM17.7501 28.9565L18.2143 27.1949L17.28 26.1162H14.6073L13.6732 27.1949L14.1372 28.9565" fill="#661800"/>
<path d="M17.7501 28.9561V31.8648H14.1375V28.9561H17.7501Z" fill="#C0C4CD"/>
<path d="M8.95605 28.6509L14.1405 31.8635V28.9548L13.6763 27.1934L8.95605 28.6509ZM22.9349 28.6509L17.7502 31.8635V28.9548L18.2144 27.1934L22.9349 28.6509Z" fill="#E7EBF6"/>
</g>
<defs>
<clipPath id="clip0_419_14087">
<rect width="32" height="32" fill="white"/>
</clipPath>
</defs>
</svg>
