<svg width="150" height="150" viewBox="0 0 150 150" fill="none" xmlns="http://www.w3.org/2000/svg">
<path fill-rule="evenodd" clip-rule="evenodd" d="M94.7727 27H56.2273C52.2358 27 49 30.2357 49 34.2273V116.136C49 120.128 52.2358 123.364 56.2273 123.364H94.7727C98.7642 123.364 102 120.128 102 116.136V34.2273C102 30.2358 98.7642 27 94.7727 27ZM53.8182 34.2273C53.8182 32.8968 54.8968 31.8182 56.2273 31.8182H94.7727C96.1032 31.8182 97.1818 32.8968 97.1818 34.2273V116.136C97.1818 117.467 96.1032 118.545 94.7727 118.545H56.2273C54.8968 118.545 53.8182 117.467 53.8182 116.136V104.09H97.1817V101.681H53.8182V46.272H97.1817V43.8629H53.8182V34.2273ZM75.4998 113.727C76.8303 113.727 77.9089 112.648 77.9089 111.318C77.9089 109.987 76.8303 108.908 75.4998 108.908C74.1693 108.908 73.0907 109.987 73.0907 111.318C73.0907 112.648 74.1693 113.727 75.4998 113.727ZM63.4545 37.8401C63.4545 37.1749 63.9938 36.6356 64.6591 36.6356H81.5227C82.188 36.6356 82.7273 37.1749 82.7273 37.8401C82.7273 38.5054 82.188 39.0447 81.5227 39.0447H64.6591C63.9938 39.0447 63.4545 38.5054 63.4545 37.8401ZM86.3408 39.0447C87.0061 39.0447 87.5454 38.5054 87.5454 37.8401C87.5454 37.1749 87.0061 36.6356 86.3408 36.6356C85.6756 36.6356 85.1363 37.1749 85.1363 37.8401C85.1363 38.5054 85.6756 39.0447 86.3408 39.0447Z" fill="#40FFD1"/>
<circle cx="75" cy="75" r="72.5" stroke="#40FFD1" stroke-width="5"/>
<rect x="104.5" y="2" width="36" height="36" rx="18" fill="#13141A"/>
<circle cx="121.5" cy="21" r="8" fill="#40FFD1"/>
<path fill-rule="evenodd" clip-rule="evenodd" d="M121.042 23.9252L121.013 23.9597L118 20.9405L119.29 19.406L121.703 21.8239L125.206 18L126.557 19.4748L121.761 24.7099L121.042 23.9252Z" fill="#13141A"/>
</svg>
