<svg width="150" height="150" viewBox="0 0 150 150" fill="none" xmlns="http://www.w3.org/2000/svg">
<circle cx="75" cy="75" r="72.5" stroke="#F54163" stroke-width="5"/>
<rect x="114" y="114" width="36" height="36" rx="18" fill="#13141A"/>
<path d="M123.789 132.34C122.245 135.007 124.169 138.344 127.25 138.344H136.75C139.831 138.344 141.755 135.007 140.211 132.34L135.462 124.136C133.921 121.475 130.079 121.475 128.538 124.136L123.789 132.34ZM133.062 134.094C133.062 134.681 132.587 135.156 132 135.156C131.413 135.156 130.938 134.681 130.938 134.094C130.938 133.507 131.413 133.031 132 133.031C132.587 133.031 133.062 133.507 133.062 134.094ZM133.062 129.844C133.062 130.431 132.587 130.906 132 130.906C131.413 130.906 130.938 130.431 130.938 129.844V127.719C130.938 127.132 131.413 126.656 132 126.656C132.587 126.656 133.062 127.132 133.062 127.719V129.844Z" fill="#F54163"/>
<path fill-rule="evenodd" clip-rule="evenodd" d="M94.7727 27H56.2273C52.2358 27 49 30.2357 49 34.2273V116.136C49 120.128 52.2358 123.364 56.2273 123.364H94.7727C98.7642 123.364 102 120.128 102 116.136V34.2273C102 30.2358 98.7642 27 94.7727 27ZM53.8182 34.2273C53.8182 32.8968 54.8968 31.8182 56.2273 31.8182H94.7727C96.1032 31.8182 97.1818 32.8968 97.1818 34.2273V116.136C97.1818 117.467 96.1032 118.545 94.7727 118.545H56.2273C54.8968 118.545 53.8182 117.467 53.8182 116.136V104.09H97.1817V101.681H53.8182V46.272H97.1817V43.8629H53.8182V34.2273ZM75.4998 113.727C76.8303 113.727 77.9089 112.648 77.9089 111.318C77.9089 109.987 76.8303 108.908 75.4998 108.908C74.1693 108.908 73.0907 109.987 73.0907 111.318C73.0907 112.648 74.1693 113.727 75.4998 113.727ZM63.4545 37.8401C63.4545 37.1749 63.9938 36.6356 64.6591 36.6356H81.5227C82.188 36.6356 82.7273 37.1749 82.7273 37.8401C82.7273 38.5054 82.188 39.0447 81.5227 39.0447H64.6591C63.9938 39.0447 63.4545 38.5054 63.4545 37.8401ZM86.3408 39.0447C87.0061 39.0447 87.5454 38.5054 87.5454 37.8401C87.5454 37.1749 87.0061 36.6356 86.3408 36.6356C85.6756 36.6356 85.1363 37.1749 85.1363 37.8401C85.1363 38.5054 85.6756 39.0447 86.3408 39.0447Z" fill="#F54163"/>
</svg>
