<svg width="200" height="200" viewBox="0 0 200 200" fill="none" xmlns="http://www.w3.org/2000/svg">
  <path fill-rule="evenodd" clip-rule="evenodd" d="M71.0175 36.0898C17.326 60.1156 16.0528 137.306 68.926 162.883C75.1048 165.872 75.3335 165.798 73.4467 161.417C67.76 148.216 63.0475 125.317 66.276 126.574C87.2303 134.734 111.679 134.973 131.318 127.21C136.912 124.999 134.772 140.965 126.834 160.663C124.716 165.921 124.783 165.964 130.616 163.105C183.793 137.041 182.927 60.2671 129.185 36.2024C124.996 34.3271 124.703 34.5437 126.388 38.2706C129.231 44.557 132.723 57.1014 134.412 67.0961C135.669 74.5296 135.63 74.6474 132.382 73.2149C114.096 65.1495 87.6698 65.1543 66.7577 73.2265C63.1182 74.6313 66.8079 54.9797 73.1288 39.294C75.1238 34.3438 75.0771 34.2732 71.0175 36.0898ZM110.755 84.2733C143.683 88.6953 148.507 107.168 118.586 114.258C89.9102 121.052 55.173 110.448 61.5252 96.8396C65.8532 87.5676 89.7886 81.4578 110.755 84.2733Z" fill="white" />
  <circle cx="100" cy="100" r="97.5" stroke="url(#paint0_linear_372_3020)" stroke-width="5" />
  <rect x="152" y="152" width="48" height="48" rx="24" fill="#121212" />
  <path d="M163.893 178.455C162.349 181.122 164.273 184.46 167.355 184.46H184.646C187.727 184.46 189.651 181.122 188.107 178.455L179.462 163.522C177.921 160.861 174.079 160.861 172.538 163.522L163.893 178.455ZM177.417 178.793C177.417 179.575 176.782 180.21 176 180.21C175.218 180.21 174.583 179.575 174.583 178.793C174.583 178.011 175.218 177.376 176 177.376C176.782 177.376 177.417 178.011 177.417 178.793ZM177.417 173.126C177.417 173.909 176.782 174.543 176 174.543C175.218 174.543 174.583 173.909 174.583 173.126V170.293C174.583 169.511 175.218 168.876 176 168.876C176.782 168.876 177.417 169.511 177.417 170.293V173.126Z" fill="#FF3E3E" />
  <defs>
    <linearGradient id="paint0_linear_372_3020" x1="167.5" y1="161" x2="22.5" y2="35" gradientUnits="userSpaceOnUse">
      <stop stop-color="#FF3E3E" />
      <stop offset="1" stop-color="#FF3ED2" />
    </linearGradient>
  </defs>
</svg>
  