<svg width="24" height="24" viewBox="0 0 24 24" fill="none" xmlns="http://www.w3.org/2000/svg">
  <path d="M2.79294 20.1435L3.13418 19.815C1.93447 18.5689 1.01819 17.074 0.479989 15.424C0.47302 15.3999 0.475011 15.3776 0.482759 15.3585C0.490584 15.3392 0.50591 15.3193 0.53344 15.3043L0.535278 15.3033L2.68851 14.1129L2.98984 13.9464L2.92439 13.6083C2.71856 12.5452 2.71856 11.4548 2.92439 10.3917L2.98984 10.0536L2.68851 9.88706L0.535281 8.69674L0.533437 8.69573C0.503983 8.67962 0.487781 8.65829 0.480054 8.63951C0.472521 8.6212 0.471432 8.6021 0.478089 8.58186L0.478626 8.58021C1.01665 6.92369 1.93338 5.42761 3.13357 4.18565L3.13359 4.18567L3.1372 4.18185C3.17526 4.14158 3.2466 4.1245 3.31291 4.16034C3.31317 4.16048 3.31343 4.16062 3.31368 4.16076L5.45961 5.34984L5.73974 5.50506L5.98816 5.30293C6.85405 4.59835 7.84569 4.04981 8.9151 3.68551L9.23603 3.57618V3.23713V0.856494C9.23603 0.821441 9.26428 0.768675 9.33432 0.754051L9.33658 0.753568C11.0369 0.389775 12.8699 0.371119 14.658 0.753579L14.6602 0.754045C14.7302 0.768675 14.7585 0.82144 14.7585 0.856494V3.23229V3.57322L15.0818 3.68146C16.1547 4.04071 17.1447 4.58842 18.0042 5.29631L18.2527 5.501L18.5345 5.34523L20.6877 4.15492L20.6895 4.15392C20.7424 4.12436 20.8218 4.13519 20.8663 4.18113L21.2066 3.85164L20.8654 4.18017C22.0651 5.4263 22.9814 6.9212 23.5196 8.57119C23.5265 8.59528 23.5246 8.61758 23.5168 8.63665C23.509 8.65592 23.4937 8.67583 23.4661 8.69089L23.4643 8.69191L21.3111 9.88222L21.0097 10.0488L21.0752 10.3868C21.281 11.4499 21.281 12.5404 21.0752 13.6035L21.0097 13.9415L21.3111 14.1081L23.4643 15.2984L23.4661 15.2994C23.4933 15.3143 23.5093 15.3343 23.5179 15.3555C23.5263 15.376 23.5295 15.4018 23.5224 15.4307C22.9839 17.0829 22.0686 18.5751 20.871 19.8144L20.871 19.8143L20.8674 19.8182C20.8293 19.8584 20.7579 19.8755 20.6916 19.8396C20.6914 19.8395 20.6912 19.8394 20.6909 19.8392L18.5395 18.6499L18.2596 18.4952L18.0114 18.6971C17.1455 19.4017 16.1539 19.9502 15.0845 20.3145L14.7635 20.4238V20.7629V23.1435C14.7635 23.1786 14.7353 23.2313 14.6652 23.2459L14.663 23.2464C12.9626 23.6102 11.1297 23.6289 9.34161 23.2464L9.33938 23.246C9.26934 23.2313 9.24109 23.1786 9.24109 23.1435V20.7629V20.4219L8.91781 20.3137C7.84491 19.9544 6.85489 19.4067 5.99539 18.6989L5.74686 18.4942L5.46508 18.6499L3.31184 19.8402L3.31007 19.8412C3.25712 19.8708 3.17774 19.86 3.13326 19.814L2.79294 20.1435ZM2.79294 20.1435C2.98501 20.3419 3.29839 20.3903 3.54101 20.2548L0.306109 14.8887C0.0584365 15.0242 -0.0527633 15.3048 0.0281093 15.5661C0.589163 17.2887 1.54447 18.8467 2.79294 20.1435Z" stroke="#C7C6C8" stroke-width="0.947368"/>
  <circle cx="12" cy="12" r="4.5" stroke="#C7C6C8"/>
  </svg>
  