<svg width="200" height="201" viewBox="0 0 200 201" fill="none" xmlns="http://www.w3.org/2000/svg">
  <path fill-rule="evenodd" clip-rule="evenodd" d="M71.0175 36.4345C17.326 60.4603 16.0528 137.651 68.926 163.228C75.1048 166.216 75.3335 166.142 73.4467 161.762C67.76 148.56 63.0475 125.662 66.276 126.919C87.2303 135.078 111.679 135.317 131.318 127.555C136.912 125.344 134.772 141.31 126.834 161.008C124.716 166.265 124.783 166.309 130.616 163.449C183.793 137.386 182.927 60.6118 129.185 36.5472C124.996 34.6718 124.703 34.8885 126.388 38.6153C129.231 44.9017 132.723 57.4462 134.412 67.4408C135.669 74.8744 135.63 74.9921 132.382 73.5596C114.096 65.4942 87.6698 65.4991 66.7577 73.5712C63.1182 74.9761 66.8079 55.3244 73.1288 39.6387C75.1238 34.6885 75.0771 34.6179 71.0175 36.4345ZM110.755 84.618C143.683 89.04 148.507 107.512 118.586 114.602C89.9102 121.397 55.173 110.793 61.5252 97.1843C65.8532 87.9124 89.7886 81.8025 110.755 84.618Z" fill="white"/>
  <circle cx="100" cy="100.344" r="97.5" stroke="url(#paint0_linear_372_2546)" stroke-width="5"/>
  <defs>
  <linearGradient id="paint0_linear_372_2546" x1="200" y1="200" x2="219.11" y2="23.7577" gradientUnits="userSpaceOnUse">
  <stop stop-color="#87E826"/>
  <stop offset="1" stop-color="#41EACB"/>
  </linearGradient>
  </defs>
  </svg>
  