<svg width="24" height="21" viewBox="0 0 24 21" fill="none" xmlns="http://www.w3.org/2000/svg">
<path d="M10.9999 12V6C10.9999 5.45 11.4499 5 11.9999 5C12.5499 5 12.9999 5.45 12.9999 6V12C12.9999 12.55 12.5499 13 11.9999 13C11.4499 13 10.9999 12.55 10.9999 12ZM11.9999 14C11.1699 14 10.4999 14.67 10.4999 15.5C10.4999 16.33 11.1699 17 11.9999 17C12.8299 17 13.4999 16.33 13.4999 15.5C13.4999 14.67 12.8299 14 11.9999 14ZM23.5799 18.88C22.8799 20.23 21.4099 21 19.5699 21H4.4399C2.5899 21 1.1299 20.23 0.429904 18.88C-0.280096 17.52 -0.0800958 15.78 0.929904 14.32L8.9699 1.6C9.6799 0.58 10.7999 0 11.9999 0C13.1999 0 14.3199 0.58 14.9999 1.57L23.0799 14.34C24.0899 15.8 24.2799 17.53 23.5699 18.88H23.5799ZM21.4299 15.46C21.4299 15.46 21.4099 15.44 21.4099 15.42L13.3399 2.67C13.0499 2.26 12.5499 2 11.9999 2C11.4499 2 10.9499 2.26 10.6399 2.71L2.5899 15.42C1.9699 16.3 1.8299 17.26 2.1899 17.95C2.5399 18.63 3.3399 19 4.4299 19H19.5499C20.6399 19 21.4399 18.63 21.7899 17.95C22.1499 17.26 22.0099 16.3 21.4199 15.46H21.4299Z" fill="#8D93A6"/>
</svg>
